<svg xmlns="http://www.w3.org/2000/svg" width="214.657" height="200.409" viewBox="0 0 214.657 200.409">
  <g id="about_us" transform="translate(-88.999 -129.871)">
    <g id="حول_التطبيق" data-name="حول التطبيق" transform="translate(-1570.281 -394.286)">
      <path id="Path_82057" data-name="Path 82057" d="M2006.763,639.225s-2.053-5.673.341-9.569,11-9.431,8.573-14.213-8.691-4.606-10.864-1.855-.448,5.194-2.079,5.736-11.3,2.244-11.295-3.427,5.233-14.242,13.5-15.561,19.314-2.618,23.085,7.883.225,15.27-5.286,18.809-1.976,9.527-3.994,10.669S2007.258,641.086,2006.763,639.225Z" transform="translate(-287.055 -65.077)" fill="#3183c5"/>
      <path id="Path_82058" data-name="Path 82058" d="M2099.056,921.67c.068-4.552,2.324-7.676,6.335-8.187s7.614,1.124,9.281,6.155c1.273,3.838-3.418,7.854-7.427,8.366S2099,925.712,2099.056,921.67Z" transform="translate(-380.057 -336.381)" fill="#3183c5"/>
      <path id="Path_82059" data-name="Path 82059" d="M2014.31,613.041a12.235,12.235,0,0,0-9.9-8.41c-4.25-.815-9.067-.177-13.247.49a14.313,14.313,0,0,0-1.486.315c-7.505,2.055-12.054,10.016-12.056,15.294a3.466,3.466,0,0,0,1.452,2.975c1.485,1.073,3.829,1.222,5.535,1.158a18.918,18.918,0,0,0,4.379-.654,1.063,1.063,0,0,0,.608-.462,3.147,3.147,0,0,0,.262-1.445,5.966,5.966,0,0,1,1.236-3.847,5.186,5.186,0,0,1,2.888-1.718,7.257,7.257,0,0,1,2.4-.159,6.774,6.774,0,0,1,5.48,3.724c1.66,3.268-1.916,6.917-5.07,10.135a26.633,26.633,0,0,0-3.5,4.023c-2.361,3.844-.4,9.473-.346,9.615a.827.827,0,0,0,.531.519,4.435,4.435,0,0,0,1.621.231,29.968,29.968,0,0,0,9.913-2.249c.032-.018.063-.037.092-.058.694-.479.667-1.579.631-2.955-.058-2.308-.135-5.468,3.271-7.657,3.271-2.1,5.167-4.21,6.149-6.819C2016.349,621.89,2016.075,617.948,2014.31,613.041Zm.737,12.015c-.972,2.594-2.851,4.679-6.111,6.765-3.461,2.223-3.381,5.419-3.322,7.752.035,1.4.064,2.5-.668,2.916-.136.073-.286.151-.465.229a30.52,30.52,0,0,1-9.395,2,4.356,4.356,0,0,1-1.579-.22.725.725,0,0,1-.467-.448h0c-.02-.057-2.016-5.694.335-9.523a26.561,26.561,0,0,1,3.484-4c3.18-3.246,6.79-6.925,5.09-10.263a6.881,6.881,0,0,0-5.568-3.782c-.248-.024-.494-.037-.738-.037a7.282,7.282,0,0,0-1.366.128A5.438,5.438,0,0,0,1991,618.4a6.1,6.1,0,0,0-1.259,3.911,2.65,2.65,0,0,1-.3,1.477.986.986,0,0,1-.49.33,18.944,18.944,0,0,1-4.345.648c-1.688.063-4.007-.083-5.466-1.136a3.369,3.369,0,0,1-1.408-2.887c0-5.065,4.222-12.619,11.233-14.962a13.739,13.739,0,0,1,2.217-.543c9.246-1.476,19.418-2.208,23.028,7.847,1.759,4.878,2.03,8.8.841,11.971Z" transform="translate(-275.111 -69.215)" fill="#66192d"/>
      <path id="Path_82060" data-name="Path 82060" d="M2100.929,924.431c-1.514-4.569-4.831-6.769-9.34-6.193-.224.029-.442.065-.657.111a6.664,6.664,0,0,0-4.027,2.488,9.5,9.5,0,0,0-1.7,5.642,5.845,5.845,0,0,0,2.059,4.481,7.889,7.889,0,0,0,5.219,1.964,7.8,7.8,0,0,0,.973-.061,9.416,9.416,0,0,0,3.185-1.056,9.749,9.749,0,0,0,3.621-3.248A4.789,4.789,0,0,0,2100.929,924.431Zm-.761,4.074a9.755,9.755,0,0,1-4.073,3.456,9,9,0,0,1-2.66.8,7.789,7.789,0,0,1-6.111-1.874,5.768,5.768,0,0,1-2.021-4.4,9.385,9.385,0,0,1,1.678-5.577,6.506,6.506,0,0,1,3.593-2.361,8.036,8.036,0,0,1,1.016-.2,10.639,10.639,0,0,1,1.358-.088c3.76,0,6.527,2.165,7.866,6.207a4.657,4.657,0,0,1-.648,4.042Z" transform="translate(-368.088 -340.489)" fill="#66192d"/>
      <path id="Path_82061" data-name="Path 82061" d="M2541.7,554.974s-.562-4.821,2.03-7.431,10.352-5.358,9.331-9.55-5.959-5.209-8.16-3.453-1.308,3.985-2.685,4.109-9.26-.325-8.213-4.765,6.72-10.184,13.434-9.7,15.607,1.509,16.628,10.427-2.636,12-7.6,13.753-3.3,7.1-5.092,7.619S2541.744,556.518,2541.7,554.974Z" transform="translate(-755.859 0)" fill="#553e93"/>
      <path id="Path_82062" data-name="Path 82062" d="M2571.219,780.772c.891-3.552,3.235-5.583,6.469-5.244s5.755,2.283,6.134,6.53c.289,3.24-4.124,5.521-7.359,5.183S2570.427,783.926,2571.219,780.772Z" transform="translate(-787.987 -217.205)" fill="#553e93"/>
      <path id="Path_82063" data-name="Path 82063" d="M2552.413,535.89a9.844,9.844,0,0,0-6.206-8.41c-3.176-1.424-7.061-1.809-10.456-2.056a11.278,11.278,0,0,0-1.222-.022c-6.253.227-11.28,5.62-12.252,9.754a2.788,2.788,0,0,0,.589,2.6c1.779,2.05,6.494,2.326,7.671,2.22a.845.845,0,0,0,.561-.25,2.525,2.525,0,0,0,.472-1.086,4.8,4.8,0,0,1,1.675-2.785,4.139,4.139,0,0,1,2.58-.815,5.832,5.832,0,0,1,1.9.318,5.448,5.448,0,0,1,3.605,3.924c.7,2.865-2.774,5.064-5.839,7a21.514,21.514,0,0,0-3.482,2.505,8.109,8.109,0,0,0-2,4.722,13.021,13.021,0,0,0-.043,2.744.665.665,0,0,0,.32.5c.866.631,3.334.862,5.568.862a18.063,18.063,0,0,0,3.838-.316.809.809,0,0,0,.08-.029c.635-.246.815-1.112,1.042-2.2.379-1.818.9-4.309,3.972-5.394,2.948-1.042,4.821-2.338,6.071-4.21C2552.379,543.2,2552.891,540.058,2552.413,535.89Zm-1.636,9.549c-1.24,1.852-3.1,3.139-6.028,4.174-3.123,1.1-3.646,3.619-4.029,5.458-.23,1.1-.408,1.97-1.061,2.16a4.059,4.059,0,0,1-.408.094c-2.11.394-7.6.335-8.917-.626a.583.583,0,0,1-.283-.437h0a12.985,12.985,0,0,1,.042-2.727,8.034,8.034,0,0,1,1.974-4.669,21.123,21.123,0,0,1,3.467-2.493c3.088-1.955,6.589-4.172,5.877-7.1a5.539,5.539,0,0,0-3.666-3.988,5.928,5.928,0,0,0-1.664-.316h-.242a4.269,4.269,0,0,0-2.662.833,4.949,4.949,0,0,0-1.707,2.83,2.113,2.113,0,0,1-.512,1.1.786.786,0,0,1-.442.167c-1.166.1-5.839-.164-7.6-2.19a2.71,2.71,0,0,1-.57-2.52c.933-3.962,5.623-9.1,11.542-9.641h0a11.014,11.014,0,0,1,1.847-.019c7.513.543,15.61,1.847,16.587,10.388C2552.8,540.047,2552.293,543.165,2550.776,545.439Z" transform="translate(-745.724 -1.07)" fill="#66192d"/>
      <path id="Path_82064" data-name="Path 82064" d="M2572.09,783.354c-.345-3.855-2.542-6.191-6.173-6.571-.183-.019-.362-.03-.543-.033h0c-2.9-.065-5.115,1.885-5.975,5.311a4.72,4.72,0,0,0,.784,3.893,6.311,6.311,0,0,0,5.16,2.664,8.195,8.195,0,0,0,5.453-2.148A3.844,3.844,0,0,0,2572.09,783.354Zm-1.347,3.051a7.893,7.893,0,0,1-3.82,1.955,7.255,7.255,0,0,1-2.231.136,6.268,6.268,0,0,1-4.435-2.592,4.665,4.665,0,0,1-.771-3.823,7.544,7.544,0,0,1,2.342-4.057,5.214,5.214,0,0,1,3.241-1.184h.167a6.241,6.241,0,0,1,.679.035c3.591.375,5.755,2.681,6.094,6.49A3.8,3.8,0,0,1,2570.744,786.4Z" transform="translate(-777.773 -218.291)" fill="#66192d"/>
      <path id="Path_82065" data-name="Path 82065" d="M2795.805,855.538s-.208-4.849,2.57-7.262,10.717-4.582,10.007-8.839-5.559-5.633-7.876-4.043-1.6,3.878-2.988,3.9-9.209-1-7.839-5.348,7.451-9.666,14.11-8.691,15.454,2.651,15.816,11.62-3.51,11.773-8.6,13.158-3.813,6.834-5.638,7.224S2795.736,857.083,2795.805,855.538Z" transform="translate(-976.761 -260.111)" fill="#ffba41"/>
      <path id="Path_82066" data-name="Path 82066" d="M2810.556,1079.812c1.15-3.476,3.635-5.328,6.837-4.753s5.567,2.7,5.637,6.963c.05,3.259-4.52,5.2-7.72,4.628S2809.535,1082.9,2810.556,1079.812Z" transform="translate(-994.745 -476.004)" fill="#ffba41"/>
      <path id="Path_82067" data-name="Path 82067" d="M2807.808,837.3a9.847,9.847,0,0,0-5.567-8.843c-3.064-1.654-6.915-2.323-10.283-2.819a11.474,11.474,0,0,0-1.208-.113c-6.26-.24-11.678,4.775-12.952,8.826a2.788,2.788,0,0,0,.4,2.634c1.623,2.173,6.307,2.8,7.487,2.778a.852.852,0,0,0,.578-.208,2.465,2.465,0,0,0,.543-1.044,4.8,4.8,0,0,1,1.877-2.655,4.175,4.175,0,0,1,2.634-.622,5.844,5.844,0,0,1,1.874.456,5.45,5.45,0,0,1,3.307,4.18c.486,2.909-3.139,4.846-6.336,6.555a21.489,21.489,0,0,0-3.657,2.243,8.115,8.115,0,0,0-2.341,4.561,13.135,13.135,0,0,0-.245,2.734.666.666,0,0,0,.283.527c1.094.926,5.1,1.358,7.6,1.358a9.566,9.566,0,0,0,1.737-.115.641.641,0,0,0,.081-.022c.652-.2.9-1.051,1.2-2.116.512-1.786,1.212-4.231,4.357-5.088,3.017-.815,4.979-1.977,6.363-3.749C2807.238,844.587,2807.978,841.495,2807.808,837.3Zm-2.334,9.4c-1.372,1.756-3.32,2.9-6.317,3.719-3.193.869-3.9,3.342-4.42,5.148-.31,1.086-.554,1.934-1.222,2.075a4.264,4.264,0,0,1-.422.065c-2.139.235-7.6-.227-8.842-1.282a.58.58,0,0,1-.251-.456h0a13.149,13.149,0,0,1,.243-2.716,8.065,8.065,0,0,1,2.309-4.51,21.434,21.434,0,0,1,3.641-2.231c3.223-1.723,6.877-3.676,6.382-6.654a5.537,5.537,0,0,0-3.361-4.245,5.889,5.889,0,0,0-1.639-.438h0a5.255,5.255,0,0,0-.632-.038,4.117,4.117,0,0,0-2.32.649,4.938,4.938,0,0,0-1.91,2.7,2.122,2.122,0,0,1-.59,1.059.792.792,0,0,1-.456.136c-1.174.02-5.812-.593-7.414-2.743a2.712,2.712,0,0,1-.383-2.554c1.222-3.886,6.285-8.668,12.233-8.771a11.112,11.112,0,0,1,1.828.117c7.452,1.1,15.431,2.987,15.779,11.579C2807.888,841.472,2807.152,844.55,2805.474,846.7Z" transform="translate(-966.491 -260.439)" fill="#66192d"/>
      <path id="Path_82068" data-name="Path 82068" d="M2805.547,1075.451c-.179-.031-.356-.055-.531-.073-2.894-.28-5.244,1.5-6.355,4.858a4.715,4.715,0,0,0,.5,3.938,6.365,6.365,0,0,0,4.292,2.953,6.923,6.923,0,0,0,1.193.1,8.216,8.216,0,0,0,1.5-.136,7.828,7.828,0,0,0,3.564-1.62,3.86,3.86,0,0,0,1.51-3.012C2811.161,1078.586,2809.146,1076.1,2805.547,1075.451Zm4.107,9.951a7.88,7.88,0,0,1-3.961,1.67,7.227,7.227,0,0,1-2.227-.028,6.272,6.272,0,0,1-4.233-2.913,4.851,4.851,0,0,1-.709-2.485,4.375,4.375,0,0,1,.222-1.382,7.535,7.535,0,0,1,2.633-3.874,5.188,5.188,0,0,1,3.046-.951h.282a6.8,6.8,0,0,1,.826.094c3.552.638,5.542,3.1,5.6,6.925A3.764,3.764,0,0,1,2809.654,1085.4Z" transform="translate(-984.464 -476.345)" fill="#66192d"/>
      <path id="Path_82069" data-name="Path 82069" d="M2953.532,591.426s-.125-2.932,1.555-4.391,6.479-2.77,6.051-5.345a3.32,3.32,0,0,0-4.767-2.444c-1.4.961-.967,2.345-1.8,2.359s-5.567-.608-4.742-3.239,4.506-5.839,8.533-5.252,9.345,1.6,9.563,7.027-2.122,7.12-5.2,7.958-2.309,4.132-3.41,4.368S2953.49,592.359,2953.532,591.426Z" transform="translate(-1115.217 -42.248)" fill="#3183c5"/>
      <path id="Path_82070" data-name="Path 82070" d="M2962.45,727.036c.7-2.1,2.2-3.222,4.135-2.875a3.923,3.923,0,0,1,3.408,4.21c.03,1.966-2.732,3.146-4.667,2.8S2961.833,728.9,2962.45,727.036Z" transform="translate(-1126.091 -172.792)" fill="#3183c5"/>
      <path id="Path_82071" data-name="Path 82071" d="M2960.765,580.393a5.953,5.953,0,0,0-3.369-5.347,19.263,19.263,0,0,0-6.218-1.706,6.968,6.968,0,0,0-.744-.068h0a8.475,8.475,0,0,0-7.817,5.338,1.689,1.689,0,0,0,.24,1.593c.982,1.316,3.816,1.692,4.527,1.68a.507.507,0,0,0,.35-.126,1.541,1.541,0,0,0,.332-.631,2.907,2.907,0,0,1,1.134-1.605,2.524,2.524,0,0,1,1.593-.375,3.515,3.515,0,0,1,1.134.272,3.3,3.3,0,0,1,2,2.527c.293,1.759-1.9,2.93-3.832,3.964a12.844,12.844,0,0,0-2.211,1.358,4.909,4.909,0,0,0-1.417,2.758,7.966,7.966,0,0,0-.147,1.654.406.406,0,0,0,.171.318c.661.561,3.085.815,4.6.815a5.78,5.78,0,0,0,1.051-.071l.047-.014c.394-.118.543-.634.728-1.279a3.728,3.728,0,0,1,2.635-3.076,6.8,6.8,0,0,0,3.847-2.268C2960.421,584.8,2960.867,582.928,2960.765,580.393Zm-1.412,5.683a6.751,6.751,0,0,1-3.82,2.249,3.765,3.765,0,0,0-2.672,3.112c-.188.654-.335,1.17-.736,1.256a2.45,2.45,0,0,1-.252.038c-1.29.144-4.595-.136-5.35-.774a.354.354,0,0,1-.152-.272h0a7.924,7.924,0,0,1,.148-1.644,4.858,4.858,0,0,1,1.4-2.727,13.113,13.113,0,0,1,2.2-1.348c1.95-1.043,4.159-2.223,3.861-4.021a3.348,3.348,0,0,0-2.037-2.566,3.579,3.579,0,0,0-.991-.272,3.356,3.356,0,0,0-.383-.023,2.486,2.486,0,0,0-1.4.392,2.991,2.991,0,0,0-1.154,1.629,1.306,1.306,0,0,1-.356.641.483.483,0,0,1-.271.082h-.031c-.756,0-3.5-.378-4.453-1.659a1.629,1.629,0,0,1-.23-1.544,8.449,8.449,0,0,1,7.384-5.3,6.519,6.519,0,0,1,1.119.069c4.505.664,9.332,1.807,9.54,7C2960.814,582.917,2960.37,584.773,2959.353,586.076Z" transform="translate(-1108.982 -42.442)" fill="#66192d"/>
      <path id="Path_82072" data-name="Path 82072" d="M2959.437,724.4c-.107-.019-.215-.034-.319-.045-1.75-.17-3.175.907-3.845,2.937a2.858,2.858,0,0,0,.3,2.383,3.845,3.845,0,0,0,2.6,1.786,4.056,4.056,0,0,0,.722.062,4.867,4.867,0,0,0,.9-.087,4.725,4.725,0,0,0,2.162-.979,2.334,2.334,0,0,0,.914-1.821A3.967,3.967,0,0,0,2959.437,724.4Zm2.483,6.017a4.762,4.762,0,0,1-2.392,1.009,4.4,4.4,0,0,1-1.35-.016,3.793,3.793,0,0,1-2.56-1.765,2.806,2.806,0,0,1-.295-2.338,4.553,4.553,0,0,1,1.592-2.344,3.136,3.136,0,0,1,1.843-.576h.172a4.106,4.106,0,0,1,3.884,4.242A2.282,2.282,0,0,1,2961.921,730.421Z" transform="translate(-1119.89 -173.001)" fill="#66192d"/>
      <path id="Path_82073" data-name="Path 82073" d="M1988.6,1166.667s-2.347-3.379-1.454-6.366,5.6-8.147,3.157-10.863-6.537-1.511-7.479.679.615,3.5-.364,4.143-7.051,3.46-8.043-.272.95-10.3,6.164-12.619,12.266-5.111,16.595,1.146,2.826,10.022-.186,13.319.369,6.624-.76,7.731S1989.252,1167.8,1988.6,1166.667Z" transform="translate(-272.128 -531.09)" fill="#ffba41"/>
      <path id="Path_82074" data-name="Path 82074" d="M2089.793,1355.014c-.754-3.012.185-5.466,2.737-6.506s5.214-.593,7.2,2.429c1.511,2.309-.874,5.774-3.427,6.816S2090.463,1357.687,2089.793,1355.014Z" transform="translate(-371.834 -711.973)" fill="#ffba41"/>
      <path id="Path_82075" data-name="Path 82075" d="M1989,1147.975a8.338,8.338,0,0,0-8-3.8,26.991,26.991,0,0,0-8.642,2.647,9.435,9.435,0,0,0-.929.477,11.873,11.873,0,0,0-5.257,12.186,2.365,2.365,0,0,0,1.48,1.705,6.411,6.411,0,0,0,3.848-.206,12.962,12.962,0,0,0,2.771-1.2.729.729,0,0,0,.319-.408,2.232,2.232,0,0,0-.08-1,4.082,4.082,0,0,1,.136-2.751,3.525,3.525,0,0,1,1.6-1.638,4.97,4.97,0,0,1,1.549-.526,4.618,4.618,0,0,1,4.264,1.494c1.667,1.862-.049,4.889-1.563,7.568a18.46,18.46,0,0,0-1.6,3.259c-.881,2.947,1.4,6.312,1.458,6.4a.566.566,0,0,0,.442.249,1.512,1.512,0,0,0,.2.012,11.167,11.167,0,0,0,3.627-1.24,17.135,17.135,0,0,0,3.423-2.124.7.7,0,0,0,.049-.054c.375-.439.165-1.158-.1-2.059-.442-1.51-1.05-3.578.815-5.619a9.51,9.51,0,0,0,2.852-5.567C1991.9,1153.45,1991.024,1150.9,1989,1147.975Zm2.593,7.788a9.475,9.475,0,0,1-2.837,5.528c-1.892,2.071-1.278,4.163-.83,5.691.271.914.48,1.636.072,2.037a3.412,3.412,0,0,1-.281.243,20.45,20.45,0,0,1-3.123,1.867,8.667,8.667,0,0,1-3.781,1.222.494.494,0,0,1-.387-.212h0c-.023-.032-2.327-3.395-1.448-6.333a17.946,17.946,0,0,1,1.594-3.248c1.526-2.7,3.259-5.752,1.553-7.655a4.663,4.663,0,0,0-3.516-1.583,5.068,5.068,0,0,0-.815.068,5,5,0,0,0-1.371.429,3.686,3.686,0,0,0-1.837,1.778,4.184,4.184,0,0,0-.144,2.8,1.813,1.813,0,0,1,.058,1.027.668.668,0,0,1-.272.3,12.89,12.89,0,0,1-2.752,1.191,6.368,6.368,0,0,1-3.8.209,2.294,2.294,0,0,1-1.433-1.655,11.85,11.85,0,0,1,4.784-11.833,9.486,9.486,0,0,1,1.358-.743c5.839-2.594,12.4-4.859,16.551,1.134,2.018,2.9,2.885,5.437,2.664,7.739Z" transform="translate(-265.003 -535.797)" fill="#66192d"/>
      <path id="Path_82076" data-name="Path 82076" d="M2091.589,1356.452c-1.8-2.744-4.37-3.612-7.24-2.444-.136.058-.28.121-.407.188a4.707,4.707,0,0,0-2.6,4.442,7.939,7.939,0,0,0,.251,1.92,4.009,4.009,0,0,0,2.143,2.6,5.3,5.3,0,0,0,2.387.561,5.373,5.373,0,0,0,2.027-.394,6.372,6.372,0,0,0,1.9-1.248,6.641,6.641,0,0,0,1.822-2.78A3.256,3.256,0,0,0,2091.589,1356.452Zm.213,2.819a6.627,6.627,0,0,1-2.076,2.987,6.11,6.11,0,0,1-1.609.99,5.316,5.316,0,0,1-4.345-.165,3.909,3.909,0,0,1-2.1-2.547,6.385,6.385,0,0,1,.128-3.969,4.429,4.429,0,0,1,1.943-2.184,5.548,5.548,0,0,1,.637-.308c2.832-1.154,5.372-.3,7.149,2.414a3.2,3.2,0,0,1,.277,2.782Z" transform="translate(-364.748 -716.726)" fill="#66192d"/>
      <path id="Path_82077" data-name="Path 82077" d="M3055.593,1290.1s1.18-2.687,3.331-3.259,7.039.369,7.787-2.131a3.32,3.32,0,0,0-3.2-4.3c-1.685.243-1.9,1.68-2.656,1.323s-4.733-3-2.829-5,6.62-3.259,9.974-.951,7.682,5.558,5.489,10.524-5.043,5.455-8.174,4.851-3.892,2.694-4.985,2.42S3055.145,1290.923,3055.593,1290.1Z" transform="translate(-1206.674 -648.498)" fill="#3183c5"/>
      <path id="Path_82078" data-name="Path 82078" d="M3021.459,1406.979c1.551-1.581,3.395-1.924,4.978-.759a3.924,3.924,0,0,1,1.2,5.282c-.839,1.779-3.839,1.621-5.423.456S3020.082,1408.383,3021.459,1406.979Z" transform="translate(-1176.527 -761.688)" fill="#3183c5"/>
      <path id="Path_82079" data-name="Path 82079" d="M3066.23,1277.151a19.279,19.279,0,0,0-4.831-4.272,6.957,6.957,0,0,0-.633-.385,8.459,8.459,0,0,0-9.37,1.343,1.684,1.684,0,0,0-.486,1.534c.3,1.616,2.677,3.2,3.323,3.5a.513.513,0,0,0,.371.041,1.529,1.529,0,0,0,.576-.421,2.888,2.888,0,0,1,1.725-.94,2.519,2.519,0,0,1,1.594.364,3.528,3.528,0,0,1,.9.747,3.292,3.292,0,0,1,.679,3.15c-.512,1.708-3,1.794-5.187,1.868a12.974,12.974,0,0,0-2.58.243,4.91,4.91,0,0,0-2.486,1.852,8.065,8.065,0,0,0-.862,1.419.407.407,0,0,0,.012.361c.454,1.036,3.823,2.929,4.741,3.16l.056.011h.03c.392.037.744-.352,1.181-.834a3.732,3.732,0,0,1,3.72-1.6,6.811,6.811,0,0,0,4.454-.338c1.494-.725,2.716-2.207,3.748-4.527A5.954,5.954,0,0,0,3066.23,1277.151Zm.618,6.263c-1.02,2.309-2.238,3.781-3.722,4.5a6.757,6.757,0,0,1-4.42.335,3.783,3.783,0,0,0-3.772,1.617c-.455.5-.814.9-1.213.8a1.962,1.962,0,0,1-.243-.076c-1.222-.439-4.064-2.147-4.461-3.053a.358.358,0,0,1-.015-.315h0a7.907,7.907,0,0,1,.855-1.41,4.855,4.855,0,0,1,2.457-1.833,13.107,13.107,0,0,1,2.572-.24c2.21-.078,4.712-.162,5.236-1.9a3.35,3.35,0,0,0-.693-3.2,3.576,3.576,0,0,0-.778-.679,2.875,2.875,0,0,0-1.271-.464,2.059,2.059,0,0,0-.49.009,3.047,3.047,0,0,0-1.756.951,1.276,1.276,0,0,1-.6.417.462.462,0,0,1-.283-.047c-.64-.3-3-1.87-3.294-3.464a1.639,1.639,0,0,1,.474-1.494,8.453,8.453,0,0,1,8.969-1.5,6.7,6.7,0,0,1,.969.554C3065.12,1275.505,3068.947,1278.659,3066.848,1283.414Z" transform="translate(-1200.939 -645.973)" fill="#66192d"/>
      <path id="Path_82080" data-name="Path 82080" d="M3019.788,1403.37c-.09-.065-.181-.128-.271-.182a3.314,3.314,0,0,0-1.438-.5,4.133,4.133,0,0,0-3.3,1.439,2.851,2.851,0,0,0-.782,2.271,3.842,3.842,0,0,0,1.542,2.747,4.56,4.56,0,0,0,1.474.7,5.274,5.274,0,0,0,.9.167,4.351,4.351,0,0,0,1.465-.1,2.329,2.329,0,0,0,1.621-1.232A3.975,3.975,0,0,0,3019.788,1403.37Zm1.164,5.3a2.282,2.282,0,0,1-1.589,1.2,4.776,4.776,0,0,1-2.589-.147,4.364,4.364,0,0,1-1.206-.612,3.788,3.788,0,0,1-1.523-2.708,2.805,2.805,0,0,1,.766-2.23,4.564,4.564,0,0,1,2.462-1.4,3.162,3.162,0,0,1,2.055.372,4.272,4.272,0,0,1,.427.272,3.915,3.915,0,0,1,1.2,5.247Z" transform="translate(-1170.741 -759.224)" fill="#66192d"/>
      <path id="Path_82081" data-name="Path 82081" d="M3097.234,978.3s1.594-2.464,3.8-2.684,6.89,1.494,8.028-.861A3.32,3.32,0,0,0,3106.59,970c-1.7-.03-2.145,1.358-2.835.881s-4.193-3.715-1.995-5.383,7.061-2.164,10,.649,6.7,6.711,3.74,11.264-5.848,4.58-8.842,3.486-4.272,2.037-5.308,1.593S3096.661,979.034,3097.234,978.3Z" transform="translate(-1242.639 -380.238)" fill="#553e93"/>
      <path id="Path_82082" data-name="Path 82082" d="M3057.064,1084.161c1.783-1.313,3.657-1.358,5.035.045a3.927,3.927,0,0,1,.347,5.407c-1.113,1.621-4.048.987-5.432-.417S3055.479,1085.328,3057.064,1084.161Z" transform="translate(-1206.991 -483.099)" fill="#553e93"/>
      <path id="Path_82083" data-name="Path 82083" d="M3109.727,967.228a19.279,19.279,0,0,0-4.087-4.988,6.575,6.575,0,0,0-.562-.481,8.46,8.46,0,0,0-9.47-.17,1.685,1.685,0,0,0-.726,1.438c.041,1.642,2.133,3.585,2.723,3.988a.513.513,0,0,0,.358.1,1.5,1.5,0,0,0,.635-.325,2.915,2.915,0,0,1,1.855-.653,2.514,2.514,0,0,1,1.517.615,3.523,3.523,0,0,1,.764.88,3.291,3.291,0,0,1,.17,3.218c-.776,1.6-3.242,1.293-5.418,1.018a12.982,12.982,0,0,0-2.589-.172c-2.185.217-3.786,2.634-3.827,2.7a.407.407,0,0,0-.044.359c.282,1.1,3.3,3.5,4.175,3.875l.052.019a.548.548,0,0,0,.172.027,2.274,2.274,0,0,0,1.157-.653,3.732,3.732,0,0,1,3.928-.986,6.8,6.8,0,0,0,4.451.375c1.593-.477,3.039-1.744,4.422-3.871A5.948,5.948,0,0,0,3109.727,967.228Zm-.389,6.282c-1.375,2.117-2.812,3.376-4.393,3.85a6.758,6.758,0,0,1-4.417-.375,3.778,3.778,0,0,0-3.98.994c-.531.425-.951.76-1.325.6a2.388,2.388,0,0,1-.23-.115c-1.137-.63-3.667-2.767-3.915-3.723a.349.349,0,0,1,.037-.312h0c.017-.025,1.612-2.456,3.787-2.672.136-.014.288-.019.444-.019a18.44,18.44,0,0,1,2.133.191c2.193.272,4.679.591,5.473-1.048a3.349,3.349,0,0,0-.174-3.27,3.552,3.552,0,0,0-.656-.788,2.63,2.63,0,0,0-1.67-.732h-.052a3,3,0,0,0-1.833.664,1.279,1.279,0,0,1-.663.317.487.487,0,0,1-.271-.092c-.584-.4-2.659-2.325-2.7-3.946a1.63,1.63,0,0,1,.7-1.395,8.447,8.447,0,0,1,9.1-.053h0a6.874,6.874,0,0,1,.865.7c3.295,3.144,6.57,6.871,3.735,11.226Z" transform="translate(-1237.305 -376.852)" fill="#66192d"/>
      <path id="Path_82084" data-name="Path 82084" d="M3056.025,1080.363c-.076-.078-.154-.151-.234-.22a3.237,3.237,0,0,0-2.155-.823,4.578,4.578,0,0,0-2.682,1,2.851,2.851,0,0,0-1.133,2.118,3.848,3.848,0,0,0,1.086,2.958,4.578,4.578,0,0,0,1.348.925,4.911,4.911,0,0,0,2,.459,2.507,2.507,0,0,0,.322-.014,2.367,2.367,0,0,0,1.8-.95A3.976,3.976,0,0,0,3056.025,1080.363Zm.305,5.41a2.285,2.285,0,0,1-1.765.936,4.755,4.755,0,0,1-2.535-.56,4.46,4.46,0,0,1-1.087-.8,3.793,3.793,0,0,1-1.07-2.916,2.8,2.8,0,0,1,1.112-2.079,4.557,4.557,0,0,1,2.654-.991,3.158,3.158,0,0,1,1.973.7,3.794,3.794,0,0,1,.375.335A3.918,3.918,0,0,1,3056.33,1085.773Z" transform="translate(-1201.707 -479.776)" fill="#66192d"/>
      <path id="Path_82085" data-name="Path 82085" d="M1779.69,917.694s-1.674-2.41-1.036-4.542,3.991-5.809,2.251-7.754a3.322,3.322,0,0,0-5.337.486c-.673,1.565.44,2.5-.259,2.956s-5.024,2.469-5.739-.2.679-7.349,4.4-9,8.752-3.646,11.84.815,2.016,7.151-.136,9.505.272,4.727-.543,5.516S1780.155,918.5,1779.69,917.694Z" transform="translate(-95.158 -322.847)" fill="#553e93"/>
      <path id="Path_82086" data-name="Path 82086" d="M1851.892,1052.162c-.543-2.15.136-3.9,1.954-4.641a3.927,3.927,0,0,1,5.133,1.733c1.078,1.644-.625,4.12-2.445,4.861S1852.37,1054.063,1851.892,1052.162Z" transform="translate(-166.299 -451.983)" fill="#553e93"/>
      <path id="Path_82087" data-name="Path 82087" d="M1780.021,904.376a5.955,5.955,0,0,0-5.7-2.716,19.3,19.3,0,0,0-6.166,1.887,6.563,6.563,0,0,0-.653.334,8.469,8.469,0,0,0-3.759,8.7,1.684,1.684,0,0,0,1.055,1.222,4.589,4.589,0,0,0,2.746-.148,9.207,9.207,0,0,0,1.977-.855.512.512,0,0,0,.228-.295,1.584,1.584,0,0,0-.057-.71,2.9,2.9,0,0,1,.1-1.964,2.519,2.519,0,0,1,1.141-1.166,3.5,3.5,0,0,1,1.108-.376,3.3,3.3,0,0,1,3.043,1.063c1.189,1.329-.035,3.493-1.116,5.4a12.574,12.574,0,0,0-1.142,2.33c-.629,2.1,1,4.5,1.04,4.563a.408.408,0,0,0,.315.178,1.157,1.157,0,0,0,.136.009c1.238,0,4.378-1.765,5.024-2.4a.254.254,0,0,0,.034-.038c.272-.312.117-.827-.071-1.469a3.731,3.731,0,0,1,.58-4.009,6.821,6.821,0,0,0,2.037-3.975C1782.088,908.283,1781.465,906.463,1780.021,904.376Zm1.849,5.556a6.754,6.754,0,0,1-2.023,3.938,3.775,3.775,0,0,0-.592,4.06c.191.653.342,1.168.05,1.454a2.361,2.361,0,0,1-.19.166h0a14.485,14.485,0,0,1-2.235,1.336,6.187,6.187,0,0,1-2.7.872.354.354,0,0,1-.271-.152h0c-.016-.024-1.659-2.425-1.033-4.519a12.916,12.916,0,0,1,1.138-2.318c1.086-1.924,2.323-4.1,1.108-5.462a3.327,3.327,0,0,0-2.51-1.128,3.618,3.618,0,0,0-1.562.356,2.631,2.631,0,0,0-1.309,1.266,2.991,2.991,0,0,0-.1,2,1.276,1.276,0,0,1,.041.733.479.479,0,0,1-.187.216,9.189,9.189,0,0,1-1.964.849,4.56,4.56,0,0,1-2.716.149,1.63,1.63,0,0,1-1.022-1.181,8.459,8.459,0,0,1,3.411-8.441,6.886,6.886,0,0,1,.971-.531c4.162-1.849,8.85-3.467,11.814.815C1781.409,906.482,1782.032,908.291,1781.871,909.933Z" transform="translate(-90.12 -326.223)" fill="#66192d"/>
      <path id="Path_82088" data-name="Path 82088" d="M1853.2,1053.125a3.963,3.963,0,0,0-5.16-1.743,3.191,3.191,0,0,0-.293.136,3.359,3.359,0,0,0-1.856,3.169,5.692,5.692,0,0,0,.179,1.37,2.861,2.861,0,0,0,1.529,1.853,3.8,3.8,0,0,0,1.7.4,3.834,3.834,0,0,0,1.445-.28,4.59,4.59,0,0,0,1.366-.9,4.715,4.715,0,0,0,1.294-1.978A2.333,2.333,0,0,0,1853.2,1053.125Zm.152,2.011a4.753,4.753,0,0,1-1.48,2.133,4.387,4.387,0,0,1-1.15.707,3.788,3.788,0,0,1-3.1-.116,3.019,3.019,0,0,1-.967-.763,2.672,2.672,0,0,1-.533-1.055,4.509,4.509,0,0,1,.091-2.831,3.147,3.147,0,0,1,1.39-1.556,3.73,3.73,0,0,1,.457-.223,4.491,4.491,0,0,1,1.7-.357,4.045,4.045,0,0,1,3.4,2.08A2.277,2.277,0,0,1,1853.352,1055.136Z" transform="translate(-161.269 -455.318)" fill="#66192d"/>
      <path id="Path_82089" data-name="Path 82089" d="M2254.713,821.775c-.432-.023-.876-.035-1.318-.035h-.023a.136.136,0,0,0,0,.272h.023c.438,0,.877.011,1.3.034h.008a.136.136,0,1,0,.007-.272Zm-2.682,0c-.441.023-.891.057-1.339.1a.136.136,0,0,0,.014.272h.013c.443-.045.889-.079,1.326-.1a.136.136,0,0,0-.014-.271Zm5.349.3c-.435-.077-.881-.136-1.329-.193a.137.137,0,1,0-.03.272c.443.049.884.113,1.312.189h.023a.133.133,0,0,0,.024-.263Zm-8.019-.031c-.437.064-.883.136-1.323.221a.134.134,0,0,0,.029.265h.024c.437-.083.879-.156,1.312-.219a.136.136,0,0,0-.038-.265Zm10.625.679c-.421-.136-.856-.261-1.292-.369a.136.136,0,1,0-.064.259c.431.106.86.228,1.274.364a.145.145,0,0,0,.042,0,.136.136,0,0,0,.041-.259Zm-13.1-.087a.137.137,0,0,0-.161-.1c-.434.1-.872.214-1.3.332a.136.136,0,0,0,.035.262.1.1,0,0,0,.035,0c.426-.117.858-.227,1.291-.327a.137.137,0,0,0,.1-.163Zm-2.58.7a.136.136,0,0,0-.169-.085c-.8.259-1.249.447-1.268.453a.134.134,0,0,0,.052.258.14.14,0,0,0,.05-.011s.463-.191,1.249-.447a.135.135,0,0,0,.09-.166Zm18.163.407-.068-.034c-.375-.187-.764-.364-1.157-.526a.133.133,0,0,0-.1.247c.385.159.769.333,1.138.517l.065.033a.123.123,0,0,0,.061.015.134.134,0,0,0,.064-.251Zm1.979,1.847a4.179,4.179,0,0,0-.853-1.074.137.137,0,0,0-.143-.051.136.136,0,0,0-.037.248,3.963,3.963,0,0,1,.8,1.006.135.135,0,0,0,.117.069.121.121,0,0,0,.064-.017.136.136,0,0,0,.056-.179Zm.46,1.291a.135.135,0,0,0-.151-.083.136.136,0,0,0-.111.134,5.176,5.176,0,0,1,.089.967c0,.107,0,.219-.01.329a.136.136,0,0,0,.126.136h0a.135.135,0,0,0,.135-.126c0-.115.01-.231.01-.344a5.412,5.412,0,0,0-.085-1.01Zm-.212,2.542a.136.136,0,0,0-.161.1,10.268,10.268,0,0,1-.383,1.26.136.136,0,0,0,.078.172.142.142,0,0,0,.046.008.137.137,0,0,0,.127-.087,10.977,10.977,0,0,0,.391-1.293.136.136,0,0,0-.1-.159Zm-.362,1.882h0c-.439,0-.892.02-1.341.051a.13.13,0,1,0,.01.259h.01c.445-.03.891-.048,1.327-.05a.13.13,0,1,0,0-.259Zm2.681.152c-.437-.054-.888-.1-1.339-.121a.131.131,0,0,0-.009.262c.445.026.889.065,1.32.119h.018a.136.136,0,1,0,.016-.272Zm-5.361.027c-.437.054-.884.121-1.328.2a.136.136,0,1,0,.023.271h.023c.44-.077.882-.142,1.314-.2a.137.137,0,1,0-.033-.272Zm7.994.509c-.423-.122-.863-.229-1.306-.319a.136.136,0,1,0-.053.262c.436.088.868.193,1.287.314h.036a.13.13,0,0,0,.04-.255Zm-10.476.056a.136.136,0,0,0-.161-.1c-.43.1-.867.206-1.3.326a.133.133,0,0,0,.037.262.1.1,0,0,0,.035,0c.428-.117.861-.225,1.288-.323a.135.135,0,0,0,.086-.059.138.138,0,0,0,.018-.1Zm12.987.9c-.4-.194-.815-.373-1.235-.534a.136.136,0,0,0-.094.25c.407.156.814.333,1.213.524a.134.134,0,0,0,.058.014.133.133,0,0,0,.061-.253Zm-15.564-.208a.136.136,0,0,0-.169-.085c-.422.136-.849.284-1.267.44a.136.136,0,0,0,.046.258.131.131,0,0,0,.047-.008c.416-.155.838-.3,1.256-.436a.136.136,0,0,0,.09-.167Zm7.216-.815a.136.136,0,0,0-.179.061c-.185.383-.4.777-.626,1.168a.136.136,0,0,0,.049.183.13.13,0,0,0,.066.018.137.137,0,0,0,.115-.065c.233-.4.447-.8.635-1.187a.136.136,0,0,0-.059-.17Zm-9.724,1.734a.137.137,0,0,0-.176-.071c-.407.172-.823.356-1.222.543a.136.136,0,0,0,.056.254.147.147,0,0,0,.058-.012c.4-.187.808-.369,1.215-.543a.136.136,0,0,0,.068-.171Zm20.369.679a12.889,12.889,0,0,0-1.119-.75.136.136,0,1,0-.136.228c.376.228.746.475,1.1.736a.134.134,0,0,0,.159-.215Zm-11.978-.094a.136.136,0,0,0-.186.037c-.243.359-.5.721-.777,1.077a.134.134,0,1,0,.212.163c.271-.361.543-.728.786-1.086a.136.136,0,0,0-.027-.186Zm-10.819.543a.136.136,0,0,0-.18-.057c-.4.209-.795.428-1.175.649a.136.136,0,0,0,.068.25.139.139,0,0,0,.067-.019c.377-.22.769-.436,1.165-.643a.136.136,0,0,0,.064-.181Zm24.809,1.34c-.309-.327-.634-.642-.967-.937a.133.133,0,0,0-.177.2c.326.289.645.6.95.921a.136.136,0,0,0,.1.041.137.137,0,0,0,.1-.225Zm-27.122,0a.135.135,0,0,0-.185-.039c-.383.248-.755.506-1.107.763a.136.136,0,0,0,.08.242.145.145,0,0,0,.079-.026c.346-.255.714-.509,1.093-.755a.136.136,0,0,0,.047-.19Zm11.521.258a.136.136,0,0,0-.187.016c-.283.333-.583.667-.887.99a.133.133,0,1,0,.194.183c.307-.327.608-.664.9-1a.136.136,0,0,0,.037-.1.134.134,0,0,0-.044-.1Zm-13.681,1.312a.135.135,0,0,0-.188-.016c-.36.3-.694.608-.994.908a.134.134,0,1,0,.189.189c.295-.295.623-.595.978-.892a.135.135,0,0,0,.024-.194Zm11.862.644a.135.135,0,0,0-.188,0c-.318.307-.647.61-.979.9a.134.134,0,0,0,.088.235.139.139,0,0,0,.089-.034c.334-.293.667-.6.988-.909a.136.136,0,0,0,.051-.1.133.133,0,0,0-.04-.1Zm-13.755,1.234a.136.136,0,0,0-.188.023,6.293,6.293,0,0,0-.728,1.151.136.136,0,0,0,.064.178.148.148,0,0,0,.057.012.137.137,0,0,0,.121-.076,6.011,6.011,0,0,1,.7-1.1.136.136,0,0,0-.015-.193Zm11.755.543a.135.135,0,0,0-.188-.022c-.349.272-.707.543-1.062.8a.133.133,0,0,0,.077.242.138.138,0,0,0,.077-.025c.358-.255.72-.527,1.074-.807a.133.133,0,0,0,.06-.093.136.136,0,0,0-.029-.107Zm-2.172,1.558a.136.136,0,0,0-.185-.042c-.379.239-.766.466-1.145.671a.134.134,0,0,0,.128.235c.383-.209.774-.437,1.159-.679a.135.135,0,0,0,.053-.2Zm-10.021,1.47a1.473,1.473,0,0,1-.524-1.071.132.132,0,0,0-.264.008,1.727,1.727,0,0,0,.615,1.259.133.133,0,0,0,.087.034.136.136,0,0,0,.089-.234Zm7.689-.2a.136.136,0,0,0-.177-.066c-.407.186-.826.352-1.222.491a.133.133,0,0,0,.043.259.182.182,0,0,0,.045,0,13.138,13.138,0,0,0,1.249-.5.135.135,0,0,0,.071-.079.138.138,0,0,0-.007-.106Zm-2.513.894a.135.135,0,0,0-.159-.1,9.835,9.835,0,0,1-1.3.212.133.133,0,0,0,.015.266h.012a9.9,9.9,0,0,0,1.333-.219.136.136,0,0,0,.1-.16Zm-2.767.122a6.1,6.1,0,0,1-1.282-.239.133.133,0,0,0-.078.255,6.442,6.442,0,0,0,1.337.25h.011a.136.136,0,1,0,.011-.272Z" transform="translate(-504.271 -257.173)" fill="#66192d"/>
      <path id="Path_82090" data-name="Path 82090" d="M1858.087,660.82a.135.135,0,0,0-.166-.091l-.285.087a.136.136,0,0,0,.04.261.141.141,0,0,0,.039,0c.094-.03.188-.058.283-.086a.136.136,0,0,0,.08-.067A.134.134,0,0,0,1858.087,660.82Zm-1.549.509a.135.135,0,0,0-.172-.077c-.418.159-.837.331-1.24.515a.134.134,0,1,0,.111.243c.4-.181.815-.352,1.222-.508A.136.136,0,0,0,1856.537,661.329Zm-2.434,1.086a.136.136,0,0,0-.181-.054c-.394.213-.785.441-1.16.679a.136.136,0,0,0,.071.246.137.137,0,0,0,.072-.02c.371-.235.755-.459,1.143-.668a.136.136,0,0,0,.055-.181Zm-2.264,1.411a.136.136,0,0,0-.186-.029c-.361.272-.714.543-1.051.836a.134.134,0,0,0,.174.2c.331-.285.679-.563,1.036-.826a.136.136,0,0,0,.027-.185Zm-2.037,1.722a.136.136,0,0,0-.189,0c-.316.315-.625.646-.915.985a.133.133,0,0,0,.2.174c.286-.333.589-.659.9-.97a.136.136,0,0,0,0-.187Zm-1.753,2.01a.135.135,0,0,0-.186.029c-.272.361-.519.736-.754,1.115a.133.133,0,1,0,.227.14c.232-.372.482-.741.741-1.1A.136.136,0,0,0,1848.049,667.558Zm-1.423,2.255a.136.136,0,0,0-.179.057c-.206.4-.4.808-.57,1.222a.136.136,0,0,0,.072.174.115.115,0,0,0,.052.011.136.136,0,0,0,.124-.082c.17-.407.357-.815.56-1.2A.136.136,0,0,0,1846.626,669.813Zm-1.051,2.451a.136.136,0,0,0-.168.086c-.136.425-.264.861-.366,1.294a.135.135,0,0,0,.1.16.122.122,0,0,0,.031,0,.135.135,0,0,0,.136-.1c.1-.426.224-.854.361-1.274A.136.136,0,0,0,1845.575,672.265Zm-.642,2.588a.136.136,0,0,0-.152.111c-.068.444-.117.895-.145,1.339a.135.135,0,0,0,.123.136h.01a.136.136,0,0,0,.136-.125c.028-.437.078-.88.144-1.316A.136.136,0,0,0,1844.932,674.853Zm-.061,2.789a.136.136,0,1,0-.271,0c.009.449.041.9.091,1.343a.136.136,0,0,0,.136.118h.015a.136.136,0,0,0,.118-.148C1844.912,678.529,1844.882,678.085,1844.871,677.642Zm.641,3.9a12.107,12.107,0,0,1-.338-1.275.136.136,0,0,0-.261.054c.094.441.211.88.345,1.3a.135.135,0,0,0,.128.092.133.133,0,0,0,.041,0,.136.136,0,0,0,.085-.177Zm20.716.407a3.043,3.043,0,0,0-1.324.4.136.136,0,1,0,.128.235,2.781,2.781,0,0,1,1.212-.365.136.136,0,1,0-.011-.272Zm2.136,1.549a2.456,2.456,0,0,0-.8-1.139.134.134,0,0,0-.163.213,2.187,2.187,0,0,1,.711,1.016.133.133,0,0,0,.251-.09Zm-21.791.456a12.15,12.15,0,0,1-.595-1.177.136.136,0,0,0-.245.107,12.577,12.577,0,0,0,.609,1.2.134.134,0,1,0,.231-.134Zm17.418-.786a.136.136,0,0,0-.189-.008,8.275,8.275,0,0,0-.916,1,.133.133,0,0,0,.21.164,7.956,7.956,0,0,1,.885-.967A.136.136,0,0,0,1863.992,683.167Zm4.43,1.562a.136.136,0,0,0-.136.125,4.028,4.028,0,0,1-.288,1.253.136.136,0,0,0,.075.174.129.129,0,0,0,.05.01.136.136,0,0,0,.124-.084,4.28,4.28,0,0,0,.305-1.336.136.136,0,0,0-.134-.148Zm-20.285,1.35a11.581,11.581,0,0,1-.842-1.016.136.136,0,0,0-.25.013.135.135,0,0,0,.035.146,11.91,11.91,0,0,0,.861,1.039.136.136,0,0,0,.2-.189Zm14.17-.857a.136.136,0,0,0-.182.046,13.379,13.379,0,0,0-.626,1.195.136.136,0,0,0,.065.177.114.114,0,0,0,.056.012.137.137,0,0,0,.122-.078,12.648,12.648,0,0,1,.612-1.169A.136.136,0,0,0,1862.307,685.222Zm-12.17,2.562a11.588,11.588,0,0,1-1.048-.8.136.136,0,1,0-.174.2,12.156,12.156,0,0,0,1.073.815.129.129,0,0,0,.075.023.133.133,0,0,0,.075-.243Zm17.4-.585a.136.136,0,0,0-.188.026,5.765,5.765,0,0,1-.907.932.133.133,0,0,0,.169.206,5.883,5.883,0,0,0,.951-.976.136.136,0,0,0-.026-.189Zm-6.372.432a.135.135,0,0,0-.171.08c-.148.407-.284.845-.408,1.283a.136.136,0,0,0,.093.163.112.112,0,0,0,.035,0,.136.136,0,0,0,.136-.1c.118-.432.253-.857.4-1.264a.136.136,0,0,0-.083-.166Zm-8.69,1.386a12.513,12.513,0,0,1-1.2-.555.134.134,0,0,0-.125.236,12.662,12.662,0,0,0,1.222.566.136.136,0,0,0,.1-.247Zm13.07-.08a.135.135,0,0,0-.18-.053,8.86,8.86,0,0,1-1.2.543.136.136,0,0,0,.046.258.108.108,0,0,0,.045-.008,8.741,8.741,0,0,0,1.234-.554.136.136,0,0,0,.047-.187Zm-10.539.831c-.437-.088-.869-.2-1.283-.318a.136.136,0,1,0-.076.257c.422.124.861.232,1.306.322a.083.083,0,0,0,.026,0,.132.132,0,0,0,.02-.262Zm8.058.126a.136.136,0,0,0-.16-.1,12.994,12.994,0,0,1-1.3.234.136.136,0,1,0,.016.272h.018a12.627,12.627,0,0,0,1.325-.238.135.135,0,0,0,.093-.168Zm-5.431.212c-.429-.033-.875-.076-1.323-.136a.133.133,0,0,0-.033.265c.453.056.9.1,1.335.136h.011a.136.136,0,0,0,.01-.271Zm2.809.091a.115.115,0,0,0-.047,0,.137.137,0,0,0-.111-.05q-.641.033-1.326.021a.136.136,0,0,0,0,.272c.449,0,.887,0,1.309-.02-.078.4-.144.805-.2,1.213a.136.136,0,0,0,.114.151h.018a.136.136,0,0,0,.136-.115c.06-.441.136-.881.218-1.309a.134.134,0,0,0-.023-.106.136.136,0,0,0-.094-.055Zm-.373,2.641a.136.136,0,0,0-.136.124c-.033.441-.053.892-.06,1.342a.136.136,0,0,0,.135.136h0a.136.136,0,0,0,.136-.136c.008-.444.027-.889.06-1.327a.136.136,0,0,0-.14-.14Zm.08,2.8a.136.136,0,0,0-.272.011c.018.443.047.893.09,1.339a.136.136,0,0,0,.136.121h.012a.136.136,0,0,0,.121-.145c-.043-.443-.073-.892-.091-1.327Zm.474,3.952c-.086-.433-.163-.874-.227-1.309a.136.136,0,0,0-.264.039c.064.439.136.884.23,1.323a.136.136,0,0,0,.136.107h.026a.136.136,0,0,0,.095-.162Zm.65,2.58c-.129-.422-.25-.853-.357-1.279a.136.136,0,1,0-.258.065c.109.43.229.865.36,1.293a.136.136,0,0,0,.128.094.133.133,0,0,0,.039,0,.136.136,0,0,0,.084-.179Zm.9,2.5c-.17-.407-.331-.826-.481-1.238a.136.136,0,0,0-.251.091c.151.417.314.838.485,1.251a.136.136,0,0,0,.124.081.132.132,0,0,0,.052-.01.136.136,0,0,0,.074-.076.134.134,0,0,0,0-.106Zm1.133,2.4c-.208-.391-.407-.792-.595-1.188a.136.136,0,0,0-.242.113c.189.407.391.805.6,1.2a.136.136,0,0,0,.118.071.153.153,0,0,0,.063-.015.136.136,0,0,0,.052-.182Zm1.346,2.289c-.24-.371-.475-.751-.7-1.13a.133.133,0,1,0-.229.136c.225.382.462.766.7,1.139a.136.136,0,0,0,.113.061.129.129,0,0,0,.072-.022.136.136,0,0,0,.035-.192Zm1.541,2.166c-.272-.35-.543-.709-.794-1.067a.136.136,0,0,0-.218.155c.258.363.527.724.8,1.075a.136.136,0,0,0,.1.052.135.135,0,0,0,.081-.027.138.138,0,0,0,.052-.093.136.136,0,0,0-.031-.1Zm1.714,2.037-.033-.035c-.288-.316-.572-.639-.845-.963a.134.134,0,1,0-.2.173c.272.326.561.652.851.969l.033.037a.134.134,0,0,0,.2-.181Zm46.195.595a.135.135,0,0,0-.168-.084s-.463.155-1.275.407a.136.136,0,1,0,.078.255c.815-.249,1.278-.407,1.282-.407a.136.136,0,0,0,.08-.185Zm-2.558.792a.135.135,0,0,0-.166-.091c-.421.124-.854.246-1.285.367a.136.136,0,0,0,.035.262.11.11,0,0,0,.037,0c.432-.12.865-.243,1.287-.367a.136.136,0,0,0,.085-.073.134.134,0,0,0,0-.112Zm-41.66.359c-.36-.259-.708-.543-1.033-.815a.136.136,0,1,0-.177.2c.331.292.687.574,1.055.839a.134.134,0,0,0,.077.024.136.136,0,0,0,.077-.242Zm39.084.363a.136.136,0,0,0-.163-.1q-.618.164-1.291.338a.136.136,0,0,0,.033.262h.032c.451-.114.883-.228,1.3-.338a.136.136,0,0,0,.09-.181Zm-2.59.664a.136.136,0,0,0-.16-.1c-.421.1-.854.207-1.3.31a.136.136,0,0,0,.03.263.122.122,0,0,0,.031,0c.446-.1.88-.206,1.3-.31a.136.136,0,0,0,.094-.179Zm-34.219.321c-.407-.2-.8-.407-1.166-.625a.136.136,0,1,0-.136.229c.378.223.777.436,1.185.635a.146.146,0,0,0,.059.012.136.136,0,0,0,.058-.252Zm31.617.288a.136.136,0,0,0-.161-.1q-.639.136-1.3.281a.137.137,0,0,0,.028.272h.027q.667-.136,1.308-.282a.135.135,0,0,0,.1-.182Zm-29.158.7c-.428-.136-.847-.292-1.247-.451a.136.136,0,1,0-.1.247c.408.162.83.316,1.261.458a.117.117,0,0,0,.042.007.136.136,0,0,0,.042-.261Zm26.385-.253c-.436.087-.877.171-1.31.251a.136.136,0,1,0,.024.272h.024c.435-.08.876-.164,1.314-.251a.145.145,0,0,0-.055-.285Zm-2.623.486c-.44.075-.884.148-1.318.217a.136.136,0,0,0,.021.272h.021c.435-.068.879-.136,1.32-.219a.136.136,0,0,0,.109-.153.137.137,0,0,0-.049-.1.135.135,0,0,0-.107-.03Zm-21.2.454c-.44-.094-.874-.2-1.292-.31a.136.136,0,0,0-.069.258c.421.113.861.217,1.3.312h.028a.136.136,0,1,0,.027-.272Zm18.562-.035c-.444.064-.889.125-1.323.181a.136.136,0,1,0,.018.272h.018c.433-.056.88-.117,1.325-.182a.136.136,0,1,0-.038-.264Zm-15.941.479c-.446-.057-.888-.122-1.316-.194a.136.136,0,1,0-.043.262c.43.073.876.136,1.325.2h.018a.136.136,0,0,0,.016-.272Zm13.294-.136c-.441.05-.887.1-1.324.136a.136.136,0,1,0,.014.272h.012c.438-.042.885-.09,1.33-.136a.137.137,0,1,0-.031-.272Zm-2.652.258c-.445.037-.894.068-1.331.095a.136.136,0,0,0,.008.272h.008c.438-.027.888-.058,1.336-.1a.136.136,0,0,0,.122-.136.136.136,0,0,0-.147-.147Zm-7.993.125c-.448-.027-.893-.061-1.327-.1a.134.134,0,1,0-.024.266c.436.039.884.073,1.334.1h.008a.136.136,0,1,0,.008-.272Zm5.328.038c-.448.018-.9.031-1.335.039a.136.136,0,0,0,0,.272h0c.439-.008.891-.022,1.341-.04a.136.136,0,1,0-.011-.272Zm-2.667.048c-.449,0-.9-.011-1.332-.024a.136.136,0,0,0-.008.272c.436.013.887.022,1.339.024a.136.136,0,1,0,0-.271Z" transform="translate(-160.155 -118.022)" fill="#66192d"/>
      <path id="Path_82091" data-name="Path 82091" d="M1868.292,1053.494a.135.135,0,0,0-.186-.033s-.407.289-1.087.815a.134.134,0,0,0,.163.212c.669-.515,1.069-.8,1.073-.8a.135.135,0,0,0,.059-.089A.133.133,0,0,0,1868.292,1053.494Zm-2.136,1.63a.136.136,0,0,0-.188-.022c-.342.272-.692.561-1.039.847a.134.134,0,0,0,.17.206c.346-.286.694-.572,1.036-.844a.135.135,0,0,0,.051-.092.137.137,0,0,0-.03-.1Zm-2.061,1.705a.136.136,0,0,0-.189-.013c-.338.289-.679.586-1.009.881a.134.134,0,0,0,.178.2c.33-.295.668-.589,1-.879a.136.136,0,0,0,.015-.194Zm-2,1.775a.136.136,0,0,0-.189,0c-.329.3-.657.611-.978.916a.135.135,0,0,0,.1.23.135.135,0,0,0,.092-.037c.319-.3.647-.612.974-.914a.135.135,0,0,0,0-.2Zm-1.937,1.836a.136.136,0,0,0-.189,0c-.319.315-.635.635-.943.951a.133.133,0,0,0,.189.189c.305-.315.622-.634.939-.951A.136.136,0,0,0,1860.157,1060.439Zm-1.864,1.916a.136.136,0,0,0-.189,0c-.307.33-.611.664-.9.991a.134.134,0,0,0,.1.223.137.137,0,0,0,.1-.045c.289-.327.592-.658.9-.987a.135.135,0,0,0-.006-.179Zm-1.782,1.994a.135.135,0,0,0-.187.016c-.292.343-.58.691-.854,1.032a.133.133,0,1,0,.208.167c.271-.34.559-.679.85-1.027a.135.135,0,0,0-.017-.186Zm-1.679,2.076a.136.136,0,0,0-.187.026c-.272.359-.543.722-.794,1.078a.136.136,0,0,0,.031.186.129.129,0,0,0,.078.026.136.136,0,0,0,.109-.056c.252-.354.519-.716.79-1.073a.136.136,0,0,0-.026-.185Zm-1.559,2.173a.136.136,0,0,0-.186.037c-.25.377-.493.758-.723,1.13a.134.134,0,1,0,.228.14c.227-.369.469-.747.717-1.122a.136.136,0,0,0-.037-.182Zm-1.405,2.272a.136.136,0,0,0-.182.052c-.221.4-.433.794-.629,1.184a.136.136,0,1,0,.239.119c.193-.385.407-.781.624-1.173a.136.136,0,0,0-.052-.179Zm-1.207,2.382a.135.135,0,0,0-.176.068c-.184.416-.354.834-.508,1.242a.136.136,0,0,0,.079.172.131.131,0,0,0,.046.008.136.136,0,0,0,.125-.087c.152-.407.322-.815.5-1.222a.135.135,0,0,0-.068-.179Zm-.95,2.493a.136.136,0,0,0-.167.088c-.136.435-.248.872-.348,1.3a.136.136,0,0,0,.1.16.139.139,0,0,0,.03,0,.136.136,0,0,0,.136-.1c.1-.419.211-.851.343-1.279a.136.136,0,0,0-.095-.162Zm-.612,2.595a.136.136,0,0,0-.152.114c-.066.451-.11.9-.136,1.34a.135.135,0,0,0,.127.136h0a.136.136,0,0,0,.136-.126,12.446,12.446,0,0,1,.136-1.316.136.136,0,0,0-.111-.145Zm-.016,2.786a.136.136,0,0,0-.271.015,11.331,11.331,0,0,0,.152,1.34.136.136,0,0,0,.136.11h.023a.136.136,0,0,0,.109-.155,11.017,11.017,0,0,1-.148-1.308Zm.933,3.815a9.828,9.828,0,0,1-.474-1.222.136.136,0,0,0-.255.079,10.082,10.082,0,0,0,.487,1.26.136.136,0,0,0,.121.076.119.119,0,0,0,.057-.012.136.136,0,0,0,.064-.178Zm1.423,2.205a9.712,9.712,0,0,1-.786-1.055.136.136,0,1,0-.224.145,10.159,10.159,0,0,0,.806,1.086.136.136,0,0,0,.2-.172Zm1.945,1.766a11.3,11.3,0,0,1-1.027-.824.136.136,0,1,0-.179.2,11.256,11.256,0,0,0,1.051.845.128.128,0,0,0,.078.024.13.13,0,0,0,.078-.236Zm14.916.787a.136.136,0,0,0-.183-.045,9.5,9.5,0,0,1-.871.477.136.136,0,0,0,.058.254.138.138,0,0,0,.058-.014c.309-.151.61-.315.894-.489a.137.137,0,0,0,.043-.178Zm-12.614.5a13.179,13.179,0,0,1-1.186-.582.136.136,0,0,0-.136.234,13.273,13.273,0,0,0,1.21.593.118.118,0,0,0,.053.011.136.136,0,0,0,.053-.255Zm10.513.521a.136.136,0,0,0-.171-.083,12.58,12.58,0,0,1-1.267.368.133.133,0,0,0,.036.263.114.114,0,0,0,.032,0,12.959,12.959,0,0,0,1.294-.376.135.135,0,0,0,.076-.17Zm-8,.288c-.432-.1-.861-.213-1.276-.346a.136.136,0,1,0-.081.254c.422.136.859.255,1.3.353a.1.1,0,0,0,.03,0,.128.128,0,0,0,.028-.255Zm2.621.35c-.439-.02-.883-.06-1.319-.118a.134.134,0,0,0-.036.265c.444.058.9.1,1.342.12h0a.136.136,0,1,0,0-.272Zm2.641-.114c-.432.058-.874.1-1.317.116a.136.136,0,0,0,0,.271h0c.451-.019.9-.059,1.342-.118a.136.136,0,0,0-.035-.265Z" transform="translate(-163.792 -457.408)" fill="#66192d"/>
      <path id="Path_82092" data-name="Path 82092" d="M1687.677,825.365c-.445-.042-.9-.068-1.343-.075a.136.136,0,1,0,0,.272c.439.008.884.033,1.323.073h.012a.136.136,0,0,0,.013-.272Zm-2.687-.046c-.444.026-.894.071-1.338.136a.136.136,0,1,0,.018.272h.018c.439-.06.881-.1,1.319-.129a.136.136,0,1,0-.016-.271Zm5.336.5c-.436-.11-.878-.2-1.316-.278a.136.136,0,1,0-.046.263c.432.075.868.166,1.3.272h.033a.13.13,0,0,0,.032-.257Zm-7.841-.037a.136.136,0,0,0-.159-.1c-.432.092-.871.2-1.3.326a.136.136,0,0,0,.037.261h.037c.426-.123.86-.231,1.286-.322A.136.136,0,0,0,1682.486,825.783Zm10.392.877c-.407-.17-.838-.327-1.26-.467a.136.136,0,1,0-.084.254c.417.136.835.292,1.242.46a.131.131,0,0,0,.052.01.136.136,0,0,0,.05-.257Zm-12.961-.16a.136.136,0,0,0-.171-.08c-.407.149-.834.318-1.248.5a.136.136,0,0,0,.053.257.125.125,0,0,0,.054-.012c.408-.177.823-.342,1.232-.49A.136.136,0,0,0,1679.917,826.5Zm15.369,1.358c-.383-.225-.78-.44-1.183-.64a.135.135,0,0,0-.15-.01.136.136,0,0,0,.032.249c.4.2.788.407,1.167.631a.137.137,0,0,0,.068.018.135.135,0,0,0,.066-.251Zm-17.822-.307a.136.136,0,0,0-.179-.058c-.187.1-.379.2-.566.3s-.407.229-.61.353a.133.133,0,1,0,.139.227c.2-.121.4-.236.6-.345s.374-.2.56-.295a.136.136,0,0,0,.059-.182Zm20.03,1.859a11.44,11.44,0,0,0-1.073-.827.136.136,0,0,0-.153.22,11.474,11.474,0,0,1,1.047.805.135.135,0,0,0,.179-.2Zm-22.31-.483a.136.136,0,0,0-.188-.026c-.352.265-.7.554-1.036.858a.133.133,0,1,0,.177.2c.331-.3.679-.582,1.019-.843a.136.136,0,0,0,.027-.19Zm-1.995,1.765a.136.136,0,0,0-.189,0c-.3.319-.6.66-.884,1.013a.136.136,0,0,0,.027.2.135.135,0,0,0,.187-.019c.282-.348.575-.679.871-1a.137.137,0,0,0,.035-.1.136.136,0,0,0-.047-.094Zm-1.7,2.057a.136.136,0,0,0-.186.033c-.252.357-.5.735-.74,1.12a.133.133,0,1,0,.227.14c.236-.38.482-.752.732-1.107a.136.136,0,0,0-.033-.185Zm-1.421,2.26a.135.135,0,0,0-.182.053c-.21.384-.417.786-.614,1.192a.134.134,0,1,0,.241.117c.194-.407.4-.8.608-1.182a.136.136,0,0,0-.053-.179Zm-1.176,2.4a.135.135,0,0,0-.175.069c-.174.407-.342.824-.5,1.244a.136.136,0,0,0,.078.171.111.111,0,0,0,.048.01.136.136,0,0,0,.124-.087c.159-.415.325-.831.5-1.232a.136.136,0,0,0-.07-.174Zm-.95,2.491a.136.136,0,0,0-.168.085c-.136.417-.272.847-.408,1.279a.136.136,0,0,0,.091.166.132.132,0,0,0,.038,0,.136.136,0,0,0,.128-.1c.125-.428.258-.855.4-1.27a.136.136,0,0,0-.088-.163Zm-.759,2.562a.135.135,0,0,0-.161.1c-.109.429-.212.869-.306,1.306a.136.136,0,0,0,.1.159h.028a.135.135,0,0,0,.135-.1c.094-.434.2-.872.3-1.3a.136.136,0,0,0-.11-.157Zm-.578,2.618a.136.136,0,0,0-.155.109c-.079.437-.149.883-.213,1.322a.136.136,0,0,0,.113.151h.019a.136.136,0,0,0,.136-.114c.063-.437.135-.88.212-1.314A.136.136,0,0,0,1666.606,845.076Zm-.389,2.643a.136.136,0,0,0-.146.118c-.047.447-.088.895-.119,1.336a.136.136,0,0,0,.124.136h.009a.135.135,0,0,0,.136-.124c.031-.437.072-.884.12-1.325a.136.136,0,0,0-.122-.148Zm-1.28,3.452a6.364,6.364,0,0,0-1.358.046.136.136,0,0,0,.019.271h.019a6.009,6.009,0,0,1,1.3-.045.136.136,0,0,0,.02-.271Zm2.588.782a6.592,6.592,0,0,0-1.252-.531.136.136,0,0,0-.135.041c0-.31,0-.627.018-.942a.136.136,0,0,0-.272-.008c-.011.349-.016.7-.016,1.04v.3a.136.136,0,0,0,.135.136h0a.136.136,0,0,0,.136-.136v-.215a.137.137,0,0,0,.064.042,6.393,6.393,0,0,1,1.2.509.121.121,0,0,0,.064.016.136.136,0,0,0,.059-.259Zm-5.084-.285a.136.136,0,0,0-.178-.061,4.2,4.2,0,0,0-1.111.8.133.133,0,1,0,.189.189,3.878,3.878,0,0,1,1.04-.752.136.136,0,0,0,.059-.186Zm7.186,1.983a8.788,8.788,0,0,0-.979-.937.134.134,0,1,0-.168.208,8.489,8.489,0,0,1,.95.907.135.135,0,1,0,.2-.185Zm-3.45-.473a.136.136,0,1,0-.271.015c.025.458.063.907.111,1.338a.136.136,0,0,0,.136.12h.015a.135.135,0,0,0,.118-.147c-.046-.434-.083-.88-.108-1.332Zm-5.667.272a.136.136,0,0,0-.182.049,6.993,6.993,0,0,0-.557,1.24.136.136,0,0,0,.084.17.153.153,0,0,0,.043.007.136.136,0,0,0,.126-.091,6.741,6.741,0,0,1,.533-1.192.135.135,0,0,0,.015-.1.136.136,0,0,0-.064-.083Zm10.624,2.444a10.089,10.089,0,0,0-.679-1.171.134.134,0,0,0-.223.148,9.848,9.848,0,0,1,.66,1.141.135.135,0,0,0,.119.075.153.153,0,0,0,.059-.014.135.135,0,0,0,.073-.081.139.139,0,0,0-.011-.109Zm-4.373,1.222q-.163-.611-.287-1.293a.136.136,0,1,0-.262.047c.083.462.181.9.292,1.314a.135.135,0,0,0,.135.1.1.1,0,0,0,.034,0,.134.134,0,0,0,.085-.073.136.136,0,0,0,0-.112Zm-7.171-1.164a.136.136,0,0,0-.155.109,11.055,11.055,0,0,0-.156,1.342.136.136,0,0,0,.126.136h.008a.136.136,0,0,0,.136-.125,10.522,10.522,0,0,1,.152-1.309.135.135,0,0,0-.111-.164Zm12.053,1.2a.136.136,0,1,0-.254.082,7.027,7.027,0,0,1,.289,1.276.135.135,0,0,0,.136.117h.016a.135.135,0,0,0,.116-.149,7.166,7.166,0,0,0-.3-1.342Zm-3.867,2.373a6.78,6.78,0,0,1-.6-1.161.136.136,0,0,0-.247.1,6.952,6.952,0,0,0,.622,1.207.136.136,0,0,0,.111.06.133.133,0,0,0,.073-.022.135.135,0,0,0,.038-.2Zm-8.233-.79a.131.131,0,1,0-.262.01,13,13,0,0,0,.136,1.342.135.135,0,0,0,.135.114h.019a.136.136,0,0,0,.113-.152,11.471,11.471,0,0,1-.141-1.329Zm12.262.951a.136.136,0,0,0-.16.1,1.492,1.492,0,0,1-.635,1.01.136.136,0,1,0,.136.227,1.741,1.741,0,0,0,.756-1.18.134.134,0,0,0-.012-.105.136.136,0,0,0-.084-.065Zm-1.995,1.256a3.873,3.873,0,0,1-.593-.167,2.365,2.365,0,0,1-.576-.312.134.134,0,0,0-.157.216,2.635,2.635,0,0,0,.642.346,4.081,4.081,0,0,0,.636.181h.024a.136.136,0,1,0,.024-.272Zm-9.505,1.672c-.136-.416-.271-.843-.371-1.27a.133.133,0,0,0-.259.063c.1.436.232.87.377,1.294a.136.136,0,0,0,.126.09.15.15,0,0,0,.042-.007.136.136,0,0,0,.078-.181Zm1.086,2.408c-.216-.378-.416-.774-.6-1.177a.136.136,0,1,0-.243.109c.184.407.39.815.61,1.2a.137.137,0,0,0,.116.068.128.128,0,0,0,.065-.018.136.136,0,0,0,.041-.193Zm19.735.584a.136.136,0,0,0-.173.079,5.79,5.79,0,0,1-.588,1.161.136.136,0,0,0,.039.185.128.128,0,0,0,.072.022.136.136,0,0,0,.112-.06,6.076,6.076,0,0,0,.614-1.214.136.136,0,0,0-.087-.183Zm-18.2,1.559a12.555,12.555,0,0,1-.836-1.041.133.133,0,0,0-.217.155,12.784,12.784,0,0,0,.842,1.054.134.134,0,0,0,.1.043.136.136,0,0,0,.1-.221Zm16.809.7a.136.136,0,0,0-.189,0,8.3,8.3,0,0,1-.989.865.133.133,0,0,0,.08.24.138.138,0,0,0,.08-.027,8.659,8.659,0,0,0,1.02-.892.136.136,0,0,0-.015-.2Zm-14.841,1.051a10.963,10.963,0,0,1-1.035-.815.136.136,0,1,0-.178.2,11.254,11.254,0,0,0,1.059.835.134.134,0,0,0,.076.024.136.136,0,0,0,.065-.255Zm12.74.587a.136.136,0,0,0-.182-.052,11.558,11.558,0,0,1-1.185.585.136.136,0,0,0,.1.246,12.448,12.448,0,0,0,1.213-.6.136.136,0,0,0,.038-.193Zm-10.414.637a10.6,10.6,0,0,1-1.2-.543.136.136,0,0,0-.124.236,11.015,11.015,0,0,0,1.23.554.138.138,0,0,0,.048.008.136.136,0,0,0,.047-.258Zm7.966.431a.136.136,0,0,0-.159-.1c-.438.1-.876.179-1.3.243a.136.136,0,0,0,.019.272h.021c.432-.065.877-.148,1.321-.247a.136.136,0,0,0,.088-.178Zm-5.414.2a11.585,11.585,0,0,1-1.3-.244.136.136,0,0,0-.064.259,12.037,12.037,0,0,0,1.324.25h.018a.136.136,0,1,0,.018-.272Zm2.637.079c-.448.029-.893.038-1.321.026a.136.136,0,0,0-.008.271h.4c.311,0,.631-.009.95-.031a.136.136,0,1,0-.017-.272Z" transform="translate(0 -260.241)" fill="#66192d"/>
      <path id="Path_82093" data-name="Path 82093" d="M2404.056,566.607a12.732,12.732,0,0,0-1.347,0,.131.131,0,1,0,.008.262c.435-.019.882-.018,1.321,0h0a.136.136,0,1,0,.007-.271Zm2.665.377c-.436-.1-.882-.187-1.324-.25a.137.137,0,1,0-.037.272c.435.061.872.144,1.3.244a.122.122,0,0,0,.03,0,.136.136,0,0,0,.031-.264Zm-5.353-.255a12.4,12.4,0,0,0-1.321.262.136.136,0,0,0,.032.262h.033a13.075,13.075,0,0,1,1.294-.257.136.136,0,1,0-.038-.263Zm-2.436.744a.136.136,0,0,0-.172-.079,11.47,11.47,0,0,0-1.232.553.136.136,0,0,0,.062.251.145.145,0,0,0,.063-.015,11.06,11.06,0,0,1,1.2-.543A.135.135,0,0,0,2398.931,567.473Zm-2.375,1.208a.136.136,0,0,0-.186-.034,10.131,10.131,0,0,0-1.052.85.136.136,0,0,0,.1.231.134.134,0,0,0,.091-.035,9.627,9.627,0,0,1,1.024-.827.136.136,0,0,0,.026-.185Zm-1.976,1.782a.136.136,0,0,0-.189.019,10.1,10.1,0,0,0-.781,1.1.136.136,0,1,0,.227.136,9.863,9.863,0,0,1,.76-1.073.136.136,0,0,0-.014-.183Zm-1.419,2.249a.135.135,0,0,0-.176.067,11.327,11.327,0,0,0-.474,1.264.136.136,0,0,0,.088.167.13.13,0,0,0,.04,0,.136.136,0,0,0,.127-.094,10.821,10.821,0,0,1,.463-1.233A.135.135,0,0,0,2393.161,572.712Zm-.814,2.533a.136.136,0,0,0-.156.1c-.083.431-.148.879-.193,1.334a.136.136,0,0,0,.121.145h.012a.136.136,0,0,0,.136-.12c.043-.447.107-.887.189-1.308A.137.137,0,0,0,2392.347,575.244Zm-.145,2.781a.136.136,0,1,0-.271,0,10.79,10.79,0,0,0,.1,1.346.137.137,0,0,0,.136.115h.019a.136.136,0,0,0,.114-.149,10.393,10.393,0,0,1-.1-1.312Zm18.308,2.037a2.816,2.816,0,0,0-1.323-.407.136.136,0,1,0-.016.272,2.533,2.533,0,0,1,1.2.372.138.138,0,0,0,.069.02.136.136,0,0,0,.071-.247Zm-2.518-.136a.136.136,0,0,0-.167-.088,6.277,6.277,0,0,0-1.245.543.136.136,0,0,0,.065.25.132.132,0,0,0,.065-.018,6.085,6.085,0,0,1,1.194-.526.135.135,0,0,0,.083-.17Zm-15.01,1.957a10.59,10.59,0,0,1-.422-1.248.136.136,0,0,0-.258.069,11.121,11.121,0,0,0,.433,1.279.133.133,0,1,0,.242-.109Zm12.659-.722a.135.135,0,0,0-.187-.026c-.335.257-.679.543-1.029.869a.134.134,0,0,0,.181.2c.341-.315.679-.6,1.009-.853a.136.136,0,0,0,.052-.093.137.137,0,0,0-.032-.1Zm6.406,1.134a4.609,4.609,0,0,0-.559-1.251.136.136,0,0,0-.223.147,4.279,4.279,0,0,1,.526,1.177.136.136,0,0,0,.128.1.169.169,0,0,0,.037,0,.135.135,0,0,0,.08-.072.137.137,0,0,0,0-.107Zm-8.392.645a.136.136,0,0,0-.188,0c-.2.216-.408.444-.617.679-.094.107-.186.217-.272.327a.134.134,0,0,0,.208.168c.087-.107.178-.215.271-.319.2-.233.407-.459.61-.679A.135.135,0,0,0,2403.654,582.94Zm-9.406,1.24a12.235,12.235,0,0,1-.7-1.116.133.133,0,1,0-.233.129,11.971,11.971,0,0,0,.718,1.142.135.135,0,0,0,.108.055.133.133,0,0,0,.109-.21Zm18.014-.543a.136.136,0,1,0-.271.015c0,.122.011.246.011.368a6.814,6.814,0,0,1-.065.938.136.136,0,0,0,.115.151h.018a.136.136,0,0,0,.136-.115,7.154,7.154,0,0,0,.067-.972c0-.13,0-.266-.01-.39Zm-16.279,2.537c-.322-.3-.631-.625-.917-.951a.133.133,0,1,0-.2.175c.291.333.606.66.936.97a.133.133,0,0,0,.189-.005.136.136,0,0,0-.007-.194Zm5.994-1.16a.136.136,0,0,0-.183.045,10.787,10.787,0,0,0-.633,1.192.136.136,0,0,0,.068.177.129.129,0,0,0,.054.012.136.136,0,0,0,.122-.079,10.348,10.348,0,0,1,.616-1.162.136.136,0,0,0-.045-.19Zm9.834,1.134a.136.136,0,0,0-.168.083,6.4,6.4,0,0,1-.543,1.188.133.133,0,0,0,.229.136,6.576,6.576,0,0,0,.564-1.238.136.136,0,0,0-.082-.174Zm-13.748,1.657c-.369-.24-.732-.5-1.077-.768a.136.136,0,1,0-.164.209c.35.272.718.543,1.1.783a.127.127,0,0,0,.072.022.136.136,0,0,0,.073-.246Zm2.785-.379a.136.136,0,0,0-.167.087,12.5,12.5,0,0,0-.331,1.308.136.136,0,0,0,.106.158h.026a.135.135,0,0,0,.135-.107,12.143,12.143,0,0,1,.325-1.279.136.136,0,0,0-.094-.17Zm-.455,1.63c-.407-.172-.8-.367-1.191-.574a.136.136,0,1,0-.126.235c.394.212.8.407,1.213.585a.132.132,0,0,0,.052.011.136.136,0,0,0,.052-.257Zm10.111-.6a.135.135,0,0,0-.188,0,4.922,4.922,0,0,1-1.016.8.134.134,0,1,0,.137.229,5.2,5.2,0,0,0,1.07-.847.135.135,0,0,0,0-.193Zm-7.6,1.424c-.422-.1-.851-.215-1.274-.354a.136.136,0,1,0-.084.254c.432.136.869.264,1.3.36h.03a.136.136,0,0,0,.03-.263Zm5.374,0a.136.136,0,0,0-.168-.084,7.625,7.625,0,0,1-1.277.3.136.136,0,0,0,.019.272h.02a8.032,8.032,0,0,0,1.32-.307.134.134,0,0,0,.09-.073.136.136,0,0,0,0-.116Zm-2.755.3h-.025a11.12,11.12,0,0,1-1.293-.077.136.136,0,0,0-.031.265,11.307,11.307,0,0,0,1.323.08h.025a.136.136,0,0,0,0-.272Zm-5.221-.145a.135.135,0,0,0-.145.12c-.042.436-.065.888-.071,1.346a.136.136,0,0,0,.135.136h0a.136.136,0,0,0,.136-.136c0-.451.027-.895.069-1.323a.136.136,0,0,0-.12-.143Zm.088,2.792a.131.131,0,1,0-.261.011c.028.435.072.884.135,1.336a.136.136,0,0,0,.136.117h.016a.136.136,0,0,0,.115-.149c-.065-.441-.108-.885-.137-1.314Zm.615,3.938c-.1-.439-.2-.876-.272-1.3a.136.136,0,1,0-.262.049c.08.428.174.87.28,1.313a.135.135,0,0,0,.136.1h.031a.135.135,0,0,0,.082-.066.133.133,0,0,0,.01-.1Zm.728,2.558c-.136-.426-.271-.856-.39-1.272a.136.136,0,0,0-.256.073c.119.421.252.851.393,1.283a.136.136,0,0,0,.127.091.115.115,0,0,0,.042-.007.137.137,0,0,0,.09-.175Zm.916,2.5c-.167-.416-.328-.834-.478-1.242a.136.136,0,0,0-.244-.061.138.138,0,0,0-.006.151c.151.407.313.834.479,1.252a.136.136,0,0,0,.125.083.128.128,0,0,0,.049-.01.136.136,0,0,0,.08-.178Zm1.06,2.444c-.189-.407-.373-.815-.543-1.222a.136.136,0,1,0-.245.107c.174.408.36.815.55,1.222a.136.136,0,1,0,.242-.113Zm1.183,2.391c-.207-.4-.407-.8-.605-1.188a.136.136,0,0,0-.248-.032.136.136,0,0,0,.009.15c.194.394.4.794.607,1.194a.135.135,0,0,0,.18.057.135.135,0,0,0,.063-.189Zm1.285,2.34c-.224-.388-.444-.779-.655-1.164a.136.136,0,1,0-.234.136c.212.386.432.778.656,1.167a.135.135,0,0,0,.115.068.139.139,0,0,0,.122-.214Zm1.384,2.28c-.237-.378-.472-.76-.7-1.138a.136.136,0,1,0-.229.136c.228.379.463.763.7,1.142a.135.135,0,0,0,.112.062.122.122,0,0,0,.071-.02A.136.136,0,0,0,2407.556,611.274Zm1.457,2.238c-.246-.363-.494-.737-.739-1.112a.136.136,0,1,0-.223.145c.244.377.494.752.741,1.116a.135.135,0,0,0,.11.06.133.133,0,0,0,.074-.023.135.135,0,0,0,.03-.186Zm1.55,2.179s-.3-.4-.789-1.086a.133.133,0,1,0-.217.154c.49.691.791,1.086.794,1.086a.129.129,0,1,0,.206-.154Z" transform="translate(-633.161 -36.67)" fill="#66192d"/>
      <path id="Path_82094" data-name="Path 82094" d="M2735.732,613.291A4.769,4.769,0,0,0,2734.4,613a.136.136,0,0,0-.019.272,4.5,4.5,0,0,1,1.26.272.112.112,0,0,0,.046.009.136.136,0,0,0,.046-.259Zm-2.538-.084a.135.135,0,0,0-.164-.092,2.172,2.172,0,0,0-1.18.743.132.132,0,0,0,.106.215.135.135,0,0,0,.1-.05,1.925,1.925,0,0,1,1.041-.65A.135.135,0,0,0,2733.194,613.207Zm4.79,1.583a7.366,7.366,0,0,0-1.043-.868.136.136,0,1,0-.151.221,7.084,7.084,0,0,1,1.006.835.128.128,0,0,0,.094.039.133.133,0,0,0,.094-.228Zm-6.053,1.651a3.535,3.535,0,0,1-.246-1.23v-.023a.136.136,0,0,0-.272,0v.027a3.824,3.824,0,0,0,.262,1.324.136.136,0,0,0,.125.087.133.133,0,0,0,.046-.008.135.135,0,0,0,.08-.07A.134.134,0,0,0,2731.93,616.442Zm7.675.5a11.031,11.031,0,0,0-.738-1.131.136.136,0,0,0-.215.16,10.879,10.879,0,0,1,.722,1.1.136.136,0,0,0,.249.012.134.134,0,0,0-.018-.148Zm-6.262,1.681a7.961,7.961,0,0,1-.815-1.028.136.136,0,0,0-.224.147,8.22,8.22,0,0,0,.843,1.063.136.136,0,0,0,.194-.182Zm7.35.782a12.761,12.761,0,0,0-.481-1.259.133.133,0,0,0-.244.107c.175.4.333.815.471,1.236a.136.136,0,0,0,.128.091.11.11,0,0,0,.041,0,.137.137,0,0,0,.088-.175Zm-5.311.875a10.735,10.735,0,0,1-1.075-.762.136.136,0,1,0-.167.206,10.821,10.821,0,0,0,1.1.782.136.136,0,0,0,.136-.227Zm2.38,1.126a11.9,11.9,0,0,1-1.222-.5.136.136,0,0,0-.115.242,12.189,12.189,0,0,0,1.25.508.139.139,0,0,0,.044.008.136.136,0,0,0,.043-.261Zm9.737.085a.136.136,0,0,0-.166-.091c-.148.042-.295.083-.441.121a.136.136,0,0,0,.034.263.1.1,0,0,0,.034,0l.448-.122a.136.136,0,0,0,.094-.171Zm-6.448-.786a.136.136,0,0,0-.26.058c.1.43.175.869.231,1.3a.136.136,0,0,0,.136.115h.017a.135.135,0,0,0,.115-.149c-.058-.443-.137-.891-.236-1.328Zm-.721,1.306a12.806,12.806,0,0,1-1.3-.239.136.136,0,1,0-.059.259c.43.1.875.183,1.324.244h.018a.136.136,0,0,0,.018-.271Zm5.269-.194c-.437.086-.877.155-1.309.206a.136.136,0,0,0,.016.272h.016c.437-.053.885-.122,1.328-.209a.135.135,0,0,0-.049-.265Zm-2.627.312c-.217.01-.436.014-.651.014s-.451,0-.679-.015a.136.136,0,1,0-.01.272c.225.011.453.015.678.015h0c.217,0,.44,0,.66-.012a.136.136,0,1,0-.01-.272Zm-1.58,1.247a.132.132,0,1,0-.264,0v.353c0,.326-.013.651-.038.966a.135.135,0,0,0,.123.144h.01a.136.136,0,0,0,.136-.122c.026-.323.038-.655.038-.987,0-.111,0-.232,0-.353Zm-.324,2.528a.136.136,0,0,0-.157.1,9.881,9.881,0,0,1-.345,1.27.135.135,0,0,0,.083.17.157.157,0,0,0,.043,0,.135.135,0,0,0,.126-.09,10.3,10.3,0,0,0,.355-1.3.136.136,0,0,0-.1-.149Zm-.842,2.524a.136.136,0,0,0-.181.056,8.052,8.052,0,0,1-.7,1.107.135.135,0,0,0,.026.187.124.124,0,0,0,.08.027.136.136,0,0,0,.106-.053,8.28,8.28,0,0,0,.725-1.145.136.136,0,0,0-.053-.179Zm-1.571,2.143a.136.136,0,0,0-.187-.007,7.87,7.87,0,0,1-1.031.815.133.133,0,0,0,.147.223,8.071,8.071,0,0,0,1.066-.836.138.138,0,0,0,.045-.1.14.14,0,0,0-.037-.1Zm-20.563,1.452c-.789-.255-1.248-.44-1.253-.441a.136.136,0,0,0-.1.247s.473.19,1.271.448a.133.133,0,0,0,.041,0,.136.136,0,0,0,.041-.261Zm18.371.049a.136.136,0,0,0-.178-.067c-.4.181-.807.35-1.222.5a.136.136,0,0,0,.046.259.129.129,0,0,0,.044-.008c.425-.153.844-.326,1.246-.509a.136.136,0,0,0,.066-.177Zm-15.8.668c-.431-.1-.865-.216-1.288-.334a.136.136,0,1,0-.072.257c.427.12.864.232,1.3.337a.134.134,0,0,0,.031,0,.137.137,0,0,0,.119-.119.135.135,0,0,0-.088-.143Zm13.308.263a.135.135,0,0,0-.164-.094c-.418.117-.852.221-1.289.311a.136.136,0,0,0,.028.263.084.084,0,0,0,.025,0c.444-.09.882-.2,1.308-.314A.136.136,0,0,0,2733.967,633.007Zm-10.7.258c-.433-.069-.873-.149-1.309-.236a.134.134,0,1,0-.053.262c.44.087.884.167,1.32.238h.022a.136.136,0,0,0,.021-.271Zm2.641.312c-.435-.033-.88-.076-1.324-.129a.136.136,0,1,0-.031.265c.447.054.9.1,1.335.136h.01a.136.136,0,0,0,.011-.272Zm5.3-.136c-.429.06-.873.107-1.32.136a.136.136,0,0,0,.011.272h.01c.452-.035.9-.083,1.335-.143a.131.131,0,1,0-.031-.261Zm-2.645.206c-.443.01-.884,0-1.328,0a.136.136,0,1,0-.008.271c.259.007.519.011.774.011.189,0,.377,0,.568-.007a.136.136,0,1,0,0-.272Z" transform="translate(-913.811 -76.777)" fill="#66192d"/>
      <path id="Path_82095" data-name="Path 82095" d="M2603.289,943.579c-.449.008-.9.029-1.34.058a.136.136,0,1,0,.01.272h.01c.435-.03.881-.049,1.327-.058a.136.136,0,1,0-.006-.272Zm2.684.108c-.44-.052-.891-.086-1.342-.1a.136.136,0,1,0-.01.272c.445.015.888.049,1.32.1h.015a.136.136,0,0,0,.016-.272Zm-5.359.079c-.445.054-.891.122-1.326.2a.136.136,0,1,0,.024.272h.022c.431-.078.872-.144,1.312-.2a.134.134,0,1,0-.032-.266Zm7.99.473a12.952,12.952,0,0,0-1.3-.335.136.136,0,0,0-.055.261c.433.091.864.2,1.28.33a.141.141,0,0,0,.039,0,.136.136,0,0,0,.039-.261Zm-10.468.1a.136.136,0,0,0-.161-.1c-.437.1-.873.225-1.294.356a.136.136,0,0,0,.039.261.128.128,0,0,0,.04,0c.417-.128.847-.246,1.279-.35a.136.136,0,0,0,.1-.168Zm12.948.951a12.824,12.824,0,0,0-1.213-.588.136.136,0,1,0-.1.246,12.246,12.246,0,0,1,1.188.576.136.136,0,0,0,.135-.236Zm-15.5-.177a.135.135,0,0,0-.172-.076c-.419.159-.835.335-1.238.52a.134.134,0,0,0,.057.255.137.137,0,0,0,.056-.012c.4-.183.808-.356,1.222-.515a.135.135,0,0,0,.076-.175Zm17.7,1.731a11.5,11.5,0,0,0-1.057-.841.136.136,0,0,0-.153.219,11.418,11.418,0,0,1,1.031.815.133.133,0,0,0,.178-.2Zm-20.129-.629a.136.136,0,0,0-.182-.052c-.393.216-.782.448-1.154.69a.136.136,0,0,0,.074.246.138.138,0,0,0,.073-.022c.365-.238.748-.467,1.136-.679A.135.135,0,0,0,2593.155,946.216Zm-2.247,1.44a.136.136,0,0,0-.188-.026c-.359.272-.708.566-1.035.861a.133.133,0,0,0,.178.2c.322-.291.666-.576,1.019-.846a.136.136,0,0,0,.025-.19Zm24.142,1.222a10.158,10.158,0,0,0-.815-1.075.133.133,0,1,0-.2.175,10.075,10.075,0,0,1,.8,1.047.131.131,0,1,0,.219-.145Zm39.681,1.1a8.758,8.758,0,0,0-1.358.073.136.136,0,1,0,.018.272h.017a8.722,8.722,0,0,1,1.311-.071.136.136,0,0,0,0-.272Zm-65.817-.554a.136.136,0,0,0-.189.008,8.765,8.765,0,0,0-.857,1.057.136.136,0,0,0,.04.185.134.134,0,0,0,.072.02.137.137,0,0,0,.113-.06,8.676,8.676,0,0,1,.83-1.021.136.136,0,0,0-.008-.187Zm68.466,1.086a7.337,7.337,0,0,0-1.3-.386.134.134,0,0,0-.053.262,7.06,7.06,0,0,1,1.255.372.134.134,0,0,0,.05.01.137.137,0,0,0,.124-.11A.135.135,0,0,0,2657.381,950.513Zm-5.16-.1a.136.136,0,0,0-.166-.092,10.244,10.244,0,0,0-1.274.447.133.133,0,1,0,.1.246,10.056,10.056,0,0,1,1.243-.435.136.136,0,0,0,.092-.164Zm-36.032.91a8.5,8.5,0,0,0-.475-1.268.136.136,0,1,0-.242.113,8.024,8.024,0,0,1,.46,1.222.137.137,0,0,0,.129.1.115.115,0,0,0,.037,0,.137.137,0,0,0,.09-.162Zm33.566.095a.136.136,0,0,0-.183-.05,12.6,12.6,0,0,0-1.131.733.136.136,0,1,0,.157.216,12.356,12.356,0,0,1,1.106-.717.136.136,0,0,0,.049-.181Zm-2.172,1.541a.136.136,0,0,0-.189-.011c-.328.295-.652.611-.96.944a.133.133,0,1,0,.2.181c.3-.324.62-.637.942-.925a.135.135,0,0,0,.008-.187Zm-31.136-.3a.136.136,0,1,0-.264.026c.021.227.034.453.034.679a6.161,6.161,0,0,1-.032.629.136.136,0,0,0,.121.147h.012a.136.136,0,0,0,.136-.121c.021-.216.031-.436.031-.655s-.017-.47-.04-.7Zm29.3,2.237a.136.136,0,0,0-.187.023c-.272.346-.537.713-.788,1.086a.133.133,0,0,0,.111.206.137.137,0,0,0,.112-.058c.247-.372.508-.733.775-1.074a.135.135,0,0,0-.026-.182Zm-29.659.284a.136.136,0,0,0-.168.087,6.089,6.089,0,0,1-.524,1.194.136.136,0,0,0,.05.182.128.128,0,0,0,.065.018.136.136,0,0,0,.117-.068,6.335,6.335,0,0,0,.543-1.245A.136.136,0,0,0,2616.089,955.179Zm28.159,1.922a.135.135,0,0,0-.181.049c-.218.382-.427.782-.625,1.189a.136.136,0,0,0,.062.178.124.124,0,0,0,.057.014.135.135,0,0,0,.121-.075c.2-.407.407-.8.617-1.173a.136.136,0,0,0-.051-.178Zm-29.425.407a.136.136,0,0,0-.189.012,7.29,7.29,0,0,1-.95.9.134.134,0,0,0,.083.239.137.137,0,0,0,.083-.028,7.622,7.622,0,0,0,.987-.932.135.135,0,0,0-.013-.186Zm-2.05,1.691a.135.135,0,0,0-.182-.05,10.22,10.22,0,0,1-1.187.572.134.134,0,0,0,.052.258.139.139,0,0,0,.05-.011,10.758,10.758,0,0,0,1.222-.587.135.135,0,0,0,.045-.179Zm30.293.295a.136.136,0,0,0-.174.072c-.169.408-.329.828-.478,1.254a.135.135,0,0,0,.081.17.13.13,0,0,0,.044.008.137.137,0,0,0,.126-.09c.146-.421.306-.838.471-1.24a.136.136,0,0,0-.072-.171Zm-32.735.774a.135.135,0,0,0-.175-.071,10.225,10.225,0,0,0-1.208.607.134.134,0,0,0,.069.248.138.138,0,0,0,.068-.019,9.887,9.887,0,0,1,1.176-.591.135.135,0,0,0,.07-.172Zm-2.308,1.32a.136.136,0,0,0-.187-.023,10.413,10.413,0,0,0-1.007.9.133.133,0,0,0,.094.227.135.135,0,0,0,.095-.04,9.854,9.854,0,0,1,.979-.88.136.136,0,0,0,.023-.185Zm34.147.417a.136.136,0,0,0-.166.091c-.124.421-.242.855-.349,1.294a.136.136,0,0,0,.1.162h.032a.136.136,0,0,0,.135-.1c.106-.434.223-.866.346-1.283a.135.135,0,0,0-.1-.159Zm-36.032,1.464a.136.136,0,0,0-.187.026,10.945,10.945,0,0,0-.74,1.131.136.136,0,0,0,.051.182.136.136,0,0,0,.182-.05,10.6,10.6,0,0,1,.721-1.1.136.136,0,0,0-.029-.183Zm35.381,1.124a.135.135,0,0,0-.159.1c-.1.439-.207.873-.315,1.293a.136.136,0,0,0,.1.163h.033a.136.136,0,0,0,.129-.1c.11-.421.218-.858.316-1.3a.136.136,0,0,0-.1-.152Zm-36.73,1.179a.136.136,0,0,0-.174.072,11.171,11.171,0,0,0-.443,1.275.135.135,0,0,0,.093.164.106.106,0,0,0,.036,0,.136.136,0,0,0,.127-.1,11.422,11.422,0,0,1,.432-1.245A.136.136,0,0,0,2604.79,965.77Zm36.062,1.411a.135.135,0,0,0-.167.089c-.129.432-.272.858-.407,1.266a.135.135,0,0,0,.083.17.151.151,0,0,0,.043.007.137.137,0,0,0,.127-.09c.136-.407.279-.84.407-1.276a.136.136,0,0,0-.085-.168Zm-36.814,1.143a.136.136,0,0,0-.153.111,11.366,11.366,0,0,0-.136,1.343.136.136,0,0,0,.128.136h0a.135.135,0,0,0,.135-.128,11.58,11.58,0,0,1,.127-1.312.136.136,0,0,0-.1-.153Zm35.953,1.384a.136.136,0,0,0-.174.075c-.165.417-.341.827-.521,1.222a.133.133,0,0,0,.011.127.131.131,0,0,0,.231-.015c.182-.4.36-.815.527-1.234a.135.135,0,0,0-.074-.174Zm-35.759,2.705a11.192,11.192,0,0,1-.184-1.305.136.136,0,0,0-.272.022,11.251,11.251,0,0,0,.189,1.336.135.135,0,0,0,.136.107h.026a.136.136,0,0,0,.087-.06.137.137,0,0,0,.018-.1Zm34.657-.272a.135.135,0,0,0-.18.054c-.209.4-.431.782-.657,1.152a.133.133,0,0,0,.227.14c.231-.375.455-.766.667-1.165a.133.133,0,0,0,.013-.106.135.135,0,0,0-.069-.082Zm-33.827,2.77a10.777,10.777,0,0,1-.491-1.222.136.136,0,0,0-.254.084,11.074,11.074,0,0,0,.505,1.252.136.136,0,0,0,.12.076.144.144,0,0,0,.058-.012.134.134,0,0,0,.071-.08.137.137,0,0,0-.009-.106Zm32.442-.493a.135.135,0,0,0-.186.031c-.259.36-.531.712-.815,1.046a.133.133,0,0,0,.2.171c.284-.338.561-.7.823-1.062a.132.132,0,0,0,.028-.1.135.135,0,0,0-.054-.091Zm-31.026,2.708a10.784,10.784,0,0,1-.776-1.063.136.136,0,1,0-.226.144,10.754,10.754,0,0,0,.8,1.086.136.136,0,0,0,.1.049.136.136,0,0,0,.1-.224Zm29.332-.655a.136.136,0,0,0-.189,0c-.31.314-.634.616-.966.9a.136.136,0,0,0-.014.189.135.135,0,0,0,.188.015c.337-.291.668-.6.982-.918a.136.136,0,0,0-.008-.2Zm-2.007,1.752a.136.136,0,0,0-.187-.03c-.351.255-.724.5-1.1.729a.134.134,0,0,0,.069.249.134.134,0,0,0,.069-.021c.386-.232.762-.481,1.12-.74a.132.132,0,0,0,.056-.092.135.135,0,0,0-.028-.1Zm-25.411.71a10.971,10.971,0,0,1-1.009-.847.136.136,0,0,0-.243.057.135.135,0,0,0,.06.137,11.623,11.623,0,0,0,1.032.868.134.134,0,0,0,.161-.215Zm23.141.687a.136.136,0,0,0-.179-.06c-.387.194-.793.377-1.2.543a.133.133,0,1,0,.1.246c.417-.171.829-.357,1.222-.554a.135.135,0,0,0,.057-.183Zm-20.871.652a12.654,12.654,0,0,1-1.172-.61.136.136,0,0,0-.136.231,13.237,13.237,0,0,0,1.2.622.136.136,0,0,0,.112-.243Zm18.415.379a.136.136,0,0,0-.168-.084c-.407.136-.838.264-1.271.377a.136.136,0,0,0,.034.262.132.132,0,0,0,.034,0c.438-.115.872-.245,1.287-.382a.136.136,0,0,0,.082-.182Zm-15.924.5c-.432-.111-.859-.24-1.266-.384a.136.136,0,0,0-.089.252c.415.145.848.272,1.288.39a.091.091,0,0,0,.033,0,.136.136,0,0,0,.034-.263Zm13.351.2a.136.136,0,0,0-.157-.1c-.423.086-.862.164-1.307.231a.136.136,0,1,0,.02.272h.021c.448-.068.892-.145,1.319-.234a.136.136,0,0,0,.089-.065.138.138,0,0,0,.012-.109Zm-10.747.272c-.444-.049-.885-.113-1.312-.189a.136.136,0,0,0-.047.263c.431.077.88.136,1.329.192h.014a.136.136,0,1,0,.015-.272Zm7.966.023c-.429.045-.875.081-1.324.11a.136.136,0,1,0,.009.271h.01c.452-.028.9-.065,1.334-.111a.137.137,0,1,0-.028-.272Zm-5.315.149c-.432-.016-.879-.039-1.33-.068a.136.136,0,0,0-.016.272c.452.028.9.05,1.336.067h0a.136.136,0,0,0,0-.272Zm2.662.016c-.348.008-.7.014-1.061.014h-.272a.136.136,0,0,0,0,.271h.284c.355,0,.711,0,1.055-.014a.136.136,0,0,0,.129-.136.133.133,0,0,0-.038-.1.138.138,0,0,0-.1-.041Z" transform="translate(-802.475 -362.468)" fill="#66192d"/>
      <path id="Path_82096" data-name="Path 82096" d="M2971.9,1144.678c-.467-.679-.793-1.086-.8-1.086a.136.136,0,0,0-.209.167s.325.407.786,1.074a.134.134,0,1,0,.219-.155Zm1.429,2.275c-.216-.382-.448-.77-.688-1.153a.136.136,0,1,0-.226.136c.238.379.467.765.679,1.142a.136.136,0,0,0,.232-.136Zm1.2,2.406c-.169-.4-.36-.815-.565-1.222a.136.136,0,0,0-.239.118c.2.407.392.814.558,1.206a.136.136,0,0,0,.122.081.143.143,0,0,0,.053-.011A.135.135,0,0,0,2974.525,1149.359Zm.856,2.551c-.1-.417-.224-.853-.375-1.294a.133.133,0,1,0-.253.085c.148.435.272.861.368,1.271a.137.137,0,0,0,.136.1h.03A.136.136,0,0,0,2975.38,1151.911Zm-.941.751a5,5,0,0,0-1.311.387.136.136,0,0,0,.054.255.142.142,0,0,0,.054-.011,4.688,4.688,0,0,1,1.24-.367.137.137,0,1,0-.038-.271Zm2.674.424a4.873,4.873,0,0,0-1.3-.407.133.133,0,1,0-.043.263,4.614,4.614,0,0,1,1.233.39.139.139,0,0,0,.057.012.136.136,0,0,0,.057-.254Zm-1.494.156a.134.134,0,1,0-.266.03,8.3,8.3,0,0,1,.052.9c0,.136,0,.272-.012.407a.136.136,0,0,0,.126.136h.007a.136.136,0,0,0,.136-.127c.008-.136.012-.281.012-.423a8.875,8.875,0,0,0-.06-.925Zm-3.469.53a.136.136,0,0,0-.187-.027,7.586,7.586,0,0,0-1.006.911.134.134,0,1,0,.2.182,7.287,7.287,0,0,1,.97-.878.136.136,0,0,0,.019-.187Zm7.17.884a7.458,7.458,0,0,0-1.035-.877.136.136,0,0,0-.155.217,7.135,7.135,0,0,1,1,.846.132.132,0,1,0,.186-.186Zm-9.017,1.028a.136.136,0,0,0-.185.037,7.815,7.815,0,0,0-.654,1.191.136.136,0,0,0,.069.175.119.119,0,0,0,.052.011.136.136,0,0,0,.122-.08,7.623,7.623,0,0,1,.631-1.149.136.136,0,0,0-.042-.185Zm10.408,1.293a5.547,5.547,0,0,0-.557-1.245.133.133,0,1,0-.228.138,5.369,5.369,0,0,1,.529,1.185.136.136,0,0,0,.128.094.141.141,0,0,0,.039,0,.136.136,0,0,0,.083-.172Zm-5.361-1.2a.136.136,0,0,0-.166.092,5.141,5.141,0,0,1-.5,1.2.134.134,0,0,0,.231.134,5.445,5.445,0,0,0,.527-1.259.136.136,0,0,0-.1-.164Zm-1.267,2.309a.136.136,0,0,0-.189,0,6.136,6.136,0,0,1-1.015.815.136.136,0,0,0,.073.246.125.125,0,0,0,.072-.022,6.345,6.345,0,0,0,1.06-.854.137.137,0,0,0-.005-.178Zm-4.624,1.378a1.455,1.455,0,0,1-.171-.751,3.015,3.015,0,0,1,.039-.462.133.133,0,1,0-.263-.041,3.207,3.207,0,0,0-.042.5,1.745,1.745,0,0,0,.207.887.136.136,0,0,0,.115.067.139.139,0,0,0,.068-.019.136.136,0,0,0,.042-.177Zm11.495-1.153a.131.131,0,1,0-.26.018c.009.136.015.289.015.435a7.406,7.406,0,0,1-.054.873.136.136,0,0,0,.115.148h.016a.137.137,0,0,0,.136-.117,7.438,7.438,0,0,0,.057-.906c-.011-.144-.019-.3-.03-.444Zm-9.053,1.287a.136.136,0,0,0-.177-.068,3.965,3.965,0,0,1-1.232.36.136.136,0,1,0,.011.272h.011a4.246,4.246,0,0,0,1.32-.382.135.135,0,0,0,.061-.175Zm8.65,1.233a.136.136,0,0,0-.165.092,10.726,10.726,0,0,1-.434,1.245.136.136,0,0,0,.072.174.113.113,0,0,0,.052.011.136.136,0,0,0,.124-.081,11.259,11.259,0,0,0,.444-1.276.136.136,0,0,0-.1-.157Zm-.993,2.474a.135.135,0,0,0-.18.053c-.243.44-.425.7-.427.7a.133.133,0,1,0,.219.152,8.427,8.427,0,0,0,.441-.728.135.135,0,0,0-.058-.179Z" transform="translate(-1131.888 -535.291)" fill="#66192d"/>
      <path id="Path_82097" data-name="Path 82097" d="M3067.454,680.205c-.441-.014-.9,0-1.345.022a.136.136,0,1,0,0,.272h.008c.442-.027.888-.034,1.323-.02a.136.136,0,0,0,.008-.272Zm2.669.327c-.436-.1-.883-.171-1.327-.226a.137.137,0,0,0-.033.272c.436.053.875.128,1.3.221h.028a.137.137,0,0,0,.029-.271Zm2.562.815c-.408-.177-.838-.334-1.261-.47a.136.136,0,1,0-.082.254c.417.136.832.288,1.238.462a.131.131,0,1,0,.1-.24Zm2.368,1.275c-.375-.247-.763-.481-1.155-.691a.136.136,0,0,0-.126.235c.384.208.766.436,1.135.679a.131.131,0,1,0,.147-.217Zm2.107,1.67c-.325-.307-.668-.6-1.017-.88a.135.135,0,1,0-.166.209c.344.271.679.563,1,.865a.134.134,0,0,0,.092.037.131.131,0,0,0,.091-.225Zm1.8,2c-.272-.356-.557-.706-.855-1.04a.136.136,0,0,0-.2.178c.295.329.577.679.842,1.022a.133.133,0,0,0,.213-.16Zm1.425,2.281c-.2-.4-.423-.789-.661-1.172a.134.134,0,0,0-.227.141c.235.376.454.763.65,1.151a.132.132,0,0,0,.238-.115Zm-4.686,2.236a1.789,1.789,0,0,0-1.261-.606.13.13,0,1,0-.009.261,1.53,1.53,0,0,1,1.078.519.137.137,0,0,0,.1.044.134.134,0,0,0,.09-.034.136.136,0,0,0,0-.178Zm5.655.272a12.366,12.366,0,0,0-.419-1.282.136.136,0,0,0-.248.1,12.339,12.339,0,0,1,.407,1.255.136.136,0,0,0,.129.1.144.144,0,0,0,.033,0,.137.137,0,0,0,.1-.158Zm-8.092-.513a.135.135,0,0,0-.177-.062,4.993,4.993,0,0,0-1.131.769.133.133,0,1,0,.177.2,4.7,4.7,0,0,1,1.071-.728.136.136,0,0,0,.062-.167Zm3.07,1.465a.136.136,0,0,0-.258.073,6.064,6.064,0,0,1,.2,1.287.137.137,0,0,0,.136.125h.008a.136.136,0,0,0,.125-.136,6.457,6.457,0,0,0-.215-1.339Zm-5.111.217a.136.136,0,0,0-.186.027,7.3,7.3,0,0,0-.708,1.16.136.136,0,0,0,.063.179.127.127,0,0,0,.058.014.136.136,0,0,0,.12-.076,7.032,7.032,0,0,1,.679-1.116.135.135,0,0,0-.026-.176Zm10.4.156a.137.137,0,1,0-.271.035,8.556,8.556,0,0,1,.076,1.115v.2a.136.136,0,0,0,.135.136h0a.136.136,0,0,0,.136-.136v-.2a8.787,8.787,0,0,0-.076-1.133Zm-5.2,2.173a.135.135,0,0,0-.135.126c-.024.407-.069.854-.137,1.317a.136.136,0,0,0,.114.151h.018a.136.136,0,0,0,.136-.115c.064-.471.109-.921.136-1.339a.136.136,0,0,0-.132-.122Zm-6.394.031a.135.135,0,0,0-.162.1,5.736,5.736,0,0,0-.182,1.351.136.136,0,0,0,.136.136h0a.136.136,0,0,0,.136-.136,5.544,5.544,0,0,1,.172-1.289.136.136,0,0,0-.1-.141Zm11.406.331a.135.135,0,0,0-.16.1c-.03.136-.064.263-.1.39-.09.293-.188.585-.291.868a.136.136,0,0,0,.079.171.144.144,0,0,0,.046.008.135.135,0,0,0,.125-.087c.105-.286.2-.584.3-.883.042-.136.076-.272.108-.408a.137.137,0,0,0-.1-.143Zm-10.843,3.6a4.791,4.791,0,0,1-.491-1.2.133.133,0,1,0-.258.067,5.066,5.066,0,0,0,.519,1.266.135.135,0,0,0,.115.066.136.136,0,0,0,.114-.068A.135.135,0,0,0,3070.58,698.551Zm5.493-1.32a.135.135,0,0,0-.158.1c-.085.424-.187.858-.3,1.291a.136.136,0,0,0,.1.163.154.154,0,0,0,.034,0,.135.135,0,0,0,.129-.1c.117-.437.22-.877.307-1.306a.136.136,0,0,0-.1-.134Zm4.462.229a.136.136,0,0,0-.178.062,12.216,12.216,0,0,1-.63,1.16.134.134,0,1,0,.227.141,12.847,12.847,0,0,0,.645-1.185.137.137,0,0,0-.061-.16Zm-8.294,3.116a8.608,8.608,0,0,1-.9-.95.134.134,0,1,0-.208.168,8.871,8.871,0,0,0,.927.986.137.137,0,0,0,.09.035.136.136,0,0,0,.09-.232Zm6.913-.838a.135.135,0,0,0-.187.019,7.748,7.748,0,0,1-.909.944.134.134,0,0,0,.175.2,8,8,0,0,0,.941-.978.136.136,0,0,0-.017-.17Zm-3.749.076a.136.136,0,0,0-.168.086c-.135.407-.281.832-.44,1.253a.133.133,0,0,0,.249.1c.162-.425.31-.851.445-1.267a.134.134,0,0,0-.083-.149Zm-.913,2a4.185,4.185,0,0,1-1.2-.466.136.136,0,0,0-.135.232,4.474,4.474,0,0,0,1.277.5h.027a.137.137,0,0,0,.028-.272Zm2.676-.318a.136.136,0,0,0-.181-.057,4.007,4.007,0,0,1-1.222.407.136.136,0,1,0,.021.272h.022a4.277,4.277,0,0,0,1.3-.434.136.136,0,0,0,.064-.17Zm-2.694.815a.136.136,0,0,0-.175.071c-.173.4-.359.815-.552,1.214a.137.137,0,0,0,.063.178.146.146,0,0,0,.058.012.135.135,0,0,0,.119-.076q.294-.611.556-1.222a.137.137,0,0,0-.067-.154Zm-1.14,2.44a.136.136,0,0,0-.181.056c-.2.387-.417.781-.637,1.169a.137.137,0,0,0,.052.182.13.13,0,0,0,.065.018.137.137,0,0,0,.117-.068c.22-.391.436-.788.64-1.177A.137.137,0,0,0,3073.333,704.751Zm-1.306,2.327a.136.136,0,0,0-.183.046c-.226.372-.463.752-.706,1.13a.136.136,0,0,0,.224.144c.244-.379.483-.762.71-1.137a.135.135,0,0,0-.045-.181Zm-1.44,2.251a.136.136,0,0,0-.186.034c-.247.364-.5.731-.765,1.086a.133.133,0,0,0,.218.155c.26-.363.52-.732.769-1.1a.137.137,0,0,0-.035-.175Zm-1.553,2.173a.136.136,0,0,0-.188.027c-.264.352-.543.707-.815,1.056a.134.134,0,0,0,.211.166c.272-.352.551-.709.815-1.062a.136.136,0,0,0-.023-.183Zm-1.649,2.1a.136.136,0,0,0-.188.019c-.279.341-.568.679-.856,1.023a.133.133,0,1,0,.2.174c.29-.339.58-.686.861-1.027a.135.135,0,0,0-.019-.185Zm-1.733,2.037a.135.135,0,0,0-.187.012c-.293.33-.6.663-.9.99a.13.13,0,0,0,.091.224.137.137,0,0,0,.1-.044c.3-.329.605-.663.9-.994a.135.135,0,0,0-.006-.185Zm-1.807,1.972a.136.136,0,0,0-.189,0c-.311.326-.625.648-.932.957a.133.133,0,1,0,.189.187c.309-.311.623-.634.936-.96a.137.137,0,0,0,0-.18Zm-1.884,1.9a.136.136,0,0,0-.189,0c-.607.585-.974.911-.978.914a.134.134,0,0,0,.178.2s.373-.333.984-.922a.135.135,0,0,0,0-.187Z" transform="translate(-1211.164 -134.854)" fill="#66192d"/>
      <path id="Path_82098" data-name="Path 82098" d="M2351,1207.361s3.411-6.46,7.562-7.484,10.277.914,7.791,1.989a23.76,23.76,0,0,1-3.759.823,7.2,7.2,0,0,0-2.213,1.006s5.16-.854,5.33.648c.144,1.242-5.407,2.923-5.407,2.923s6.353-1.075,5.275.543-5.232,2.525-5.232,2.525,8.537-.128,7.241,1.722-7.061.06-7.587,1.944-.43,8.475-5.85,7.641Z" transform="translate(-597.789 -583.712)" fill="#f18c7e"/>
      <path id="Path_82099" data-name="Path 82099" d="M2345.292,1832.7h-29.582c-.827-7.555-1.367-14.11-1.716-19.646l-.011-.179a8.408,8.408,0,0,1,.073-1.609q.022-.152.053-.3a4.868,4.868,0,0,1,2.095-3.236c4.162-2.811,13.308-.595,20.114,1.7,2.005.679,3.8,1.358,5.218,1.919,1.87.744,3.052,1.278,3.114,1.3h0l.374,14.065Z" transform="translate(-565.789 -1108.133)" fill="#ff443c"/>
      <path id="Path_82100" data-name="Path 82100" d="M2545.519,1738.249H2515.89c-.842-7.8-1.376-14.507-1.71-20.112-.026-.42-.049-.834-.072-1.241q-.053-.951-.1-1.859c-.136-2.661-.221-5.024-.272-7.1-.186-7.171.022-10.813.022-10.813l24.8,5.483,5.965,1.319.057,2.124.25,9.439.082,3.043.064,2.435h0l.321,12.045Z" transform="translate(-738.361 -1013.683)" fill="#ff443c"/>
      <path id="Path_82101" data-name="Path 82101" d="M2591.913,1932.766c-.065.043-5.957,3.982-8.335,8.857h-.418c2.379-5.053,8.478-9.128,8.546-9.173Z" transform="translate(-798.424 -1217.057)" fill="#66192d"/>
      <path id="Path_82102" data-name="Path 82102" d="M2490.667,1144.636l-1.946-5.831-.565-1.7-3.33-9.979-.438,9.926-.261,5.959-.084,1.885c-.055,1.28-.9,1.549-1.918,2.663-.414.451-3.066,3.183-.057,4.417,3.749,1.538,10.758-.791,13.422-3.842C2495.468,1148.135,2491.3,1146.52,2490.667,1144.636Z" transform="translate(-709.833 -521.094)" fill="#fdad9b"/>
      <ellipse id="Ellipse_7939" data-name="Ellipse 7939" cx="10.715" cy="9.53" rx="10.715" ry="9.53" transform="translate(1763.931 618.226) rotate(-77.78)" fill="#fdad9b"/>
      <path id="Path_82103" data-name="Path 82103" d="M2423.53,1044.425c-5.46.19-8.109-2.736-8.172-5.444-.08-3.474,2.274-6.551,5.024-5.259s1.565-1.875,4.2-2.212c4.928-.627,5.852,2.628,9.886,2.785,5.32.209,11.386,8.441,6.926,14.448C2441.392,1048.743,2427.841,1044.272,2423.53,1044.425Z" transform="translate(-653.406 -438.389)" fill="#66192d"/>
      <path id="Path_82104" data-name="Path 82104" d="M2439.75,1085.688s5.839,5.216,5.064,8.148-.574,4.085,2.833,5.651.4,4.108,4.939,4.291,10.1-4.8,10.1-12.991a11.822,11.822,0,0,0-2.827-7.556Z" transform="translate(-674.488 -483.155)" fill="#66192d"/>
      <path id="Path_82105" data-name="Path 82105" d="M2452.7,1154.858a2.071,2.071,0,0,1,2.716-.584,1.748,1.748,0,0,1,.321,2.57,2.071,2.071,0,0,1-2.716.584A1.747,1.747,0,0,1,2452.7,1154.858Z" transform="translate(-685.321 -544.305)" fill="#fdad9b"/>
      <path id="Path_82106" data-name="Path 82106" d="M2612.924,1162.19a.137.137,0,0,1-.136-.1,3.12,3.12,0,0,0-1.411-1.741.138.138,0,0,1,.136-.239,3.35,3.35,0,0,1,1.544,1.917.136.136,0,0,1-.1.163Z" transform="translate(-822.749 -549.576)" fill="#66192d"/>
      <path id="Path_82107" data-name="Path 82107" d="M2611.44,1147.621a.136.136,0,1,1-.008-.272c.015,0,1.494-.1,1.7-1.158a.135.135,0,0,1,.246-.05.138.138,0,0,1,.02.1c-.253,1.263-1.885,1.371-1.954,1.376Z" transform="translate(-822.743 -537.472)" fill="#66192d"/>
      <path id="Path_82108" data-name="Path 82108" d="M2433.829,1032.65a1.066,1.066,0,0,1-.292-.042,3.892,3.892,0,0,1-1.119-.553,2.3,2.3,0,0,0-2.276-.387.136.136,0,0,1-.079-.261,2.586,2.586,0,0,1,2.5.42,3.724,3.724,0,0,0,1.044.52.678.678,0,0,0,.592-.086c.6-.407.737-1.7.738-1.714a.136.136,0,1,1,.271.027c-.007.058-.156,1.432-.855,1.91A.908.908,0,0,1,2433.829,1032.65Z" transform="translate(-666.033 -437.521)" fill="#66192d"/>
      <path id="Path_82109" data-name="Path 82109" d="M2530.445,1039.237a5.869,5.869,0,0,1-3.5-1.358.136.136,0,1,1,.179-.2,5.434,5.434,0,0,0,3.9,1.25.137.137,0,1,1,.04.272A4.2,4.2,0,0,1,2530.445,1039.237Z" transform="translate(-749.804 -443.757)" fill="#66192d"/>
      <path id="Path_82110" data-name="Path 82110" d="M2463.428,1173.284a1.39,1.39,0,0,1-.375-.045.066.066,0,0,1-.042-.083.065.065,0,0,1,.081-.042c.051.016,1.236.367,2.074-1.184a.066.066,0,0,1,.116-.005.065.065,0,0,1,0,.068A2.1,2.1,0,0,1,2463.428,1173.284Z" transform="translate(-694.588 -559.778)" fill="#66192d"/>
      <path id="Path_82111" data-name="Path 82111" d="M2313.465,1786.615s39.606-2.165,58.4,2.367l.28-5.359-26.354-7.8-21.277.523-6.538,1.395-4.617,7.124Z" transform="translate(-565.261 -1081.697)" fill="#66192d"/>
      <path id="Path_82112" data-name="Path 82112" d="M2368.378,1279.309s-3.487-14.99-24.811-14.989c-37.163,0-26.739,30.31-30.177,78.5,0,0,23.959-5.193,58.628,1.718,0,0,3.375-26.1-.986-48.159C2369.881,1290.552,2370.089,1284.374,2368.378,1279.309Z" transform="translate(-565.287 -639.654)" fill="#786ab5"/>
      <path id="Path_82113" data-name="Path 82113" d="M2222.034,1264.31s-11.923.174-20.787,8.54-20.281,19.892-22.7,26.523c-2.987,8.164,2.508,16.356,9.481,16.53s13.222-4.88,13.222-4.88Z" transform="translate(-448.032 -639.646)" fill="#786ab5"/>
      <path id="Path_82114" data-name="Path 82114" d="M2204.614,1243.81s-23.186,25.791-24.232,40.432c-.858,12.028,31.03-15.692,33.474-21.26s-1.263-12.884-1.263-12.884Z" transform="translate(-450.325 -621.93)" fill="#786ab5"/>
      <path id="Path_82115" data-name="Path 82115" d="M2643.9,1332.157c-3.487-25.8-32.861-40.367-32.861-40.367l-6.264,32.358,12.236,3.882a9.774,9.774,0,0,1,5.054,14.937c-4.872,6.881-7.719,16.107-2.687,14.408C2627.966,1354.468,2645.638,1343.486,2643.9,1332.157Z" transform="translate(-817.099 -663.394)" fill="#786ab5"/>
      <path id="Path_82116" data-name="Path 82116" d="M2232.513,1315.03l-.234-.118c.126-.247,12.663-24.729,24.85-30.3l.108.238C2245.132,1290.384,2232.635,1314.784,2232.513,1315.03Z" transform="translate(-495.191 -657.189)" fill="#66192d"/>
      <path id="Path_82117" data-name="Path 82117" d="M2736.667,1523.425l-.26-.013c1.033-18.9-2.309-38.254-2.347-38.447l.259-.045C2734.353,1485.113,2737.7,1504.493,2736.667,1523.425Z" transform="translate(-928.833 -830.299)" fill="#66192d"/>
      <path id="Path_82118" data-name="Path 82118" d="M2319.736,1530.633l-.136-.226c7-4.132,16.12-15.019,16.212-15.127l.2.167C2335.924,1515.557,2326.78,1526.477,2319.736,1530.633Z" transform="translate(-570.653 -856.536)" fill="#66192d"/>
      <path id="Path_82119" data-name="Path 82119" d="M2712.72,898.765a.835.835,0,1,1,.835.835A.835.835,0,0,1,2712.72,898.765Z" transform="translate(-910.391 -323.017)" fill="#3183c5"/>
      <path id="Path_82120" data-name="Path 82120" d="M2508,694.014a.835.835,0,1,1,.244.591A.835.835,0,0,1,2508,694.014Z" transform="translate(-733.47 -146.071)" fill="#3183c5"/>
      <path id="Path_82121" data-name="Path 82121" d="M2231.48,865.145a.835.835,0,1,1,.835.835A.835.835,0,0,1,2231.48,865.145Z" transform="translate(-494.499 -293.963)" fill="#3183c5"/>
      <path id="Path_82122" data-name="Path 82122" d="M2362.65,1043.9a.836.836,0,1,1,.244.591A.836.836,0,0,1,2362.65,1043.9Z" transform="translate(-607.857 -448.449)" fill="#3183c5"/>
      <path id="Path_82123" data-name="Path 82123" d="M2532.7,937.475a.835.835,0,1,1,.835.835A.835.835,0,0,1,2532.7,937.475Z" transform="translate(-754.816 -356.471)" fill="#3183c5"/>
      <path id="Path_82124" data-name="Path 82124" d="M2574.43,1001.1a.835.835,0,1,1,.835.835A.835.835,0,0,1,2574.43,1001.1Z" transform="translate(-790.879 -411.452)" fill="#3183c5"/>
      <path id="Path_82125" data-name="Path 82125" d="M2016.37,976.768a.835.835,0,1,1,.245.591.837.837,0,0,1-.245-.591Z" transform="translate(-308.6 -390.426)" fill="#3183c5"/>
      <path id="Path_82126" data-name="Path 82126" d="M3088.747,985.541a.115.115,0,0,1-.082-.034.118.118,0,0,1,0-.168,4.693,4.693,0,0,1,2.835-1.025,5.369,5.369,0,0,0-1.964-2.374.117.117,0,0,1-.051-.075.116.116,0,0,1,.016-.09.121.121,0,0,1,.166-.035,5.371,5.371,0,0,1,2.1,2.659.123.123,0,0,1-.021.1.119.119,0,0,1-.093.046,4.787,4.787,0,0,0-2.82.959A.117.117,0,0,1,3088.747,985.541Z" transform="translate(-1235.255 -395.43)" fill="#3183c5"/>
      <path id="Path_82127" data-name="Path 82127" d="M3085.319,670.812a.12.12,0,0,1-.057-.014,5.364,5.364,0,0,1-2.318-2.474.125.125,0,0,1,.014-.1.115.115,0,0,1,.088-.053,4.78,4.78,0,0,0,2.731-1.188.12.12,0,0,1,.186.149,4.685,4.685,0,0,1-2.742,1.256,5.39,5.39,0,0,0,2.155,2.2.122.122,0,0,1,.048.163A.118.118,0,0,1,3085.319,670.812Z" transform="translate(-1230.337 -123.394)" fill="#3183c5"/>
      <path id="Path_82128" data-name="Path 82128" d="M2703.415,737.367a.124.124,0,0,1-.063-.019,5.364,5.364,0,0,1-2.146-2.623.119.119,0,0,1,.112-.149,4.8,4.8,0,0,0,2.805-1,.118.118,0,0,1,.083-.039.117.117,0,0,1,.085.032.119.119,0,0,1,0,.168,4.677,4.677,0,0,1-2.819,1.07,5.41,5.41,0,0,0,2,2.342.119.119,0,0,1,.037.164A.123.123,0,0,1,2703.415,737.367Z" transform="translate(-900.437 -180.945)" fill="#3183c5"/>
      <path id="Path_82129" data-name="Path 82129" d="M1934.232,655.45a.119.119,0,0,1-.117-.094,4.681,4.681,0,0,1,.741-2.922,5.411,5.411,0,0,0-3.068.3.12.12,0,0,1-.091-.221,5.367,5.367,0,0,1,3.38-.252.12.12,0,0,1,.058.178,4.784,4.784,0,0,0-.788,2.872.119.119,0,0,1-.093.136A.072.072,0,0,1,1934.232,655.45Z" transform="translate(-235.361 -110.538)" fill="#3183c5"/>
      <path id="Path_82130" data-name="Path 82130" d="M1807.672,1105.008a.119.119,0,0,1-.118-.1,5.379,5.379,0,0,0-1.239-2.822,4.7,4.7,0,0,1-2.189,2.073.119.119,0,1,1-.071-.228c1.2-.369,2.113-2.072,2.122-2.09a.117.117,0,0,1,.083-.061.122.122,0,0,1,.1.026,5.353,5.353,0,0,1,1.428,3.073.119.119,0,0,1-.1.135Z" transform="translate(-125.04 -499.181)" fill="#3183c5"/>
      <path id="Path_82131" data-name="Path 82131" d="M1986.395,1308.452a.122.122,0,0,1-.061-.018.12.12,0,0,1-.055-.074.122.122,0,0,1,.014-.091,5.412,5.412,0,0,0,.744-2.988,4.688,4.688,0,0,1-3,.3.12.12,0,1,1,.084-.224,4.786,4.786,0,0,0,2.958-.357.12.12,0,0,1,.1,0,.115.115,0,0,1,.062.081,5.362,5.362,0,0,1-.747,3.307A.12.12,0,0,1,1986.395,1308.452Z" transform="translate(-280.589 -674.805)" fill="#3183c5"/>
    </g>
  </g>
</svg>
