<svg xmlns="http://www.w3.org/2000/svg" width="11.108" height="11.109" viewBox="0 0 11.108 11.109">
  <g id="cart_product" transform="translate(0 0)">
    <g id="Group_47788" data-name="Group 47788" transform="translate(0 0)">
      <path id="Path_77534" data-name="Path 77534" d="M21.787,15.251a1.185,1.185,0,0,0-.932-.472h-.818A3.708,3.708,0,0,0,16.579,11a3.708,3.708,0,0,0-3.457,3.779H12.3a1.185,1.185,0,0,0-.932.472,1.684,1.684,0,0,0-.3,1.421L12.052,21a1.33,1.33,0,0,0,1.233,1.111h6.586A1.328,1.328,0,0,0,21.1,21l.984-4.326a1.684,1.684,0,0,0-.3-1.421Zm-5.208-3.326a2.781,2.781,0,0,1,2.53,2.854h-5.06A2.782,2.782,0,0,1,16.579,11.925Zm4.607,4.541L20.2,20.794c-.05.222-.193.39-.331.39H13.285c-.138,0-.281-.168-.331-.39l-.982-4.328c-.052-.229-.084-.762.331-.762h8.551C21.3,15.7,21.238,16.237,21.186,16.466Z" transform="translate(-11.025 -11)" fill="#f08e22"/>
      <path id="Path_77535" data-name="Path 77535" d="M134.762,259.1a.461.461,0,0,0-.462.462v2.891a.462.462,0,1,0,.925,0v-2.891A.461.461,0,0,0,134.762,259.1Z" transform="translate(-131.505 -253.475)" fill="#f08e22"/>
      <path id="Path_77536" data-name="Path 77536" d="M233.662,259.1a.461.461,0,0,0-.462.462v2.891a.462.462,0,1,0,.925,0v-2.891A.464.464,0,0,0,233.662,259.1Z" transform="translate(-228.163 -253.475)" fill="#f08e22"/>
      <path id="Path_77537" data-name="Path 77537" d="M332.462,259.1a.461.461,0,0,0-.462.462v2.891a.463.463,0,1,0,.925,0v-2.891A.463.463,0,0,0,332.462,259.1Z" transform="translate(-324.723 -253.475)" fill="#f08e22"/>
    </g>
  </g>
</svg>
