<svg xmlns="http://www.w3.org/2000/svg" width="35" height="26" viewBox="0 0 20 16">
  <path id="Cart_Icon" data-name="Cart Icon" d="M15.573,16a1.185,1.185,0,1,1,1.2-1.185A1.2,1.2,0,0,1,15.573,16ZM9.666,16a1.185,1.185,0,1,1,1.2-1.185A1.2,1.2,0,0,1,9.666,16Zm5.593-3.632h-5.7a3.211,3.211,0,0,1-3.035-2.126L4.4,4.234l0-.012,0-.012L3.476,1.616a.757.757,0,0,0-.715-.5H.565A.562.562,0,0,1,0,.558.562.562,0,0,1,.565,0h2.2A1.89,1.89,0,0,1,4.546,1.249l.79,2.233H18.472a1.535,1.535,0,0,1,1.24.626,1.487,1.487,0,0,1,.209,1.358L18.3,10.21A3.2,3.2,0,0,1,15.259,12.368ZM5.729,4.6h0L7.59,9.875a2.079,2.079,0,0,0,1.966,1.378h5.7a2.076,2.076,0,0,0,1.973-1.4l1.616-4.742a.383.383,0,0,0-.054-.354.393.393,0,0,0-.322-.162H5.729Z" fill="#f08e22"/>
</svg>
