<svg xmlns="http://www.w3.org/2000/svg" width="138.307" height="135.428" viewBox="0 0 138.307 135.428">
  <g id="change" transform="translate(-118.879 -152.886)">
    <g id="freepik--Padlock--inject-60" transform="translate(118.879 161.157)">
      <path id="Path_81615" data-name="Path 81615" d="M60.416,72.817A11.258,11.258,0,0,0,54.27,87.483l6.981,17.04,3.115-1.28L57.389,86.2a7.86,7.86,0,0,1,14.548-5.956l3.131-1.283a11.252,11.252,0,0,0-14.651-6.143Z" transform="translate(-46.105 -71.983)" fill="#3183c5"/>
      <g id="Group_50155" data-name="Group 50155" transform="translate(7.328 0)" opacity="0.3">
        <path id="Path_81616" data-name="Path 81616" d="M60.416,72.817A11.258,11.258,0,0,0,54.27,87.483l6.981,17.04,3.115-1.28L57.389,86.2a7.86,7.86,0,0,1,14.548-5.956l3.131-1.283a11.252,11.252,0,0,0-14.651-6.143Z" transform="translate(-53.433 -71.983)"/>
      </g>
      <rect id="Rectangle_20516" data-name="Rectangle 20516" width="30.307" height="19.445" rx="5.81" transform="translate(8.426 26.44) rotate(-22.27)" fill="#3183c5"/>
      <g id="Group_50156" data-name="Group 50156" transform="translate(22.633 24.808)" opacity="0.5">
        <path id="Path_81617" data-name="Path 81617" d="M107.444,153.2a2.533,2.533,0,1,0-2.062,3.467l1.433,3.5,1.28-.523-1.436-3.5A2.523,2.523,0,0,0,107.444,153.2Z" transform="translate(-102.563 -151.62)"/>
      </g>
      <path id="Path_81618" data-name="Path 81618" d="M71.023,177.554c-.065.028-1.346-2.953-2.86-6.654s-2.695-6.723-2.629-6.751,1.346,2.953,2.86,6.657S71.085,177.529,71.023,177.554Z" transform="translate(-54.435 -135.438)" fill="#fafafa"/>
      <path id="Path_81619" data-name="Path 81619" d="M102.267,157.277a.862.862,0,0,1-.336-.044,3.159,3.159,0,0,1-.857-.371,3.545,3.545,0,0,1-.85-5.408,2.963,2.963,0,0,1,.7-.623.847.847,0,0,1,.312-.146,8.074,8.074,0,0,0-.872.869,3.514,3.514,0,0,0,.81,5.149,8.212,8.212,0,0,0,1.093.573Z" transform="translate(-77.704 -126.167)" fill="#fafafa"/>
      <path id="Path_81620" data-name="Path 81620" d="M42.709,180.732l.153-.442.29.368a1.935,1.935,0,0,0,.9.623l.442.153-.368.29a1.975,1.975,0,0,0-.623.9l-.15.452-.312-.364a1.966,1.966,0,0,0-.9-.623l-.439-.153.364-.29A1.975,1.975,0,0,0,42.709,180.732Z" transform="translate(-38.027 -146.551)" fill="#3183c5"/>
      <path id="Path_81621" data-name="Path 81621" d="M91.092,125.355l.087-.255.168.212a1.149,1.149,0,0,0,.523.38l.255.087-.212.171a1.131,1.131,0,0,0-.371.52l-.087.255-.178-.224a1.1,1.1,0,0,0-.52-.368l-.259-.09.215-.168a1.146,1.146,0,0,0,.377-.52Z" transform="translate(-71.625 -108.553)" fill="#3183c5"/>
      <path id="Path_81622" data-name="Path 81622" d="M31.6,131.225l.255-.745.489.623a3.265,3.265,0,0,0,1.508,1.065l.741.255-.623.489a3.293,3.293,0,0,0-1.068,1.508l-.255.741-.486-.623a3.271,3.271,0,0,0-1.508-1.068l-.741-.255.623-.486A3.3,3.3,0,0,0,31.6,131.225Z" transform="translate(-29.91 -112.257)" fill="#3183c5"/>
    </g>
    <g id="freepik--Device--inject-60" transform="translate(150.467 152.886)">
      <path id="Path_81623" data-name="Path 81623" d="M187.3,180.774l-45.983-.028a10.018,10.018,0,0,1-10.012-10.018l.022-115.282A10.018,10.018,0,0,1,141.356,45.43l45.983.025a10.018,10.018,0,0,1,10.012,10.018l-.022,115.285A10.018,10.018,0,0,1,187.3,180.774Z" transform="translate(-131.31 -45.43)" fill="#263238"/>
      <path id="Path_81624" data-name="Path 81624" d="M194.02,58.559H185.11a2.212,2.212,0,0,0-2.165,2.262v1.6a2.215,2.215,0,0,1-2.165,2.262H163.4a2.218,2.218,0,0,1-2.181-2.265V60.8a2.215,2.215,0,0,0-2.165-2.265H148.133a7.018,7.018,0,0,0-7.022,7l-.022,112.525a7.015,7.015,0,0,0,7.012,7.015l45.892.028a7.012,7.012,0,0,0,7.018-7.015l.022-112.522A7.015,7.015,0,0,0,194.02,58.559Z" transform="translate(-138.043 -54.456)" fill="#fff"/>
      <path id="Path_81625" data-name="Path 81625" d="M219.733,435.322a.882.882,0,1,1-.891-.872A.882.882,0,0,1,219.733,435.322Z" transform="translate(-190.974 -313.264)" fill="#263238"/>
      <path id="Path_81626" data-name="Path 81626" d="M235.573,435.192a.882.882,0,1,1-.888-.872A.882.882,0,0,1,235.573,435.192Z" transform="translate(-201.88 -313.175)" fill="#263238"/>
      <path id="Path_81627" data-name="Path 81627" d="M251.423,435.072a.882.882,0,1,1-.888-.872A.882.882,0,0,1,251.423,435.072Z" transform="translate(-212.792 -313.092)" fill="#263238"/>
      <path id="Path_81628" data-name="Path 81628" d="M300.431,95.025c0,.025-1.162.056-2.592.069s-2.589,0-2.589-.028S296.418,95,297.839,95,300.427,95,300.431,95.025Z" transform="translate(-244.18 -79.558)" fill="#263238"/>
      <path id="Path_81629" data-name="Path 81629" d="M300.461,99.257c0,.028-1.159.059-2.589.072s-2.592,0-2.592-.028,1.159-.059,2.592-.072S300.461,99.229,300.461,99.257Z" transform="translate(-244.201 -82.467)" fill="#263238"/>
      <path id="Path_81630" data-name="Path 81630" d="M300.551,103.514c0,.028-1.162.059-2.592.072s-2.589,0-2.589-.028,1.159-.056,2.589-.069S300.532,103.489,300.551,103.514Z" transform="translate(-244.263 -85.4)" fill="#263238"/>
      <path id="Path_81632" data-name="Path 81632" d="M189.2,190.317c0,1.081-.81,1.754-2.106,1.754h-.975V193.4H185V188.56h2.1C188.386,188.56,189.2,189.233,189.2,190.317Zm-1.137,0c0-.533-.346-.844-1.031-.844h-.913v1.682h.913C187.713,191.155,188.059,190.843,188.059,190.317Z" transform="translate(-168.275 -143.973)" fill="#263238"/>
      <path id="Path_81633" data-name="Path 81633" d="M203.426,193.633v2.125h-1.009v-.464a1.224,1.224,0,0,1-1.134.52c-.872,0-1.392-.483-1.392-1.128s.464-1.115,1.6-1.115h.86c0-.464-.277-.732-.86-.732a1.785,1.785,0,0,0-1.072.346l-.389-.754a2.859,2.859,0,0,1,1.607-.452C202.768,191.985,203.426,192.5,203.426,193.633Zm-1.078.95v-.38h-.741c-.5,0-.664.184-.664.433s.227.464.607.464a.794.794,0,0,0,.8-.517Z" transform="translate(-178.526 -146.326)" fill="#263238"/>
      <path id="Path_81634" data-name="Path 81634" d="M213.22,195.412l.361-.776a2.53,2.53,0,0,0,1.293.361c.5,0,.685-.131.685-.34,0-.623-2.249,0-2.249-1.473,0-.707.623-1.206,1.723-1.206a3.04,3.04,0,0,1,1.433.327l-.358.766a2.181,2.181,0,0,0-1.075-.277c-.483,0-.692.153-.692.349,0,.623,2.249.019,2.249,1.486,0,.692-.645,1.184-1.757,1.184A3.181,3.181,0,0,1,213.22,195.412Z" transform="translate(-187.704 -146.326)" fill="#263238"/>
      <path id="Path_81635" data-name="Path 81635" d="M225,195.412l.358-.776a2.552,2.552,0,0,0,1.3.361c.5,0,.685-.131.685-.34,0-.623-2.249,0-2.249-1.473,0-.707.623-1.206,1.723-1.206a3.049,3.049,0,0,1,1.433.327l-.361.766a2.149,2.149,0,0,0-1.072-.277c-.486,0-.692.153-.692.349,0,.623,2.249.019,2.249,1.486,0,.692-.645,1.184-1.757,1.184A3.171,3.171,0,0,1,225,195.412Z" transform="translate(-195.814 -146.326)" fill="#263238"/>
      <path id="Path_81636" data-name="Path 81636" d="M242.64,192.16l-1.349,3.738h-1.037l-.838-2.311-.866,2.311h-1.037l-1.343-3.738h1.019l.878,2.52.913-2.52h.913l.888,2.52.906-2.52Z" transform="translate(-203.505 -146.451)" fill="#263238"/>
      <path id="Path_81637" data-name="Path 81637" d="M257.35,193.9a2.049,2.049,0,1,1,2.047,1.916A1.916,1.916,0,0,1,257.35,193.9Zm3,0a.953.953,0,1,0-.95,1.031.935.935,0,0,0,.959-1.031Z" transform="translate(-218.087 -146.327)" fill="#263238"/>
      <path id="Path_81638" data-name="Path 81638" d="M275.1,191.989v1h-.243a.909.909,0,0,0-.991,1.037v1.757H272.79v-3.738h1.031v.492a1.5,1.5,0,0,1,1.28-.545Z" transform="translate(-228.717 -146.33)" fill="#263238"/>
      <path id="Path_81639" data-name="Path 81639" d="M285.4,187.63v5.134h-1.04v-.427a1.436,1.436,0,0,1-1.162.483,1.919,1.919,0,0,1,0-3.835,1.423,1.423,0,0,1,1.112.452V187.63Zm-1.059,3.274a.953.953,0,1,0-.935,1.031.935.935,0,0,0,.935-1.031Z" transform="translate(-234.616 -143.333)" fill="#263238"/>
      <path id="Path_81640" data-name="Path 81640" d="M207.125,216.821c0,.044-11.526.081-25.759.081s-25.765-.037-25.765-.081,11.526-.081,25.765-.081S207.125,216.768,207.125,216.821Z" transform="translate(-148.033 -163.374)" fill="#e0e0e0"/>
      <path id="Path_81641" data-name="Path 81641" d="M203.275,369.051c0,.047-11.526.081-25.762.081s-25.762-.034-25.762-.081,11.526-.081,25.762-.081S203.275,369.007,203.275,369.051Z" transform="translate(-145.383 -268.182)" fill="#e0e0e0"/>
      <path id="Path_81642" data-name="Path 81642" d="M216.482,380.491c0,.044-6.408.081-14.311.081s-14.311-.037-14.311-.081,6.4-.081,14.311-.081S216.482,380.444,216.482,380.491Z" transform="translate(-170.244 -276.059)" fill="#e0e0e0"/>
      <path id="Path_81643" data-name="Path 81643" d="M164.552,257.382l.975.526-.439.735-.984-.583.019,1.084h-.841v-1.093l-.988.592-.421-.732.966-.53-.978-.539.43-.732.987.589v-1.09h.841l-.019,1.09.984-.589.439.732Z" transform="translate(-152.343 -190.136)" fill="#3183c5"/>
      <path id="Path_81644" data-name="Path 81644" d="M200.5,257.382l.975.526-.439.735-.978-.583v1.1h-.844v-1.093l-.984.592-.408-.744.991-.53-.975-.539.43-.732.984.589v-1.09h.807l-.019,1.09.984-.589.439.732Z" transform="translate(-177.101 -190.136)" fill="#3183c5"/>
      <path id="Path_81645" data-name="Path 81645" d="M235.459,257.389l.975.526-.439.735-.984-.583.019,1.1h-.841v-1.093l-.988.592-.421-.745.978-.527-.978-.539.43-.732.988.589v-1.09h.832l-.019,1.09.984-.589.439.732Z" transform="translate(-201.171 -190.143)" fill="#3183c5"/>
      <path id="Path_81646" data-name="Path 81646" d="M269.329,257.389l.975.526-.43.735-.984-.583.019,1.084h-.841v-1.093l-.984.592-.433-.732.978-.527-.978-.539.43-.732.984.589v-1.09h.841l-.019,1.09.984-.589.439.732Z" transform="translate(-224.49 -190.143)" fill="#3183c5"/>
      <path id="Path_81647" data-name="Path 81647" d="M302.936,257.389l.981.53-.439.735-.984-.583.016,1.084h-.841v-1.093l-.984.592-.424-.735.975-.527-.975-.539.43-.732.984.589v-1.09h.841l-.016,1.09.984-.589.439.732Z" transform="translate(-247.63 -190.143)" fill="#3183c5"/>
      <path id="Path_81648" data-name="Path 81648" d="M160.772,254.831h-4.719a2.206,2.206,0,0,1-2.2-2.2v-8.38a2.2,2.2,0,0,1,2.2-2.2h4.719a2.2,2.2,0,0,1,2.2,2.2v8.377A2.206,2.206,0,0,1,160.772,254.831Zm-4.719-12.626a2.047,2.047,0,0,0-2.047,2.044v8.377a2.05,2.05,0,0,0,2.047,2.047h4.719a2.047,2.047,0,0,0,2.047-2.047v-8.38a2.047,2.047,0,0,0-2.047-2.044Z" transform="translate(-146.828 -180.8)" fill="#263238"/>
      <path id="Path_81649" data-name="Path 81649" d="M195.934,254.825h-4.719A2.206,2.206,0,0,1,189,252.619v-8.38a2.2,2.2,0,0,1,2.2-2.2h4.719a2.2,2.2,0,0,1,2.2,2.2v8.38a2.206,2.206,0,0,1-2.19,2.206ZM191.215,242.2a2.047,2.047,0,0,0-2.047,2.044v8.377a2.05,2.05,0,0,0,2.047,2.047h4.719a2.047,2.047,0,0,0,2.047-2.047v-8.38a2.047,2.047,0,0,0-2.047-2.044Z" transform="translate(-171.029 -180.793)" fill="#263238"/>
      <path id="Path_81650" data-name="Path 81650" d="M230.185,254.831h-4.723a2.205,2.205,0,0,1-2.2-2.2v-8.38a2.2,2.2,0,0,1,2.2-2.2h4.723a2.2,2.2,0,0,1,2.2,2.2v8.377A2.2,2.2,0,0,1,230.185,254.831Zm-4.723-12.626a2.047,2.047,0,0,0-2.047,2.044v8.377a2.05,2.05,0,0,0,2.047,2.047h4.723a2.047,2.047,0,0,0,2.044-2.047v-8.38a2.044,2.044,0,0,0-2.044-2.044Z" transform="translate(-194.616 -180.8)" fill="#263238"/>
      <path id="Path_81651" data-name="Path 81651" d="M264.795,254.831h-4.723a2.206,2.206,0,0,1-2.2-2.2v-8.38a2.2,2.2,0,0,1,2.2-2.2h4.723a2.2,2.2,0,0,1,2.2,2.2v8.377A2.2,2.2,0,0,1,264.795,254.831Zm-4.723-12.626a2.047,2.047,0,0,0-2.047,2.044v8.377a2.05,2.05,0,0,0,2.047,2.047h4.723a2.047,2.047,0,0,0,2.044-2.047v-8.38a2.044,2.044,0,0,0-2.044-2.044Z" transform="translate(-218.445 -180.8)" fill="#263238"/>
      <path id="Path_81652" data-name="Path 81652" d="M298.4,254.831h-4.719a2.206,2.206,0,0,1-2.2-2.2v-8.38a2.2,2.2,0,0,1,2.2-2.2H298.4a2.2,2.2,0,0,1,2.2,2.2v8.377A2.206,2.206,0,0,1,298.4,254.831Zm-4.719-12.626a2.047,2.047,0,0,0-2.047,2.044v8.377a2.047,2.047,0,0,0,2.047,2.047H298.4a2.05,2.05,0,0,0,2.047-2.047v-8.38A2.047,2.047,0,0,0,298.4,242.2Z" transform="translate(-241.585 -180.8)" fill="#263238"/>
      <rect id="Rectangle_20517" data-name="Rectangle 20517" width="52.892" height="9.264" rx="4.632" transform="translate(7.096 84.15)" fill="#3183c5"/>
      <path id="Path_81653" data-name="Path 81653" d="M217.55,324.45h1.424a1.566,1.566,0,1,1,0,3.115H217.55Zm1.386,2.539a.972.972,0,1,0,0-1.944h-.664v1.944Z" transform="translate(-190.685 -237.531)" fill="#fff"/>
      <path id="Path_81654" data-name="Path 81654" d="M228.684,327.538a1.327,1.327,0,1,1,1.327,1.246,1.246,1.246,0,0,1-1.327-1.246Zm1.941,0a.623.623,0,1,0-.623.623A.623.623,0,0,0,230.625,327.538Z" transform="translate(-198.349 -238.688)" fill="#fff"/>
      <path id="Path_81655" data-name="Path 81655" d="M241.151,327.747v1.377h-.7v-1.271c0-.389-.181-.567-.489-.567a.573.573,0,0,0-.576.648v1.19h-.7v-2.408h.667V327a1.056,1.056,0,0,1,.8-.311A.935.935,0,0,1,241.151,327.747Z" transform="translate(-205.24 -239.071)" fill="#fff"/>
      <path id="Path_81656" data-name="Path 81656" d="M250.656,328.075h-1.822a.645.645,0,0,0,.688.483.807.807,0,0,0,.6-.234l.374.4a1.408,1.408,0,0,1-2.371-.857,1.224,1.224,0,0,1,1.287-1.246,1.19,1.19,0,0,1,1.246,1.246A1.419,1.419,0,0,1,250.656,328.075Zm-1.832-.4h1.187a.6.6,0,0,0-1.187,0Z" transform="translate(-211.738 -239.028)" fill="#fff"/>
      <circle id="Ellipse_7926" data-name="Ellipse 7926" cx="9.361" cy="9.361" r="9.361" transform="translate(23.66 21.195)" fill="#3183c5"/>
      <path id="Path_81657" data-name="Path 81657" d="M231.656,132.088H231.5v-.872a1.825,1.825,0,0,1,3.651,0v.71H235v-.71a1.67,1.67,0,1,0-3.339,0Z" transform="translate(-200.289 -103.235)" fill="#fff"/>
      <path id="Path_81658" data-name="Path 81658" d="M232.8,143.984h-4.642a.773.773,0,0,1-.769-.769v-4.645a.773.773,0,0,1,.769-.769H232.8a.773.773,0,0,1,.769.769v4.645A.773.773,0,0,1,232.8,143.984Zm-4.642-6.028a.623.623,0,0,0-.623.623v4.645a.623.623,0,0,0,.623.623H232.8a.623.623,0,0,0,.623-.623v-4.654a.623.623,0,0,0-.623-.623Z" transform="translate(-197.46 -109.025)" fill="#fff"/>
      <path id="Path_81659" data-name="Path 81659" d="M235.769,144.988a.729.729,0,1,1,.729-.729A.729.729,0,0,1,235.769,144.988Zm0-1.3a.238.238,0,1,0,0-.012Z" transform="translate(-202.727 -112.97)" fill="#fff"/>
      <rect id="Rectangle_20518" data-name="Rectangle 20518" width="0.156" height="1.315" transform="translate(32.943 31.908)" fill="#fff"/>
    </g>
    <g id="freepik--Character--inject-60" transform="translate(212.648 162.432)">
      <path id="Path_81660" data-name="Path 81660" d="M418.413,428.8l-5.878-13.56-6.744,4.33,7.152,12.4,3.586-1.607Z" transform="translate(-382.467 -309.585)" fill="#ffbe9d"/>
      <path id="Path_81661" data-name="Path 81661" d="M432.141,456.34l.193.386s7.835-.67,8.529.533l-12.972,6.451-1.972-4.4A8.264,8.264,0,0,0,432.141,456.34Z" transform="translate(-396.326 -337.882)" fill="#3183c5"/>
      <g id="Group_50157" data-name="Group 50157" transform="translate(31.408 122.016)" opacity="0.6">
        <path id="Path_81662" data-name="Path 81662" d="M431.93,467.9a.589.589,0,0,0-.065.785.567.567,0,0,0,.779.072.623.623,0,0,0,.065-.832.592.592,0,0,0-.819,0" transform="translate(-431.745 -467.761)" fill="#fff"/>
      </g>
      <g id="Group_50158" data-name="Group 50158" transform="translate(31.092 118.975)" opacity="0.6">
        <path id="Path_81663" data-name="Path 81663" d="M431.2,464.852l-.473-1.059,12.6-5.794s.7-.034.841.4Z" transform="translate(-430.73 -457.998)" fill="#fff"/>
      </g>
      <path id="Path_81664" data-name="Path 81664" d="M444.807,457.585c.028.065-.274.249-.483.623s-.246.707-.311.71-.159-.408.1-.838S444.791,457.52,444.807,457.585Z" transform="translate(-408.733 -338.728)" fill="#263238"/>
      <path id="Path_81665" data-name="Path 81665" d="M450.835,457.229c.047.056-.174.311-.255.673s0,.692-.069.72-.283-.311-.171-.776S450.8,457.169,450.835,457.229Z" transform="translate(-413.117 -338.487)" fill="#263238"/>
      <path id="Path_81666" data-name="Path 81666" d="M456.382,458.292c-.053.044-.312-.231-.312-.657s.218-.713.271-.673-.037.312-.025.667S456.441,458.254,456.382,458.292Z" transform="translate(-417.084 -338.307)" fill="#263238"/>
      <path id="Path_81667" data-name="Path 81667" d="M393.794,433.661l.224-14.781-7.928,1.171,1.414,14.242,3.931.009Z" transform="translate(-368.904 -312.091)" fill="#ffbe9d"/>
      <path id="Path_81668" data-name="Path 81668" d="M396.166,463.94l.022.43s7.414,2.617,7.551,4l-14.479.542.016-4.825A8.294,8.294,0,0,0,396.166,463.94Z" transform="translate(-371.086 -343.114)" fill="#3183c5"/>
      <g id="Group_50159" data-name="Group 50159" transform="translate(19.315 122.445)" opacity="0.6">
        <path id="Path_81669" data-name="Path 81669" d="M393.321,469.149a.6.6,0,0,0-.383.692.57.57,0,0,0,.682.386.623.623,0,0,0,.4-.735.589.589,0,0,0-.754-.311" transform="translate(-392.923 -469.139)" fill="#fff"/>
      </g>
      <g id="Group_50160" data-name="Group 50160" transform="translate(18.174 124.539)" opacity="0.6">
        <path id="Path_81670" data-name="Path 81670" d="M389.26,477.115v-1.159l13.875-.1s.657.255.6.714Z" transform="translate(-389.26 -475.86)" fill="#fff"/>
      </g>
      <path id="Path_81671" data-name="Path 81671" d="M408.806,465.318c0,.072-.352.118-.692.358s-.511.542-.579.517.025-.436.439-.72S408.818,465.252,408.806,465.318Z" transform="translate(-383.654 -344.025)" fill="#263238"/>
      <path id="Path_81672" data-name="Path 81672" d="M414.562,467.22c.019.065-.28.2-.511.508s-.287.623-.358.623-.128-.4.162-.779S414.559,467.151,414.562,467.22Z" transform="translate(-387.868 -345.354)" fill="#263238"/>
      <path id="Path_81673" data-name="Path 81673" d="M419.394,470.257c-.062.016-.174-.333,0-.726s.492-.561.526-.5-.165.274-.312.6S419.465,470.257,419.394,470.257Z" transform="translate(-391.769 -346.609)" fill="#263238"/>
      <path id="Path_81674" data-name="Path 81674" d="M361.736,247.168l-.3-11.638-11.327.6-.374,1.377a62.421,62.421,0,0,0-1.483,6.479A27.326,27.326,0,0,0,349.5,258.5c1.916,5.212,4.909,15.121,4.909,15.121l11.236,31.036,13.084-4.3Z" transform="translate(-342.549 -185.858)" fill="#263238"/>
      <path id="Path_81675" data-name="Path 81675" d="M391.05,234.32l.987,3.224c1.452.935,3.8,5.514,4.012,7.389a109.017,109.017,0,0,1,.2,15.822c-.365,6.19-3.427,42.419-3.427,42.419l-12.38.654,1.29-58.583.545-10.461Z" transform="translate(-365.014 -185.024)" fill="#263238"/>
      <path id="Path_81676" data-name="Path 81676" d="M346.4,255.9a1.991,1.991,0,0,0,.43.128,7.112,7.112,0,0,0,1.206.162,7.866,7.866,0,0,0,6.925-3.427,6.775,6.775,0,0,0,.6-1.059,1.868,1.868,0,0,0,.159-.417c-.031-.016-.265.583-.86,1.408a8.121,8.121,0,0,1-6.819,3.38A16.31,16.31,0,0,1,346.4,255.9Z" transform="translate(-341.578 -196.707)" fill="#455a64"/>
      <path id="Path_81677" data-name="Path 81677" d="M413,246.12a.849.849,0,0,0,.072.271,5.871,5.871,0,0,0,.287.7,9.034,9.034,0,0,0,3.265,3.707,6.087,6.087,0,0,0,.657.371.935.935,0,0,0,.259.106c.016-.028-.33-.215-.847-.579a10.3,10.3,0,0,1-3.224-3.657C413.165,246.478,413.022,246.11,413,246.12Z" transform="translate(-387.431 -193.148)" fill="#455a64"/>
      <path id="Path_81678" data-name="Path 81678" d="M378.552,277.88s.031.078.084.24l.227.713c.2.623.489,1.558.86,2.744.741,2.392,1.813,5.844,3.137,10.109,2.685,8.523,6.1,20.395,10.669,33.245q.785,2.308,1.558,4.557l.025.081-.078.025-13.084,4.3-.072.025-.025-.072-7.523-20.871-2.14-5.978c-.246-.692-.433-1.227-.564-1.592q-.093-.268-.14-.411l-.047-.14s.022.044.056.137.087.231.156.4l.586,1.582c.508,1.393,1.246,3.427,2.181,5.966l7.576,20.84-.093-.047,13.084-4.305-.053.1q-.766-2.249-1.558-4.557c-4.573-12.853-7.965-24.728-10.623-33.26-1.3-4.274-2.355-7.732-3.087-10.124-.358-1.2-.639-2.121-.829-2.757-.093-.312-.165-.551-.212-.716S378.552,277.88,378.552,277.88Z" transform="translate(-358.817 -215.015)" fill="#455a64"/>
      <path id="Path_81679" data-name="Path 81679" d="M361.785,149.167s-.592-3.311-2.29-4.9-8.772-3.38-8.772-3.38.084,2.458-1.5,3.115a3.955,3.955,0,0,1-4.673-.935,6.772,6.772,0,0,1-1.611-3.081s-8.386,1.224-9.579,3.5-2.442,10.9-2.442,10.9l7.6,1.2-.246,14.76,19.968-1.05-1.128-13.772,5.476.489Z" transform="translate(-330.92 -120.08)" fill="#455a64"/>
      <path id="Path_81680" data-name="Path 81680" d="M358.753,172.8a1.527,1.527,0,0,0,0-.33c0-.215-.019-.523-.04-.907-.04-.76-.106-1.813-.193-2.975s-.171-2.215-.243-2.975c-.037-.38-.069-.688-.093-.9a1.242,1.242,0,0,0-.059-.327,1.142,1.142,0,0,0,0,.33c0,.215.019.523.04.9.04.763.106,1.816.193,2.978s.171,2.215.243,2.975c.034.38.069.688.093.9A1.092,1.092,0,0,0,358.753,172.8Z" transform="translate(-349.641 -136.879)" fill="#263238"/>
      <path id="Path_81681" data-name="Path 81681" d="M416.376,168.77c-.047,0-.436,1.5-.872,3.386a34.944,34.944,0,0,0-.7,3.427,34.651,34.651,0,0,0,.872-3.386,34.951,34.951,0,0,0,.7-3.427Z" transform="translate(-388.67 -139.894)" fill="#263238"/>
      <path id="Path_81682" data-name="Path 81682" d="M341.34,149.409c0,.031.361.078.935.259a6.62,6.62,0,0,1,2.012,1.065,6.724,6.724,0,0,1,1.523,1.695c.312.5.442.844.473.832a.844.844,0,0,0-.072-.249,4.346,4.346,0,0,0-.3-.645,5.981,5.981,0,0,0-3.607-2.8,4.029,4.029,0,0,0-.695-.134A.742.742,0,0,0,341.34,149.409Z" transform="translate(-338.094 -126.561)" fill="#263238"/>
      <path id="Path_81683" data-name="Path 81683" d="M422.183,155.87a6.469,6.469,0,0,0-.439,2.143,3.564,3.564,0,0,0,.3-1.053,3.506,3.506,0,0,0,.143-1.09Z" transform="translate(-393.449 -131.013)" fill="#263238"/>
      <path id="Path_81684" data-name="Path 81684" d="M335.24,186.93s2.853,11.311,3.162,12.277.863,3.576,3.617,3.975c3.72.542,18.143-.732,18.143-.732l-2.906-3.308-12.831-2.878-2.181-8.224Z" transform="translate(-333.894 -152.397)" fill="#ffbe9d"/>
      <path id="Path_81685" data-name="Path 81685" d="M405.9,219.9a.73.73,0,0,0-.093.271,3.613,3.613,0,0,0-.106.769,4.4,4.4,0,0,0,.648,2.461,5.043,5.043,0,0,0,.888,1.1,2.8,2.8,0,0,0,1,.592,2.748,2.748,0,0,0,.769.131.723.723,0,0,0,.283-.025,5.626,5.626,0,0,1-1.009-.221,2.8,2.8,0,0,1-.935-.6,5.41,5.41,0,0,1-.847-1.075,4.63,4.63,0,0,1-.673-2.371C405.822,220.3,405.934,219.906,405.9,219.9Z" transform="translate(-382.406 -175.096)" fill="#eb996e"/>
      <path id="Path_81686" data-name="Path 81686" d="M340.926,179.346a1.626,1.626,0,0,1-.343-.034l-.935-.134c-.779-.112-1.869-.24-3.05-.4a30.455,30.455,0,0,1-3.037-.526c-.383-.093-.692-.178-.9-.246a1.453,1.453,0,0,1-.312-.118c0-.028.48.1,1.246.249s1.844.312,3.034.477,2.271.311,3.047.442c.389.072.7.137.916.19A1.209,1.209,0,0,1,340.926,179.346Z" transform="translate(-331.905 -146.171)" fill="#3183c5"/>
      <path id="Path_81687" data-name="Path 81687" d="M341.607,168.428a1.154,1.154,0,0,1-.293.016c-.19,0-.464,0-.8-.025-.676-.034-1.611-.109-2.639-.237s-1.953-.287-2.617-.421c-.333-.069-.6-.128-.785-.174a.866.866,0,0,1-.28-.087,7.747,7.747,0,0,1,1.087.146c.667.1,1.592.243,2.614.371s1.953.221,2.629.283A7.523,7.523,0,0,1,341.607,168.428Z" transform="translate(-333.171 -139.02)" fill="#3183c5"/>
      <path id="Path_81688" data-name="Path 81688" d="M342.822,158.85a3.878,3.878,0,0,1-.888,0,18.308,18.308,0,0,1-4.2-.788,4.128,4.128,0,0,1-.832-.312,5.323,5.323,0,0,1,.863.2c.526.137,1.262.312,2.078.467s1.558.252,2.106.312A5.583,5.583,0,0,1,342.822,158.85Z" transform="translate(-335.037 -132.307)" fill="#3183c5"/>
      <path id="Path_81689" data-name="Path 81689" d="M357.55,148.17a6.176,6.176,0,0,1-1,.311c-.623.162-1.492.361-2.455.555s-1.844.34-2.492.433a5.945,5.945,0,0,1-1.04.109,7.277,7.277,0,0,1,1.019-.224l2.467-.48,2.464-.508A6.746,6.746,0,0,1,357.55,148.17Z" transform="translate(-344.442 -125.711)" fill="#3183c5"/>
      <path id="Path_81690" data-name="Path 81690" d="M402.937,151.282a1.746,1.746,0,0,1-.355-.125l-.953-.393c-.8-.33-1.91-.788-3.143-1.271s-2.358-.9-3.174-1.2l-.963-.355a1.572,1.572,0,0,1-.349-.153,1.737,1.737,0,0,1,.368.09c.237.065.57.171.984.311.826.271,1.959.67,3.2,1.153s2.339.956,3.115,1.318c.4.181.713.33.935.439A1.664,1.664,0,0,1,402.937,151.282Z" transform="translate(-374.35 -125.45)" fill="#3183c5"/>
      <path id="Path_81691" data-name="Path 81691" d="M377.773,163.847a.894.894,0,0,1-.193-.022l-.555-.087L375,163.383c-1.71-.312-4.075-.713-6.7-1.031-1.315-.153-2.57-.262-3.716-.33s-2.181-.084-3.043-.069c-.433,0-.826.019-1.171.028s-.639.022-.882.041l-.558.028a.863.863,0,0,1-.2,0,.878.878,0,0,1,.193-.031l.554-.059c.243-.028.539-.053.885-.069s.738-.05,1.171-.053c.869-.028,1.906-.016,3.056.034s2.408.165,3.738.311c2.632.312,4.984.751,6.7,1.081.85.165,1.558.312,2.015.4l.548.121A.746.746,0,0,1,377.773,163.847Z" transform="translate(-350.067 -135.111)" fill="#3183c5"/>
      <path id="Path_81692" data-name="Path 81692" d="M370.378,180.391a2.334,2.334,0,0,1-.427,0c-.277-.016-.673-.05-1.165-.1-.978-.1-2.33-.28-3.81-.551s-2.8-.579-3.76-.829c-.477-.128-.86-.234-1.121-.312a2.358,2.358,0,0,1-.4-.14,1.869,1.869,0,0,1,.421.078l1.134.265c.959.221,2.287.511,3.763.782s2.819.464,3.794.6l1.156.156A2,2,0,0,1,370.378,180.391Z" transform="translate(-350.728 -146.566)" fill="#3183c5"/>
      <path id="Path_81693" data-name="Path 81693" d="M401.753,184.838a30.89,30.89,0,0,1-3.168.112,31.344,31.344,0,0,1-3.165-.053,29.707,29.707,0,0,1,3.165-.112A29.381,29.381,0,0,1,401.753,184.838Z" transform="translate(-375.327 -150.906)" fill="#3183c5"/>
      <path id="Path_81694" data-name="Path 81694" d="M368.384,194.967a1.272,1.272,0,0,1-.346-.016c-.218-.019-.539-.059-.935-.115-.785-.112-1.869-.312-3.044-.576s-2.23-.586-2.981-.832c-.377-.125-.679-.231-.888-.312a1.481,1.481,0,0,1-.312-.137,1.269,1.269,0,0,1,.336.075l.9.262c.757.218,1.81.5,2.984.782s2.246.483,3.025.623l.935.168A1.358,1.358,0,0,1,368.384,194.967Z" transform="translate(-350.859 -156.562)" fill="#3183c5"/>
      <path id="Path_81695" data-name="Path 81695" d="M395.776,198.438a5.033,5.033,0,0,1-1,0c-.623-.022-1.473-.084-2.411-.206s-1.782-.28-2.386-.414a5.057,5.057,0,0,1-.966-.268,6.545,6.545,0,0,1,.991.153c.607.106,1.449.243,2.383.364s1.782.2,2.4.255A7.085,7.085,0,0,1,395.776,198.438Z" transform="translate(-370.914 -159.709)" fill="#3183c5"/>
      <path id="Path_81696" data-name="Path 81696" d="M376.78,211.5a.418.418,0,0,1-.128.053c-.084.025-.209.069-.374.112a12.091,12.091,0,0,1-1.4.29,18.207,18.207,0,0,1-4.713.04,36.336,36.336,0,0,1-4.639-.869c-.586-.143-1.056-.268-1.383-.358a2.781,2.781,0,0,1-.5-.156,3.842,3.842,0,0,1,.517.093l1.4.311a44.966,44.966,0,0,0,4.626.819,19.981,19.981,0,0,0,4.673,0c.6-.075,1.075-.165,1.4-.237a3.641,3.641,0,0,1,.523-.1Z" transform="translate(-353.447 -168.7)" fill="#3183c5"/>
      <path id="Path_81697" data-name="Path 81697" d="M421.928,175.771a9.909,9.909,0,0,1-1.579.128,6.159,6.159,0,0,1-1.589-.037,9.91,9.91,0,0,1,1.579-.128A6.158,6.158,0,0,1,421.928,175.771Z" transform="translate(-391.396 -144.665)" fill="#3183c5"/>
      <path id="Path_81698" data-name="Path 81698" d="M423.773,163.426a4.464,4.464,0,0,1-1.723-.112A4.632,4.632,0,0,1,423.773,163.426Z" transform="translate(-393.662 -136.114)" fill="#3183c5"/>
      <path id="Path_81699" data-name="Path 81699" d="M385.239,187.651c-.016-.028.327-.2.794-.586a5.586,5.586,0,0,0,1.86-3.068,5.632,5.632,0,0,0,.128-1.053c.016-.6-.065-.978-.034-.984a.831.831,0,0,1,.075.259,2.108,2.108,0,0,1,.05.311,3.943,3.943,0,0,1,.028.414,5.018,5.018,0,0,1-.1,1.084,5.392,5.392,0,0,1-1.15,2.38,4.951,4.951,0,0,1-.788.751,3.434,3.434,0,0,1-.343.237,2.174,2.174,0,0,1-.274.153A.8.8,0,0,1,385.239,187.651Z" transform="translate(-368.317 -148.975)" fill="#263238"/>
      <g id="Group_50161" data-name="Group 50161" transform="translate(15.133 35.642)" opacity="0.3">
        <path id="Path_81700" data-name="Path 81700" d="M383.958,190.49l-1.212,1.8a5.747,5.747,0,0,1-3.246,2.022,3.392,3.392,0,0,0,4.458-3.822Z" transform="translate(-379.5 -190.49)"/>
      </g>
      <path id="Path_81701" data-name="Path 81701" d="M397.815,105.138a6.012,6.012,0,0,0,3.343-.679,7.123,7.123,0,0,1-2.919-4.283,31.285,31.285,0,0,1-1.068-6.4l-2.76,12.264a7.4,7.4,0,0,0,4.361-.34A1.2,1.2,0,0,1,397.815,105.138Z" transform="translate(-374.632 -88.265)" fill="#263238"/>
      <path id="Path_81702" data-name="Path 81702" d="M360.993,120.652a8.629,8.629,0,0,1-.667-4.383l-5.564-2.109a9.793,9.793,0,0,1-1.776,4.181c-.34.461-.745,1-.586,1.558a1.171,1.171,0,0,0,.863.738,3.511,3.511,0,0,0,1.184,0l-.71.776a42.678,42.678,0,0,1,7.255-.76Z" transform="translate(-345.685 -102.296)" fill="#263238"/>
      <path id="Path_81703" data-name="Path 81703" d="M363.9,76.1a6.465,6.465,0,0,0-4.635,1.66,8.967,8.967,0,0,0-2.9,9.782,6.894,6.894,0,0,0,3.667,3.994,6.981,6.981,0,0,0,7.112-1.246,8.723,8.723,0,0,0,2.838-6.8,8.37,8.37,0,0,0-1.648-4.885,6.386,6.386,0,0,0-4.436-2.492" transform="translate(-348.119 -76.075)" fill="#263238"/>
      <path id="Path_81704" data-name="Path 81704" d="M366.566,82.4a9.623,9.623,0,0,0,.115-2.125,4.638,4.638,0,0,1,2.691-3.586,6.808,6.808,0,0,1,4.607-.218A6.174,6.174,0,0,1,377,78.163a4.866,4.866,0,0,1,1.181,4.311l-8-.623a8.827,8.827,0,0,1-2.3,1.738,1.635,1.635,0,0,1-.816.187.744.744,0,0,1-.66-.489A1.468,1.468,0,0,1,366.566,82.4Z" transform="translate(-355.326 -76.146)" fill="#263238"/>
      <path id="Path_81705" data-name="Path 81705" d="M374.207,84.051l-6.825,1.919a1.3,1.3,0,0,0-1.125,1.343l1.065,14.975a4.673,4.673,0,0,0,1.159,2.76l.717.807a3.422,3.422,0,0,0,5.676-.8,1.65,1.65,0,0,0,.131-.4,2.523,2.523,0,0,0,.044-.343,10.848,10.848,0,0,0-.028-2.277c-.019-1.336-.034-1.885-.034-1.869s2.8-.545,3.3-4.24a39.159,39.159,0,0,0-.15-7.289C377.936,86.431,376.4,83.758,374.207,84.051Z" transform="translate(-355.248 -81.551)" fill="#ffbe9d"/>
      <path id="Path_81706" data-name="Path 81706" d="M398.09,105.465a.477.477,0,0,1-.445.489.449.449,0,0,1-.5-.411.47.47,0,0,1,.439-.489.452.452,0,0,1,.5.411Z" transform="translate(-376.517 -96.024)" fill="#263238"/>
      <path id="Path_81707" data-name="Path 81707" d="M398.255,102.839c-.059.062-.424-.193-.935-.178s-.872.28-.935.218.028-.14.187-.262a1.29,1.29,0,0,1,.741-.249,1.246,1.246,0,0,1,.745.218C398.227,102.7,398.283,102.811,398.255,102.839Z" transform="translate(-375.979 -94.177)" fill="#263238"/>
      <path id="Path_81708" data-name="Path 81708" d="M382.65,106.275a.474.474,0,0,1-.442.489.452.452,0,0,1-.5-.411.473.473,0,0,1,.442-.489.452.452,0,0,1,.5.411Z" transform="translate(-365.887 -96.583)" fill="#263238"/>
      <path id="Path_81709" data-name="Path 81709" d="M382.225,103.569c-.056.062-.421-.19-.935-.178s-.872.28-.935.218.028-.137.19-.262a1.29,1.29,0,0,1,.741-.249,1.246,1.246,0,0,1,.741.218C382.2,103.432,382.253,103.541,382.225,103.569Z" transform="translate(-364.942 -94.68)" fill="#263238"/>
      <path id="Path_81710" data-name="Path 81710" d="M391.86,107.207a3.334,3.334,0,0,1,.822-.171c.131,0,.252-.047.271-.134a.672.672,0,0,0-.1-.383l-.411-.978a18.324,18.324,0,0,1-.935-2.561,17.666,17.666,0,0,1,1.134,2.492l.393.984a.745.745,0,0,1,.081.508.312.312,0,0,1-.209.2.851.851,0,0,1-.218.034A3.292,3.292,0,0,1,391.86,107.207Z" transform="translate(-372.633 -94.598)" fill="#263238"/>
      <path id="Path_81711" data-name="Path 81711" d="M383.312,133.2a9.377,9.377,0,0,1-4.962-1.184s1.305,2.514,4.984,2.072Z" transform="translate(-363.575 -114.592)" fill="#eb996e"/>
      <path id="Path_81712" data-name="Path 81712" d="M388.719,119.79a.913.913,0,0,0-.829-.312.822.822,0,0,0-.57.312.536.536,0,0,0-.025.623.623.623,0,0,0,.67.15,1.912,1.912,0,0,0,.642-.4.647.647,0,0,0,.14-.153.175.175,0,0,0,0-.19" transform="translate(-369.673 -105.951)" fill="#eb996e"/>
      <path id="Path_81713" data-name="Path 81713" d="M387.712,117.8c.081,0,.1.545.579.935a2.647,2.647,0,0,0,1.075.38c.006.069-.128.109-.377.122a1.377,1.377,0,0,1-.9-.283,1.19,1.19,0,0,1-.449-.776C387.615,117.937,387.671,117.8,387.712,117.8Z" transform="translate(-369.968 -104.802)" fill="#263238"/>
      <path id="Path_81714" data-name="Path 81714" d="M381.436,98.909c-.047.14-.558.087-1.149.178s-1.072.262-1.156.14c-.037-.059.044-.19.234-.33a1.975,1.975,0,0,1,.85-.312,1.941,1.941,0,0,1,.907.084C381.342,98.738,381.454,98.844,381.436,98.909Z" transform="translate(-364.106 -91.559)" fill="#263238"/>
      <path id="Path_81715" data-name="Path 81715" d="M397.934,95.613c-.084.118-.439,0-.86,0s-.776.1-.86-.019c-.037-.059.016-.174.168-.29a1.246,1.246,0,0,1,1.386,0C397.922,95.439,397.975,95.557,397.934,95.613Z" transform="translate(-375.866 -89.169)" fill="#263238"/>
      <path id="Path_81716" data-name="Path 81716" d="M362.24,81.556c.579-2.156,3.523-5.23,5.754-5.177l3.648,1.969a3.427,3.427,0,0,1-2.205,2.726c-.623.221-1.371.312-1.72.863s-.1,1.361-.427,1.947c-.455.81-1.8.835-2.131,1.7-.146.377-.04.819-.193,1.2a2.387,2.387,0,0,1-1.941,1.044c-.523-.14-.564-1.019-.754-1.47a2.436,2.436,0,0,1-.15-1.629C362.3,83.674,361.962,82.578,362.24,81.556Z" transform="translate(-352.349 -76.284)" fill="#263238"/>
      <path id="Path_81717" data-name="Path 81717" d="M364.362,112.161c0-.274-.343-.913-.623-.935-.726-.093-2.025,0-1.991,1.835a1.886,1.886,0,0,0,2.564,1.869C364.315,114.856,364.387,113.108,364.362,112.161Z" transform="translate(-352.145 -100.26)" fill="#ffbe9d"/>
      <path id="Path_81718" data-name="Path 81718" d="M364.942,115.748a1.066,1.066,0,0,1-.115.069.439.439,0,0,1-.327,0,1.078,1.078,0,0,1-.52-.959,1.411,1.411,0,0,1,.109-.623.5.5,0,0,1,.311-.343.221.221,0,0,1,.262.115c.034.069.022.118.034.125s.053-.044.031-.146a.289.289,0,0,0-.1-.156.311.311,0,0,0-.243-.059.623.623,0,0,0-.449.4,1.464,1.464,0,0,0-.137.7,1.13,1.13,0,0,0,.657,1.072.461.461,0,0,0,.4-.075C364.939,115.81,364.951,115.754,364.942,115.748Z" transform="translate(-353.553 -102.024)" fill="#eb996e"/>
      <path id="Path_81719" data-name="Path 81719" d="M349.8,87.951h0c-.044-.785-1.053-1.246-1.829-1.361a3.268,3.268,0,0,0-2.227.579,1.6,1.6,0,0,0-.832,1.04c-.059.455.408.963.825.773a1.489,1.489,0,1,0,1.6,2.445,3.327,3.327,0,0,1-1.187,1.869,3.738,3.738,0,0,0,3.645-5.346Z" transform="translate(-340.484 -83.302)" fill="#263238"/>
      <path id="Path_81720" data-name="Path 81720" d="M346.779,118.661c0-.118.327-.174.773-.312a4.342,4.342,0,0,0,2.71-2.118c.24-.4.368-.692.486-.673s.187.352.062.888a3.343,3.343,0,0,1-3.181,2.492C347.078,118.929,346.767,118.77,346.779,118.661Z" transform="translate(-341.839 -103.258)" fill="#263238"/>
      <path id="Path_81721" data-name="Path 81721" d="M355.723,93.506a2.228,2.228,0,0,1-.143-.745,5.548,5.548,0,0,1,.935-3.5,2.231,2.231,0,0,1,.5-.576,6.78,6.78,0,0,0-1.287,4.816Z" transform="translate(-347.888 -84.76)" fill="#3183c5"/>
      <path id="Path_81722" data-name="Path 81722" d="M390.36,80.237c.3,1,1.931,2.209,2.663,2.959,1.4,1.427,1.685,1.913,1.894,5.3a7.119,7.119,0,0,0,.794-3.7,5.489,5.489,0,0,0-1.682-3.5,4.271,4.271,0,0,0-3.67-1.062" transform="translate(-371.844 -78.89)" fill="#263238"/>
      <path id="Path_81723" data-name="Path 81723" d="M417.447,167.049s-1.676,6.965-2.364,9.968c-.72,3.2-2.321,10.458-6.57,9.4-3.234-.8-2.514-4.984-2.514-4.984l2.757-9.573,2.554.29,2.346-5.776,2.53-2.663Z" transform="translate(-382.564 -136.41)" fill="#ffbe9d"/>
      <path id="Path_81724" data-name="Path 81724" d="M409.238,200.119a3.579,3.579,0,0,1-.084-1.558,4.9,4.9,0,0,1,.6-1.576A13.734,13.734,0,0,1,411,195.3a13.426,13.426,0,0,0,1.246-1.716,10.425,10.425,0,0,0,.754-1.558,9.613,9.613,0,0,0,.349-1.112,1.866,1.866,0,0,0,.078-.421,2.69,2.69,0,0,0-.143.4c-.084.259-.209.623-.4,1.084a11.586,11.586,0,0,1-.776,1.523,14.747,14.747,0,0,1-1.246,1.688,12.72,12.72,0,0,0-1.246,1.72,4.767,4.767,0,0,0-.583,1.635,3.029,3.029,0,0,0,.05,1.171,2.048,2.048,0,0,0,.1.312C409.213,200.088,409.232,200.122,409.238,200.119Z" transform="translate(-384.675 -154.848)" fill="#eb996e"/>
      <path id="Path_81725" data-name="Path 81725" d="M430.1,161.809c0-.125.062-2.153.1-2.682a2.741,2.741,0,0,1,.277-.963.816.816,0,0,1,1.271-.224l.047.04a3.583,3.583,0,0,1,1-1.206c.6-.389,1.084-.654,1.595-.349a.888.888,0,0,1,.492.738s.757-.1,1.084.2,0,1.227,0,1.227.673-.206.838.287a1.368,1.368,0,0,1-.143,1s.53.162.592.551-.53.816-.53.816l-1.847,1.47a3.517,3.517,0,0,1-1.424,1.869C432.172,165.083,430.1,161.809,430.1,161.809Z" transform="translate(-399.204 -131.304)" fill="#ffbe9d"/>
      <path id="Path_81726" data-name="Path 81726" d="M432.587,166.906c.019,0,.016.078-.041.171a.623.623,0,0,1-.311.274.667.667,0,0,1-.424,0c-.1-.034-.153-.084-.143-.106a1.656,1.656,0,0,0,.508-.065C432.431,167.081,432.543,166.885,432.587,166.906Z" transform="translate(-400.282 -138.61)" fill="#eb996e"/>
      <path id="Path_81727" data-name="Path 81727" d="M438.786,159.513c-.028.037-.206-.087-.237-.33s.1-.408.14-.38,0,.178.025.358S438.821,159.485,438.786,159.513Z" transform="translate(-405.018 -133.03)" fill="#eb996e"/>
      <path id="Path_81728" data-name="Path 81728" d="M442.591,163.62a2.578,2.578,0,0,1-.408.43,12.026,12.026,0,0,1-1.149.841,1.766,1.766,0,0,1-.735.343.663.663,0,0,1-.623-.234.461.461,0,0,1-.05-.455c.05-.1.112-.125.118-.115s-.034.05-.059.14a.424.424,0,0,0,.084.361.561.561,0,0,0,.52.15,1.753,1.753,0,0,0,.664-.327c.464-.312.878-.583,1.168-.8A2.981,2.981,0,0,1,442.591,163.62Z" transform="translate(-405.736 -136.349)" fill="#eb996e"/>
      <path id="Path_81729" data-name="Path 81729" d="M444.224,167.79a11.754,11.754,0,0,1-1.76.9,1.8,1.8,0,0,1-.763.224.6.6,0,0,1-.573-.343.349.349,0,0,1,0-.274.327.327,0,0,1,.134-.153c.1-.056.168-.025.165-.019a.233.233,0,0,0-.128.072.265.265,0,0,0-.059.312.48.48,0,0,0,.464.234,1.792,1.792,0,0,0,.695-.221A12.093,12.093,0,0,1,444.224,167.79Z" transform="translate(-406.777 -139.22)" fill="#eb996e"/>
      <path id="Path_81730" data-name="Path 81730" d="M445.439,171.307c0,.019-.1.1-.312.146a1.437,1.437,0,0,1-.368.037.984.984,0,0,1-.458-.1.28.28,0,0,1-.134-.265.44.44,0,0,1,.1-.227,1.562,1.562,0,0,1,.265-.259c.168-.125.293-.165.312-.146s-.087.1-.224.237a1.932,1.932,0,0,0-.218.259c-.072.1-.1.209,0,.262a1,1,0,0,0,.377.09,1.756,1.756,0,0,0,.34,0C445.311,171.319,445.429,171.285,445.439,171.307Z" transform="translate(-408.888 -141.076)" fill="#eb996e"/>
      <path id="Path_81731" data-name="Path 81731" d="M435.957,170.66a1.508,1.508,0,1,0-1.913,1.4l-.016.421.411.312-.433.243-.019.526.411.312-.433.243-.016.452.249.187-.262.146v.265l.311.355.623-.371.118-3.115A1.511,1.511,0,0,0,435.957,170.66ZM434.49,169.5a.433.433,0,1,1-.311.116A.433.433,0,0,1,434.49,169.5Z" transform="translate(-401.161 -140.12)" fill="#263238"/>
      <path id="Path_81732" data-name="Path 81732" d="M435.957,170.66a1.508,1.508,0,1,0-1.913,1.4l-.016.421.411.312-.433.243-.019.526.411.312-.433.243-.016.452.249.187-.262.146v.265l.311.355.623-.371.118-3.115A1.511,1.511,0,0,0,435.957,170.66ZM434.49,169.5a.433.433,0,1,1-.311.116A.433.433,0,0,1,434.49,169.5Z" transform="translate(-401.161 -140.12)" fill="none"/>
      <path id="Path_81733" data-name="Path 81733" d="M436.883,170.358a.418.418,0,0,0-.1.019.433.433,0,0,0-.237.15.417.417,0,1,0,.679.022.439.439,0,0,0-.224-.168c-.062-.019-.1-.019-.1-.025h.016a.313.313,0,0,1,.081,0,.43.43,0,0,1,.24.165.445.445,0,0,1,.053.427.433.433,0,0,1-.165.2.446.446,0,0,1-.268.078.458.458,0,0,1-.265-.1.467.467,0,0,1-.15-.218.458.458,0,0,1,.084-.421.445.445,0,0,1,.255-.146.4.4,0,0,1,.078,0Z" transform="translate(-403.554 -140.978)" fill="#263238"/>
      <path id="Path_81734" data-name="Path 81734" d="M435.9,170.675v.122a1.53,1.53,0,0,1-.075.336,1.48,1.48,0,0,1-.28.48,1.5,1.5,0,0,1-.623.43h0c-.031.807-.069,1.869-.112,3.115h0l-.623.374h0l-.312-.355h0v-.265h0l.262-.146v.031l-.252-.19h0a4.389,4.389,0,0,1,.016-.452h0l.433-.24v.031l-.411-.312h0v-.19a3.175,3.175,0,0,1,.016-.386h0l.433-.243v.031l-.411-.312h0a3.75,3.75,0,0,1,.016-.421v.019a1.557,1.557,0,0,1-.623-.349,1.4,1.4,0,0,1-.227-.265,1.519,1.519,0,0,1,2.417-1.835,1.464,1.464,0,0,1,.29.533l.019.056v.056a1,1,0,0,0,.019.1c0,.034.016.115.016.159v.05a.111.111,0,0,1,0,.031v-.131a.52.52,0,0,0-.019-.159.633.633,0,0,0-.022-.1v-.056l-.019-.056a1.433,1.433,0,0,0-.29-.523,1.524,1.524,0,0,0-.657-.449,1.5,1.5,0,0,0-1.869,1.959,1.418,1.418,0,0,0,.156.312,1.363,1.363,0,0,0,.224.259,1.482,1.482,0,0,0,.607.34h.016a3.806,3.806,0,0,1-.016.421h0l.414.311h.022l-.025.016-.433.24v.511h0l.411.312.022.019h-.025l-.433.243h0a4.24,4.24,0,0,1-.016.452h0l.252.187.022.019h-.025l-.262.15h0v.262h0l.312.355h-.022l.623-.371v.016c.05-1.246.09-2.318.122-3.115h0a1.5,1.5,0,0,0,.6-.417,1.557,1.557,0,0,0,.28-.474,1.624,1.624,0,0,0,.081-.336v-.087A.209.209,0,0,0,435.9,170.675Z" transform="translate(-401.105 -140.136)" fill="#263238"/>
      <path id="Path_81735" data-name="Path 81735" d="M435.444,170.374a1.511,1.511,0,1,0-1.913,1.4h0l-.016.417.411.312-.433.24-.019.526.411.312-.433.24-.019.452.252.19-.265.146v.262l.312.355.623-.371.118-3.115A1.508,1.508,0,0,0,435.444,170.374Zm-1.467-1.159a.433.433,0,1,1-.449.414A.433.433,0,0,1,433.976,169.215Z" transform="translate(-400.803 -139.919)" fill="#3183c5"/>
      <path id="Path_81736" data-name="Path 81736" d="M435.444,170.374a1.511,1.511,0,1,0-1.913,1.4h0l-.016.417.411.312-.433.24-.019.526.411.312-.433.24-.019.452.252.19-.265.146v.262l.312.355.623-.371.118-3.115A1.508,1.508,0,0,0,435.444,170.374Zm-1.467-1.159a.433.433,0,1,1-.449.414A.433.433,0,0,1,433.976,169.215Z" transform="translate(-400.803 -139.919)" fill="none"/>
      <path id="Path_81737" data-name="Path 81737" d="M436.394,170.08q-.053,0-.106,0a.427.427,0,0,0-.234.15.414.414,0,0,0-.072.392.421.421,0,0,0,.38.29.427.427,0,0,0,.4-.259.421.421,0,0,0-.265-.564,1.049,1.049,0,0,0-.1-.025h.028a.312.312,0,0,1,.078,0,.424.424,0,0,1,.243.165.445.445,0,0,1-.383.7.458.458,0,0,1-.262-.1.424.424,0,0,1-.143-.165.446.446,0,0,1,.336-.57.246.246,0,0,1,.081,0Z" transform="translate(-403.221 -140.784)" fill="#263238"/>
      <path id="Path_81738" data-name="Path 81738" d="M435.414,170.408v.118a1.589,1.589,0,0,1-.075.34,1.611,1.611,0,0,1-.28.48,1.558,1.558,0,0,1-.623.43h0c-.028.807-.065,1.869-.109,3.115h0l-.623.371h0l-.311-.355h0v-.262h0l.262-.15v.031l-.249-.187h0a4.494,4.494,0,0,1,.016-.452h0l.433-.243v.031l-.411-.311h0v-.14a3.2,3.2,0,0,1,.016-.386h0l.433-.24v.031l-.411-.312h0a3.791,3.791,0,0,1,.016-.421v.019a1.483,1.483,0,0,1-.623-.349,1.435,1.435,0,0,1-.231-.265,1.474,1.474,0,0,1-.159-.312,1.526,1.526,0,0,1,.935-2,1.558,1.558,0,0,1,.984,0,1.539,1.539,0,0,1,.663.374,1.514,1.514,0,0,1,.29.533l.019.059v.056a.929.929,0,0,0,.019.1c0,.031.016.118.016.159v.134a.279.279,0,0,0,0-.034v-.1a.652.652,0,0,0-.016-.162c-.016-.065-.016-.062-.022-.1v-.053l-.019-.059a1.5,1.5,0,0,0-.293-.523,1.473,1.473,0,0,0-.657-.445,1.5,1.5,0,0,0-.966,0,1.523,1.523,0,0,0-.841.726,1.5,1.5,0,0,0-.069,1.23,1.62,1.62,0,0,0,.159.312,1.351,1.351,0,0,0,.224.259,1.5,1.5,0,0,0,.607.34h-.009v.421c.137.1.274.206.411.312l.025.019h-.025l-.433.243v-.016a3.225,3.225,0,0,1-.016.386v.137h0l.411.312h.025l-.025.016-.433.24h0a3.525,3.525,0,0,1-.019.452h0l.252.19.022.016h-.025l-.265.146h0v.262h0l.312.358H433.7l.623-.371v.016c.047-1.246.09-2.318.121-3.115h0a1.558,1.558,0,0,0,.608-.421,1.617,1.617,0,0,0,.28-.473,1.558,1.558,0,0,0,.081-.333v-.09A.1.1,0,0,1,435.414,170.408Z" transform="translate(-400.774 -139.952)" fill="#263238"/>
      <path id="Path_81739" data-name="Path 81739" d="M435.631,170.868a2.064,2.064,0,0,0-.037-.312,1.209,1.209,0,0,0-.134-.355,1.286,1.286,0,0,0-1.558-.617,1.225,1.225,0,0,0-.34.165,1.384,1.384,0,0,0-.153.121,1.491,1.491,0,0,0-.134.146,1.308,1.308,0,0,0-.059,1.558,1.99,1.99,0,0,0,.125.159,1.425,1.425,0,0,0,.143.131,1.181,1.181,0,0,0,.311.19,1.33,1.33,0,0,0,.688.084,1.271,1.271,0,0,0,.561-.221,1.37,1.37,0,0,0,.352-.361,1.331,1.331,0,0,0,.159-.346,2.042,2.042,0,0,0,.062-.312v.19a.528.528,0,0,1-.031.137,1.216,1.216,0,0,1-.159.352,1.349,1.349,0,0,1-.352.371,1.318,1.318,0,0,1-.573.231,1.358,1.358,0,0,1-.7-.081,1.246,1.246,0,0,1-.333-.2,2,2,0,0,1-.15-.134,1.248,1.248,0,0,1-.125-.162,1.336,1.336,0,0,1,.059-1.592,1.578,1.578,0,0,1,.137-.153,1.435,1.435,0,0,1,.159-.121,1.315,1.315,0,0,1,1.056-.2,1.289,1.289,0,0,1,.554.274,1.333,1.333,0,0,1,.312.4,1.354,1.354,0,0,1,.131.361.864.864,0,0,1,.019.14.635.635,0,0,1,0,.1v.084Z" transform="translate(-401.171 -140.4)" fill="#263238"/>
      <path id="Path_81740" data-name="Path 81740" d="M436.728,170.393a1.1,1.1,0,0,0-.019-.121.473.473,0,0,0-.174-.277.508.508,0,0,0-.206-.1.493.493,0,0,0-.259.016.458.458,0,0,0-.234.162.477.477,0,0,0-.1.283.486.486,0,0,0,.312.474.508.508,0,0,0,.47-.05.5.5,0,0,0,.193-.265.916.916,0,0,0,.028-.122v.034a.475.475,0,0,1-.016.093.508.508,0,0,1-.193.28.526.526,0,0,1-.829-.442.535.535,0,0,1,.115-.311.51.51,0,0,1,.252-.171.5.5,0,0,1,.277,0,.537.537,0,0,1,.215.106.5.5,0,0,1,.171.312.352.352,0,0,1,0,.093S436.728,170.393,436.728,170.393Z" transform="translate(-403.059 -140.642)" fill="#263238"/>
      <path id="Path_81741" data-name="Path 81741" d="M438,181.427s0-.713.041-1.589.069-1.589.078-1.589,0,.71-.04,1.589S438,181.427,438,181.427Z" transform="translate(-404.643 -146.421)" fill="#263238"/>
      <path id="Path_81742" data-name="Path 81742" d="M437.382,166.366a.23.23,0,0,1-.2,0V164.45l.2.016Z" transform="translate(-404.078 -136.92)" fill="#e0e0e0"/>
      <path id="Path_81743" data-name="Path 81743" d="M437.273,166.383a.249.249,0,0,1-.1-.025h0V164.43l.218.016v1.913h0a.252.252,0,0,1-.115.025Zm-.09-.037a.212.212,0,0,0,.184,0v-1.888h-.187Z" transform="translate(-404.072 -136.906)" fill="#263238"/>
      <path id="Path_81744" data-name="Path 81744" d="M432.308,161.43a4.527,4.527,0,0,0,.539.4.729.729,0,0,1,.33.558.682.682,0,0,1-.4.526,1.246,1.246,0,0,1-1.688-.508" transform="translate(-399.886 -134.841)" fill="#ffbe9d"/>
      <path id="Path_81745" data-name="Path 81745" d="M431.125,162.4a3.364,3.364,0,0,0,.424.38,1.218,1.218,0,0,0,.561.187,1.246,1.246,0,0,0,.7-.153.533.533,0,0,0,.311-.542.881.881,0,0,0-.346-.452c-.3-.2-.461-.374-.436-.393a3.926,3.926,0,0,1,.5.3.934.934,0,0,1,.427.5.567.567,0,0,1-.065.417.894.894,0,0,1-.311.312,1.33,1.33,0,0,1-.8.162,1.268,1.268,0,0,1-.623-.243A.825.825,0,0,1,431.125,162.4Z" transform="translate(-399.909 -134.837)" fill="#eb996e"/>
      <path id="Path_81746" data-name="Path 81746" d="M438.784,158.839a7.381,7.381,0,0,0-.935,1.371,1.135,1.135,0,0,0-.14.489.492.492,0,0,0,.227.436.5.5,0,0,0,.427,0,1.345,1.345,0,0,0,.355-.252,8.744,8.744,0,0,0,1.159-1.29,1.207,1.207,0,0,0,.206-.364.5.5,0,0,0-.025-.408" transform="translate(-404.442 -133.044)" fill="#ffbe9d"/>
      <path id="Path_81747" data-name="Path 81747" d="M439.894,158.81a.319.319,0,0,1,.087.231.993.993,0,0,1-.255.623,6.777,6.777,0,0,1-.623.766c-.125.137-.262.277-.408.414a1.558,1.558,0,0,1-.53.38.586.586,0,0,1-.358,0,.476.476,0,0,1-.274-.234.763.763,0,0,1,0-.623,3.993,3.993,0,0,1,.5-.863,3.586,3.586,0,0,1,.592-.682,7.239,7.239,0,0,1-.5.751,4.265,4.265,0,0,0-.449.844.6.6,0,0,0,0,.5.346.346,0,0,0,.439.143,1.459,1.459,0,0,0,.467-.34c.146-.134.283-.268.408-.4a7.506,7.506,0,0,0,.623-.732,1.059,1.059,0,0,0,.287-.554A1.2,1.2,0,0,0,439.894,158.81Z" transform="translate(-404.276 -133.037)" fill="#eb996e"/>
    </g>
    <g id="freepik--Plant--inject-60" transform="translate(126.679 227.855)">
      <path id="Path_81749" data-name="Path 81749" d="M63.892,303.753c2.963-4.536,2.85-11.165-.692-15.264-1.1-1.274-2.635-2.38-4.311-2.237a4.531,4.531,0,0,0-3.614,3.258,10.743,10.743,0,0,0-.034,5.112,12.689,12.689,0,0,0,2.8,6.564c1.654,1.763,3.738,3.723,5.863,2.567" transform="translate(-54.948 -286.193)" fill="#3183c5"/>
      <path id="Path_81750" data-name="Path 81750" d="M66.4,393.177a6.769,6.769,0,0,0-1.888-7.694,2.825,2.825,0,0,0-2.424-.76,2.324,2.324,0,0,0-1.558,2.006,5.607,5.607,0,0,0,.445,2.651,6.6,6.6,0,0,0,2.034,3.115c1.006.748,2.417,1.47,3.4.682" transform="translate(-58.783 -353.954)" fill="#3183c5"/>
      <path id="Path_81751" data-name="Path 81751" d="M101.985,382.725a9.809,9.809,0,0,1,4.941-10.352,4.133,4.133,0,0,1,3.66-.365,3.439,3.439,0,0,1,1.632,3.308,8.087,8.087,0,0,1-1.408,3.6,9.589,9.589,0,0,1-3.8,3.835c-1.651.779-3.86,1.374-5.022-.031" transform="translate(-87.212 -345.044)" fill="#3183c5"/>
      <path id="Path_81752" data-name="Path 81752" d="M99.812,341.581c-1.421-4.582.987-10.137,4.984-12.772a4.824,4.824,0,0,1,4.215-.854,4.019,4.019,0,0,1,2.287,3.654,9.48,9.48,0,0,1-1.215,4.361,11.224,11.224,0,0,1-3.975,4.906c-1.829,1.1-4.791,2.181-6.308.7" transform="translate(-85.553 -314.772)" fill="#3183c5"/>
      <path id="Path_81753" data-name="Path 81753" d="M91.557,401.837a.936.936,0,0,0,.044-.221c.025-.165.059-.377.1-.639.019-.14.04-.3.065-.461s.065-.352.1-.545c.075-.392.153-.838.28-1.321.059-.246.121-.5.184-.766s.159-.533.24-.816c.153-.567.38-1.156.592-1.782a31.033,31.033,0,0,1,4.05-7.564c.4-.523.769-1.037,1.159-1.477.19-.227.374-.442.548-.654l.561-.576c.333-.374.66-.685.935-.963l.4-.389.349-.312.48-.433a1.163,1.163,0,0,0,.159-.159.935.935,0,0,0-.184.131l-.5.4-.361.3-.408.38c-.293.271-.623.576-.972.935l-.548.57c-.178.209-.364.427-.558.648-.4.439-.769.953-1.184,1.477a33.495,33.495,0,0,0-2.318,3.654A32.569,32.569,0,0,0,93,395.208c-.209.623-.43,1.224-.576,1.8-.081.283-.156.558-.231.822s-.118.526-.174.773c-.118.489-.187.935-.252,1.333-.031.2-.062.38-.09.548s-.031.312-.047.467c-.025.262-.044.477-.059.645A.723.723,0,0,0,91.557,401.837Z" transform="translate(-80.149 -352.646)" fill="#263238"/>
      <path id="Path_81754" data-name="Path 81754" d="M90.933,374.468a.364.364,0,0,0,0-.093,1.435,1.435,0,0,0-.019-.265c-.022-.249-.056-.589-.093-1.019-.022-.221-.047-.467-.075-.732s-.025-.564-.044-.878c-.022-.623-.084-1.346-.059-2.137V368.1c0-.433.044-.882.065-1.346.031-.935.159-1.919.271-2.962a42.472,42.472,0,0,1,3.857-13.012c.477-.935.907-1.832,1.389-2.629.237-.4.445-.8.679-1.165l.673-1.047c.414-.679.854-1.246,1.215-1.76.187-.255.352-.5.517-.71l.461-.576.623-.8.162-.212c.034-.047.053-.072.05-.075s-.025.019-.065.062l-.174.2-.664.782-.461.576c-.168.212-.34.449-.53.7-.371.511-.819,1.075-1.246,1.748l-.685,1.044c-.237.364-.452.763-.692,1.165-.489.8-.935,1.7-1.408,2.632a41.366,41.366,0,0,0-3.872,13.059c-.109,1.047-.231,2.04-.255,2.975-.016.467-.053.919-.056,1.352s0,.85,0,1.246c0,.794.056,1.514.09,2.143.022.312.034.623.059.878s.062.511.09.735c.053.427.1.766.128,1.016.016.106.031.19.04.262A.372.372,0,0,0,90.933,374.468Z" transform="translate(-79.422 -324.445)" fill="#263238"/>
      <path id="Path_81755" data-name="Path 81755" d="M67.12,303.859a.432.432,0,0,0,.04.084c.034.062.075.143.128.237l.5.907c.109.2.24.411.368.654l.4.8.458.916c.153.327.312.679.464,1.047s.336.754.5,1.159.312.838.492,1.277l.259.673c.078.234.159.467.24.707.159.477.312.969.5,1.47.623,2.034,1.224,4.3,1.726,6.7s.829,4.723,1.081,6.835.377,4.028.421,5.638c.04.8.05,1.53.05,2.181v3.037a.379.379,0,0,0,0-.09,1.486,1.486,0,0,1,.019-.268c0-.255.028-.6.05-1.037s.034-1,.034-1.642,0-1.371-.022-2.181c-.028-1.614-.171-3.529-.38-5.651a68.959,68.959,0,0,0-1.068-6.853,67.354,67.354,0,0,0-1.744-6.713l-.5-1.483c-.081-.24-.162-.477-.243-.707l-.265-.673-.5-1.277c-.168-.408-.349-.788-.514-1.159s-.312-.72-.48-1.044-.312-.623-.47-.913-.287-.548-.411-.794-.268-.452-.383-.645l-.539-.888c-.056-.093-.106-.168-.143-.227S67.123,303.856,67.12,303.859Z" transform="translate(-63.328 -298.324)" fill="#263238"/>
      <path id="Path_81756" data-name="Path 81756" d="M70.36,393.18a3.813,3.813,0,0,0,.312.555c.218.346.514.86.863,1.5s.735,1.421,1.125,2.3a27.432,27.432,0,0,1,1.09,2.944,30.329,30.329,0,0,1,.76,3.044,22.314,22.314,0,0,1,.371,2.539c.059.729.118,1.315.134,1.723a3.738,3.738,0,0,0,.053.623,4.449,4.449,0,0,0,.022-.623,16.877,16.877,0,0,0-.072-1.735,25.768,25.768,0,0,0-.333-2.558,29.19,29.19,0,0,0-.751-3.072,28.19,28.19,0,0,0-1.112-2.956c-.4-.885-.8-1.663-1.165-2.3a15.456,15.456,0,0,0-.935-1.473A4.786,4.786,0,0,0,70.36,393.18Z" transform="translate(-65.559 -359.82)" fill="#263238"/>
      <path id="Path_81757" data-name="Path 81757" d="M81.474,437.47H68.45l1.576,13.3h9.825Z" transform="translate(-64.244 -390.313)" fill="#455a64"/>
      <path id="Path_81758" data-name="Path 81758" d="M81.969,475.56,80.863,477H71l-1.137-1.389Z" transform="translate(-65.215 -416.537)" fill="#263238"/>
      <path id="Path_81759" data-name="Path 81759" d="M70.08,449.787c0,.053,2.7.1,6.037.1s6.034-.044,6.034-.1-2.7-.1-6.034-.1S70.08,449.743,70.08,449.787Z" transform="translate(-65.366 -398.726)" fill="#fafafa"/>
      <path id="Path_81760" data-name="Path 81760" d="M70.08,452.657c0,.053,2.7.1,6.037.1s6.034-.044,6.034-.1-2.7-.1-6.034-.1S70.08,452.6,70.08,452.657Z" transform="translate(-65.366 -400.702)" fill="#fafafa"/>
      <path id="Path_81761" data-name="Path 81761" d="M70.6,455.407c0,.056,2.607.1,5.825.1s5.825-.044,5.825-.1-2.607-.1-5.825-.1S70.6,455.354,70.6,455.407Z" transform="translate(-65.724 -402.595)" fill="#fafafa"/>
      <path id="Path_81762" data-name="Path 81762" d="M103.862,345.44a.567.567,0,0,0,0,.128c0,.1.016.218.028.361.034.333.078.782.134,1.324.118,1.118.293,2.663.492,4.361a.549.549,0,0,0,.022.19v.059h.059c1.673.025,3.177.041,4.265.047h1.757a.474.474,0,0,0-.118-.016l-.349-.016-1.287-.04c-1.087-.031-2.592-.062-4.268-.087l.065.056a.585.585,0,0,0-.022-.19c-.2-1.7-.386-3.246-.53-4.361-.072-.542-.131-.987-.178-1.321-.019-.143-.037-.262-.053-.358A.365.365,0,0,0,103.862,345.44Z" transform="translate(-88.622 -326.952)" fill="#263238"/>
      <path id="Path_81763" data-name="Path 81763" d="M113.368,332.67a.4.4,0,0,0,0,.131v1.748c.019,1.159.05,2.76.093,4.526v.277h.069a40.189,40.189,0,0,1,4.38-.1c.558,0,1.009.041,1.321.056h.483a.468.468,0,0,1-.121-.025l-.358-.04c-.311-.031-.76-.069-1.321-.1a35.014,35.014,0,0,0-4.392.059l.072.065v-.209c-.044-1.769-.09-3.367-.131-4.526-.022-.564-.041-1.028-.053-1.371a1.881,1.881,0,0,0-.022-.374A.655.655,0,0,0,113.368,332.67Z" transform="translate(-95.166 -318.16)" fill="#263238"/>
      <path id="Path_81764" data-name="Path 81764" d="M122.028,328.32a2.766,2.766,0,0,0-.081.383c-.05.268-.112.623-.193,1.047-.168.885-.433,2.1-.8,3.427l-.04.14.134-.062.156-.078a11.314,11.314,0,0,1,3.477-1.006c.464-.056.841-.078,1.1-.087a2.074,2.074,0,0,0,.4-.022.314.314,0,0,0-.1,0c-.069,0-.171-.016-.312-.016a9.105,9.105,0,0,0-1.109.047,10.552,10.552,0,0,0-3.517.987l-.159.078.093.075a33.739,33.739,0,0,0,.769-3.455c.075-.445.125-.807.153-1.056A1.9,1.9,0,0,0,122.028,328.32Z" transform="translate(-100.362 -315.165)" fill="#263238"/>
      <path id="Path_81765" data-name="Path 81765" d="M65.46,400.111c0,.019.38-.019.988-.044a16.7,16.7,0,0,1,2.368.078c.187.019.371.044.545.069h.062v-.059c.143-.788.259-1.483.34-1.981a5.744,5.744,0,0,0,.1-.8,5.3,5.3,0,0,0-.187.788c-.1.5-.237,1.187-.383,1.972l.075-.053c-.178-.025-.361-.05-.551-.069a13.355,13.355,0,0,0-2.386-.04c-.312.025-.551.056-.72.081A1.1,1.1,0,0,0,65.46,400.111Z" transform="translate(-62.185 -362.705)" fill="#263238"/>
      <path id="Path_81766" data-name="Path 81766" d="M61.52,391.58c0,.022.364-.062.953-.137a10.336,10.336,0,0,1,2.311-.022l.408.05h.069v-.065c.081-.81.146-1.53.19-2.044a5.321,5.321,0,0,0,.04-.832,6.117,6.117,0,0,0-.128.822c-.065.514-.146,1.23-.234,2.037l.075-.056-.421-.044a8.971,8.971,0,0,0-2.336.062,6.689,6.689,0,0,0-.695.146A1.054,1.054,0,0,0,61.52,391.58Z" transform="translate(-59.473 -356.618)" fill="#263238"/>
      <path id="Path_81767" data-name="Path 81767" d="M58.68,316.351a.762.762,0,0,0,.131.069l.38.168,1.408.6,4.673,1.935.252.1.059.025.025-.059c.769-1.738,1.461-3.3,1.972-4.452l.579-1.346.153-.368a.777.777,0,0,0,.044-.134.7.7,0,0,0-.069.121c-.047.1-.1.215-.174.358l-.623,1.33-2.009,4.436.087-.034-.252-.1-4.666-1.9-1.424-.561-.389-.146A.568.568,0,0,0,58.68,316.351Z" transform="translate(-57.517 -304.541)" fill="#263238"/>
      <path id="Path_81768" data-name="Path 81768" d="M55,298.522a.687.687,0,0,0,.115.084l.343.221,1.271.791,4.24,2.589.069.04.028-.075.078-.206,1.779-4.8c.215-.6.393-1.1.523-1.458l.137-.4a.514.514,0,0,0,.037-.143.985.985,0,0,0-.062.134l-.146.389c-.137.358-.33.847-.564,1.445-.467,1.246-1.106,2.922-1.813,4.785-.025.069-.053.14-.075.2l.093-.034-4.271-2.551-1.293-.757-.355-.2A.663.663,0,0,0,55,298.522Z" transform="translate(-54.984 -292.342)" fill="#263238"/>
      <path id="Path_81769" data-name="Path 81769" d="M56.22,289.267a1.608,1.608,0,0,0,.28.165c.184.1.449.252.769.452a13.623,13.623,0,0,1,2.358,1.847l.165.159-.056-.224c-.056-.23-.109-.477-.15-.729a8.492,8.492,0,0,1,.184-3.47,10.4,10.4,0,0,1,.333-1.012,2.276,2.276,0,0,0,.14-.364,2.4,2.4,0,0,0-.187.346,8.354,8.354,0,0,0-.377,1,8.158,8.158,0,0,0-.224,3.517c.04.259.1.508.156.745l.109-.062a12.536,12.536,0,0,0-2.408-1.838c-.33-.19-.6-.33-.791-.417A1.816,1.816,0,0,0,56.22,289.267Z" transform="translate(-55.824 -286.09)" fill="#263238"/>
      <path id="Path_81770" data-name="Path 81770" d="M103.93,390a1.7,1.7,0,0,0,.059.336c.044.215.109.526.181.913a22.666,22.666,0,0,1,.352,3.087v.059h.346c1.293.078,2.461.143,3.308.181l1,.041a1.967,1.967,0,0,0,.368,0,1.94,1.94,0,0,0-.364-.047l-1-.084c-.847-.062-2.016-.14-3.305-.218l-.293-.016.062.062a19.4,19.4,0,0,0-.383-3.068c-.084-.389-.162-.7-.224-.91a1.8,1.8,0,0,0-.109-.336Z" transform="translate(-88.671 -357.63)" fill="#263238"/>
      <path id="Path_81771" data-name="Path 81771" d="M112.138,378.26a1.732,1.732,0,0,0,.022.34c.028.24.062.551.106.935.093.782.234,1.869.4,3.09v.053h.053l.417.028c1.324.09,2.517.227,3.38.34l1.022.137a2.2,2.2,0,0,0,.374.037,1.848,1.848,0,0,0-.368-.087c-.237-.05-.586-.112-1.016-.181-.86-.134-2.056-.287-3.383-.377l-.421-.028.062.056c-.168-1.218-.312-2.305-.442-3.084-.059-.371-.106-.679-.143-.919A1.556,1.556,0,0,0,112.138,378.26Z" transform="translate(-94.321 -349.548)" fill="#263238"/>
      <path id="Path_81772" data-name="Path 81772" d="M121.8,373.18c-.019,0,.062.358.153.935a16.371,16.371,0,0,1,.212,2.305v.072h.075l.218-.028a20.283,20.283,0,0,1,2.458-.146h.751a1.18,1.18,0,0,0,.274,0,1.058,1.058,0,0,0-.271-.044c-.178-.019-.433-.041-.751-.05a15.724,15.724,0,0,0-2.477.106l-.221.028.075.065a13.522,13.522,0,0,0-.252-2.318c-.059-.29-.115-.523-.159-.682A.881.881,0,0,0,121.8,373.18Z" transform="translate(-100.975 -346.05)" fill="#263238"/>
      <path id="Path_81773" data-name="Path 81773" d="M66.73,385a46.749,46.749,0,0,0,1.206,2.623,6,6,0,0,0-.5-1.377A6.083,6.083,0,0,0,66.73,385Z" transform="translate(-63.06 -354.188)" fill="#263238"/>
      <path id="Path_81774" data-name="Path 81774" d="M61.48,390.488a13.588,13.588,0,0,1,1.48.312,12.965,12.965,0,0,1,1.389.592A3.324,3.324,0,0,0,63,390.675,3.365,3.365,0,0,0,61.48,390.488Z" transform="translate(-59.445 -357.953)" fill="#263238"/>
    </g>
  </g>
</svg>
