<svg id="contactUs" xmlns="http://www.w3.org/2000/svg" width="158.739" height="148.194" viewBox="0 0 158.739 148.194">
  <path id="Path_81915" data-name="Path 81915" d="M34.721,0A34.721,34.721,0,1,1,0,34.721,34.721,34.721,0,0,1,34.721,0Z" transform="translate(25.992 0.21)" fill="#3183c5"/>
  <path id="Path_81850" data-name="Path 81850" d="M239.349,205.682a.332.332,0,0,1-.232-.1.318.318,0,0,1,0-.464,34.39,34.39,0,1,0-48.635-48.635.333.333,0,0,1-.471-.471,35.054,35.054,0,0,1,49.577,49.57A.338.338,0,0,1,239.349,205.682Z" transform="translate(-154.529 -145.744)" fill="#243762"/>
  <ellipse id="Ellipse_7935" data-name="Ellipse 7935" cx="26.421" cy="26.421" rx="26.421" ry="26.421" transform="translate(34.293 8.51)" fill="#fff"/>
  <path id="Path_81851" data-name="Path 81851" d="M214.522,211.575a26.753,26.753,0,0,1,0-53.505.332.332,0,1,1,0,.663,26.089,26.089,0,0,0,0,52.178.338.338,0,0,1,.332.332A.332.332,0,0,1,214.522,211.575Z" transform="translate(-153.808 -149.892)" fill="#243762"/>
  <path id="Path_81852" data-name="Path 81852" d="M233.41,198.429h-7.186a2.654,2.654,0,0,1-2.654-2.654v-9.953a2.322,2.322,0,1,1,4.645,0v7.962h5.215a2.322,2.322,0,0,1,0,4.645Z" transform="translate(-165.855 -158.449)" fill="#243762"/>
  <path id="Path_81853" data-name="Path 81853" d="M144.053,200.312l37.4,37.4a18.737,18.737,0,0,0,26.5,0l4.472-4.472a4.326,4.326,0,0,0,0-6.111L197.167,211.87a4.326,4.326,0,0,0-6.111,0l-7.63,7.63a1.533,1.533,0,0,1-2.163,0l-18.525-18.512a1.513,1.513,0,0,1,0-2.136l7.531-7.544a4.313,4.313,0,0,0,0-6.111L154.6,169.519a4.333,4.333,0,0,0-6.064-.053l-4.246,4.1a18.744,18.744,0,0,0-.232,26.746Z" transform="translate(-137.247 -153.318)" fill="#14548c"/>
  <path id="Path_81854" data-name="Path 81854" d="M148.139,174.349l21.013,21.013.723-.717,3.318-3.318a4.313,4.313,0,0,0,0-6.111l-15.672-15.679a4.333,4.333,0,0,0-6.064-.053l-4.246,4.1Z" transform="translate(-140.16 -153.325)" fill="#ecf1f7"/>
  <path id="Path_81855" data-name="Path 81855" d="M168.9,195.67l-21.232-21.232-1.214-.975,4.518-4.366a4.645,4.645,0,0,1,6.522.06l15.679,15.672a4.645,4.645,0,0,1,0,6.589ZM147.478,173.41l.664.537,20.781,20.788,3.8-3.8a3.981,3.981,0,0,0,0-5.646l-15.672-15.679a4.021,4.021,0,0,0-5.6-.046Z" transform="translate(-139.904 -153.162)" fill="#243762"/>
  <path id="Path_81856" data-name="Path 81856" d="M212.532,237.7l21.02,21.013.723-.717,3.318-3.318a4.313,4.313,0,0,0,0-6.111l-15.679-15.679a4.319,4.319,0,0,0-6.058-.053l-4.246,4.1Z" transform="translate(-161.831 -174.641)" fill="#ecf1f7"/>
  <path id="Path_81857" data-name="Path 81857" d="M233.336,259.026,212.1,237.794l-1.214-.975,4.512-4.366a4.684,4.684,0,0,1,6.529.06L237.6,248.185a4.645,4.645,0,0,1,0,6.589Zm-21.451-22.261.663.544,20.781,20.781,3.8-3.8a3.981,3.981,0,0,0,0-5.646l-15.672-15.672a3.981,3.981,0,0,0-5.593-.053Z" transform="translate(-161.588 -174.485)" fill="#243762"/>
  <line id="Line_903" data-name="Line 903" x2="12.812" y2="12.806" transform="translate(9.585 18.542)" fill="#ecf1f7"/>
  <path id="Path_81858" data-name="Path 81858" d="M163.668,186.66a.358.358,0,0,1-.232-.093l-12.806-12.806a.333.333,0,0,1,.471-.471L163.907,186.1a.338.338,0,0,1,0,.471A.358.358,0,0,1,163.668,186.66Z" transform="translate(-141.278 -154.981)" fill="#243762"/>
  <line id="Line_904" data-name="Line 904" x2="12.806" y2="12.806" transform="translate(60.527 69.48)" fill="#ecf1f7"/>
  <path id="Path_81859" data-name="Path 81859" d="M240.445,263.437a.339.339,0,0,1-.239-.1L227.4,250.532a.333.333,0,0,1,.471-.471l12.806,12.806a.335.335,0,0,1-.232.571Z" transform="translate(-167.111 -180.813)" fill="#243762"/>
  <path id="Path_81860" data-name="Path 81860" d="M302.537,294.718,253.5,287.466a10.158,10.158,0,0,1-8.559-11.525l17.583-118.887a10.158,10.158,0,0,1,11.525-8.559l49.033,7.252a10.145,10.145,0,0,1,8.553,11.525L314.062,286.139a10.152,10.152,0,0,1-11.525,8.579Z" transform="translate(-173.01 -146.633)" fill="#243762"/>
  <rect id="Rectangle_20532" data-name="Rectangle 20532" width="113.493" height="61.54" transform="translate(76.741 125.226) rotate(-81.59)" fill="#ecf1f7"/>
  <rect id="Rectangle_20533" data-name="Rectangle 20533" width="8.519" height="61.54" transform="translate(92.097 21.38) rotate(-81.59)" fill="#3183c5"/>
  <path id="Path_81861" data-name="Path 81861" d="M294.588,353.766a3.511,3.511,0,0,1-.584-.046,3.948,3.948,0,1,1,.584.046Zm0-7.3a3.516,3.516,0,1,0,.491.066,3.128,3.128,0,0,0-.5-.053Z" transform="translate(-188.429 -213.085)" fill="#ecf1f7"/>
  <path id="Path_81862" data-name="Path 81862" d="M309.19,162.376H309a1.284,1.284,0,1,1,1.446-1.082h0a1.274,1.274,0,0,1-1.261,1.082Zm0-1.9a.664.664,0,0,0-.61.524.624.624,0,0,0,.119.458.6.6,0,0,0,.4.245.624.624,0,0,0,.458-.119.571.571,0,0,0,.239-.4h0a.591.591,0,0,0-.113-.458.571.571,0,0,0-.4-.239Z" transform="translate(-194.234 -150.482)" fill="#ecf1f7"/>
  <path id="Path_81863" data-name="Path 81863" d="M331.132,165.61a.875.875,0,0,1-.186,0l-15.5-2.309a1.221,1.221,0,0,1-.836-.5,1.247,1.247,0,0,1-.239-.949,1.267,1.267,0,0,1,.5-.836,1.287,1.287,0,0,1,.949-.239l15.533,2.3a1.278,1.278,0,0,1-.219,2.541ZM315.6,161.424a.6.6,0,0,0-.086,1.188l15.526,2.3a.6.6,0,0,0,.7-.518.577.577,0,0,0-.113-.451.617.617,0,0,0-.4-.245l-15.526-2.3Z" transform="translate(-196.404 -150.797)" fill="#ecf1f7"/>
  <path id="Path_81864" data-name="Path 81864" d="M321.289,293.1l-42.464-6.283a1.267,1.267,0,0,0-1.433,1.068l-1.639,10.994a1.267,1.267,0,0,0,1.068,1.44l36.307,5.368,3.742,5.162.663-4.505,1.752.259a1.274,1.274,0,0,0,1.44-1.068l1.626-11.014A1.261,1.261,0,0,0,321.289,293.1Z" transform="translate(-183.409 -193.208)" fill="#14548c"/>
  <path id="Path_81865" data-name="Path 81865" d="M312.964,305.877h-.06L276.6,300.5a1.592,1.592,0,0,1-1.327-1.811l1.626-11.014a1.592,1.592,0,0,1,1.818-1.327l9.813,1.453a.335.335,0,1,1-.1.663l-9.813-1.446a.942.942,0,0,0-1.062.783l-1.626,11.021a.889.889,0,0,0,.173.664.942.942,0,0,0,.61.372l36.307,5.368a.327.327,0,0,1-.053.65Z" transform="translate(-183.245 -193.051)" fill="#243762"/>
  <path id="Path_81866" data-name="Path 81866" d="M331.462,224.3,289,218.013a1.274,1.274,0,0,0-1.44,1.068L285.933,230.1a1.261,1.261,0,0,0,1.068,1.44l36.307,5.368,3.736,5.162.664-4.505,1.752.259a1.267,1.267,0,0,0,1.433-1.068l1.632-11.021a1.267,1.267,0,0,0-1.062-1.433Z" transform="translate(-186.835 -170.058)" fill="#14548c"/>
  <path id="Path_81867" data-name="Path 81867" d="M327.1,248.529l-4.127-5.673L286.808,237.5a1.6,1.6,0,0,1-1.327-1.811.338.338,0,0,1,.378-.279.325.325,0,0,1,.279.378.922.922,0,0,0,.179.664.942.942,0,0,0,.61.372l36.413,5.368,3.318,4.611.6-4.027,2.077.305a.929.929,0,0,0,1.062-.783l1.082-7.332a.338.338,0,0,1,.378-.279.332.332,0,0,1,.279.378l-1.082,7.3a1.559,1.559,0,0,1-.63,1.048,1.539,1.539,0,0,1-1.181.3l-1.427-.212Z" transform="translate(-186.681 -175.672)" fill="#243762"/>
  <path id="Path_81868" data-name="Path 81868" d="M271.985,248.873l42.464,6.283a1.267,1.267,0,0,1,1.068,1.433l-1.632,11.021a1.267,1.267,0,0,1-1.433,1.068L276.145,263.3l-5.076,3.855.664-4.505-1.752-.259a1.261,1.261,0,0,1-1.068-1.44l1.626-11.014A1.274,1.274,0,0,1,271.985,248.873Z" transform="translate(-181.108 -180.442)" fill="#3183c5"/>
  <path id="Path_81869" data-name="Path 81869" d="M323.061,272.054a1.373,1.373,0,0,1-.232,0L300.164,268.7a.335.335,0,1,1,.093-.663l22.665,3.351a.929.929,0,0,0,1.062-.783l1.632-11.021a.942.942,0,0,0-.79-1.062.332.332,0,0,1-.279-.372.338.338,0,0,1,.378-.285,1.606,1.606,0,0,1,1.327,1.818L324.62,270.7a1.612,1.612,0,0,1-1.579,1.367Z" transform="translate(-191.531 -183.472)" fill="#243762"/>
  <rect id="Rectangle_20534" data-name="Rectangle 20534" width="10.444" height="61.54" transform="translate(76.741 125.212) rotate(-81.59)" fill="#fff"/>
  <path id="Path_81870" data-name="Path 81870" d="M264.365,326.586a3.7,3.7,0,1,1-.686-2.751A3.7,3.7,0,0,1,264.365,326.586Z" transform="translate(-177.104 -205.167)" fill="#3183c5"/>
  <path id="Path_81871" data-name="Path 81871" d="M314.1,337.552a2.968,2.968,0,0,1-.484-.033l-39.452-5.845a3.251,3.251,0,0,1-2.17-1.294,3.318,3.318,0,0,1,3.132-5.235l39.452,5.839a3.318,3.318,0,0,1-.478,6.562Zm-.391-.664a2.654,2.654,0,1,0,.776-5.215l-39.452-5.839a2.654,2.654,0,0,0-.776,5.222Z" transform="translate(-181.935 -206.101)" fill="#3183c5" opacity="0.33"/>
  <path id="Path_81872" data-name="Path 81872" d="M282.345,173.116h-.186a1.327,1.327,0,0,1-1.095-1.48,1.274,1.274,0,0,1,.511-.849,1.327,1.327,0,0,1,2.057,1.234h0A1.327,1.327,0,0,1,282.345,173.116Zm0-1.937a.615.615,0,1,0,.63.73h0a.61.61,0,0,0-.119-.471.617.617,0,0,0-.418-.252Z" transform="translate(-185.198 -154.096)" fill="#fff"/>
  <path id="Path_81873" data-name="Path 81873" d="M287.866,173.9h-.192a1.327,1.327,0,0,1,.378-2.574,1.281,1.281,0,0,1,.856.518,1.327,1.327,0,0,1-.272,1.811A1.254,1.254,0,0,1,287.866,173.9Zm0-1.937a.664.664,0,0,0-.624.544.6.6,0,0,0,.119.471.617.617,0,0,0,.418.252.63.63,0,0,0,.717-.537h0a.61.61,0,0,0-.119-.471.664.664,0,0,0-.411-.252Z" transform="translate(-187.13 -154.353)" fill="#fff"/>
  <path id="Path_81874" data-name="Path 81874" d="M293.035,174.73a.9.9,0,0,1-.192,0,1.254,1.254,0,1,1,.192,0Zm0-1.937a.617.617,0,0,0-.378.126.9.9,0,1,0,.471-.119Z" transform="translate(-188.775 -154.655)" fill="#fff"/>
  <path id="Path_81875" data-name="Path 81875" d="M339.655,187.669h-.046l-56.351-8.334a.338.338,0,0,1-.279-.378.332.332,0,0,1,.378-.279l56.345,8.334a.333.333,0,1,1-.046.663Z" transform="translate(-185.845 -156.825)" fill="#243762"/>
  <path id="Path_81876" data-name="Path 81876" d="M317.584,297.52h-.053l-30.063-4.445a.338.338,0,0,1-.279-.378.325.325,0,0,1,.372-.279l30.07,4.445a.332.332,0,0,1,.279.378A.325.325,0,0,1,317.584,297.52Z" transform="translate(-187.26 -195.098)" fill="#fff"/>
  <path id="Path_81877" data-name="Path 81877" d="M299.51,300.373h-.046l-12.8-1.891a.335.335,0,1,1,.1-.664l12.792,1.9a.333.333,0,1,1-.046.663Z" transform="translate(-186.99 -196.915)" fill="#fff"/>
  <path id="Path_81878" data-name="Path 81878" d="M294.947,304.872H294.9l-8.984-1.327a.332.332,0,0,1-.279-.378.338.338,0,0,1,.378-.279l8.977,1.327a.318.318,0,0,1,.279.372A.332.332,0,0,1,294.947,304.872Z" transform="translate(-186.739 -198.621)" fill="#fff"/>
  <path id="Path_81879" data-name="Path 81879" d="M325.324,304.2h-.053l-13.224-1.951a.339.339,0,0,1-.279-.378.325.325,0,0,1,.378-.279l13.224,1.957a.327.327,0,0,1-.046.65Z" transform="translate(-195.532 -198.183)" fill="#fff"/>
  <path id="Path_81880" data-name="Path 81880" d="M312.043,259.917H312l-30.063-4.445a.335.335,0,1,1,.093-.664l30.07,4.452a.332.332,0,0,1,.279.372A.338.338,0,0,1,312.043,259.917Z" transform="translate(-185.397 -182.443)" fill="#fff"/>
  <path id="Path_81881" data-name="Path 81881" d="M293.979,262.776h-.053l-12.792-1.891a.332.332,0,1,1,.093-.657l12.8,1.891a.333.333,0,1,1-.046.663Z" transform="translate(-185.128 -184.266)" fill="#fff"/>
  <path id="Path_81882" data-name="Path 81882" d="M307.35,269.823H307.3l-25.95-4.027a.332.332,0,0,1,.1-.657l25.95,4.027a.333.333,0,0,1-.046.664Z" transform="translate(-185.202 -185.918)" fill="#fff"/>
  <path id="Path_81883" data-name="Path 81883" d="M319.787,266.576h-.046l-13.224-1.991a.325.325,0,0,1-.279-.372.332.332,0,0,1,.372-.285l13.23,1.957a.333.333,0,1,1-.053.664Z" transform="translate(-193.671 -185.512)" fill="#fff"/>
  <path id="Path_81884" data-name="Path 81884" d="M280.2,186.453l42.464,6.283a1.267,1.267,0,0,1,1.068,1.44L322.1,205.19a1.267,1.267,0,0,1-1.433,1.068l-36.333-5.374-5.049,3.842.664-4.505-1.752-.259a1.261,1.261,0,0,1-1.068-1.44l1.626-11.014a1.274,1.274,0,0,1,1.446-1.055Z" transform="translate(-183.874 -159.437)" fill="#3183c5"/>
  <path id="Path_81885" data-name="Path 81885" d="M331.679,206.567h-.046a.332.332,0,0,1-.279-.372l1.632-11.041a.922.922,0,0,0-.179-.663.942.942,0,0,0-.61-.372l-26.341-3.908a.335.335,0,0,1,.1-.663l26.368,3.895a1.612,1.612,0,0,1,1.048.63,1.579,1.579,0,0,1,.292,1.188l-1.626,11.014a.338.338,0,0,1-.358.292Z" transform="translate(-193.447 -160.483)" fill="#243762"/>
  <path id="Path_81886" data-name="Path 81886" d="M320.264,197.5h-.046l-30.07-4.452a.332.332,0,0,1-.279-.372.338.338,0,0,1,.378-.285l30.07,4.452a.332.332,0,0,1,.279.372.338.338,0,0,1-.332.285Z" transform="translate(-188.163 -161.439)" fill="#fff"/>
  <path id="Path_81887" data-name="Path 81887" d="M302.2,200.353h-.053l-12.792-1.891a.335.335,0,1,1,.093-.663l12.8,1.891a.333.333,0,0,1-.046.663Z" transform="translate(-187.894 -163.259)" fill="#fff"/>
  <path id="Path_81888" data-name="Path 81888" d="M315.57,207.4h-.053l-25.95-4.027a.332.332,0,1,1,.1-.657l25.97,4.027a.338.338,0,0,1,.279.378A.325.325,0,0,1,315.57,207.4Z" transform="translate(-187.967 -164.915)" fill="#fff"/>
  <path id="Path_81889" data-name="Path 81889" d="M328.006,204.156h-.046l-13.224-1.991a.319.319,0,0,1-.279-.372.332.332,0,0,1,.372-.285l13.257,1.984a.333.333,0,0,1-.053.664Z" transform="translate(-196.435 -164.508)" fill="#fff"/>
  <path id="Path_81890" data-name="Path 81890" d="M327.791,229.407h-.046l-30.07-4.445a.335.335,0,0,1,.1-.663l30.07,4.445a.332.332,0,0,1,.279.372A.338.338,0,0,1,327.791,229.407Z" transform="translate(-190.694 -172.176)" fill="#fff"/>
  <path id="Path_81891" data-name="Path 81891" d="M309.719,232.209h-.053l-12.812-1.9a.335.335,0,1,1,.093-.663l12.8,1.891a.333.333,0,0,1-.047.664Z" transform="translate(-190.417 -173.976)" fill="#fff"/>
  <path id="Path_81892" data-name="Path 81892" d="M305.164,236.7h-.053l-8.977-1.327a.335.335,0,1,1,.093-.663l8.984,1.327a.332.332,0,0,1,.279.378.325.325,0,0,1-.325.285Z" transform="translate(-190.175 -175.679)" fill="#fff"/>
  <path id="Path_81893" data-name="Path 81893" d="M335.534,236.019h-.046l-13.224-1.957a.335.335,0,1,1,.093-.663l13.23,1.99a.333.333,0,0,1-.053.664Z" transform="translate(-198.968 -175.238)" fill="#fff"/>
  <path id="Path_81894" data-name="Path 81894" d="M212.686,330.039l-68.109,7.67a2.375,2.375,0,0,1-2.654-2.1L137,291.973a.133.133,0,0,1,.113-.139L209.7,283.66a.119.119,0,0,1,.133.113l4.923,43.645A2.369,2.369,0,0,1,212.686,330.039Z" transform="translate(-136.725 -192.152)" fill="#f49431"/>
  <path id="Path_81895" data-name="Path 81895" d="M144.159,337.888a2.72,2.72,0,0,1-2.654-2.422l-4.917-43.632a.451.451,0,0,1,.4-.5l72.587-8.181a.458.458,0,0,1,.5.4l4.917,43.652a2.654,2.654,0,0,1-.571,1.991,2.7,2.7,0,0,1-1.8,1l-68.148,7.67a2.358,2.358,0,0,1-.312.02Zm-6.934-45.915,4.9,43.426a2.05,2.05,0,0,0,2.269,1.811l68.109-7.677.04.332-.04-.332a1.99,1.99,0,0,0,1.367-.75,2.037,2.037,0,0,0,.431-1.5l-4.9-43.446Z" transform="translate(-136.585 -191.979)" fill="#243762"/>
  <path id="Path_81896" data-name="Path 81896" d="M209.494,330.039l-61.586,7.67c-1.327.153,19.082-26.009,18.936-27.316L137,291.973a.133.133,0,0,1,.113-.139L209.7,283.66a.119.119,0,0,1,.133.113L185,308.322C185.17,309.642,210.795,329.893,209.494,330.039Z" transform="translate(-136.725 -192.152)" fill="#243762" opacity="0.29"/>
  <path id="Path_81897" data-name="Path 81897" d="M137.133,280.144l30.017-29.685a5.454,5.454,0,0,1,6.708-.763l35.677,22.161a.073.073,0,0,1,0,.139L137,280.144" transform="translate(-136.725 -180.449)" fill="#f7a9b4"/>
  <path id="Path_81898" data-name="Path 81898" d="M137,280.3l-.053-.484-.093-.093.073-.073h0l29.937-29.606a5.772,5.772,0,0,1,7.113-.816l35.677,22.161a.418.418,0,0,1,.186.431.411.411,0,0,1-.352.318Zm33.938-31.278a5.1,5.1,0,0,0-3.6,1.486L138,279.527l70.683-7.962L173.628,249.8A5.1,5.1,0,0,0,170.934,249.025Z" transform="translate(-136.674 -180.276)" fill="#243762"/>
  <path id="Path_81899" data-name="Path 81899" d="M137.133,280.144l30.017-29.685a5.454,5.454,0,0,1,6.708-.763l35.677,22.161a.073.073,0,0,1,0,.139L137,280.144" transform="translate(-136.725 -180.449)" fill="#f3af0f" opacity="0.29"/>
  <path id="Path_81900" data-name="Path 81900" d="M176,315.613l-22.559,31.4,61.586-6.94-28.982-25.585A6.821,6.821,0,0,0,176,315.613Z" transform="translate(-142.257 -201.951)" fill="#f7a9b4"/>
  <path id="Path_81901" data-name="Path 81901" d="M152.37,347.261l22.977-32.007.272.192-.272-.192a7.159,7.159,0,0,1,10.556-1.168l29.546,26.082Zm28.8-34.31a6.463,6.463,0,0,0-5.262,2.7l-22.128,30.773,60.1-6.768-28.418-25.094a6.5,6.5,0,0,0-4.293-1.619Z" transform="translate(-141.896 -201.783)" fill="#243762"/>
  <path id="Path_81902" data-name="Path 81902" d="M142.72,260.857l47.44-5.308c3.112-.352,5.879,1.553,6.184,4.253l3.045,27.058-13.19,12.1-17.417,1.991-17.251-10.8-2.959-26.222Z" transform="translate(-138.649 -182.679)" fill="#fff"/>
  <path id="Path_81903" data-name="Path 81903" d="M169.221,301.069l-17.45-10.928-2.953-26.2L144.3,260.2l46.359-5.228a6.416,6.416,0,0,1,4.366,1.042,4.917,4.917,0,0,1,2.183,3.5l3.065,27.2-13.4,12.315Zm-16.833-11.313,16.986,10.616,17.191-1.931L199.557,286.5l-3.039-26.879a4.246,4.246,0,0,0-1.9-3.032,5.766,5.766,0,0,0-3.915-.929l-46.366,5.228,5.069,2.654Z" transform="translate(-139.181 -182.483)" fill="#243762"/>
  <path id="Path_81904" data-name="Path 81904" d="M176,311.561l-22.559,34.1,61.586-6.94-28.982-28.292A6.814,6.814,0,0,0,176,311.561Z" transform="translate(-142.257 -200.586)" fill="#243762" opacity="0.29"/>
  <path id="Path_81905" data-name="Path 81905" d="M176,315.613l-22.559,31.4,61.586-6.94-28.982-25.585A6.821,6.821,0,0,0,176,315.613Z" transform="translate(-142.257 -201.951)" fill="#f3af0f"/>
  <path id="Path_81906" data-name="Path 81906" d="M152.37,347.261l22.977-32.007.272.192-.272-.192a7.159,7.159,0,0,1,10.556-1.168l29.546,26.082Zm28.8-34.31a6.463,6.463,0,0,0-5.262,2.7l-22.128,30.773,60.1-6.768-28.418-25.094a6.5,6.5,0,0,0-4.293-1.619Z" transform="translate(-141.896 -201.783)" fill="#243762"/>
  <path id="Path_81907" data-name="Path 81907" d="M182.328,326.476l-16.588,23.05,45.231-5.1-21.285-18.79a5,5,0,0,0-7.358.836Z" transform="translate(-146.395 -205.86)" fill="#ecf1f7" opacity="0.35"/>
  <line id="Line_905" data-name="Line 905" x2="29.685" y2="18.499" transform="translate(0.433 99.742)" fill="#f7a9b4"/>
  <rect id="Rectangle_20535" data-name="Rectangle 20535" width="0.663" height="34.973" transform="translate(0.261 100.032) rotate(-58.07)" fill="#243762"/>
  <line id="Line_906" data-name="Line 906" x1="24.822" y2="24.636" transform="translate(48.3 91.554)" fill="#f7a9b4"/>
  <rect id="Rectangle_20536" data-name="Rectangle 20536" width="34.973" height="0.663" transform="translate(48.074 115.967) rotate(-44.8)" fill="#243762"/>
  <path id="Path_81908" data-name="Path 81908" d="M148.665,278.628l-8.281.936-1.327-11.81a3.981,3.981,0,0,1,3.5-4.4l.378-.046a3.981,3.981,0,0,1,4.4,3.51Z" transform="translate(-137.407 -185.295)" fill="#ecf1f7"/>
  <path id="Path_81909" data-name="Path 81909" d="M139.923,279.762l-1.367-12.142a4.306,4.306,0,0,1,3.8-4.764l.372-.04a4.3,4.3,0,0,1,4.764,3.8l1.373,12.142Zm3.317-16.309h-.411l-.378.046a3.636,3.636,0,0,0-3.211,4.028l1.327,11.485,7.564-.823-1.294-11.479a3.643,3.643,0,0,0-3.616-3.238Z" transform="translate(-137.239 -185.128)" fill="#243762"/>
  <path id="Path_81910" data-name="Path 81910" d="M161.831,274.841a.325.325,0,0,1-.332-.292.332.332,0,0,1,.292-.365l34.369-3.875a.338.338,0,0,1,.372.292.332.332,0,0,1-.292.365l-34.376,3.875Z" transform="translate(-144.968 -187.659)" fill="#243762"/>
  <path id="Path_81911" data-name="Path 81911" d="M163.821,292.447a.332.332,0,0,1-.04-.663l34.376-3.875a.334.334,0,1,1,.073.663l-34.369,3.868Z" transform="translate(-145.631 -193.581)" fill="#243762"/>
  <path id="Path_81912" data-name="Path 81912" d="M162.821,284.665a.332.332,0,1,1-.04-.664l14.856-1.672a.334.334,0,1,1,.073.664l-14.856,1.672Z" transform="translate(-145.294 -191.703)" fill="#243762"/>
  <path id="Path_81913" data-name="Path 81913" d="M191.084,281.428a.325.325,0,0,1-.325-.292.332.332,0,0,1,.292-.365L206.683,279a.338.338,0,0,1,.365.3.332.332,0,0,1-.292.365l-15.632,1.758Z" transform="translate(-154.813 -190.584)" fill="#243762"/>
  <path id="Path_81914" data-name="Path 81914" d="M164.964,303.555a.332.332,0,0,1-.325-.292.325.325,0,0,1,.292-.365l14.856-1.679a.334.334,0,0,1,.073.664L165,303.555Z" transform="translate(-146.024 -198.06)" fill="#243762"/>
</svg>
