<svg xmlns="http://www.w3.org/2000/svg" width="26" height="24" viewBox="0 0 26 24">
  <g id="deleteAccount" transform="translate(-325 -483)">
    <rect id="Rectangle_20538" data-name="Rectangle 20538" width="26" height="24" rx="8" transform="translate(325 483)" fill="#fbc950"/>
    <g id="svgexport-7_-_2022-12-25T112215.496" data-name="svgexport-7 - 2022-12-25T112215.496" transform="translate(277.006 488)">
      <path id="Path_82142" data-name="Path 82142" d="M65.388,3.982H57.079c-.009.1-.039-.443.562,8.581a.913.913,0,0,0,.908.85h5.368a.913.913,0,0,0,.908-.85C65.428,3.531,65.4,4.082,65.388,3.982Zm-5.795,7.752a.419.419,0,0,1-.454-.381l-.419-4.82a.419.419,0,0,1,.835-.073l.419,4.82A.419.419,0,0,1,59.593,11.734Zm2.059-.418a.419.419,0,0,1-.838,0V6.5a.419.419,0,0,1,.838,0Zm2.094-4.784-.419,4.82a.419.419,0,0,1-.835-.073l.419-4.82a.419.419,0,1,1,.835.073Zm1.816-5.066H63.535c0-.055,0-.014,0-.557a.911.911,0,0,0-.91-.91h-2.79a.911.911,0,0,0-.91.91c0,.532,0,.5,0,.557H56.9a.911.911,0,0,0-.91.91c0,.749,0,.713,0,.766H66.47c0-.054,0-.022,0-.766A.911.911,0,0,0,65.562,1.467ZM62.7,1.395a.072.072,0,0,1-.072.072h-2.79a.072.072,0,0,1-.072-.072V.91a.072.072,0,0,1,.072-.072h2.79A.072.072,0,0,1,62.7.91Z" fill="#fff"/>
    </g>
  </g>
</svg>
