<svg xmlns="http://www.w3.org/2000/svg" width="16.274" height="16.274" viewBox="0 0 16.274 16.274">
  <g id="estagar" transform="translate(-3 -3)">
    <g id="Euro" transform="translate(3 3)">
      <circle id="path6140-8" cx="7.393" cy="7.393" r="7.393" transform="translate(0.739 0.739)" fill="#e27d47"/>
      <g id="Group_48633" data-name="Group 48633">
        <path id="path35992" d="M31,55.23v1.338a.281.281,0,0,0,.561,0V55.23H31Z" transform="translate(-23.143 -40.575)" fill="#fb6931"/>
        <path id="path35990" d="M37.6,54.19c-.177.053-.359.1-.544.143l.348,1.291a.28.28,0,1,0,.542-.143Z" transform="translate(-27.503 -39.826)" fill="#fb6931"/>
        <path id="path35988" d="M24.091,54.19l-.345,1.291a.28.28,0,1,0,.542.143l.365-1.291C24.456,54.291,24.273,54.243,24.091,54.19Z" transform="translate(-17.918 -39.826)" fill="#fb6931"/>
        <path id="path35986" d="M43.235,51.62c-.157.1-.32.194-.485.281l.668,1.159a.282.282,0,0,0,.488-.281Z" transform="translate(-31.596 -37.978)" fill="#fb6931"/>
        <path id="path35984" d="M17.7,51.62l-.671,1.159a.282.282,0,0,0,.488.281L18.19,51.9A4.945,4.945,0,0,1,17.7,51.62Z" transform="translate(-13.069 -37.978)" fill="#fb6931"/>
        <path id="path35982" d="M48.116,47.72q-.191.2-.4.4l.946.946a.281.281,0,0,0,.4-.4Z" transform="translate(-35.172 -35.172)" fill="#fb6931"/>
        <path id="path35980" d="M12.227,47.72l-.948.946a.282.282,0,0,0,.4.4l.946-.948q-.208-.188-.4-.4Z" transform="translate(-8.896 -35.172)" fill="#fb6931"/>
        <path id="path35978" d="M51.9,42.75c-.087.166-.182.328-.281.485l1.159.671a.282.282,0,0,0,.281-.488Z" transform="translate(-37.978 -31.596)" fill="#fb6931"/>
        <path id="path35976" d="M8.047,42.75l-1.159.668a.282.282,0,1,0,.281.488l1.159-.671A4.943,4.943,0,0,1,8.047,42.75Z" transform="translate(-5.695 -31.596)" fill="#fb6931"/>
        <path id="path35974" d="M5.461,37.05,4.171,37.4a.28.28,0,0,0,.146.542L5.6,37.6C5.551,37.415,5.5,37.232,5.461,37.05Z" transform="translate(-3.694 -27.496)" fill="#fb6931"/>
        <path id="path35972" d="M54.333,37c-.042.185-.09.368-.143.544l1.291.345a.281.281,0,1,0,.143-.542Z" transform="translate(-39.826 -27.46)" fill="#fb6931"/>
        <path id="path35970" d="M55.23,31v.561h1.338a.281.281,0,0,0,0-.561Z" transform="translate(-40.575 -23.143)" fill="#fb6931"/>
        <path id="path35968" d="M3.281,31a.281.281,0,1,0,0,.561H4.619V31Z" transform="translate(-3 -23.143)" fill="#fb6931"/>
        <path id="path35966" d="M55.554,23.708a.21.21,0,0,0-.073,0l-1.291.351c.053.177.1.359.143.542l1.291-.345a.283.283,0,1,0-.07-.561Z" transform="translate(-39.826 -17.886)" fill="#fb6931"/>
        <path id="path35964" d="M4.181,23.744a.283.283,0,0,0-.073.561l1.28.351c.042-.182.09-.365.146-.542L4.24,23.755A.2.2,0,0,0,4.181,23.744Z" transform="translate(-3.62 -17.922)" fill="#fb6931"/>
        <path id="path35962" d="M52.919,16.995a.3.3,0,0,0-.14.036L51.62,17.7c.1.157.194.32.281.485l1.159-.668a.281.281,0,0,0-.067-.525A.323.323,0,0,0,52.919,16.995Z" transform="translate(-37.978 -13.066)" fill="#fb6931"/>
        <path id="path35960" d="M7.027,16.995a.323.323,0,0,0-.073,0,.3.3,0,0,0-.171.132.281.281,0,0,0,.1.384l1.159.668c.087-.166.182-.328.281-.485l-1.159-.662A.3.3,0,0,0,7.027,16.995Z" transform="translate(-5.694 -13.066)" fill="#fb6931"/>
        <path id="path35958" d="M48.865,11.2a.281.281,0,0,0-.2.081l-.946.948q.2.191.4.4l.948-.946a.281.281,0,0,0,0-.4A.3.3,0,0,0,48.865,11.2Z" transform="translate(-35.172 -8.899)" fill="#fb6931"/>
        <path id="path35956" d="M11.476,11.2a.281.281,0,0,0-.2.48l.948.946q.191-.208.4-.4l-.946-.948a.281.281,0,0,0-.2-.081Z" transform="translate(-8.895 -8.899)" fill="#fb6931"/>
        <path id="path35954" d="M17.277,6.75a.3.3,0,0,0-.14.036.281.281,0,0,0-.1.384L17.7,8.33c.157-.1.32-.194.485-.281L17.521,6.89a.281.281,0,0,0-.171-.129A.219.219,0,0,0,17.277,6.75Z" transform="translate(-13.068 -5.698)" fill="#fb6931"/>
        <path id="path35952" d="M43.662,6.75a.281.281,0,0,0-.244.14L42.75,8.049c.166.087.328.182.485.281l.671-1.159a.281.281,0,0,0-.1-.384A.3.3,0,0,0,43.662,6.75Z" transform="translate(-31.596 -5.698)" fill="#fb6931"/>
        <path id="path35950" d="M37.631,3.992a.281.281,0,0,0-.281.208L37,5.479c.185.042.368.09.544.143l.345-1.291a.281.281,0,0,0-.185-.34A.216.216,0,0,0,37.631,3.992Z" transform="translate(-27.46 -3.711)" fill="#fb6931"/>
        <path id="path35948" d="M24.035,3.992a.224.224,0,0,0-.073,0,.281.281,0,0,0-.2.342l.34,1.288c.177-.053.359-.1.542-.143l-.34-1.291A.281.281,0,0,0,24.035,3.992Z" transform="translate(-17.932 -3.712)" fill="#fb6931"/>
        <path id="path19784" d="M31.281,3A.281.281,0,0,0,31,3.281V4.619h.561V3.281A.281.281,0,0,0,31.281,3Z" transform="translate(-23.143 -3)" fill="#fb6931"/>
      </g>
      <path id="path7686" d="M14.734,8a6.734,6.734,0,1,0,6.734,6.734A6.734,6.734,0,0,0,14.734,8Z" transform="translate(-6.597 -6.597)" fill="#fc9469"/>
      <path id="path7694" d="M17.756,12.2a5.556,5.556,0,1,0,5.556,5.556A5.556,5.556,0,0,0,17.756,12.2Z" transform="translate(-9.619 -9.619)" fill="#fdefad"/>
      <path id="path7030" d="M23.611,21.4a3.7,3.7,0,0,0-.457.993h-.7a.424.424,0,1,0,0,.842h.561c0,.132-.02.264-.02.4a4.666,4.666,0,0,0,.028.491h-.561a.424.424,0,1,0,0,.842h.735a3.42,3.42,0,0,0,.418.92,1.933,1.933,0,0,0,3.406,0,.424.424,0,0,0-.7-.474,1.1,1.1,0,0,1-2,0,2.346,2.346,0,0,1-.224-.427h.7a.424.424,0,1,0,0-.842h-.932a3.968,3.968,0,0,1-.034-.5,3.758,3.758,0,0,1,.025-.4h1.4a.424.424,0,0,0,0-.842h-1.2a2.64,2.64,0,0,1,.264-.519,1.1,1.1,0,0,1,2,0,.426.426,0,1,0,.7-.483,1.936,1.936,0,0,0-3.406,0Z" transform="translate(-16.652 -15.503)" fill="#434343"/>
      <path id="path7034" d="M16.626,30.813a.463.463,0,1,1-.463-.463A.463.463,0,0,1,16.626,30.813Z" transform="translate(-12.136 -22.676)" fill="#434343"/>
      <path id="path7038" d="M45.966,30.813a.463.463,0,1,1-.463-.463A.463.463,0,0,1,45.966,30.813Z" transform="translate(-33.244 -22.676)" fill="#434343"/>
    </g>
  </g>
</svg>
