<svg xmlns="http://www.w3.org/2000/svg" xmlns:xlink="http://www.w3.org/1999/xlink" width="240" height="230" viewBox="0 0 240 230">
  <defs>
    <clipPath id="clip-path">
      <rect id="Rectangle_124" data-name="Rectangle 124" width="240" height="230" transform="translate(0.25)" fill="#fff" stroke="#707070" stroke-width="1"/>
    </clipPath>
  </defs>
  <g id="Mask_Group_5" data-name="Mask Group 5" transform="translate(-0.25)" clip-path="url(#clip-path)">
    <g id="Workout-amico_1_" data-name="Workout-amico (1)" transform="translate(17.269 15.478)">
      <g id="freepik--Floor--inject-16--inject-53" transform="translate(0 56.686)">
        <ellipse id="freepik--floor--inject-16--inject-53-2" data-name="freepik--floor--inject-16--inject-53" cx="111.328" cy="73.32" rx="111.328" ry="73.32" fill="#f5f5f5"/>
      </g>
      <g id="freepik--Shadows--inject-16--inject-53" transform="translate(33.251 119.531)">
        <path id="freepik--Shadow--inject-16--inject-53" d="M88.326,352.719c2.754.612,5.643.45,8.4,1.073a30.525,30.525,0,0,1,5.521,2q2.427,1.046,4.845,2.135a37.5,37.5,0,0,1,4.2,1.842c6.534,2.731,13.171,6.661,20.368,6.19a6.185,6.185,0,0,0,4.456-2.451,7.763,7.763,0,0,0,1.561-5.282c-.1-1.533-.649-3.05-.467-4.578.537-4.092,3.888-3.663,6.581-2.967,1.573.408,3.122.905,4.667,1.46,4.042,1.455,8.3,2.815,11.514,6.1a10.582,10.582,0,0,0,6.856,3.3,23.425,23.425,0,0,1,5.736,1.109,33.153,33.153,0,0,1,5.134,3.139,13.091,13.091,0,0,0,14.987-.958,2.81,2.81,0,0,0,1.325-2.4c-.345-2.365-3.878-2.846-5.377-3.84-2.7-1.8-5.419-3.584-8.154-5.326q-8.214-5.232-16.615-10.046a152.424,152.424,0,0,0-18.38-9.3c-3.113-1.266-6.665-2.334-9.643-.7-2.4,1.313-3.351,3.809-4.91,6.028a17.686,17.686,0,0,1-5.465,5.353,12.708,12.708,0,0,1-5.512,1.235,73.393,73.393,0,0,1-18.669-1.81,29.922,29.922,0,0,0-7.883-.984c-2.838.194-7.468,1.01-9.04,4.081a4.558,4.558,0,0,0-.527,1.57,3.123,3.123,0,0,0,.933,2.412,5.284,5.284,0,0,0,2.147,1.235A12.4,12.4,0,0,0,88.326,352.719Z" transform="translate(-83.832 -313.755)" fill="#e0e0e0"/>
        <ellipse id="freepik--shadow--inject-16--inject-53-2" data-name="freepik--shadow--inject-16--inject-53" cx="10.077" cy="6.525" rx="10.077" ry="6.525" transform="translate(135.821)" fill="#e0e0e0"/>
        <path id="freepik--shadow--inject-16--inject-53-3" data-name="freepik--shadow--inject-16--inject-53" d="M355.21,366.959l-1.647-1.046a1.441,1.441,0,0,1,0-2.616l3.65-2.381-13.255-8.6-3.664,2.375a4.04,4.04,0,0,1-4.042,0l-1.648-1.046a1.441,1.441,0,0,1,0-2.616l11.127-7.221a4.04,4.04,0,0,1,4.042,0l1.643,1.046a1.438,1.438,0,0,1,0,2.616l-4.047,2.616,13.269,8.591,4.051-2.616a4.04,4.04,0,0,1,4.042,0l1.648,1.046a1.441,1.441,0,0,1,0,2.616l-11.127,7.2a4.04,4.04,0,0,1-4.042.037Z" transform="translate(-217.116 -318.943)" fill="#e0e0e0"/>
      </g>
      <g id="freepik--Plants--inject-16--inject-53" transform="translate(12.864 50.031)">
        <g id="freepik--plants--inject-16--inject-53-2" data-name="freepik--plants--inject-16--inject-53" transform="translate(181.591)">
          <path id="Path_1133" data-name="Path 1133" d="M434.288,208.571l-4.448-2.878a121.338,121.338,0,0,1-.364-18.941c1.017-11.621,7.71-25.6,15.7-22.316s-3.664,15.116-6.254,24.968S434.288,208.571,434.288,208.571Z" transform="translate(-429.228 -163.951)" fill="#ba68c8"/>
          <path id="Path_1134" data-name="Path 1134" d="M434.288,208.571l-4.448-2.878a121.338,121.338,0,0,1-.364-18.941c1.017-11.621,7.71-25.6,15.7-22.316s-3.664,15.116-6.254,24.968S434.288,208.571,434.288,208.571Z" transform="translate(-429.228 -163.951)" opacity="0.15"/>
          <path id="Path_1135" data-name="Path 1135" d="M434.7,210.707h0a.291.291,0,0,0,.257-.309c-.779-25.816,10.683-38.8,10.8-38.928a.331.331,0,0,0-.018-.4.25.25,0,0,0-.36-.025c-.121.131-11.747,13.3-10.959,39.378a.315.315,0,0,0,.086.21A.25.25,0,0,0,434.7,210.707Z" transform="translate(-431.974 -167.3)" fill="#fff"/>
          <path id="Path_1136" data-name="Path 1136" d="M442.4,224.161l-3.164-2.051a43.358,43.358,0,0,1,2.665-16.22c2.8-7.749,9.708-14.174,13.19-12.824s3.393,4.118,1.694,7.016S444.771,209.9,442.4,224.161Z" transform="translate(-434.549 -177.746)" fill="#ba68c8"/>
          <path id="Path_1137" data-name="Path 1137" d="M442.17,225.37h0a.289.289,0,0,0,.271-.3c-.065-16.319,13.6-27.349,13.745-27.459a.328.328,0,0,0,.061-.424.26.26,0,0,0-.174-.124.241.241,0,0,0-.2.056c-.14.11-14.034,11.323-13.974,27.956A.293.293,0,0,0,442.17,225.37Z" transform="translate(-435.985 -179.735)" fill="#fff"/>
        </g>
        <g id="freepik--plants--inject-16--inject-53-3" data-name="freepik--plants--inject-16--inject-53" transform="translate(0 0.696)">
          <path id="Path_1138" data-name="Path 1138" d="M65.692,204.591l3.734-2.428s2.236-10.391,1.358-19.762c-1.251-13.149-8.975-18.093-11.911-16.963s-3.785,4.96,1.073,12.793C62.793,182.866,66.336,192.494,65.692,204.591Z" transform="translate(-48.863 -165.282)" fill="#ba68c8"/>
          <g id="Group_382" data-name="Group 382" transform="translate(7.623)" opacity="0.15">
            <path id="Path_1139" data-name="Path 1139" d="M65.692,204.591l3.734-2.428s2.236-10.391,1.358-19.762c-1.251-13.149-8.975-18.093-11.911-16.963s-3.785,4.96,1.073,12.793C62.793,182.866,66.336,192.494,65.692,204.591Z" transform="translate(-56.486 -165.282)"/>
          </g>
          <path id="Path_1140" data-name="Path 1140" d="M71.862,201.268h-.037a.254.254,0,0,1-.172-.118.316.316,0,0,1-.042-.222C73.664,188.8,69.883,175.175,65.2,169.5a.319.319,0,0,1,.024-.4.241.241,0,0,1,.359,0c4.765,5.755,8.62,19.626,6.534,31.917a.263.263,0,0,1-.257.246Z" transform="translate(-53.479 -167.066)" fill="#fff"/>
          <path id="Path_1141" data-name="Path 1141" d="M47.161,220.633c-.593.34-2.17-1.172-2.609-1.538a6.109,6.109,0,0,1-1.722-2.454,6.48,6.48,0,0,1-.3-3.49A14.977,14.977,0,0,1,43,211.33c.182-.591.359-1.177.541-1.763a5.036,5.036,0,0,0,.313-1.795,4.709,4.709,0,0,0-1.867-2.93,4.639,4.639,0,0,1-1.83-3.485,5.438,5.438,0,0,1,1.325-2.993c.667-.858,1.447-1.606,2.058-2.511a3.94,3.94,0,0,0,.742-2.276,4.141,4.141,0,0,0-.383-1.455,21.747,21.747,0,0,1-1.265-2.946,3.14,3.14,0,0,1,.579-3.024,2.843,2.843,0,0,1,2.292-.523,4.919,4.919,0,0,1,2.063.947c2.03,1.418,3.094,4.259,5.26,5.384a20.642,20.642,0,0,0,2.656.905,3.37,3.37,0,0,1,2.133,1.821c.733,1.863-.877,4.024-.392,5.986.429,1.737,1.867,2.475,2.642,4.06a4.06,4.06,0,0,1,.289,2.26,11.754,11.754,0,0,1-1.013,3.736,34,34,0,0,1-2,3.448Z" transform="translate(-40.152 -174.967)" fill="#ba68c8"/>
          <path id="Path_1142" data-name="Path 1142" d="M59.443,219.464h0a.29.29,0,0,1-.243-.319c.933-11.537-3.332-24.592-6.7-28.479a.319.319,0,0,1,0-.413.242.242,0,0,1,.369,0C56.3,194.265,60.68,207.5,59.7,219.2A.271.271,0,0,1,59.443,219.464Z" transform="translate(-46.698 -177.146)" fill="#fff"/>
          <path id="Path_1143" data-name="Path 1143" d="M56.432,216.852a.186.186,0,0,1-.075,0,31.538,31.538,0,0,0-7.421-1.774.254.254,0,0,1-.178-.1.317.317,0,0,1-.06-.215.29.29,0,0,1,.09-.2.229.229,0,0,1,.194-.06,31.991,31.991,0,0,1,7.552,1.805.3.3,0,0,1,.159.331.27.27,0,0,1-.262.234Z" transform="translate(-44.709 -188.745)" fill="#fff"/>
        </g>
      </g>
      <g id="freepik--Dumbbell--inject-16--inject-53" transform="translate(149.421 132.563)">
        <g id="freepik--dumbbell--inject-16--inject-53-2" data-name="freepik--dumbbell--inject-16--inject-53">
          <path id="Path_1144" data-name="Path 1144" d="M347.9,326.732h0c-.877-3.207-4.448-5.86-7.79-4.814h0a6.021,6.021,0,0,0-1.5.717c-3.244,2.093-5.867,7.194-5.867,11.391a7.571,7.571,0,0,0,.261,2.093h0c.873,3.207,4.448,5.844,7.79,4.793h0a6.021,6.021,0,0,0,1.5-.717c3.239-2.093,5.867-7.2,5.867-11.4a7.633,7.633,0,0,0-.261-2.067Z" transform="translate(-332.738 -321.687)" fill="#455a64"/>
          <path id="Path_1145" data-name="Path 1145" d="M346.5,342.384c3.239-2.093,5.867-7.2,5.867-11.4s-2.628-5.9-5.867-3.8-5.867,7.194-5.867,11.391S343.258,344.482,346.5,342.384Z" transform="translate(-336.947 -323.881)" fill="#37474f"/>
          <path id="Path_1146" data-name="Path 1146" d="M350.624,336.586c1.246-.806,2.254-.152,2.254,1.465a5.752,5.752,0,0,1-2.254,4.379c-1.246.806-2.254.152-2.254-1.46A5.764,5.764,0,0,1,350.624,336.586Z" transform="translate(-341.074 -328.626)" fill="#455a64"/>
          <path id="Path_1147" data-name="Path 1147" d="M353.084,340.987a1.972,1.972,0,0,1-.77,1.5.506.506,0,0,1-.518.078l-.056-.037a.671.671,0,0,1-.2-.523,1.987,1.987,0,0,1,.775-1.5.5.5,0,0,1,.518-.073l.056.031A.666.666,0,0,1,353.084,340.987Z" transform="translate(-342.763 -330.604)" fill="#37474f"/>
          <path id="Path_1148" data-name="Path 1148" d="M365.48,349.008a1.978,1.978,0,0,1-.77,1.5.6.6,0,0,1-.336.115.474.474,0,0,1-.257-.084L351.8,342.567l-.056-.037a.671.671,0,0,1-.2-.523,1.987,1.987,0,0,1,.775-1.5.5.5,0,0,1,.518-.073l.056.031,12.322,7.974A.628.628,0,0,1,365.48,349.008Z" transform="translate(-342.763 -330.604)" fill="#fafafa"/>
          <path id="Path_1149" data-name="Path 1149" d="M389.993,351.035h0c-.873-3.207-4.448-5.86-7.79-4.808h0a6.121,6.121,0,0,0-1.508.717c-3.239,2.093-5.867,7.2-5.867,11.4a7.758,7.758,0,0,0,.261,2.093h0c.877,3.207,4.448,5.844,7.79,4.8h0a5.916,5.916,0,0,0,1.5-.717c3.239-2.093,5.867-7.2,5.867-11.391A7.643,7.643,0,0,0,389.993,351.035Z" transform="translate(-355.184 -333.275)" fill="#455a64"/>
          <path id="Path_1150" data-name="Path 1150" d="M388.607,366.689c3.239-2.093,5.867-7.2,5.867-11.391s-2.628-5.9-5.867-3.8-5.871,7.2-5.867,11.4S385.363,368.788,388.607,366.689Z" transform="translate(-359.403 -335.472)" fill="#37474f"/>
          <path id="Path_1151" data-name="Path 1151" d="M392.729,360.895c1.246-.806,2.254-.157,2.254,1.46a5.752,5.752,0,0,1-2.254,4.379c-1.246.806-2.259.152-2.259-1.46A5.756,5.756,0,0,1,392.729,360.895Z" transform="translate(-363.525 -340.215)" fill="#455a64"/>
          <path id="Path_1152" data-name="Path 1152" d="M395.234,365.284a1.978,1.978,0,0,1-.77,1.5.506.506,0,0,1-.518.079.161.161,0,0,1-.056-.037.67.67,0,0,1-.2-.523,1.982,1.982,0,0,1,.775-1.507.506.506,0,0,1,.513-.073l.056.037a.653.653,0,0,1,.2.523Z" transform="translate(-365.241 -342.187)" fill="#37474f"/>
          <path id="Path_1153" data-name="Path 1153" d="M397.1,366.5a1.961,1.961,0,0,1-.77,1.5.6.6,0,0,1-.336.115.431.431,0,0,1-.257-.084l-1.792-1.162a.16.16,0,0,1-.056-.037.67.67,0,0,1-.2-.523,1.982,1.982,0,0,1,.775-1.507.506.506,0,0,1,.513-.073l.056.037,1.8,1.156a.635.635,0,0,1,.271.581Z" transform="translate(-365.241 -342.187)" fill="#fafafa"/>
          <path id="Path_1154" data-name="Path 1154" d="M399.233,367.584a1.978,1.978,0,0,1-.77,1.507.514.514,0,0,1-.518.073l-.056-.037a.659.659,0,0,1-.2-.523,1.982,1.982,0,0,1,.775-1.5.506.506,0,0,1,.518-.078l.056.037A.666.666,0,0,1,399.233,367.584Z" transform="translate(-367.374 -343.284)" fill="#e0e0e0"/>
        </g>
      </g>
      <g id="freepik--Bottle--inject-16--inject-53" transform="translate(171.801 87.332)">
        <g id="freepik--Water--inject-16--inject-53">
          <path id="Path_1155" data-name="Path 1155" d="M395.126,262.3a19.947,19.947,0,0,0-1.176-3.411c-.051-.126-.107-.251-.163-.372a7.777,7.777,0,0,1,.084-6.593l.107-.209a8.172,8.172,0,0,0,.91-3.882,4.68,4.68,0,0,0-1.974-3.663,7.008,7.008,0,0,0-.933-.523,1.766,1.766,0,0,1-.994-1.627V240.01H385.25v2.009a1.752,1.752,0,0,1-1,1.617,6.126,6.126,0,0,0-.933.492,4.677,4.677,0,0,0-2,3.663,8.2,8.2,0,0,0,.882,3.888l.1.194a7.759,7.759,0,0,1,.047,6.608c-.056.126-.112.246-.163.371a19.38,19.38,0,0,0-1.2,3.4,17.9,17.9,0,0,0-.28,3.464l0,9.345a4.108,4.108,0,0,0,2.128,3.359,9.255,9.255,0,0,0,4.149,1.36,11.419,11.419,0,0,0,2.072,0,9.25,9.25,0,0,0,4.126-1.319,4.089,4.089,0,0,0,2.156-3.338v-6.771c0-.842.033-1.721.037-2.616A17.817,17.817,0,0,0,395.126,262.3Z" transform="translate(-380.69 -237.514)" fill="#ba68c8"/>
          <path id="Path_1156" data-name="Path 1156" d="M395.126,262.3a19.947,19.947,0,0,0-1.176-3.411c-.051-.126-.107-.251-.163-.372a7.777,7.777,0,0,1,.084-6.593l.107-.209a8.172,8.172,0,0,0,.91-3.882,4.68,4.68,0,0,0-1.974-3.663,7.008,7.008,0,0,0-.933-.523,1.766,1.766,0,0,1-.994-1.627V240.01H385.25v2.009a1.752,1.752,0,0,1-1,1.617,6.126,6.126,0,0,0-.933.492,4.677,4.677,0,0,0-2,3.663,8.2,8.2,0,0,0,.882,3.888l.1.194a7.759,7.759,0,0,1,.047,6.608c-.056.126-.112.246-.163.371a19.38,19.38,0,0,0-1.2,3.4,17.9,17.9,0,0,0-.28,3.464l0,9.345a4.108,4.108,0,0,0,2.128,3.359,9.255,9.255,0,0,0,4.149,1.36,11.419,11.419,0,0,0,2.072,0,9.25,9.25,0,0,0,4.126-1.319,4.089,4.089,0,0,0,2.156-3.338v-6.771c0-.842.033-1.721.037-2.616A17.817,17.817,0,0,0,395.126,262.3Z" transform="translate(-380.69 -237.514)" opacity="0.3"/>
          <path id="Path_1157" data-name="Path 1157" d="M403.974,259.6l.107-.209a8.134,8.134,0,0,0,.891-3.286,6.242,6.242,0,0,1-.546,1.329,12.2,12.2,0,0,1-2.581,3.024c-.985.9-2.077,1.92-2.2,3.338a4.187,4.187,0,0,0,1.722,3.443,29.982,29.982,0,0,1,3.01,2.37,8.369,8.369,0,0,1,1,1.4q-.049-.527-.149-1.046a19.8,19.8,0,0,0-1.176-3.411c-.051-.126-.107-.251-.163-.371A7.777,7.777,0,0,1,403.974,259.6Z" transform="translate(-390.793 -245.185)" opacity="0.1"/>
          <path id="Path_1158" data-name="Path 1158" d="M388.43,241.966v1.083a2.2,2.2,0,0,0,1.139,1.795,5.488,5.488,0,0,0,5.507,0,2.639,2.639,0,0,0,.859-.832,1.77,1.77,0,0,0,.289-.942v-1.1a1.248,1.248,0,0,0-.028-.293,2.307,2.307,0,0,0-1.1-1.5l-.056-.037a5.54,5.54,0,0,0-5.456,0,2.284,2.284,0,0,0-1.115,1.486A1.339,1.339,0,0,0,388.43,241.966Z" transform="translate(-384.817 -237.236)" fill="#ba68c8"/>
          <path id="Path_1159" data-name="Path 1159" d="M388.43,241.966v1.083a2.2,2.2,0,0,0,1.139,1.795,5.488,5.488,0,0,0,5.507,0,2.639,2.639,0,0,0,.859-.832,1.77,1.77,0,0,0,.289-.942v-1.1a1.248,1.248,0,0,0-.028-.293,2.307,2.307,0,0,0-1.1-1.5l-.056-.037a5.54,5.54,0,0,0-5.456,0,2.284,2.284,0,0,0-1.115,1.486A1.339,1.339,0,0,0,388.43,241.966Z" transform="translate(-384.817 -237.236)" opacity="0.1"/>
          <path id="Path_1160" data-name="Path 1160" d="M395.068,243.8a1.963,1.963,0,0,0,0-3.568,5.488,5.488,0,0,0-5.507,0,1.958,1.958,0,0,0,0,3.563A5.488,5.488,0,0,0,395.068,243.8Z" transform="translate(-384.809 -237.268)" opacity="0.2"/>
          <path id="Path_1161" data-name="Path 1161" d="M388.44,239.578v.654a1.375,1.375,0,0,0,.033.3,2.289,2.289,0,0,0,1.106,1.491,4.967,4.967,0,0,0,2.432.738,5.259,5.259,0,0,0,3.08-.717,2.769,2.769,0,0,0,.854-.827,1.724,1.724,0,0,0,.257-.649,1.267,1.267,0,0,0,.033-.3v-.67a2.19,2.19,0,0,0-1.129-1.789l-.21-.126a5.544,5.544,0,0,0-5.3.1A2.188,2.188,0,0,0,388.44,239.578Z" transform="translate(-384.823 -236.109)" fill="#ba68c8"/>
          <path id="Path_1162" data-name="Path 1162" d="M388.44,239.578v.654a1.375,1.375,0,0,0,.033.3,2.289,2.289,0,0,0,1.106,1.491,4.967,4.967,0,0,0,2.432.738,5.259,5.259,0,0,0,3.08-.717,2.769,2.769,0,0,0,.854-.827,1.724,1.724,0,0,0,.257-.649,1.267,1.267,0,0,0,.033-.3v-.67a2.19,2.19,0,0,0-1.129-1.789l-.21-.126a5.544,5.544,0,0,0-5.3.1A2.188,2.188,0,0,0,388.44,239.578Z" transform="translate(-384.823 -236.109)" opacity="0.1"/>
          <path id="Path_1163" data-name="Path 1163" d="M388.44,239.556c0,1.387,1.736,2.517,3.888,2.527s3.9-1.1,3.9-2.491-1.736-2.522-3.888-2.532S388.445,238.169,388.44,239.556Z" transform="translate(-384.823 -236.108)" fill="#ba68c8"/>
          <path id="Path_1164" data-name="Path 1164" d="M393.906,236.118v2.26a.4.4,0,0,0,0,.1.8.8,0,0,0,.383.523,1.684,1.684,0,0,0,.845.256,1.827,1.827,0,0,0,1.064-.251,1,1,0,0,0,.3-.283.646.646,0,0,0,.089-.225.8.8,0,0,0,0-.1v-2.271a.754.754,0,0,0-.392-.617l-.075-.042a1.9,1.9,0,0,0-1.834.031.769.769,0,0,0-.378.617Z" transform="translate(-387.736 -235.244)" fill="#ba68c8"/>
          <path id="Path_1165" data-name="Path 1165" d="M393.906,236.118v2.26a.4.4,0,0,0,0,.1.8.8,0,0,0,.383.523,1.684,1.684,0,0,0,.845.256,1.827,1.827,0,0,0,1.064-.251,1,1,0,0,0,.3-.283.646.646,0,0,0,.089-.225.8.8,0,0,0,0-.1v-2.271a.754.754,0,0,0-.392-.617l-.075-.042a1.9,1.9,0,0,0-1.834.031.769.769,0,0,0-.378.617Z" transform="translate(-387.736 -235.244)" opacity="0.1"/>
          <path id="Path_1166" data-name="Path 1166" d="M393.91,236.1c0,.481.6.874,1.349.879s1.349-.387,1.353-.863-.6-.874-1.349-.879S393.915,235.638,393.91,236.1Z" transform="translate(-387.74 -235.24)" fill="#ba68c8"/>
          <path id="Path_1167" data-name="Path 1167" d="M395.78,236.619c0,.173.215.309.467.309s.467-.136.467-.3-.215-.309-.467-.314S395.78,236.446,395.78,236.619Z" transform="translate(-388.737 -235.75)" fill="#ba68c8" opacity="0.5"/>
          <path id="Path_1168" data-name="Path 1168" d="M395.78,236.619c0,.173.215.309.467.309s.467-.136.467-.3-.215-.309-.467-.314S395.78,236.446,395.78,236.619Z" transform="translate(-388.737 -235.75)" opacity="0.3"/>
        </g>
      </g>
      <g id="freepik--speech-bubble--inject-16--inject-53" transform="translate(113.79 0)">
        <g id="freepik--speach-bubble--inject-16--inject-53">
          <path id="Path_1169" data-name="Path 1169" d="M300.5,68.474,266.643,90.392a1.336,1.336,0,0,0-.523,1.015v15.78a1.312,1.312,0,0,0,.527,1.01l1.867,1.177a1.063,1.063,0,0,0,1.045,0L303.4,87.446a1.319,1.319,0,0,0,.523-1.01V70.651a1.319,1.319,0,0,0-.523-1.01l-1.867-1.172a1.059,1.059,0,0,0-1.036.005Z" transform="translate(-261.581 -68.333)" fill="#ba68c8"/>
          <path id="Path_1170" data-name="Path 1170" d="M272.38,110.76V95.005a1.334,1.334,0,0,1,.523-1.046L306.74,72.046c.289-.188.523-.037.523.335V88.167a1.319,1.319,0,0,1-.523,1.01L272.884,111.1C272.613,111.283,272.38,111.136,272.38,110.76Z" transform="translate(-264.919 -70.063)" fill="#ba68c8"/>
          <path id="Path_1171" data-name="Path 1171" d="M269.57,129.849a1.075,1.075,0,0,1-1.045,0l-1.867-1.177a1.311,1.311,0,0,1-.527-1V111.886a1.3,1.3,0,0,1,.168-.6l2.908,1.863a1.289,1.289,0,0,0-.154.576v15.781C269.047,129.849,269.262,130.048,269.57,129.849Z" transform="translate(-261.586 -88.812)" opacity="0.2"/>
          <path id="Path_1172" data-name="Path 1172" d="M304.125,70.543c-.042-.3-.257-.4-.518-.235L269.751,92.226a1.114,1.114,0,0,0-.369.439L266.47,90.8a1.144,1.144,0,0,1,.359-.419L300.69,68.471a1.039,1.039,0,0,1,1.045,0l1.867,1.172a1.323,1.323,0,0,1,.523.9Z" transform="translate(-261.767 -68.33)" fill="#fff" opacity="0.4"/>
          <path id="Path_1173" data-name="Path 1173" d="M259.505,129.821c-.331-.22-2.8-1.769-2.866-1.821a.526.526,0,0,1-.241-.389.562.562,0,0,1,.138-.448l4.443-4.123,2.875,1.831L259.417,129a.594.594,0,0,0-.122.433A.563.563,0,0,0,259.505,129.821Z" transform="translate(-256.394 -94.414)" fill="#ba68c8"/>
          <path id="Path_1174" data-name="Path 1174" d="M259.505,129.821c-.331-.22-2.8-1.769-2.866-1.821a.526.526,0,0,1-.241-.389.562.562,0,0,1,.138-.448l4.443-4.123,2.875,1.831L259.417,129a.594.594,0,0,0-.122.433A.563.563,0,0,0,259.505,129.821Z" transform="translate(-256.394 -94.414)" opacity="0.1"/>
          <path id="Path_1175" data-name="Path 1175" d="M267.144,126.5l-4.443,4.123a.569.569,0,0,0-.109.556.476.476,0,0,0,.408.339l4.145-.523Z" transform="translate(-259.684 -96.064)" fill="#ba68c8"/>
          <path id="Path_1176" data-name="Path 1176" d="M278.04,119.807a.465.465,0,0,1-.033-.225.829.829,0,0,1,.07-.262l1.3-2.836.117-.246a.505.505,0,0,1,.163-.2l.737-.476a.074.074,0,0,1,.117,0,.331.331,0,0,1,.047.2v7.8a.735.735,0,0,1-.047.262.316.316,0,0,1-.117.167l-.793.523a.078.078,0,0,1-.117,0,.332.332,0,0,1-.047-.2v-5.285l-.723,1.57a.231.231,0,0,1-.121.141.1.1,0,0,1-.107-.052Z" transform="translate(-267.919 -90.836)" fill="#fafafa"/>
          <path id="Path_1177" data-name="Path 1177" d="M286.769,126.625a.735.735,0,0,1-.047.262.316.316,0,0,1-.117.167l-.793.523a.077.077,0,0,1-.063.014.084.084,0,0,1-.053-.04.32.32,0,0,1-.047-.194v-1.57a.735.735,0,0,1,.047-.262.316.316,0,0,1,.117-.167l.793-.523a.078.078,0,0,1,.117,0,.331.331,0,0,1,.047.2Z" transform="translate(-271.995 -95.258)" fill="#fafafa"/>
          <path id="Path_1178" data-name="Path 1178" d="M291.144,124.115a.721.721,0,0,1-.051.262.388.388,0,0,1-.112.173l-.8.523a.073.073,0,0,1-.112,0,.325.325,0,0,1-.051-.2V123.3a.72.72,0,0,1,.051-.262.335.335,0,0,1,.112-.173l.8-.523a.073.073,0,0,1,.112,0,.325.325,0,0,1,.051.2Z" transform="translate(-274.325 -94.071)" fill="#fafafa"/>
          <path id="Path_1179" data-name="Path 1179" d="M295.519,121.591a.735.735,0,0,1-.047.262.316.316,0,0,1-.117.167l-.793.523a.078.078,0,0,1-.117,0,.331.331,0,0,1-.047-.2v-1.57a.717.717,0,0,1,.047-.262.359.359,0,0,1,.117-.173l.793-.523a.082.082,0,0,1,.117,0,.338.338,0,0,1,.047.2Z" transform="translate(-276.661 -92.866)" fill="#fafafa"/>
          <path id="Path_1180" data-name="Path 1180" d="M302.08,105.806a6.95,6.95,0,0,1-.037.7,5.8,5.8,0,0,1-.121.717,7.1,7.1,0,0,1-.233.759c-.093.262-.21.523-.345.832l-.849,1.826,1.522-.984a.073.073,0,0,1,.112,0,.336.336,0,0,1,.051.2v1.282a.744.744,0,0,1-.051.262.339.339,0,0,1-.112.167l-3.2,2.093a.078.078,0,0,1-.117,0,.366.366,0,0,1-.047-.2v-1.046a2.179,2.179,0,0,1,.042-.408,1.365,1.365,0,0,1,.135-.413l1.811-3.762a3.334,3.334,0,0,0,.266-.743,2.917,2.917,0,0,0,.056-.523q.005-.112,0-.225a1.071,1.071,0,0,0-.07-.256.3.3,0,0,0-.154-.157.291.291,0,0,0-.271.063.826.826,0,0,0-.275.293,1.937,1.937,0,0,0-.163.366,2.172,2.172,0,0,0-.089.351,1.188,1.188,0,0,1-.037.251.705.705,0,0,1-.093.283.54.54,0,0,1-.149.152l-.747.481a.064.064,0,0,1-.093,0,.3.3,0,0,1-.037-.162,6.489,6.489,0,0,1,.107-1.083,6.192,6.192,0,0,1,.313-1.109,4.711,4.711,0,0,1,.523-1,2.6,2.6,0,0,1,.733-.727,1.106,1.106,0,0,1,.709-.225.757.757,0,0,1,.509.3,1.754,1.754,0,0,1,.313.7,4.406,4.406,0,0,1,.093.958Z" transform="translate(-278.928 -85.264)" fill="#fafafa"/>
          <path id="Path_1181" data-name="Path 1181" d="M309.189,113.694a.717.717,0,0,1-.047.262.334.334,0,0,1-.117.173l-.793.523a.078.078,0,0,1-.117,0,.331.331,0,0,1-.047-.2v-1.57a.718.718,0,0,1,.047-.262.391.391,0,0,1,.117-.173l.793-.523a.078.078,0,0,1,.117,0,.332.332,0,0,1,.047.2Z" transform="translate(-283.95 -89.103)" fill="#fafafa"/>
          <path id="Path_1182" data-name="Path 1182" d="M313.569,111.146a.745.745,0,0,1-.051.262.339.339,0,0,1-.112.167l-.793.523a.077.077,0,0,1-.063.014.084.084,0,0,1-.053-.04.332.332,0,0,1-.047-.2V110.3a.734.734,0,0,1,.047-.262.36.36,0,0,1,.117-.173l.793-.523a.073.073,0,0,1,.112,0,.336.336,0,0,1,.051.2Z" transform="translate(-286.286 -87.873)" fill="#fafafa"/>
          <path id="Path_1183" data-name="Path 1183" d="M317.94,108.649a.718.718,0,0,1-.047.262.359.359,0,0,1-.117.173l-.793.523a.073.073,0,0,1-.112,0,.337.337,0,0,1-.051-.2v-1.57a.7.7,0,0,1,.051-.256.309.309,0,0,1,.112-.173l.793-.523a.078.078,0,0,1,.117,0,.332.332,0,0,1,.047.2Z" transform="translate(-288.617 -86.7)" fill="#fafafa"/>
          <path id="Path_1184" data-name="Path 1184" d="M324.239,89.7a.073.073,0,0,1,.112,0,.331.331,0,0,1,.047.2v1.282a.912.912,0,0,1-.042.267c-.028.089-.051.167-.075.23l-.737,1.952a.775.775,0,0,1,.77.314,2.2,2.2,0,0,1,.3,1.324,5.5,5.5,0,0,1-.467,2.36,3.682,3.682,0,0,1-1.321,1.57,1.572,1.572,0,0,1-.775.293.8.8,0,0,1-.565-.173,1.2,1.2,0,0,1-.355-.523A2.452,2.452,0,0,1,321,98a.665.665,0,0,1,.037-.215.355.355,0,0,1,.093-.141l.765-.492q.126-.086.2,0l.145.152a.445.445,0,0,0,.215.11.549.549,0,0,0,.373-.126,1.537,1.537,0,0,0,.467-.523,1.4,1.4,0,0,0,.191-.738c0-.283-.065-.445-.191-.492a.552.552,0,0,0-.467.115l-.5.33a.078.078,0,0,1-.117,0,.331.331,0,0,1-.047-.2V94.735a.882.882,0,0,1,.042-.267q.042-.141.084-.251l.639-1.758-1.582,1.046a.078.078,0,0,1-.117,0,.332.332,0,0,1-.047-.2V92a.716.716,0,0,1,.047-.262.334.334,0,0,1,.117-.173Z" transform="translate(-290.847 -78.505)" fill="#fafafa"/>
          <path id="Path_1185" data-name="Path 1185" d="M331.719,100.674a.718.718,0,0,1-.047.262.36.36,0,0,1-.117.173l-.793.523a.073.073,0,0,1-.112,0,.324.324,0,0,1-.051-.2v-1.57a.721.721,0,0,1,.051-.262.336.336,0,0,1,.112-.173l.793-.523a.078.078,0,0,1,.117,0,.332.332,0,0,1,.047.2Z" transform="translate(-295.966 -82.895)" fill="#fafafa"/>
          <path id="Path_1186" data-name="Path 1186" d="M336.119,98.151a.855.855,0,0,1-.047.262.342.342,0,0,1-.117.167l-.793.523a.074.074,0,0,1-.117,0,.332.332,0,0,1-.047-.2v-1.57a.717.717,0,0,1,.047-.262.36.36,0,0,1,.117-.173l.793-.523a.082.082,0,0,1,.117,0,.378.378,0,0,1,.047.2Z" transform="translate(-298.312 -81.691)" fill="#fafafa"/>
          <path id="Path_1187" data-name="Path 1187" d="M340.49,95.63a.717.717,0,0,1-.047.262.388.388,0,0,1-.112.173l-.8.523a.073.073,0,0,1-.112,0,.336.336,0,0,1-.051-.2v-1.57a.744.744,0,0,1,.051-.262.339.339,0,0,1,.112-.167l.8-.523a.073.073,0,0,1,.112,0,.331.331,0,0,1,.047.2Z" transform="translate(-300.643 -80.493)" fill="#fafafa"/>
        </g>
      </g>
      <g id="freepik--Character--inject-16--inject-53" transform="translate(35.161 14.096)">
        <g id="freepik--character--inject-16--inject-53-2" data-name="freepik--character--inject-16--inject-53">
          <g id="Group_383" data-name="Group 383" transform="translate(25.82 93.781)" opacity="0.3">
            <path id="Path_1188" data-name="Path 1188" d="M146.37,276.183a.135.135,0,0,1-.065,0l-2.674-.848a.374.374,0,0,1-.227-.2.453.453,0,0,1-.025-.323.414.414,0,0,1,.18-.254.338.338,0,0,1,.287-.034l2.674.848a.417.417,0,0,1,.272.477.377.377,0,0,1-.407.334Z" transform="translate(-143.307 -274.506)"/>
            <path id="Path_1189" data-name="Path 1189" d="M143.57,280.7a.4.4,0,0,1-.322-.383.419.419,0,0,1,.266-.434l2.688-.759a.33.33,0,0,1,.292.034.407.407,0,0,1,.175.264.458.458,0,0,1-.032.326.376.376,0,0,1-.234.2l-2.693.764A.476.476,0,0,1,143.57,280.7Z" transform="translate(-143.247 -276.698)"/>
            <path id="Path_1190" data-name="Path 1190" d="M146.451,284.737a.377.377,0,0,1-.233-.126.456.456,0,0,1,0-.586l1.993-2.166a.337.337,0,0,1,.518,0,.449.449,0,0,1,0,.586l-1.993,2.171a.356.356,0,0,1-.285.12Z" transform="translate(-144.774 -277.954)"/>
            <path id="Path_1191" data-name="Path 1191" d="M151.614,287.142h-.065a.384.384,0,0,1-.226-.2.464.464,0,0,1-.03-.322l.756-2.993a.365.365,0,0,1,.455-.285.422.422,0,0,1,.254.51L152,286.844A.368.368,0,0,1,151.614,287.142Z" transform="translate(-147.529 -278.711)"/>
          </g>
          <path id="Path_1192" data-name="Path 1192" d="M260.63,184.7l-6.67,4.317-14.651,2.375s-10.707-18.009-12.345-20.84-3.552-4.646-7.995-4.641l.84,14.368c.14.46,8.994,12.693,14.833,19.359,2.063,2.349,3.332,2.946,6.557,1.946,8.228-2.559,18.2-10.14,19.005-12.034A9.044,9.044,0,0,0,260.63,184.7Z" transform="translate(-157.808 -128.949)" fill="#ffa8a7"/>
          <g id="freepik--dumbbell--inject-16--inject-53-3" data-name="freepik--dumbbell--inject-16--inject-53" transform="translate(80.166 41.6)">
            <path id="Path_1193" data-name="Path 1193" d="M302.041,179.817h0c.877-3.2,4.448-5.855,7.79-4.808h0a6.151,6.151,0,0,1,1.508.722c3.239,2.093,5.867,7.194,5.867,11.391a7.568,7.568,0,0,1-.266,2.093h0c-.877,3.207-4.448,5.844-7.79,4.793h0a5.871,5.871,0,0,1-1.5-.722c-3.239-2.093-5.867-7.194-5.867-11.391A7.678,7.678,0,0,1,302.041,179.817Z" transform="translate(-282.134 -174.777)" fill="#455a64"/>
            <path id="Path_1194" data-name="Path 1194" d="M307.657,195.47c-3.239-2.093-5.867-7.194-5.867-11.391s2.628-5.9,5.867-3.8,5.867,7.194,5.867,11.391S310.9,197.568,307.657,195.47Z" transform="translate(-282.14 -176.973)" fill="#37474f"/>
            <path id="Path_1195" data-name="Path 1195" d="M311.784,189.686c-1.246-.806-2.254-.152-2.254,1.46a5.764,5.764,0,0,0,2.254,4.385c1.246.806,2.259.152,2.259-1.46a5.757,5.757,0,0,0-2.259-4.385Z" transform="translate(-286.268 -181.721)" fill="#455a64"/>
            <path id="Path_1196" data-name="Path 1196" d="M312.709,194.074a1.972,1.972,0,0,0,.77,1.5.519.519,0,0,0,.518.079l.056-.037a.682.682,0,0,0,.2-.523,1.987,1.987,0,0,0-.775-1.5.506.506,0,0,0-.518-.078l-.056.037A.677.677,0,0,0,312.709,194.074Z" transform="translate(-287.962 -183.692)" fill="#37474f"/>
            <path id="Path_1197" data-name="Path 1197" d="M286.148,202.145a1.983,1.983,0,0,0,.77,1.5.639.639,0,0,0,.336.115.461.461,0,0,0,.257-.084l12.322-7.974.056-.037a.682.682,0,0,0,.2-.523,1.987,1.987,0,0,0-.775-1.5.506.506,0,0,0-.518-.079l-.056.037-12.317,7.974A.622.622,0,0,0,286.148,202.145Z" transform="translate(-273.798 -183.716)" fill="#fafafa"/>
            <path id="Path_1198" data-name="Path 1198" d="M259.946,204.117h0c.873-3.2,4.448-5.855,7.79-4.808h0a6.021,6.021,0,0,1,1.5.717c3.239,2.093,5.867,7.194,5.867,11.391a7.757,7.757,0,0,1-.261,2.093h0c-.873,3.207-4.448,5.844-7.79,4.793h0a6.071,6.071,0,0,1-1.5-.717c-3.244-2.093-5.867-7.2-5.867-11.4A7.706,7.706,0,0,1,259.946,204.117Z" transform="translate(-259.689 -186.362)" fill="#455a64"/>
            <path id="Path_1199" data-name="Path 1199" d="M265.557,219.778c-3.244-2.093-5.867-7.2-5.867-11.4s2.623-5.892,5.867-3.8,5.867,7.194,5.867,11.391S268.8,221.87,265.557,219.778Z" transform="translate(-259.689 -188.56)" fill="#37474f"/>
            <path id="Path_1200" data-name="Path 1200" d="M269.679,213.976c-1.246-.806-2.259-.152-2.259,1.465a5.756,5.756,0,0,0,2.259,4.379c1.246.806,2.254.152,2.254-1.46a5.764,5.764,0,0,0-2.254-4.385Z" transform="translate(-263.812 -193.301)" fill="#455a64"/>
            <path id="Path_1201" data-name="Path 1201" d="M270.6,218.374a1.983,1.983,0,0,0,.77,1.5.514.514,0,0,0,.523.078l.056-.037a.689.689,0,0,0,.2-.523,1.976,1.976,0,0,0-.775-1.5.5.5,0,0,0-.513-.078l-.056.037a.665.665,0,0,0-.2.523Z" transform="translate(-265.506 -195.277)" fill="#37474f"/>
            <path id="Path_1202" data-name="Path 1202" d="M266.6,219.583a1.978,1.978,0,0,0,.77,1.5.6.6,0,0,0,.336.115.473.473,0,0,0,.257-.084l1.8-1.162.056-.037a.689.689,0,0,0,.2-.523,1.976,1.976,0,0,0-.775-1.5.5.5,0,0,0-.513-.078l-.056.037-1.8,1.162a.628.628,0,0,0-.271.57Z" transform="translate(-263.373 -195.277)" fill="#fafafa"/>
            <path id="Path_1203" data-name="Path 1203" d="M266.6,220.677a1.978,1.978,0,0,0,.77,1.5.506.506,0,0,0,.518.078l.056-.037a.671.671,0,0,0,.2-.523,1.982,1.982,0,0,0-.775-1.5.493.493,0,0,0-.513-.073l-.061.037A.666.666,0,0,0,266.6,220.677Z" transform="translate(-263.373 -196.377)" fill="#e0e0e0"/>
          </g>
          <path id="Path_1204" data-name="Path 1204" d="M292.275,206.7c2.828-2.428,5.545-2.407,5.055-8.335-.415-2.616-.989-2.8-3.267-3.793-1-.434-2.334-.764-3.132.262a2.948,2.948,0,0,1-.294.356,1.463,1.463,0,0,1-.784.283,2.158,2.158,0,0,0-1.428.68c-.266.335-.369.806-.63,1.146a6.54,6.54,0,0,1-.8.727,2.291,2.291,0,0,0-.672,1.6,2.49,2.49,0,0,0,.863,1.774l1.4-.921c.588-.455,1.792,1.151,1.274,2C289.055,203.831,292.275,206.7,292.275,206.7Z" transform="translate(-193.724 -142.415)" fill="#ffa8a7"/>
          <path id="Path_1205" data-name="Path 1205" d="M199.424,227.807c.905-4.107,1.167-14.357,1.167-14.357l-26.5.895,1.442,6.472a29.32,29.32,0,0,1,.383,4.432s2.572,5.342,10.193,6.279a18.946,18.946,0,0,0,13.316-3.72Z" transform="translate(-133.875 -151.615)" fill="#ffa8a7"/>
          <path id="Path_1206" data-name="Path 1206" d="M198.607,190.775c.033.33-.149,3.432-.149,3.432-3.393,3.2-14.263,4.814-25.67.56L170.37,184.3s8.205-4.039,2.665-17.591l5.955-.523,10.581-.3h3.5a43.462,43.462,0,0,1,7.155,10.611C201.594,179.41,203.363,183.654,198.607,190.775Z" transform="translate(-131.891 -128.94)" fill="#455a64"/>
          <path id="Path_1207" data-name="Path 1207" d="M191.515,207.1a8.1,8.1,0,0,1-6.31-7.168s-.9,7.168,5.923,8.843a8.807,8.807,0,0,0,10.156-4.631S197.279,208.746,191.515,207.1Z" transform="translate(-139.781 -145.169)" fill="#37474f"/>
          <path id="Path_1208" data-name="Path 1208" d="M99.017,339.205c-1.4,1.146-4.625,1.423-7.468-.073s-4.032-5.755-3.5-9.047c.644-4.013,2.413-6.211,2.866-8.623s0-5.756.677-7.911a5.866,5.866,0,0,1,3.267-3.6,3.015,3.015,0,0,1,2.922.288l.845.555Z" transform="translate(-87.925 -197.505)" fill="#263238"/>
          <path id="Path_1209" data-name="Path 1209" d="M104.047,324.707l-2.212,7.435s1.4,5.311.611,6.718c-1.167,2.093-3.211,2.464-6.66,1.282-3.948-1.345-4.877-5.347-4.667-8.455.275-4.432,3.93-7.765,3.51-12.034a10.849,10.849,0,0,1,1.073-6.232,3.832,3.832,0,0,1,4.971-1.732,16.347,16.347,0,0,1,4.546,2.846,5.214,5.214,0,0,1,1.092,1.046,4.023,4.023,0,0,1,.56,1.256,7.414,7.414,0,0,1,.224,2.831,4.465,4.465,0,0,1-1.078,2.093Z" transform="translate(-89.613 -198.311)" fill="#37474f"/>
          <path id="Path_1210" data-name="Path 1210" d="M125.208,325.1c-.14-.063-6.9-4.908-7.626-5.269s-2.516-.884-4.252,3.605c-1.237,3.2.541,4.385.541,4.385l7.934,5.285Z" transform="translate(-101.24 -202.226)" fill="#ffa8a7"/>
          <path id="Path_1211" data-name="Path 1211" d="M107.926,348.506a8.969,8.969,0,0,0-4.611-1.151.693.693,0,0,1-.634-.293.894.894,0,0,1-.136-.754h0a.749.749,0,0,1,.635-.56c1.069-.089,3.664-.126,5.386,1.465A.889.889,0,0,1,107.926,348.506Z" transform="translate(-95.705 -214.675)" fill="#ba68c8"/>
          <path id="Path_1212" data-name="Path 1212" d="M109.768,341.782a8.982,8.982,0,0,0-4.551-1.418.707.707,0,0,1-.623-.337.9.9,0,0,1-.1-.768h0a.73.73,0,0,1,.653-.523c1.073-.031,3.668.084,5.316,1.774A.892.892,0,0,1,109.768,341.782Z" transform="translate(-96.739 -211.346)" fill="#ba68c8"/>
          <path id="Path_1213" data-name="Path 1213" d="M107.926,348.506a8.969,8.969,0,0,0-4.611-1.151.693.693,0,0,1-.634-.293.894.894,0,0,1-.136-.754h0a.749.749,0,0,1,.635-.56c1.069-.089,3.664-.126,5.386,1.465A.889.889,0,0,1,107.926,348.506Z" transform="translate(-95.705 -214.675)" opacity="0.3"/>
          <path id="Path_1214" data-name="Path 1214" d="M109.768,341.782a8.982,8.982,0,0,0-4.551-1.418.707.707,0,0,1-.623-.337.9.9,0,0,1-.1-.768h0a.73.73,0,0,1,.653-.523c1.073-.031,3.668.084,5.316,1.774A.892.892,0,0,1,109.768,341.782Z" transform="translate(-96.739 -211.346)" opacity="0.3"/>
          <path id="Path_1215" data-name="Path 1215" d="M261.927,350.69l8.774-3.9a64.41,64.41,0,0,1-.126-12.557l-9.955-2.13v11.181Z" transform="translate(-180.019 -208.184)" fill="#ffa8a7"/>
          <path id="Path_1216" data-name="Path 1216" d="M284.26,378.652a3.653,3.653,0,0,1-.121,2.417c-.3.706-3.589,2.784-8.028,2.449a17.214,17.214,0,0,1-9.157-3.595c-1.694-1.256-3.454-1.491-5.652-1.633s-5.083-1.371-5.568-2.522a6.049,6.049,0,0,1,.075-3.139Z" transform="translate(-177.308 -227.508)" fill="#263238"/>
          <path id="Path_1217" data-name="Path 1217" d="M266.4,353.509l.35-.084a1.3,1.3,0,0,1,.583-.037,1.138,1.138,0,0,1,.551.419,12.559,12.559,0,0,1,1.134,1.993c.933,1.7,2.88,3.108,5.013,4.4,1.452.874,2.87,1.57,4.369,2.307s3.552,1.24,4.747,2.14c1.746,1.319,1.97,4.625,0,5.928-1.713,1.125-6.217,2.349-10.94.848-2.572-.816-5.428-3.9-8.807-4.186-2.147-.188-6.207-.863-7.594-2.689-.509-.811.173-3.385.733-5.6.611-2.423.84-6.692,1.554-6.478,0,0-.2.6.084.926s1.269.968,1.554,1.245a6.456,6.456,0,0,1,1.19,1.915,1.394,1.394,0,0,0,.611.743c.359.152.63-.1.933-.267a1.681,1.681,0,0,1,1.27-.1,10.386,10.386,0,0,0-.224-1.418.915.915,0,0,1-.033-.46.686.686,0,0,1,.275-.345A6.48,6.48,0,0,1,266.4,353.509Z" transform="translate(-177.356 -217.889)" fill="#37474f"/>
          <path id="Path_1218" data-name="Path 1218" d="M284.3,363.634a2.012,2.012,0,0,0-1.587-1.193c-.98-.2-2.7.607-3.776,1.57a.954.954,0,0,0-.294.778.913.913,0,0,0,.411.708h0a.732.732,0,0,0,.934-.115A5.727,5.727,0,0,1,284.3,363.634Z" transform="translate(-189.631 -222.635)" fill="#ba68c8"/>
          <path id="Path_1219" data-name="Path 1219" d="M290.082,367.393a2.241,2.241,0,0,0-1.867-1.083,6.63,6.63,0,0,0-4.131,1.732.926.926,0,0,0-.282.748.888.888,0,0,0,.389.685h0a.7.7,0,0,0,.882-.115A5.763,5.763,0,0,1,290.082,367.393Z" transform="translate(-192.38 -224.495)" fill="#ba68c8"/>
          <path id="Path_1220" data-name="Path 1220" d="M297.347,370.764a2.461,2.461,0,0,0-1.951-.984,6.409,6.409,0,0,0-3.958,1.753.932.932,0,0,0-.279.748.9.9,0,0,0,.386.686h0a.7.7,0,0,0,.882-.115,5.538,5.538,0,0,1,4.919-2.088Z" transform="translate(-196.304 -226.149)" fill="#ba68c8"/>
          <path id="Path_1221" data-name="Path 1221" d="M284.3,363.634a2.012,2.012,0,0,0-1.587-1.193c-.98-.2-2.7.607-3.776,1.57a.954.954,0,0,0-.294.778.913.913,0,0,0,.411.708h0a.732.732,0,0,0,.934-.115A5.727,5.727,0,0,1,284.3,363.634Z" transform="translate(-189.631 -222.635)" opacity="0.3"/>
          <path id="Path_1222" data-name="Path 1222" d="M290.082,367.393a2.241,2.241,0,0,0-1.867-1.083,6.63,6.63,0,0,0-4.131,1.732.926.926,0,0,0-.282.748.888.888,0,0,0,.389.685h0a.7.7,0,0,0,.882-.115A5.763,5.763,0,0,1,290.082,367.393Z" transform="translate(-192.38 -224.495)" opacity="0.3"/>
          <path id="Path_1223" data-name="Path 1223" d="M297.347,370.764a2.461,2.461,0,0,0-1.951-.984,6.409,6.409,0,0,0-3.958,1.753.932.932,0,0,0-.279.748.9.9,0,0,0,.386.686h0a.7.7,0,0,0,.882-.115,5.538,5.538,0,0,1,4.919-2.088Z" transform="translate(-196.304 -226.149)" opacity="0.3"/>
          <path id="Path_1224" data-name="Path 1224" d="M196.087,248.746c-6.66-1.68-22.613-5.421-22.613-5.421l.257-4.772c-5.773,3.354-17.908,2.407-23.509-2.553l-.887,5.06a51.629,51.629,0,0,0-5.479,9.251c-1.283,2.841-3.421,7.273-1.293,17.6,1.251,6.059,2.922,22.023,2.922,22.023l-16.335-6.744s-1.4.267-2.586,3.694c-.7,2.035-.933,3.987-.224,5,5.974,5.285,15.654,13.928,25.436,18.773,6.534,2.8,10.007-3.354,10.329-5.635,1.223-8.738,2.642-36.814,2.642-36.814l21.815-.806c-.719,4.636,2.222,22.75,2.222,22.75s5.372,2.616,9.825-.063c0,0,2.978-20.845,3.267-27.8C202.187,254.543,202.542,250.368,196.087,248.746Z" transform="translate(-108.182 -162.366)" fill="#ba68c8"/>
          <path id="Path_1225" data-name="Path 1225" d="M253.828,288.758c0-1.251.742-5.625,3.267-7.948,0,0-3.463.7-5.045,8.011Z" transform="translate(-175.449 -183.731)" opacity="0.15"/>
          <path id="Path_1226" data-name="Path 1226" d="M165.989,338.435s.467,6.9,1.638,10.25c0,0-2.945-5.965-3.267-10.925Z" transform="translate(-128.686 -210.883)" opacity="0.15"/>
          <path id="Path_1227" data-name="Path 1227" d="M200.234,243.325l.261-4.767c-5.773,3.349-17.908,2.4-23.509-2.559h0l-.887,5.06h0c.042.052,3.636,4.186,12.98,4.756S200.234,243.325,200.234,243.325Z" transform="translate(-134.947 -162.366)" opacity="0.15"/>
          <path id="Path_1228" data-name="Path 1228" d="M202.617,285.086A20.141,20.141,0,0,0,196.9,271.44s5.022,2.616,6.7,10.9c0,0,3.734-1.952,5.685-7.8,0,0-.6,5.85-3.6,9.172l9.064.942Z" transform="translate(-146.039 -179.263)" opacity="0.15"/>
          <path id="Path_1229" data-name="Path 1229" d="M186.185,95.27h0c-8.055,0-14.585,7.321-14.585,16.351h0c0,9.031,6.529,16.353,14.585,16.356h0c8.057,0,14.587-7.324,14.59-16.356h0C200.772,102.59,194.241,95.27,186.185,95.27Z" transform="translate(-132.547 -95.27)" fill="#263238"/>
          <path id="Path_1230" data-name="Path 1230" d="M156.22,114.3a6.941,6.941,0,0,1,1.578.1.682.682,0,0,1,.467.235.912.912,0,0,1,.121.4,6.605,6.605,0,0,1-.219,2.705c-.21.6-.849.916-1.255,1.355-1.578,1.711-1.7,4.557-1.083,6.917s1.867,4.463,2.674,6.739,1.237,5.033.093,7.325c-.467.884-1.251,1.57-1.153,2.616.112,1.282,1.111,2.511,1.54,3.663a9.968,9.968,0,0,1,.467,4.311,9.78,9.78,0,0,1-1.746,4.95,6.284,6.284,0,0,1-6.338,2.47,3.05,3.05,0,0,1-1.349-.644,6.747,6.747,0,0,1-1.33-2.522c-1.2-2.893-3.734-5-4.509-8.068-.812-3.249.579-6.671,2.287-9.449a15.352,15.352,0,0,0,2.082-4.086c.527-2.046.065-4.228-.056-6.352a19.681,19.681,0,0,1,.611-6.169,9.693,9.693,0,0,1,1.984-4.144A7.72,7.72,0,0,1,156.22,114.3Z" transform="translate(-117.797 -104.339)" fill="#263238"/>
          <path id="Path_1231" data-name="Path 1231" d="M198.817,109.57c1.6,1.073,3.561,5.6,3.332,15.069-.2,8.026-2.525,10-3.692,10.564s-3.412.209-5.6-.209v4.819s3.006,3.945,2.8,6.153-4.369,2.716-7.188.523a25.524,25.524,0,0,1-5.19-6.347l.089-11.082s-1.293,1.4-3.463-.753c-1.8-1.774-2.39-4.751-.98-6.341s4-1.141,4.985,1.141c0,0,3.482.157,8.135-2.679A14.675,14.675,0,0,0,198.817,109.57Z" transform="translate(-136.036 -102.088)" fill="#ffa8a7"/>
          <path id="Path_1232" data-name="Path 1232" d="M210.412,133.535a.908.908,0,1,1-.933-1A.989.989,0,0,1,210.412,133.535Z" transform="translate(-152.283 -113.035)" fill="#263238"/>
          <g id="Group_384" data-name="Group 384" transform="translate(58.293 27.302)" opacity="0.5">
            <path id="Path_1233" data-name="Path 1233" d="M212.873,147.45l2.086.759a1.2,1.2,0,0,1-.523.744.975.975,0,0,1-.84.093A1.332,1.332,0,0,1,212.873,147.45Z" transform="translate(-212.823 -147.45)" fill="#f28f8f"/>
          </g>
          <path id="Path_1234" data-name="Path 1234" d="M226.236,126.781l-1.816-1.428a1.072,1.072,0,0,1,.691-.534.974.974,0,0,1,.821.194A1.406,1.406,0,0,1,226.236,126.781Z" transform="translate(-160.715 -109.347)" fill="#263238"/>
          <path id="Path_1235" data-name="Path 1235" d="M225.332,132.195a.908.908,0,1,1-.933-1,.989.989,0,0,1,.933,1Z" transform="translate(-160.24 -112.396)" fill="#263238"/>
          <g id="Group_385" data-name="Group 385" transform="translate(60.844 19.202)" opacity="0.5">
            <path id="Path_1236" data-name="Path 1236" d="M218.29,131.97l.121,6.08,2.856-.978Z" transform="translate(-218.29 -131.97)" fill="#f28f8f"/>
          </g>
          <g id="Group_386" data-name="Group 386" transform="translate(49.06 28.908)" opacity="0.5">
            <path id="Path_1237" data-name="Path 1237" d="M200.806,154.517c-2.3-.351-7.034-1.894-7.766-4a5.5,5.5,0,0,0,1.652,2.684c1.4,1.366,6.1,2.92,6.1,2.92Z" transform="translate(-193.04 -150.52)" fill="#f28f8f"/>
          </g>
          <path id="Path_1238" data-name="Path 1238" d="M154.253,167.47c-4.518.356-6.385,1-8.9,7.262-2.259,5.625-7.678,20.176-9.031,23.425s-1.61,4.547-.467,7.943c.933,2.768,8.555,18.669,9.391,20.987s1.2,4.662,2.628,7.362,3.673,5.337,5.451,5.96c2.637.926,6.067-.361,6.17-2.145s-3.869-4.761-4.952-8.722a14.964,14.964,0,0,0,2.259,1.376c1.073.492,2.264.382,2.618-.3s-.714-1.1-1.666-2.156c-.569-.633-1.578-2.056-2.866-3.312-.868-.848-2.3-1.1-2.94-2.03a74.252,74.252,0,0,1-3.094-8.644c-1.461-4.751-3.379-11.082-3.379-11.082l7.85-18.313S159.485,178.212,154.253,167.47Z" transform="translate(-113.099 -129.693)" fill="#ffa8a7"/>
          <path id="Path_1239" data-name="Path 1239" d="M155.2,274.859a7.18,7.18,0,0,1,6.7-3.966l-1.293-3.223s-4.779.377-6.791,4Z" transform="translate(-123.065 -177.466)" fill="#37474f"/>
          <path id="Path_1240" data-name="Path 1240" d="M155.42,271.666l1.064,1.669a.973.973,0,0,0,.654.456.9.9,0,0,0,.746-.215l1.867-1.57a1.309,1.309,0,0,0,.238-1.627l-.975-1.612a.973.973,0,0,0-.646-.481.892.892,0,0,0-.754.2l-1.984,1.57a1.245,1.245,0,0,0-.21,1.606Z" transform="translate(-123.811 -177.752)" fill="#263238"/>
          <path id="Path_1241" data-name="Path 1241" d="M154.684,271.6l1.064,1.669a.978.978,0,0,0,.654.456.906.906,0,0,0,.747-.21l1.867-1.57a1.308,1.308,0,0,0,.243-1.627l-.975-1.612a.984.984,0,0,0-.647-.474.9.9,0,0,0-.753.2l-1.979,1.6A1.234,1.234,0,0,0,154.684,271.6Z" transform="translate(-123.426 -177.725)" fill="#455a64"/>
          <path id="Path_1242" data-name="Path 1242" d="M159.5,271.407a.783.783,0,0,1-.266.523l-1.867,1.57a.567.567,0,0,1-.863-.147l-1.064-1.674a.771.771,0,0,1-.117-.487.747.747,0,0,1,.261-.523l1.979-1.57a.548.548,0,0,1,.467-.12.587.587,0,0,1,.4.288l.975,1.611a.854.854,0,0,1,.112.523Z" transform="translate(-123.867 -178.085)" fill="#ba68c8"/>
        </g>
      </g>
    </g>
  </g>
</svg>
