<svg id="file" xmlns="http://www.w3.org/2000/svg" width="20.934" height="28" viewBox="0 0 20.934 28">
  <path id="Path_82223" data-name="Path 82223" d="M87.028,8.565,80.469,2H67.158A1.059,1.059,0,0,0,66.1,3.058V21.837H87.028Z" transform="translate(-66.1 -2)" fill="#eff3f5"/>
  <path id="Path_82224" data-name="Path 82224" d="M326.8,7.506a1.059,1.059,0,0,0,1.058,1.058h5.506L326.8,2Z" transform="translate(-312.431 -2)" fill="#dbdfe0"/>
  <path id="Path_82225" data-name="Path 82225" d="M66.2,361.8v7.11a1.059,1.059,0,0,0,1.058,1.058H86.07a1.059,1.059,0,0,0,1.058-1.058V361.8Z" transform="translate(-66.194 -341.969)" fill="#f1786b"/>
  <g id="Group_50468" data-name="Group 50468" transform="translate(3.633 2.574)">
    <path id="Path_82226" data-name="Path 82226" d="M133.472,64.756a1.486,1.486,0,0,1-.959-.375,1.241,1.241,0,0,1-.491-1.2c.243-1.417,2.877-2.712,4.409-3.351a50.368,50.368,0,0,0,2-6.377c-.893-1.913-1.207-3.263-.932-4.029a1.08,1.08,0,0,1,.816-.717l.055-.011.055.006a1.191,1.191,0,0,1,.755.5,3.52,3.52,0,0,1,.276,2.706c-.066.353-.176.86-.32,1.466a34.9,34.9,0,0,0,2.9,4.872,9.107,9.107,0,0,1,2.155-.083c1.174.121,1.422.634,1.466.931a1.129,1.129,0,0,1-.8,1.119,2.538,2.538,0,0,1-2.993-1.064c-.044-.055-.088-.116-.132-.176a23.926,23.926,0,0,0-4.31,1.191c-.16.061-.314.121-.469.182-1.031,2.524-2.039,3.974-3,4.321A1.318,1.318,0,0,1,133.472,64.756Zm2.591-4.029c-2.188.987-3.274,1.962-3.373,2.574a.566.566,0,0,0,.259.568.746.746,0,0,0,.783.171C134.5,63.764,135.313,62.441,136.063,60.727Zm6.449-1.857a1.829,1.829,0,0,0,2.089.728c.265-.11.413-.3.4-.4s-.265-.3-.871-.358A8.113,8.113,0,0,0,142.512,58.869ZM138.9,54.383c-.336,1.3-.794,2.855-1.328,4.365-.094.259-.182.507-.276.75a26.017,26.017,0,0,1,4.013-1.13A36.447,36.447,0,0,1,138.9,54.383Zm-.5-4.988a.4.4,0,0,0-.259.27,4.612,4.612,0,0,0,.551,2.706q.066-.314.116-.579c.254-1.372.011-1.962-.16-2.188A.617.617,0,0,0,138.4,49.394Z" transform="translate(-132.006 -48.7)" fill="#f1786b"/>
  </g>
  <g id="Group_50469" data-name="Group 50469" transform="translate(5.054 21.347)">
    <path id="Path_82227" data-name="Path 82227" d="M310.117,391.444h-1.262V390.16h1.262a.43.43,0,0,0,0-.86H308.43a.43.43,0,0,0-.43.43v4.277a.43.43,0,1,0,.86,0V392.3h1.262a.427.427,0,1,0-.006-.854Z" transform="translate(-299.721 -389.3)" fill="#eff3f5"/>
    <path id="Path_82228" data-name="Path 82228" d="M159.1,389.4h-.871a.43.43,0,0,0-.43.43v4.277a.43.43,0,0,0,.86,0V392.4h.441a1.5,1.5,0,0,0,0-3Zm0,2.139h-.441v-1.284h.441a.642.642,0,0,1,0,1.284Z" transform="translate(-157.8 -389.394)" fill="#eff3f5"/>
    <path id="Path_82229" data-name="Path 82229" d="M221.754,389.4H220.63a.43.43,0,0,0-.43.43v4.277a.43.43,0,0,0,.43.43h1.124a2.568,2.568,0,1,0,0-5.137Zm0,4.272h-.694v-3.423h.694a1.711,1.711,0,0,1,0,3.423Z" transform="translate(-216.761 -389.394)" fill="#eff3f5"/>
  </g>
</svg>
