<svg xmlns="http://www.w3.org/2000/svg" width="133.44" height="133.508" viewBox="0 0 133.44 133.508">
  <g id="forgetPassword" transform="translate(-115.495 -138.5)">
    <g id="streamlinehq-mailbox-porto-400" transform="translate(116 139)">
      <g id="Mailbox" transform="translate(0 0)">
        <path id="Path_77577" data-name="Path 77577" d="M56.25,262.5H171.66v4.274a2.137,2.137,0,0,1-2.137,2.137H58.387a2.137,2.137,0,0,1-2.137-2.137Z" transform="translate(-39.225 -174.874)" fill="#3380ff" stroke="#231f20" stroke-linecap="round" stroke-linejoin="round" stroke-width="1"/>
        <path id="Path_77578" data-name="Path 77578" d="M56.25,262.5H98.994v4.274a2.137,2.137,0,0,1-2.137,2.137H58.387a2.137,2.137,0,0,1-2.137-2.137Z" transform="translate(-39.225 -174.874)" fill="#3183c5" stroke="#231f20" stroke-linecap="round" stroke-linejoin="round" stroke-width="1"/>
        <path id="Path_77579" data-name="Path 77579" d="M77.622,68.75h72.665A21.372,21.372,0,0,1,171.66,90.122V135H56.25V90.122A21.372,21.372,0,0,1,77.622,68.75Z" transform="translate(-39.225 -47.378)" fill="#3183c5" stroke="#231f20" stroke-linecap="round" stroke-linejoin="round" stroke-width="1"/>
        <path id="Path_77580" data-name="Path 77580" d="M314.8,68.75H306.25a21.372,21.372,0,0,1,21.372,21.372V135h8.549V90.122A21.372,21.372,0,0,0,314.8,68.75Z" transform="translate(-203.736 -47.378)" fill="#3183c5" stroke="#231f20" stroke-linecap="round" stroke-linejoin="round" stroke-width="1"/>
        <path id="Path_77581" data-name="Path 77581" d="M77.622,68.75h8.549a21.372,21.372,0,0,1,21.372,21.372V135H56.25V90.122A21.372,21.372,0,0,1,77.622,68.75Z" transform="translate(-39.225 -47.378)" fill="#14548c" stroke="#231f20" stroke-linecap="round" stroke-linejoin="round" stroke-width="1"/>
        <path id="Path_77582" data-name="Path 77582" d="M77.622,68.75h0A21.372,21.372,0,0,1,98.994,90.122V135H56.25V90.122A21.372,21.372,0,0,1,77.622,68.75Z" transform="translate(-39.225 -47.378)" fill="#3183c5" stroke="#231f20" stroke-linecap="round" stroke-linejoin="round" stroke-width="1"/>
        <rect id="Rectangle_19719" data-name="Rectangle 19719" width="23.509" height="38.47" transform="translate(64.044 94.038)" fill="#3183c5" stroke="#231f20" stroke-linecap="round" stroke-linejoin="round" stroke-width="1"/>
        <rect id="Rectangle_19720" data-name="Rectangle 19720" width="14.961" height="38.47" transform="translate(74.73 94.038)" fill="#3183c5" stroke="#231f20" stroke-linecap="round" stroke-linejoin="round" stroke-width="1"/>
        <rect id="Rectangle_19721" data-name="Rectangle 19721" width="14.961" height="4.274" transform="translate(74.73 94.038)" fill="#14548c" stroke="#231f20" stroke-linecap="round" stroke-linejoin="round" stroke-width="1"/>
        <rect id="Rectangle_19722" data-name="Rectangle 19722" width="10.686" height="4.274" transform="translate(64.044 94.038)" fill="#14548c" stroke="#231f20" stroke-linecap="round" stroke-linejoin="round" stroke-width="1"/>
        <path id="Path_77583" data-name="Path 77583" d="M254.6,10.524a4.274,4.274,0,0,0-4.274-4.274H239.637A2.137,2.137,0,0,0,237.5,8.387V81.053h4.274V19.073h8.549A4.274,4.274,0,0,0,254.6,14.8Z" transform="translate(-158.496 -6.25)" fill="#14548c" stroke="#231f20" stroke-linecap="round" stroke-linejoin="round" stroke-width="1"/>
        <circle id="Ellipse_7814" data-name="Ellipse 7814" cx="6.412" cy="6.412" r="6.412" transform="translate(74.73 68.391)" fill="#fccd14" stroke="#231f20" stroke-linecap="round" stroke-linejoin="round" stroke-width="1"/>
        <path id="Path_77584" data-name="Path 77584" d="M53.023,204.921H12.874a2.992,2.992,0,0,1-2.962-2.569l-3.42-23.937A2.992,2.992,0,0,1,9.455,175H48.749Z" transform="translate(-6.462 -117.295)" fill="#3183c5" stroke="#231f20" stroke-linecap="round" stroke-linejoin="round" stroke-width="1"/>
        <line id="Line_186" data-name="Line 186" x2="8.934" transform="translate(7.022 79.077)" fill="none" stroke="#ecf8ff" stroke-linecap="round" stroke-linejoin="round" stroke-width="1"/>
        <line id="Line_187" data-name="Line 187" x1="8.934" transform="translate(8.091 83.352)" fill="none" stroke="#ecf8ff" stroke-linecap="round" stroke-linejoin="round" stroke-width="1"/>
        <path id="Path_77585" data-name="Path 77585" d="M42.5,181.412l-.8-6.412h-32a2.992,2.992,0,0,0-2.951,3.484v.007a2.992,2.992,0,0,0,2.012,2.349l21.109,6.984Z" transform="translate(-6.621 -117.295)" fill="none" stroke="#231f20" stroke-linecap="round" stroke-linejoin="round" stroke-width="1"/>
        <path id="Path_77586" data-name="Path 77586" d="M82.494,125H35.614a4.274,4.274,0,0,0-4.257,4.661l3.5,38.47a4.274,4.274,0,0,0,4.257,3.888H82.6V127.137C82.6,126.416,82.564,125.7,82.494,125Z" transform="translate(-22.833 -84.393)" fill="#ffc800" stroke="#231f20" stroke-linecap="round" stroke-linejoin="round" stroke-width="1"/>
        <path id="Path_77587" data-name="Path 77587" d="M82.785,127.137c0-.721-.038-1.434-.108-2.137H35.892a4.274,4.274,0,0,0-4.248,4.746,4,4,0,0,0,2.857,3.4L65.312,142.1H82.785Z" transform="translate(-23.015 -84.393)" fill="#ffc800" stroke="#231f20" stroke-linecap="round" stroke-linejoin="round" stroke-width="1"/>
        <path id="Path_77588" data-name="Path 77588" d="M66.691,227.3H56l-.855-8.549H65.836Z" transform="translate(-38.501 -146.085)" fill="#ff8b00" stroke="#ff8b00" stroke-linecap="round" stroke-linejoin="round" stroke-width="1"/>
        <path id="Path_77589" data-name="Path 77589" d="M111.371,196.7H79.332a4.274,4.274,0,0,1-4.266-4.541l1.6-25.647a4.274,4.274,0,0,1,4.266-4.008h30.436Z" transform="translate(-51.601 -109.069)" fill="#fffcdf" stroke="#231f20" stroke-linecap="round" stroke-linejoin="round" stroke-width="1"/>
        <line id="Line_188" data-name="Line 188" x2="7.202" transform="translate(29.058 79.077)" fill="none" stroke="#231f20" stroke-linecap="round" stroke-linejoin="round" stroke-width="1"/>
        <line id="Line_189" data-name="Line 189" x1="7.202" transform="translate(28.524 83.352)" fill="none" stroke="#231f20" stroke-linecap="round" stroke-linejoin="round" stroke-width="1"/>
        <path id="Path_77590" data-name="Path 77590" d="M101.549,184.537H93l.534-6.412h8.549Z" transform="translate(-63.408 -119.351)" fill="#ff3446" stroke="#ff3446" stroke-linecap="round" stroke-linejoin="round" stroke-width="1"/>
        <path id="Path_77593" data-name="Path 77593" d="M0,0H14.961V10.686H0Z" transform="translate(101.445 69.46)" fill="#14548c" stroke="#b1ceff" stroke-linecap="round" stroke-width="1"/>
        <line id="Line_190" data-name="Line 190" x2="8.549" transform="translate(104.651 72.665)" fill="none" stroke="#fff" stroke-linecap="round" stroke-linejoin="round" stroke-width="1"/>
        <line id="Line_191" data-name="Line 191" x1="8.549" transform="translate(104.651 76.94)" fill="none" stroke="#fff" stroke-linecap="round" stroke-linejoin="round" stroke-width="1"/>
        <path id="Path_77591" data-name="Path 77591" d="M144.518,213.147H129.7a4.274,4.274,0,0,1-4.26-4.629l1.425-17.1a4.274,4.274,0,0,1,4.26-3.919h13.389Z" transform="translate(-84.748 -125.521)" fill="#9bbf0a" stroke="#231f20" stroke-linecap="round" stroke-linejoin="round" stroke-width="1"/>
        <path id="Path_77592" data-name="Path 77592" d="M146.38,241.774h-6.412l.534-4.274h6.412Z" transform="translate(-94.316 -158.423)" fill="#ffb9c9" stroke="#ffb9c9" stroke-linecap="round" stroke-linejoin="round" stroke-width="1"/>
        <line id="Line_192" data-name="Line 192" x2="6.412" transform="translate(46.722 66.254)" fill="none" stroke="#231f20" stroke-linecap="round" stroke-linejoin="round" stroke-width="1"/>
        <line id="Line_193" data-name="Line 193" x2="3.206" transform="translate(46.722 70.528)" fill="none" stroke="#231f20" stroke-linecap="round" stroke-linejoin="round" stroke-width="1"/>
      </g>
    </g>
  </g>
</svg>
