<svg xmlns="http://www.w3.org/2000/svg" width="288.692" height="261.12" viewBox="0 0 288.692 261.12">
  <g id="hello2" transform="translate(-8.59 -27.03)">
    <g id="freepik--background-simple--inject-21" transform="translate(13.978 38.676)">
      <path id="Path_76790" data-name="Path 76790" d="M205.183,51.276s-45.929-16.326-91,9.669-67.843,77.6-87.354,118.943-8.291,83.387,26.12,102.558,57.81-9.1,106.083-10.468,61.252,5.541,101.311-21.742,47.294-91.672,15.7-139.325S205.183,51.276,205.183,51.276Z" transform="translate(-17.284 -46.216)" fill="#3183c5"/>
      <path id="Path_76791" data-name="Path 76791" d="M205.183,51.276s-45.929-16.326-91,9.669-67.843,77.6-87.354,118.943-8.291,83.387,26.12,102.558,57.81-9.1,106.083-10.468,61.252,5.541,101.311-21.742,47.294-91.672,15.7-139.325S205.183,51.276,205.183,51.276Z" transform="translate(-17.284 -46.216)" fill="#fff" opacity="0.7"/>
    </g>
    <g id="freepik--Floor--inject-21" transform="translate(9.09 287.593)">
      <line id="Line_118" data-name="Line 118" x2="286.851" fill="none" stroke="#263238" stroke-linecap="round" stroke-linejoin="round" stroke-width="1"/>
    </g>
    <g id="freepik--Window--inject-21" transform="translate(198.966 34.998)">
      <path id="Path_76792" data-name="Path 76792" d="M392.261,40.05h2.219a36.981,36.981,0,0,1,36.981,36.981V215.1H355.28V77.031A36.981,36.981,0,0,1,392.261,40.05Z" transform="translate(-338.662 -40.05)" fill="none" stroke="#263238" stroke-linecap="round" stroke-linejoin="round" stroke-width="1"/>
      <path id="Path_76793" data-name="Path 76793" d="M369.7,221.358V86.054A29.484,29.484,0,0,1,399.184,56.57h0a29.478,29.478,0,0,1,29.478,29.484v135.3" transform="translate(-344.481 -46.716)" fill="none" stroke="#263238" stroke-linecap="round" stroke-linejoin="round" stroke-width="1"/>
      <line id="Line_119" data-name="Line 119" y2="174.845" transform="translate(54.703 0)" fill="none" stroke="#263238" stroke-linecap="round" stroke-linejoin="round" stroke-width="1"/>
      <line id="Line_120" data-name="Line 120" x2="75.239" transform="translate(17.029 33.683)" fill="none" stroke="#263238" stroke-linecap="round" stroke-linejoin="round" stroke-width="1"/>
      <line id="Line_121" data-name="Line 121" x2="75.239" transform="translate(17.029 57.429)" fill="none" stroke="#263238" stroke-linecap="round" stroke-linejoin="round" stroke-width="1"/>
      <line id="Line_122" data-name="Line 122" x2="75.239" transform="translate(17.029 81.18)" fill="none" stroke="#263238" stroke-linecap="round" stroke-linejoin="round" stroke-width="1"/>
      <line id="Line_123" data-name="Line 123" x2="75.239" transform="translate(17.029 104.932)" fill="none" stroke="#263238" stroke-linecap="round" stroke-linejoin="round" stroke-width="1"/>
      <line id="Line_124" data-name="Line 124" x2="75.239" transform="translate(17.029 128.678)" fill="none" stroke="#263238" stroke-linecap="round" stroke-linejoin="round" stroke-width="1"/>
      <line id="Line_125" data-name="Line 125" x2="75.239" transform="translate(17.029 152.429)" fill="none" stroke="#263238" stroke-linecap="round" stroke-linejoin="round" stroke-width="1"/>
      <line id="Line_126" data-name="Line 126" x2="6.824" y2="6.215" transform="translate(27.092 11.888)" fill="none" stroke="#263238" stroke-linecap="round" stroke-linejoin="round" stroke-width="1"/>
      <line id="Line_127" data-name="Line 127" x1="6.824" y2="6.215" transform="translate(75.204 11.888)" fill="none" stroke="#263238" stroke-linecap="round" stroke-linejoin="round" stroke-width="1"/>
      <line id="Line_128" data-name="Line 128" x2="14.721" transform="translate(0.048 129.554)" fill="none" stroke="#263238" stroke-linecap="round" stroke-linejoin="round" stroke-width="1"/>
      <path id="Path_76794" data-name="Path 76794" d="M327.766,272h7.754v46.328h39.367v61.037H327.42" transform="translate(-327.42 -133.648)" fill="none" stroke="#263238" stroke-linecap="round" stroke-linejoin="round" stroke-width="1"/>
      <path id="Path_76795" data-name="Path 76795" d="M463.817,349.67H423.03v61.037h37.56" transform="translate(-366.001 -164.989)" fill="none" stroke="#263238" stroke-linecap="round" stroke-linejoin="round" stroke-width="1"/>
    </g>
    <g id="freepik--Door--inject-21" transform="translate(10.826 27.53)">
      <rect id="Rectangle_19692" data-name="Rectangle 19692" width="103.441" height="260.063" transform="translate(84.699)" fill="none" stroke="#263238" stroke-miterlimit="10" stroke-width="1"/>
      <circle id="Ellipse_7634" data-name="Ellipse 7634" cx="4.39" cy="4.39" r="4.39" transform="translate(176.67 130.979) rotate(-68.53)" fill="none" stroke="#263238" stroke-miterlimit="10" stroke-width="1"/>
      <path id="Path_76796" data-name="Path 76796" d="M318.3,241.81a1.754,1.754,0,1,0-.514,1.246A1.76,1.76,0,0,0,318.3,241.81Z" transform="translate(-134.179 -113.287)" fill="none" stroke="#263238" stroke-miterlimit="10" stroke-width="1"/>
      <rect id="Rectangle_19693" data-name="Rectangle 19693" width="38.174" height="43.203" transform="translate(94.243 11.673)" fill="none" stroke="#263238" stroke-miterlimit="10" stroke-width="1"/>
      <rect id="Rectangle_19694" data-name="Rectangle 19694" width="29.359" height="33.224" transform="translate(98.651 16.666)" fill="none" stroke="#263238" stroke-miterlimit="10" stroke-width="1"/>
      <line id="Line_129" data-name="Line 129" x2="4.408" y2="4.992" transform="translate(94.243 11.673)" fill="none" stroke="#263238" stroke-miterlimit="10" stroke-width="1"/>
      <line id="Line_130" data-name="Line 130" x1="4.408" y2="4.987" transform="translate(94.243 49.889)" fill="none" stroke="#263238" stroke-miterlimit="10" stroke-width="1"/>
      <line id="Line_131" data-name="Line 131" x2="4.408" y2="4.987" transform="translate(128.01 49.889)" fill="none" stroke="#263238" stroke-miterlimit="10" stroke-width="1"/>
      <line id="Line_132" data-name="Line 132" x1="4.408" y2="4.992" transform="translate(128.01 11.673)" fill="none" stroke="#263238" stroke-miterlimit="10" stroke-width="1"/>
      <rect id="Rectangle_19695" data-name="Rectangle 19695" width="38.174" height="43.203" transform="translate(94.243 58.795)" fill="none" stroke="#263238" stroke-miterlimit="10" stroke-width="1"/>
      <rect id="Rectangle_19696" data-name="Rectangle 19696" width="29.359" height="33.224" transform="translate(98.651 63.787)" fill="none" stroke="#263238" stroke-miterlimit="10" stroke-width="1"/>
      <line id="Line_133" data-name="Line 133" x2="4.408" y2="4.992" transform="translate(94.243 58.795)" fill="none" stroke="#263238" stroke-miterlimit="10" stroke-width="1"/>
      <line id="Line_134" data-name="Line 134" x1="4.408" y2="4.987" transform="translate(94.243 97.011)" fill="none" stroke="#263238" stroke-miterlimit="10" stroke-width="1"/>
      <line id="Line_135" data-name="Line 135" x2="4.408" y2="4.987" transform="translate(128.01 97.011)" fill="none" stroke="#263238" stroke-miterlimit="10" stroke-width="1"/>
      <line id="Line_136" data-name="Line 136" x1="4.408" y2="4.992" transform="translate(128.01 58.795)" fill="none" stroke="#263238" stroke-miterlimit="10" stroke-width="1"/>
      <rect id="Rectangle_19697" data-name="Rectangle 19697" width="38.174" height="43.203" transform="translate(94.243 105.916)" fill="none" stroke="#263238" stroke-miterlimit="10" stroke-width="1"/>
      <rect id="Rectangle_19698" data-name="Rectangle 19698" width="29.359" height="33.224" transform="translate(98.651 110.909)" fill="none" stroke="#263238" stroke-miterlimit="10" stroke-width="1"/>
      <line id="Line_137" data-name="Line 137" x2="4.408" y2="4.992" transform="translate(94.243 105.916)" fill="none" stroke="#263238" stroke-miterlimit="10" stroke-width="1"/>
      <line id="Line_138" data-name="Line 138" x1="4.408" y2="4.987" transform="translate(94.243 144.132)" fill="none" stroke="#263238" stroke-miterlimit="10" stroke-width="1"/>
      <line id="Line_139" data-name="Line 139" x2="4.408" y2="4.987" transform="translate(128.01 144.132)" fill="none" stroke="#263238" stroke-miterlimit="10" stroke-width="1"/>
      <line id="Line_140" data-name="Line 140" x1="4.408" y2="4.992" transform="translate(128.01 105.916)" fill="none" stroke="#263238" stroke-miterlimit="10" stroke-width="1"/>
      <rect id="Rectangle_19699" data-name="Rectangle 19699" width="38.174" height="43.203" transform="translate(94.243 153.038)" fill="none" stroke="#263238" stroke-miterlimit="10" stroke-width="1"/>
      <rect id="Rectangle_19700" data-name="Rectangle 19700" width="29.359" height="33.224" transform="translate(98.651 158.03)" fill="none" stroke="#263238" stroke-miterlimit="10" stroke-width="1"/>
      <line id="Line_141" data-name="Line 141" x2="4.408" y2="4.992" transform="translate(94.243 153.038)" fill="none" stroke="#263238" stroke-miterlimit="10" stroke-width="1"/>
      <line id="Line_142" data-name="Line 142" x1="4.408" y2="4.987" transform="translate(94.243 191.254)" fill="none" stroke="#263238" stroke-miterlimit="10" stroke-width="1"/>
      <line id="Line_143" data-name="Line 143" x2="4.408" y2="4.987" transform="translate(128.01 191.254)" fill="none" stroke="#263238" stroke-miterlimit="10" stroke-width="1"/>
      <line id="Line_144" data-name="Line 144" x1="4.408" y2="4.992" transform="translate(128.01 153.038)" fill="none" stroke="#263238" stroke-miterlimit="10" stroke-width="1"/>
      <rect id="Rectangle_19701" data-name="Rectangle 19701" width="38.174" height="43.203" transform="translate(94.243 205.187)" fill="none" stroke="#263238" stroke-miterlimit="10" stroke-width="1"/>
      <rect id="Rectangle_19702" data-name="Rectangle 19702" width="29.359" height="33.224" transform="translate(98.651 210.18)" fill="none" stroke="#263238" stroke-miterlimit="10" stroke-width="1"/>
      <line id="Line_145" data-name="Line 145" x2="4.408" y2="4.992" transform="translate(94.243 205.187)" fill="none" stroke="#263238" stroke-miterlimit="10" stroke-width="1"/>
      <line id="Line_146" data-name="Line 146" x1="4.408" y2="4.987" transform="translate(94.243 243.404)" fill="none" stroke="#263238" stroke-miterlimit="10" stroke-width="1"/>
      <line id="Line_147" data-name="Line 147" x2="4.408" y2="4.987" transform="translate(128.01 243.404)" fill="none" stroke="#263238" stroke-miterlimit="10" stroke-width="1"/>
      <line id="Line_148" data-name="Line 148" x1="4.408" y2="4.992" transform="translate(128.01 205.187)" fill="none" stroke="#263238" stroke-miterlimit="10" stroke-width="1"/>
      <rect id="Rectangle_19703" data-name="Rectangle 19703" width="38.174" height="43.203" transform="translate(137.786 11.673)" fill="none" stroke="#263238" stroke-miterlimit="10" stroke-width="1"/>
      <rect id="Rectangle_19704" data-name="Rectangle 19704" width="29.359" height="33.224" transform="translate(142.194 16.666)" fill="none" stroke="#263238" stroke-miterlimit="10" stroke-width="1"/>
      <line id="Line_149" data-name="Line 149" x2="4.408" y2="4.992" transform="translate(137.786 11.673)" fill="none" stroke="#263238" stroke-miterlimit="10" stroke-width="1"/>
      <line id="Line_150" data-name="Line 150" x1="4.408" y2="4.987" transform="translate(137.786 49.889)" fill="none" stroke="#263238" stroke-miterlimit="10" stroke-width="1"/>
      <line id="Line_151" data-name="Line 151" x2="4.408" y2="4.987" transform="translate(171.552 49.889)" fill="none" stroke="#263238" stroke-miterlimit="10" stroke-width="1"/>
      <line id="Line_152" data-name="Line 152" x1="4.408" y2="4.992" transform="translate(171.552 11.673)" fill="none" stroke="#263238" stroke-miterlimit="10" stroke-width="1"/>
      <rect id="Rectangle_19705" data-name="Rectangle 19705" width="38.174" height="43.203" transform="translate(137.786 58.795)" fill="none" stroke="#263238" stroke-miterlimit="10" stroke-width="1"/>
      <rect id="Rectangle_19706" data-name="Rectangle 19706" width="29.359" height="33.224" transform="translate(142.194 63.787)" fill="none" stroke="#263238" stroke-miterlimit="10" stroke-width="1"/>
      <line id="Line_153" data-name="Line 153" x2="4.408" y2="4.992" transform="translate(137.786 58.795)" fill="none" stroke="#263238" stroke-miterlimit="10" stroke-width="1"/>
      <line id="Line_154" data-name="Line 154" x1="4.408" y2="4.987" transform="translate(137.786 97.011)" fill="none" stroke="#263238" stroke-miterlimit="10" stroke-width="1"/>
      <line id="Line_155" data-name="Line 155" x2="4.408" y2="4.987" transform="translate(171.552 97.011)" fill="none" stroke="#263238" stroke-miterlimit="10" stroke-width="1"/>
      <line id="Line_156" data-name="Line 156" x1="4.408" y2="4.992" transform="translate(171.552 58.795)" fill="none" stroke="#263238" stroke-miterlimit="10" stroke-width="1"/>
      <rect id="Rectangle_19707" data-name="Rectangle 19707" width="38.174" height="43.203" transform="translate(137.786 105.916)" fill="none" stroke="#263238" stroke-miterlimit="10" stroke-width="1"/>
      <rect id="Rectangle_19708" data-name="Rectangle 19708" width="29.359" height="33.224" transform="translate(142.194 110.909)" fill="none" stroke="#263238" stroke-miterlimit="10" stroke-width="1"/>
      <line id="Line_157" data-name="Line 157" x2="4.408" y2="4.992" transform="translate(137.786 105.916)" fill="none" stroke="#263238" stroke-miterlimit="10" stroke-width="1"/>
      <line id="Line_158" data-name="Line 158" x1="4.408" y2="4.987" transform="translate(137.786 144.132)" fill="none" stroke="#263238" stroke-miterlimit="10" stroke-width="1"/>
      <line id="Line_159" data-name="Line 159" x2="4.408" y2="4.987" transform="translate(171.552 144.132)" fill="none" stroke="#263238" stroke-miterlimit="10" stroke-width="1"/>
      <line id="Line_160" data-name="Line 160" x1="4.408" y2="4.992" transform="translate(171.552 105.916)" fill="none" stroke="#263238" stroke-miterlimit="10" stroke-width="1"/>
      <rect id="Rectangle_19709" data-name="Rectangle 19709" width="38.174" height="43.203" transform="translate(137.786 153.038)" fill="none" stroke="#263238" stroke-miterlimit="10" stroke-width="1"/>
      <rect id="Rectangle_19710" data-name="Rectangle 19710" width="29.359" height="33.224" transform="translate(142.194 158.03)" fill="none" stroke="#263238" stroke-miterlimit="10" stroke-width="1"/>
      <line id="Line_161" data-name="Line 161" x2="4.408" y2="4.992" transform="translate(137.786 153.038)" fill="none" stroke="#263238" stroke-miterlimit="10" stroke-width="1"/>
      <line id="Line_162" data-name="Line 162" x1="4.408" y2="4.987" transform="translate(137.786 191.254)" fill="none" stroke="#263238" stroke-miterlimit="10" stroke-width="1"/>
      <line id="Line_163" data-name="Line 163" x2="4.408" y2="4.987" transform="translate(171.552 191.254)" fill="none" stroke="#263238" stroke-miterlimit="10" stroke-width="1"/>
      <line id="Line_164" data-name="Line 164" x1="4.408" y2="4.992" transform="translate(171.552 153.038)" fill="none" stroke="#263238" stroke-miterlimit="10" stroke-width="1"/>
      <rect id="Rectangle_19711" data-name="Rectangle 19711" width="38.174" height="43.203" transform="translate(137.786 205.187)" fill="none" stroke="#263238" stroke-miterlimit="10" stroke-width="1"/>
      <rect id="Rectangle_19712" data-name="Rectangle 19712" width="29.359" height="33.224" transform="translate(142.194 210.18)" fill="none" stroke="#263238" stroke-miterlimit="10" stroke-width="1"/>
      <line id="Line_165" data-name="Line 165" x2="4.408" y2="4.992" transform="translate(137.786 205.187)" fill="none" stroke="#263238" stroke-miterlimit="10" stroke-width="1"/>
      <line id="Line_166" data-name="Line 166" x1="4.408" y2="4.987" transform="translate(137.786 243.404)" fill="none" stroke="#263238" stroke-miterlimit="10" stroke-width="1"/>
      <line id="Line_167" data-name="Line 167" x2="4.408" y2="4.987" transform="translate(171.552 243.404)" fill="none" stroke="#263238" stroke-miterlimit="10" stroke-width="1"/>
      <line id="Line_168" data-name="Line 168" x1="4.408" y2="4.992" transform="translate(171.552 205.187)" fill="none" stroke="#263238" stroke-miterlimit="10" stroke-width="1"/>
      <line id="Line_169" data-name="Line 169" x1="3.967" fill="none" stroke="#263238" stroke-miterlimit="10" stroke-width="1"/>
      <line id="Line_170" data-name="Line 170" x1="77.172" transform="translate(7.528)" fill="none" stroke="#263238" stroke-miterlimit="10" stroke-width="1"/>
    </g>
    <g id="freepik--Lantern--inject-21" transform="translate(53.7 36.37)">
      <path id="Path_76797" data-name="Path 76797" d="M110.7,90.026H93.9L90.3,60.84h24Z" transform="translate(-86.471 -49.811)" fill="none" stroke="#263238" stroke-miterlimit="10" stroke-width="2"/>
      <path id="Path_76798" data-name="Path 76798" d="M115.529,57.417H83.88L94.432,52.55h10.552Z" transform="translate(-83.88 -46.466)" fill="#263238" stroke="#263238" stroke-miterlimit="10" stroke-width="1"/>
      <line id="Line_171" data-name="Line 171" x1="2.392" y1="28.846" transform="translate(7.856 11.25)" fill="none" stroke="#263238" stroke-miterlimit="10" stroke-width="2"/>
      <line id="Line_172" data-name="Line 172" y1="28.846" x2="2.541" transform="translate(21.747 11.25)" fill="none" stroke="#263238" stroke-miterlimit="10" stroke-width="2"/>
      <path id="Path_76799" data-name="Path 76799" d="M95.73,104.86l.358,2.929h16.8l.358-2.929Z" transform="translate(-88.662 -67.574)" fill="#263238" stroke="#263238" stroke-miterlimit="10" stroke-width="1"/>
      <rect id="Rectangle_19713" data-name="Rectangle 19713" width="5.816" height="6.573" transform="translate(13.039)" fill="#263238" stroke="#263238" stroke-miterlimit="10" stroke-width="1"/>
      <rect id="Rectangle_19714" data-name="Rectangle 19714" width="23.692" height="1.265" transform="translate(17.966 1.014)" fill="#263238" stroke="#263238" stroke-miterlimit="10" stroke-width="1"/>
    </g>
    <g id="freepik--Sign--inject-21" transform="translate(23.686 186.192)">
      <rect id="Rectangle_19715" data-name="Rectangle 19715" width="52.878" height="48.034" transform="translate(0 1.7)" fill="none" stroke="#263238" stroke-miterlimit="10" stroke-width="1"/>
      <rect id="Rectangle_19716" data-name="Rectangle 19716" width="41.592" height="41.539" transform="translate(5.649 4.945)" fill="#3183c5"/>
      <line id="Line_173" data-name="Line 173" y2="101.383" fill="none" stroke="#263238" stroke-linejoin="round" stroke-width="2"/>
      <line id="Line_174" data-name="Line 174" y2="101.383" transform="translate(53.068)" fill="none" stroke="#263238" stroke-linejoin="round" stroke-width="2"/>
      <path id="Path_76800" data-name="Path 76800" d="M58.518,313.535h3.5V316h-3.5v7.122H55.81V305.87h7.158v2.463h-4.45Z" transform="translate(-42.538 -298.509)" fill="#fff"/>
      <path id="Path_76801" data-name="Path 76801" d="M69.65,309.876c0-2.762,1.455-4.336,4.116-4.336s4.116,1.575,4.116,4.336v8.947c0,2.762-1.455,4.336-4.116,4.336s-4.116-1.575-4.116-4.336Zm2.708,9.144c0,1.229.543,1.7,1.408,1.7s1.4-.471,1.4-1.7V309.7c0-1.235-.537-1.7-1.4-1.7s-1.408.465-1.408,1.7Z" transform="translate(-48.123 -298.376)" fill="#fff"/>
      <path id="Path_76802" data-name="Path 76802" d="M92.047,323.12A5.4,5.4,0,0,1,91.8,321v-2.714c0-1.6-.543-2.189-1.789-2.189h-.919v7.021H86.38V305.87h4.092c2.809,0,4.014,1.306,4.014,3.967v1.354c0,1.789-.6,2.935-1.789,3.5,1.354.567,1.789,1.873,1.789,3.674v2.66a5.124,5.124,0,0,0,.292,2.094Zm-2.953-14.787v5.3H90.15c1.014,0,1.628-.441,1.628-1.819v-1.688c0-1.235-.418-1.789-1.378-1.789Z" transform="translate(-54.874 -298.509)" fill="#fff"/>
      <path id="Path_76803" data-name="Path 76803" d="M52.044,338.93c2.636,0,3.99,1.575,3.99,4.336v.543H53.47v-.716c0-1.235-.489-1.7-1.354-1.7s-1.354.465-1.354,1.7c0,3.549,5.3,4.211,5.3,9.144,0,2.762-1.378,4.336-4.038,4.336S48,355,48,352.237v-1.062h2.565v1.235c0,1.229.537,1.676,1.4,1.676s1.408-.447,1.408-1.676c0-3.549-5.3-4.217-5.3-9.144C48.048,340.5,49.408,338.93,52.044,338.93Z" transform="translate(-39.387 -311.85)" fill="#fff"/>
      <path id="Path_76804" data-name="Path 76804" d="M72.4,356.51H69.668l-.471-3.132H65.869L65.4,356.51H62.91l2.762-17.25h3.967Zm-6.185-5.476h2.613l-1.306-8.726Z" transform="translate(-45.403 -311.983)" fill="#fff"/>
      <path id="Path_76805" data-name="Path 76805" d="M80.93,339.26h2.708v14.787h4.491v2.463H80.972Z" transform="translate(-52.675 -311.983)" fill="#fff"/>
      <path id="Path_76806" data-name="Path 76806" d="M97.644,346.531h3.722v2.463H97.644v5.052h4.682v2.463h-7.4V339.26h7.4v2.463H97.644Z" transform="translate(-58.324 -311.983)" fill="#fff"/>
    </g>
    <g id="freepik--Plant--inject-21" transform="translate(252.052 153.899)">
      <path id="Path_76807" data-name="Path 76807" d="M465.261,252.238s0-2.792-3.913-6.7-6.424-6.144-6.424-6.144-1.956,6.424,1.676,10.331a68.733,68.733,0,0,0,8.661,7.545Z" transform="translate(-431.745 -239.39)" fill="#3183c5"/>
      <path id="Path_76808" data-name="Path 76808" d="M455.745,281.478s0-2.792-3.907-6.7-6.424-6.144-6.424-6.144-1.956,6.424,1.676,10.337a68.682,68.682,0,0,0,8.655,7.54Z" transform="translate(-427.907 -251.189)" fill="#3183c5"/>
      <path id="Path_76809" data-name="Path 76809" d="M471.831,261s.3-2.774,4.6-6.251,7.038-5.428,7.038-5.428,1.265,6.591-2.762,10.1a68.546,68.546,0,0,1-9.406,6.561Z" transform="translate(-438.565 -243.397)" fill="#3183c5"/>
      <path id="Path_76810" data-name="Path 76810" d="M459.986,296.4s.6-2.732,5.231-5.738S472.78,286,472.78,286s.6,6.686-3.8,9.752a69.047,69.047,0,0,1-10.051,5.559Z" transform="translate(-433.574 -258.198)" fill="#3183c5"/>
      <path id="Path_76811" data-name="Path 76811" d="M462.86,332.4s0-2.792,3.913-6.7,6.424-6.144,6.424-6.144,1.95,6.424-1.676,10.337a68.988,68.988,0,0,1-8.661,7.539Z" transform="translate(-435.159 -271.737)" fill="#3183c5"/>
      <path id="Path_76812" data-name="Path 76812" d="M456.246,340.7s.4-2.762-2.917-7.158-5.488-7-5.488-7-2.845,6.078.191,10.468a69.058,69.058,0,0,0,7.5,8.691Z" transform="translate(-428.611 -274.561)" fill="#3183c5"/>
      <path id="Path_76813" data-name="Path 76813" d="M456.29,368.836s0-2.791,3.907-6.7S466.621,356,466.621,356s1.956,6.424-1.676,10.337a68.685,68.685,0,0,1-8.655,7.557Z" transform="translate(-432.508 -286.445)" fill="#3183c5"/>
      <path id="Path_76814" data-name="Path 76814" d="M460.615,392.037s-.71-2.7,2.082-7.474S467.373,377,467.373,377s3.519,5.72,1,10.42a69.034,69.034,0,0,1-6.466,9.49Z" transform="translate(-434.221 -294.919)" fill="#3183c5"/>
      <path id="Path_76815" data-name="Path 76815" d="M466.257,259.73a78.293,78.293,0,0,1-1.074,8.673c-1.545,7.987-5.41,13.122-6.955,20.352s2.893,16.5,1.706,25.768-4.772,14.417-3.764,20.6,6.561,24.181,6.561,24.181" transform="translate(-432.389 -247.598)" fill="none" stroke="#263238" stroke-linecap="round" stroke-linejoin="round" stroke-width="1"/>
      <line id="Line_175" data-name="Line 175" y1="3.239" x2="4.211" transform="translate(33.23 16.224)" fill="none" stroke="#263238" stroke-linecap="round" stroke-linejoin="round" stroke-width="1"/>
      <line id="Line_176" data-name="Line 176" x1="1.766" y1="3.131" transform="translate(31.661 12.604)" fill="none" stroke="#263238" stroke-linecap="round" stroke-linejoin="round" stroke-width="1"/>
      <path id="Path_76816" data-name="Path 76816" d="M460.14,304.251s3.525-2.648,7.158-5.291" transform="translate(-434.062 -263.428)" fill="none" stroke="#263238" stroke-linecap="round" stroke-linejoin="round" stroke-width="1"/>
      <path id="Path_76817" data-name="Path 76817" d="M458.849,292.115a56.453,56.453,0,0,0-6.269-9.585" transform="translate(-431.011 -256.798)" fill="none" stroke="#263238" stroke-linecap="round" stroke-linejoin="round" stroke-width="1"/>
      <path id="Path_76818" data-name="Path 76818" d="M463.09,340.922a43.716,43.716,0,0,1,7.545-10.092" transform="translate(-435.252 -276.288)" fill="none" stroke="#263238" stroke-linecap="round" stroke-linejoin="round" stroke-width="1"/>
      <path id="Path_76819" data-name="Path 76819" d="M457.743,347.1a49.069,49.069,0,0,0-3.817-7.247c-2.058-3.042-2.386-3.43-2.386-3.43" transform="translate(-430.592 -278.544)" fill="none" stroke="#263238" stroke-linecap="round" stroke-linejoin="round" stroke-width="1"/>
      <path id="Path_76820" data-name="Path 76820" d="M456.29,378.142a47.415,47.415,0,0,1,3.173-6.424,41.33,41.33,0,0,1,4.116-5.368" transform="translate(-432.508 -290.621)" fill="none" stroke="#263238" stroke-linecap="round" stroke-linejoin="round" stroke-width="1"/>
      <path id="Path_76821" data-name="Path 76821" d="M462.763,400.746a11.99,11.99,0,0,1,1.056-6.185c1.473-2.845,3.137-6.561,3.823-8.04" transform="translate(-435.098 -298.761)" fill="none" stroke="#263238" stroke-linecap="round" stroke-linejoin="round" stroke-width="1"/>
      <path id="Path_76822" data-name="Path 76822" d="M429.669,317.27s-.3-1.748,1.724-4.629,3.358-4.551,3.358-4.551,1.927,3.817.072,6.663a43.2,43.2,0,0,1-4.611,5.672Z" transform="translate(-421.76 -267.112)" fill="#3183c5"/>
      <path id="Path_76823" data-name="Path 76823" d="M438.809,334.58s-.3-1.754,1.724-4.629S443.9,325.4,443.9,325.4s1.921,3.817.066,6.663a43.39,43.39,0,0,1-4.611,5.667Z" transform="translate(-425.448 -274.097)" fill="#3183c5"/>
      <path id="Path_76824" data-name="Path 76824" d="M425,324.336s-.483-1.712-3.579-3.424-5-2.642-5-2.642-.078,4.277,2.821,6.036a43.911,43.911,0,0,0,6.615,3.108Z" transform="translate(-416.42 -271.22)" fill="#3183c5"/>
      <path id="Path_76825" data-name="Path 76825" d="M435.566,345.38s-.662-1.652-3.9-3.03-5.255-2.1-5.255-2.1.376,4.253,3.448,5.7a43.8,43.8,0,0,0,6.9,2.386Z" transform="translate(-420.451 -280.09)" fill="#3183c5"/>
      <path id="Path_76826" data-name="Path 76826" d="M439.135,368s-.3-1.748-3.179-3.776-4.694-3.155-4.694-3.155-.531,4.241,2.171,6.3a43.641,43.641,0,0,0,6.251,3.8Z" transform="translate(-422.392 -288.491)" fill="#3183c5"/>
      <path id="Path_76827" data-name="Path 76827" d="M445.5,371.806s-.549-1.688,1.05-4.825S449.226,362,449.226,362s2.446,3.507,1.02,6.561a44.288,44.288,0,0,1-3.758,6.269Z" transform="translate(-428.117 -288.866)" fill="#3183c5"/>
      <path id="Path_76828" data-name="Path 76828" d="M453.568,397.142s.2-1.789,2.982-3.955,4.5-3.418,4.5-3.418.769,4.205-1.789,6.412a43.668,43.668,0,0,1-6.024,4.14Z" transform="translate(-431.278 -300.072)" fill="#3183c5"/>
      <path id="Path_76829" data-name="Path 76829" d="M447.215,390.131s-.3-1.748-3.179-3.776-4.694-3.155-4.694-3.155-.531,4.241,2.171,6.3a43.745,43.745,0,0,0,6.245,3.788Z" transform="translate(-425.652 -297.421)" fill="#3183c5"/>
      <path id="Path_76830" data-name="Path 76830" d="M448.148,404.893s.155-1.789-2.117-4.462-3.74-4.241-3.74-4.241-1.587,3.973.507,6.645a43.722,43.722,0,0,0,5.082,5.249Z" transform="translate(-426.627 -302.663)" fill="#3183c5"/>
      <path id="Path_76831" data-name="Path 76831" d="M429.18,322.79a50.336,50.336,0,0,0,1.611,5.327c1.837,4.837,4.82,7.647,6.561,12.007s0,10.659,1.73,16.343,4.569,8.518,4.593,12.526-1.551,15.073-1.551,15.073" transform="translate(-421.569 -273.044)" fill="none" stroke="#263238" stroke-linecap="round" stroke-linejoin="round" stroke-width="1"/>
      <line id="Line_177" data-name="Line 177" x1="2.994" y1="1.569" transform="translate(5.81 52.705)" fill="none" stroke="#263238" stroke-linecap="round" stroke-linejoin="round" stroke-width="1"/>
      <line id="Line_178" data-name="Line 178" y1="2.153" x2="0.763" transform="translate(8.279 49.806)" fill="none" stroke="#263238" stroke-linecap="round" stroke-linejoin="round" stroke-width="1"/>
      <path id="Path_76832" data-name="Path 76832" d="M439.168,349.821s-2.5-1.276-5.058-2.541" transform="translate(-423.558 -282.926)" fill="none" stroke="#263238" stroke-linecap="round" stroke-linejoin="round" stroke-width="1"/>
      <path id="Path_76833" data-name="Path 76833" d="M439.73,341.542a36.24,36.24,0,0,1,2.893-6.692" transform="translate(-425.826 -277.91)" fill="none" stroke="#263238" stroke-linecap="round" stroke-linejoin="round" stroke-width="1"/>
      <path id="Path_76834" data-name="Path 76834" d="M441.128,373.171a27.824,27.824,0,0,0-5.828-5.511" transform="translate(-424.038 -291.15)" fill="none" stroke="#263238" stroke-linecap="round" stroke-linejoin="round" stroke-width="1"/>
      <path id="Path_76835" data-name="Path 76835" d="M446.5,375.919a31.54,31.54,0,0,1,1.61-4.963c.96-2.129,1.1-2.386,1.1-2.386" transform="translate(-428.558 -291.517)" fill="none" stroke="#263238" stroke-linecap="round" stroke-linejoin="round" stroke-width="1"/>
      <path id="Path_76836" data-name="Path 76836" d="M453.28,401.8a25.883,25.883,0,0,1,3.215-3.34,17.6,17.6,0,0,0,2.094-1.819" transform="translate(-431.294 -302.844)" fill="none" stroke="#263238" stroke-linecap="round" stroke-linejoin="round" stroke-width="1"/>
      <path id="Path_76837" data-name="Path 76837" d="M449.545,395.729a29.374,29.374,0,0,0-2.684-3.71,26.38,26.38,0,0,0-3.161-2.929" transform="translate(-427.428 -299.798)" fill="none" stroke="#263238" stroke-linecap="round" stroke-linejoin="round" stroke-width="1"/>
      <path id="Path_76838" data-name="Path 76838" d="M448.935,410.452a7.576,7.576,0,0,0-1.336-3.764c-1.229-1.622-2.678-3.782-3.269-4.629" transform="translate(-427.682 -305.031)" fill="none" stroke="#263238" stroke-linecap="round" stroke-linejoin="round" stroke-width="1"/>
      <path id="Path_76839" data-name="Path 76839" d="M456.966,447.812H445.7c-.489,0-.883-.6-.883-1.288L442,425.76h18.622l-2.792,20.763C457.854,447.233,457.461,447.812,456.966,447.812Z" transform="translate(-426.742 -314.595)" fill="#263238" stroke="#263238" stroke-linecap="round" stroke-linejoin="round" stroke-width="1"/>
      <line id="Line_179" data-name="Line 179" x2="13.403" transform="translate(16.016 114.78)" fill="none" stroke="#fff" stroke-linecap="round" stroke-linejoin="round" stroke-width="1"/>
      <line id="Line_180" data-name="Line 180" x2="2.207" transform="translate(30.683 114.78)" fill="none" stroke="#fff" stroke-linecap="round" stroke-linejoin="round" stroke-width="1"/>
    </g>
    <g id="freepik--character-3--inject-21" transform="translate(166.052 70.757)">
      <path id="Path_76840" data-name="Path 76840" d="M284.808,443.991s-3.143,3.925-5.028,4.867-7.223,2.827-7.384,4.241a21.83,21.83,0,0,0-.155,2.356h24.825s.471-.6.31-2.827-1.724-9.108-1.724-9.108Z" transform="translate(-272.24 -238.619)" fill="#fff" stroke="#263238" stroke-linecap="round" stroke-linejoin="round" stroke-width="1"/>
      <path id="Path_76841" data-name="Path 76841" d="M297.409,460.37H272.357c-.107,1.151-.107,1.885-.107,1.885h24.825A3.589,3.589,0,0,0,297.409,460.37Z" transform="translate(-272.244 -245.418)" fill="#fff" stroke="#263238" stroke-linecap="round" stroke-linejoin="round" stroke-width="1"/>
      <path id="Path_76842" data-name="Path 76842" d="M359.315,454.779s-.173-4.366,0-6.287a27.834,27.834,0,0,0-.155-4.712h10.367s1.1,4.241,2.2,5.81,2.356,3.776,2.356,4.557v1.414H359.476Z" transform="translate(-307.314 -238.724)" fill="#fff" stroke="#263238" stroke-linecap="round" stroke-linejoin="round" stroke-width="1"/>
      <path id="Path_76843" data-name="Path 76843" d="M374.169,460.95a1.312,1.312,0,0,0-.048-.31H359.37l.03.942.161.781h14.608Z" transform="translate(-307.399 -245.527)" fill="#fff" stroke="#263238" stroke-linecap="round" stroke-linejoin="round" stroke-width="1"/>
      <path id="Path_76844" data-name="Path 76844" d="M296.743,264.538s-4.4,25.213-4.987,38.121-1.467,28.148-.292,35.478.877,27.271.877,27.271-2.929,2.052-2.052,4.694l.883,2.636,12.753,3.078a31.757,31.757,0,0,0,.734-5.13c.292-3.519-.6-4.694-.6-6.746s6.591-41.616,6.883-42.785,3.382-33.456,3.382-33.456l1.873,6.52s5.792,29.961,7.551,38.771,6.114,26.245,6.114,28.631.292,4.4.292,6.448-.877,1.467,0,3.519,1.467,3.817,1.467,3.817l11.333.3a31.411,31.411,0,0,1-.513-7.343c.292-3.227,0-8.214.292-12.9s2.052-18.491.883-25.219-2.35-5.869-2.35-12.025v-37.56c0-5.273-2.929-16.421-2.929-16.421s-20.823,2.058-28.154,1.467S296.743,264.538,296.743,264.538Z" transform="translate(-279.457 -166.275)" fill="#263238" stroke="#263238" stroke-linecap="round" stroke-linejoin="round" stroke-width="1"/>
      <path id="Path_76845" data-name="Path 76845" d="M313.931,264.8a33.725,33.725,0,0,0,22.022.191l-.6-3.09s-11.786.191-15.652-.388-5.965-.769-5.965-.769" transform="translate(-288.986 -164.863)" fill="#5e5e5e" stroke="#263238" stroke-linecap="round" stroke-linejoin="round" stroke-width="1"/>
      <rect id="Rectangle_19717" data-name="Rectangle 19717" width="3.949" height="2.332" transform="translate(32.408 98.951) rotate(5.04)" fill="#fff" stroke="#263238" stroke-linecap="round" stroke-linejoin="round" stroke-width="1"/>
      <path id="Path_76846" data-name="Path 76846" d="M328.827,161.94s-8.309,1.933-11.208,3.09-3.477,24.151-3.477,32.657-2.32,22.988-1.736,23.764,3.859,2.7,11.2,2.7A54.464,54.464,0,0,0,335.591,223s-3.1-13.122.6-25.7,5.6-28.983,4.247-31.691S328.827,161.94,328.827,161.94Z" transform="translate(-288.41 -124.995)" fill="#3183c5" stroke="#263238" stroke-linecap="round" stroke-linejoin="round" stroke-width="1"/>
      <path id="Path_76847" data-name="Path 76847" d="M331.128,188.05s-3.018,25.386-3.018,44.736" transform="translate(-294.785 -135.531)" fill="none" stroke="#263238" stroke-linecap="round" stroke-linejoin="round" stroke-width="1"/>
      <path id="Path_76848" data-name="Path 76848" d="M335.113,191.046a.6.6,0,1,1-.6-.6A.6.6,0,0,1,335.113,191.046Z" transform="translate(-297.129 -136.499)" fill="#263238"/>
      <path id="Path_76849" data-name="Path 76849" d="M333.533,205.6a.6.6,0,1,1-.6-.6A.6.6,0,0,1,333.533,205.6Z" transform="translate(-296.492 -142.37)" fill="#263238"/>
      <path id="Path_76850" data-name="Path 76850" d="M332.243,221.666a.6.6,0,1,1-.6-.6A.6.6,0,0,1,332.243,221.666Z" transform="translate(-295.971 -148.855)" fill="#263238"/>
      <circle id="Ellipse_7635" data-name="Ellipse 7635" cx="0.602" cy="0.602" r="0.602" transform="translate(34.637 81.729)" fill="#263238"/>
      <circle id="Ellipse_7636" data-name="Ellipse 7636" cx="0.602" cy="0.602" r="0.602" transform="translate(33.778 91.589)" fill="#263238"/>
      <path id="Path_76851" data-name="Path 76851" d="M288.945,175.743s-.752,5.822-.752,8.8-6.83,17.268-7.82,19.248a42.454,42.454,0,0,0-3.084,7.223c-1.485,4.295-1.193,9.824-.364,11.333s5.494,1.569,8.631-.251,6.275-8.094,7.1-16.188.161-23.632-.167-26.6S290.853,175.039,288.945,175.743Z" transform="translate(-273.854 -130.489)" fill="#5e5e5e" stroke="#263238" stroke-linecap="round" stroke-linejoin="round" stroke-width="1"/>
      <path id="Path_76852" data-name="Path 76852" d="M287.13,225.73a8.477,8.477,0,0,1,6.06,7.82" transform="translate(-278.248 -150.735)" fill="none" stroke="#263238" stroke-linecap="round" stroke-linejoin="round" stroke-width="1"/>
      <path id="Path_76853" data-name="Path 76853" d="M285.49,221.638s1.366-1.76,3.907.2" transform="translate(-277.587 -148.791)" fill="none" stroke="#263238" stroke-linecap="round" stroke-linejoin="round" stroke-width="1"/>
      <path id="Path_76854" data-name="Path 76854" d="M312.388,174.464s-3.287,27.629-4.062,38.252-3.859,24.539-5.6,28.4S292.68,250.2,292.68,250.2s1.545-13.719,2.511-22.988,2.32-20.877,2.32-26.841-2.129-27.05-1.933-29.174,16.23-6.955,16.23-6.955A26.669,26.669,0,0,1,312.388,174.464Z" transform="translate(-280.488 -125.923)" fill="#5e5e5e" stroke="#263238" stroke-linecap="round" stroke-linejoin="round" stroke-width="1"/>
      <path id="Path_76855" data-name="Path 76855" d="M316.449,205.665c1.223-12.526,3.442-31.214,3.442-31.214a26.669,26.669,0,0,0-.6-10.241s-.841.251-2.129.662L311.2,175.7l5.7,1.9-5.458,4.038Z" transform="translate(-287.961 -125.911)" fill="#263238" stroke="#263238" stroke-linecap="round" stroke-linejoin="round" stroke-width="1"/>
      <path id="Path_76856" data-name="Path 76856" d="M431.3,219.581s1.515-6.919,1.086-8.864-4.772-.215-4.772,1.945S430,218.5,431.3,219.581Z" transform="translate(-334.936 -144.336)" fill="#263238" stroke="#263238" stroke-linecap="round" stroke-linejoin="round" stroke-width="1"/>
      <path id="Path_76857" data-name="Path 76857" d="M429.147,199.408a21.087,21.087,0,0,0,3.239-3.239,23.864,23.864,0,0,1,2.595-3.245c.65-.65,4.324-1.515,5.4-3.239s2.595-1.95,2.595-.221-3.03,3.674-3.03,3.674a50.576,50.576,0,0,0,5.839,1.3c1.068,0,6.7-1.3,6.7,0s-3.46,5.4-5.4,6.048-13.832,3.03-13.832,3.03l-3.46,3.674S427.847,203.082,429.147,199.408Z" transform="translate(-335.375 -135.621)" fill="#fff" stroke="#263238" stroke-linecap="round" stroke-linejoin="round" stroke-width="1"/>
      <path id="Path_76858" data-name="Path 76858" d="M466.088,196.64s.96-3.048.262-2.875-2.094,3.048-2.267,4.175S466.088,196.64,466.088,196.64Z" transform="translate(-349.65 -137.834)" fill="#fff" stroke="#263238" stroke-linecap="round" stroke-linejoin="round" stroke-width="1"/>
      <path id="Path_76859" data-name="Path 76859" d="M463.2,201.952a13.875,13.875,0,0,0,2.982-3.871c1.056-2.207.358-2.171-.382-1.616s-1.593,2.595-2.183,3.507-1.193,1.748-1.193,1.748" transform="translate(-348.982 -138.798)" fill="#fff" stroke="#263238" stroke-linecap="round" stroke-linejoin="round" stroke-width="1"/>
      <path id="Path_76860" data-name="Path 76860" d="M459.887,203.925a5.9,5.9,0,0,0,3.358-2.893c1.133-2.267,1.133-2.982.352-2.529a6.725,6.725,0,0,0-2.177,2.44,6.066,6.066,0,0,1-2.01,1.915" transform="translate(-347.768 -139.696)" fill="#fff" stroke="#263238" stroke-linecap="round" stroke-linejoin="round" stroke-width="1"/>
      <path id="Path_76861" data-name="Path 76861" d="M435.48,205.881a16.807,16.807,0,0,1,2.213-3.137c.74-.555,9.955.74,9.955.74s4.175-4.259,4.724-3.889-1.73,4.175-2.141,4.814-8.112,2.028-8.112,2.028" transform="translate(-338.111 -140.18)" fill="#fff" stroke="#263238" stroke-linecap="round" stroke-linejoin="round" stroke-width="1"/>
      <path id="Path_76862" data-name="Path 76862" d="M380.589,173.176s2.595,13.4,4.324,18.371,3.024,8.864,3.024,8.864a1.139,1.139,0,0,1,1.515.865l.429,1.294,17.077-10.587a52.346,52.346,0,0,0,.435,6.913,43.1,43.1,0,0,0,1.724,5.84s-10.8,8.643-14.912,11.452-10.14,4.539-11.673,4.324-9.943-14.047-9.943-14.047,3.245-18.807,3.674-25.052S379.485,172.532,380.589,173.176Z" transform="translate(-312.734 -129.49)" fill="#5e5e5e" stroke="#263238" stroke-linecap="round" stroke-linejoin="round" stroke-width="1"/>
      <path id="Path_76863" data-name="Path 76863" d="M399.926,222.52s-2.386,2.505-2.386,5.243" transform="translate(-322.802 -149.44)" fill="none" stroke="#263238" stroke-linecap="round" stroke-linejoin="round" stroke-width="1"/>
      <path id="Path_76864" data-name="Path 76864" d="M395.217,218.9s-3.746,3.883-4.527,8.351" transform="translate(-320.037 -147.979)" fill="none" stroke="#263238" stroke-linecap="round" stroke-linejoin="round" stroke-width="1"/>
      <path id="Path_76865" data-name="Path 76865" d="M364.362,184.033s-4.444,26.841-3.477,32.848,10.432,28.207,10.432,28.207c-16.7,6.179-21.473,3.1-23.376,1.67-1.247-.936-4.062-18.67-5.995-27.945s-.6-18.55,2.32-29.561,3.865-26.662,3.865-26.662,8.112,4.056,12.944,4.635,6.179.2,6.764,2.708-.966,6.955-.966,7.533" transform="translate(-300.003 -125.257)" fill="#5e5e5e" stroke="#263238" stroke-linecap="round" stroke-linejoin="round" stroke-width="1"/>
      <path id="Path_76866" data-name="Path 76866" d="M345.66,195.219c3.084-6.412,9.764-16.862,9.764-16.862l-6.174-2.386,7.122-2.386-2.267-8.458c-3.185-1.247-5.851-2.577-5.851-2.577s-.966,15.652-3.865,26.662a90.8,90.8,0,0,0-3.12,17.357,92.748,92.748,0,0,1,4.39-11.351Z" transform="translate(-300.095 -125.241)" fill="#263238" stroke="#263238" stroke-linecap="round" stroke-linejoin="round" stroke-width="1"/>
      <path id="Path_76867" data-name="Path 76867" d="M353.78,262.953l12.973-3.513.441,2.2-8.136,2.2" transform="translate(-305.143 -164.338)" fill="none" stroke="#263238" stroke-linecap="round" stroke-linejoin="round" stroke-width="1"/>
      <path id="Path_76868" data-name="Path 76868" d="M324.5,162.8a10.957,10.957,0,0,0-2.941,6.114c-.4,2.845-.418,5.875-1.927,8.321,3.483.418,5.625-4.849,9.12-4.563,1.581.131,2.791,1.384,4.038,2.386a14.346,14.346,0,0,0,3.579,2.1.758.758,0,0,0,1.193-.638q.889-3.638,1.76-7.277c.7-2.875,1.3-6.221-.537-8.548-1.473-1.861-4.175-2.386-6.5-1.962A15.067,15.067,0,0,0,324.5,162.8Z" transform="translate(-291.363 -123.646)" fill="#3183c5" stroke="#263238" stroke-linecap="round" stroke-linejoin="round" stroke-width="1"/>
      <path id="Path_76869" data-name="Path 76869" d="M312.857,115.913s-1.157,3.865-.966,5.6.191,2.517-.6,2.9-3.269,2.112-3.072,3.3,2.314,2.9,2.314,2.9a50.459,50.459,0,0,0,.388,6.179c.388,2.517,1.545,2.9,2.123,3.1a20.2,20.2,0,0,0,3.477,0,84.965,84.965,0,0,0,3.865,11.2c1.933,4.044,2.511,5.995,3.287,4.831s7.533-9.466,8.5-13.122a51.353,51.353,0,0,0,1.157-9.12s3.865-5.8-2.511-13.331-11.2-8.112-13.719-7.754S312.857,115.913,312.857,115.913Z" transform="translate(-286.755 -105.051)" fill="#fff" stroke="#263238" stroke-linecap="round" stroke-linejoin="round" stroke-width="1"/>
      <path id="Path_76870" data-name="Path 76870" d="M313.2,105.649s-7.724-.2-6.955,4.056,12.943.966,12.943.966-2.314,3.668-.382,4.831,3.668.96,3.668,1.545-.966,1.545.775,2.314,4.056.6,4.247,2.511-2.9,5.607-1.545,6.764,6.376,1.933,7.534.388,5.219-4.831,6.376-13.522-2.511-12.753-6.179-14.107-3.287,2.32-3.287,2.32-9.466-5.219-15.455-3.287S313.2,105.649,313.2,105.649Z" transform="translate(-285.939 -100)" fill="#263238" stroke="#263238" stroke-linecap="round" stroke-linejoin="round" stroke-width="1"/>
      <path id="Path_76871" data-name="Path 76871" d="M330.1,132.579s1.354-4.831,3.865-4.056,1.933,5.792.6,7.533a3.454,3.454,0,0,1-3.477,1.157s-1.157,3.477-4.056,4.831l-2.9,1.354" transform="translate(-293.179 -111.476)" fill="#fff" stroke="#263238" stroke-linecap="round" stroke-linejoin="round" stroke-width="1"/>
      <path id="Path_76872" data-name="Path 76872" d="M316,127.18s1.736-1.736,2.32.6" transform="translate(-289.898 -110.717)" fill="none" stroke="#263238" stroke-linecap="round" stroke-linejoin="round" stroke-width="1"/>
      <path id="Path_76873" data-name="Path 76873" d="M317.286,132.065c0,.853-.215,1.545-.483,1.545s-.483-.692-.483-1.545.221-1.545.483-1.545S317.286,131.212,317.286,132.065Z" transform="translate(-290.027 -112.316)" fill="#263238"/>
      <path id="Path_76874" data-name="Path 76874" d="M286.491,255.179s3.633-3.137,4.772-6.281-1.789-5.452-3.633-3.8S286.491,255.179,286.491,255.179Z" transform="translate(-277.937 -158.329)" fill="#fff" stroke="#263238" stroke-linecap="round" stroke-linejoin="round" stroke-width="1"/>
      <path id="Path_76875" data-name="Path 76875" d="M293,238.123l14.709-1.813.328,15.7H295.64l-3.8-12.562Z" transform="translate(-280.149 -155.005)" fill="#263238" stroke="#263238" stroke-linecap="round" stroke-linejoin="round" stroke-width="1"/>
      <path id="Path_76876" data-name="Path 76876" d="M283.91,233.739s6.114,6.776,6.609,7.271-1.151,2.642-2.308,4.295a10.694,10.694,0,0,1-3.805,2.809l-1.98,5.452s-5.786-6.937-6.114-9.746,2.314-7.754,3.3-8.947a6.657,6.657,0,0,1,1.819-1.652" transform="translate(-273.871 -153.758)" fill="#5e5e5e" stroke="#263238" stroke-linecap="round" stroke-linejoin="round" stroke-width="1"/>
      <path id="Path_76877" data-name="Path 76877" d="M295.024,245.45s3.143,0,3.967.5,2.809,4.134,3.967,4.629.99,1.652.5,1.789a8.643,8.643,0,0,1-3.3-.823c-.5-.328-2.481-1.324-2.481-1.324s3.31,3.3,3.967,3.967,1.324,1.652.662,2.314-3.471.662-3.471.662a5.345,5.345,0,0,1-6.609,1.157c-1.479-.99-2.314-3.143-2.314-5.291S295.024,245.45,295.024,245.45Z" transform="translate(-279.366 -158.693)" fill="#fff" stroke="#263238" stroke-linecap="round" stroke-linejoin="round" stroke-width="1"/>
    </g>
    <g id="freepik--character-2--inject-21" transform="translate(103.855 69.788)">
      <path id="Path_76878" data-name="Path 76878" d="M244.686,203.758s3.448,18.192,4.706,25.356,4.175,20.555,4.175,20.555,2.32,9.729,2.016,12.806-1.449,6.406-2.535,7.45-3.358.811-3.615.131.674-1.9.674-1.9-2.106,1.432-2.654.394,1.145-1.688,1.145-1.688-1.718-.823-1.312-1.6,2.022-.6,2.022-.6-1.837-2.982-1.593-5.4a57.4,57.4,0,0,1,1.241-5.935c.048-.489-5.112-12.949-5.112-12.949s-5.171-17.96-7.193-24.05.913-11.93,2.129-12.633S244.686,203.758,244.686,203.758Z" transform="translate(-195.403 -140.757)" fill="#fff" stroke="#263238" stroke-linecap="round" stroke-linejoin="round" stroke-width="1"/>
      <path id="Path_76879" data-name="Path 76879" d="M262.4,292.58s-1.789,3.1-1.032,5.47,1.157,3.221,1.092,3.871-1.664,3.579-1.76,4.575,1.408.632,2.35-.6,1.861-.638,2.249-4.527a29.185,29.185,0,0,0-.662-8.255" transform="translate(-205.383 -176.743)" fill="#fff" stroke="#263238" stroke-linecap="round" stroke-linejoin="round" stroke-width="1"/>
      <path id="Path_76880" data-name="Path 76880" d="M253.591,249.673s-2.935-13.391-4.175-20.555-4.724-25.374-4.724-25.374-4.67-.787-5.887-.089-4.175,6.561-2.129,12.639,7.193,24.05,7.193,24.05,5.16,12.466,5.112,12.949l5.07-1.622C253.782,250.46,253.591,249.673,253.591,249.673Z" transform="translate(-195.408 -140.743)" fill="#3183c5" stroke="#263238" stroke-linecap="round" stroke-linejoin="round" stroke-width="1"/>
      <path id="Path_76881" data-name="Path 76881" d="M253.041,443.53s8.553.8,11.733.2,6.561.793,6.961,2.183-.2,2.786-4.378,4.575-6.955,1.593-12.126,2.786-6.758,1.986-8.351,1.39-2.189-7.754-2.189-7.754Z" transform="translate(-198.926 -237.655)" fill="#fff" stroke="#263238" stroke-linecap="round" stroke-linejoin="round" stroke-width="1"/>
      <path id="Path_76882" data-name="Path 76882" d="M253.041,443.53s8.553.8,11.733.2,6.561.793,6.961,2.183-.2,2.786-4.378,4.575-6.955,1.593-12.126,2.786-6.758,1.986-8.351,1.39-2.189-7.754-2.189-7.754Z" transform="translate(-198.926 -237.655)" fill="#263238" stroke="#263238" stroke-linecap="round" stroke-linejoin="round" stroke-width="1"/>
      <path id="Path_76883" data-name="Path 76883" d="M272.426,445.96c-.388-1.348-3.579-2.7-6.686-2.225l.919,5.207s-6.162,1-12.329,2.589a52.6,52.6,0,0,1-7.879,1.408c.3.907.674,1.6,1.121,1.789,1.593.6,3.179-.2,8.351-1.39s7.951-1,12.126-2.786S272.838,447.356,272.426,445.96Z" transform="translate(-199.636 -237.699)" fill="#fff" stroke="#263238" stroke-linecap="round" stroke-linejoin="round" stroke-width="1"/>
      <path id="Path_76884" data-name="Path 76884" d="M187.563,445.214s.793,3.179,3.579,3.776,5.965,3.382,5.965,4.772-1.4,1.986-6.764,1.986-8.386.477-10.772-.919-1.354-7.432-.954-9.615S187.563,445.214,187.563,445.214Z" transform="translate(-172.034 -237.943)" fill="#263238" stroke="#263238" stroke-linecap="round" stroke-linejoin="round" stroke-width="1"/>
      <path id="Path_76885" data-name="Path 76885" d="M197.059,458.162c0-.775-1-1.986-2.356-3.012a16.11,16.11,0,0,0-4.6,1.223c-1.789,1-1.789,1.986-1.789,1.986s-5.07,1.056-7.4-.119a15.243,15.243,0,0,1-2.982-2.052,3.676,3.676,0,0,0,1.6,3.042c2.386,1.4,5.4.919,10.772.919S197.059,459.552,197.059,458.162Z" transform="translate(-171.986 -242.344)" fill="#fff" stroke="#263238" stroke-linecap="round" stroke-linejoin="round" stroke-width="1"/>
      <path id="Path_76886" data-name="Path 76886" d="M222.34,272.989s1.193,6.162,2.386,14.715,1,30.217,1,39.964.2,39.964.2,40.954v2.589s-8.75,3.579-9.347,3.579-2.982-14.912-4.772-22.869a109.864,109.864,0,0,1-2.8-21.073,94.4,94.4,0,0,0-.8-9.74c0-.99-5.762-31.22-5.762-31.22s-5.171,33.605-6.561,40.56-7.754,37.381-8.154,39.171a24.748,24.748,0,0,0-.4,4.372l-8.351-.793s-.2-10.337-.394-18.688-1-15.508-.4-20.877,2.386-14.715,2.583-15.711-.6-23.459-.6-25.648.6-21.073.6-21.073l27.438.4Z" transform="translate(-172.001 -168.115)" fill="#263238" stroke="#263238" stroke-linecap="round" stroke-linejoin="round" stroke-width="1"/>
      <path id="Path_76887" data-name="Path 76887" d="M238.69,436.839l2.589,7.557,12.126-5.768-2.189-6.758Z" transform="translate(-196.504 -232.95)" fill="#fff" stroke="#263238" stroke-linecap="round" stroke-linejoin="round" stroke-width="1"/>
      <path id="Path_76888" data-name="Path 76888" d="M176.69,437.53l12.526,1.193v4.772l-12.323.4Z" transform="translate(-171.486 -235.234)" fill="#fff" stroke="#263238" stroke-linecap="round" stroke-linejoin="round" stroke-width="1"/>
      <path id="Path_76889" data-name="Path 76889" d="M191.993,167.02s-10.42,2.523-13.952,3.865-4.366,2.857-4.873,4.873,5.04,40.614,5.547,44.646-1.008,9.579,1.849,12.437,17.244,3.979,25.207,3.865c7.635-.113,13.361-1.408,14.876-4.265s1.092-4.14,1.092-10.188-.507-26.889-1.008-34.6-.34-11.261-3.2-13.278-7.9-7.337-10.921-7.5S194.343,165.678,191.993,167.02Z" transform="translate(-170.051 -125.802)" fill="#3183c5" stroke="#263238" stroke-linecap="round" stroke-linejoin="round" stroke-width="1"/>
      <path id="Path_76890" data-name="Path 76890" d="M205.963,200.932l-4.831-7.522-4.831,7.522,4.831,7.516Z" transform="translate(-179.399 -136.725)" fill="#fff"/>
      <path id="Path_76891" data-name="Path 76891" d="M224.423,200.932l-4.831-7.522-4.831,7.522,4.831,7.516Z" transform="translate(-186.848 -136.725)" fill="#fff"/>
      <path id="Path_76892" data-name="Path 76892" d="M242.877,200.932l-4.831-7.522-4.825,7.522,4.825,7.516Z" transform="translate(-194.297 -136.725)" fill="#fff"/>
      <path id="Path_76893" data-name="Path 76893" d="M205.963,228.432l-4.831-7.522-4.831,7.522,4.831,7.522Z" transform="translate(-179.399 -147.822)" fill="#fff"/>
      <path id="Path_76894" data-name="Path 76894" d="M224.423,228.432l-4.831-7.522-4.831,7.522,4.831,7.522Z" transform="translate(-186.848 -147.822)" fill="#fff"/>
      <path id="Path_76895" data-name="Path 76895" d="M242.877,228.432l-4.831-7.522-4.825,7.522,4.825,7.522Z" transform="translate(-194.297 -147.822)" fill="#fff"/>
      <path id="Path_76896" data-name="Path 76896" d="M205.963,255.936l-4.831-7.516-4.831,7.516,4.831,7.522Z" transform="translate(-179.399 -158.923)" fill="#fff"/>
      <path id="Path_76897" data-name="Path 76897" d="M224.423,255.936l-4.831-7.516-4.831,7.516,4.831,7.522Z" transform="translate(-186.848 -158.923)" fill="#fff"/>
      <path id="Path_76898" data-name="Path 76898" d="M242.877,255.936l-4.831-7.516-4.825,7.516,4.825,7.522Z" transform="translate(-194.297 -158.923)" fill="#fff"/>
      <path id="Path_76899" data-name="Path 76899" d="M208.091,162s-3.191,1.849-3.7,3.191-2.183,4.873-2.183,4.873l3.191,9.078,4.873-5.887,1.849-.841,4.539.173,5.368,6.561a33.947,33.947,0,0,0,0-9.752c-.841-4.205-2.386-5.881-4.205-6.561S209.606,162,208.091,162Z" transform="translate(-181.784 -124.05)" fill="#fff" stroke="#263238" stroke-linecap="round" stroke-linejoin="round" stroke-width="1"/>
      <path id="Path_76900" data-name="Path 76900" d="M210.267,155.933s-.167,5.368-.167,6.388,6.722,11.6,7.9,10.587,4.175-9.412,4.175-9.412l1.342-10.737Z" transform="translate(-184.968 -120.322)" fill="#fff" stroke="#263238" stroke-linecap="round" stroke-linejoin="round" stroke-width="1"/>
      <path id="Path_76901" data-name="Path 76901" d="M204.194,127.807s-2.022-3.531-2.69-.841.334,5.368,1.342,5.213S204.194,127.807,204.194,127.807Z" transform="translate(-181.412 -109.506)" fill="#fff" stroke="#263238" stroke-linecap="round" stroke-linejoin="round" stroke-width="1"/>
      <path id="Path_76902" data-name="Path 76902" d="M205.854,107.08s-3.364,4.879-3.364,7.754a9.544,9.544,0,0,0,1.348,4.873l4.032-11.261Z" transform="translate(-181.897 -101.889)" fill="#263238" stroke="#263238" stroke-linecap="round" stroke-linejoin="round" stroke-width="1"/>
      <path id="Path_76903" data-name="Path 76903" d="M206.97,107.423s-2.517,5.881-2.69,7.563-2.35,11.93-2.35,15.294,1.193,4.175,4.032,5.547,9.746,1.342,12.269,0,4.706-6.561,4.706-6.561,4.873-1.193,4.539-4.205-3.364-1.676-3.364-1.676,2.183-4.038,2.183-7.4-12.264-8.905-14.286-9.245A13.148,13.148,0,0,0,206.97,107.423Z" transform="translate(-181.671 -101.725)" fill="#fff" stroke="#263238" stroke-linecap="round" stroke-linejoin="round" stroke-width="1"/>
      <path id="Path_76904" data-name="Path 76904" d="M207.291,98.516c-2.273.286-4.229,1.151-3.34,3.376,1.348,3.358,3.531,5.04,7.563,6.382s8.911,1.849,9.746,3.2-1.676,2.35-.668,3.191l2.016,1.682s-3.865,11.762-4.205,12.269-3.692.167-4.533-1.193-.507-3.7-2.189-4.175-7.056-1.849-7.557-1.193a10.606,10.606,0,0,0-2.523,4.175c-.674,2.356-1.193,7.563,2.35,8.571s10.587.841,12.436-.167,4.205-2.69,4.873-4.706,2.022-7.4,3.364-10.42,5.207-6.388,3.531-10.921-13.122-9.746-16.1-10.086A21.874,21.874,0,0,0,207.291,98.516Z" transform="translate(-181.342 -98.377)" fill="#263238" stroke="#263238" stroke-linecap="round" stroke-linejoin="round" stroke-width="1"/>
      <path id="Path_76905" data-name="Path 76905" d="M220.207,126.723c-.209.763-.632,1.312-.942,1.193s-.4-.775-.191-1.533.632-1.306.948-1.193S220.415,125.965,220.207,126.723Z" transform="translate(-188.543 -109.191)" fill="#263238"/>
      <path id="Path_76906" data-name="Path 76906" d="M209.643,123.757c-.209.758-.632,1.306-.948,1.193s-.4-.769-.185-1.533.632-1.306.942-1.223S209.851,122.994,209.643,123.757Z" transform="translate(-184.278 -107.984)" fill="#263238"/>
      <path id="Path_76907" data-name="Path 76907" d="M220,120.871a3.088,3.088,0,0,1,3.531,2.69" transform="translate(-188.963 -107.442)" fill="none" stroke="#263238" stroke-linecap="round" stroke-linejoin="round" stroke-width="2"/>
      <path id="Path_76908" data-name="Path 76908" d="M210.417,118.805a2.2,2.2,0,0,0-2.857-.167" transform="translate(-183.943 -106.385)" fill="none" stroke="#263238" stroke-linecap="round" stroke-linejoin="round" stroke-width="2"/>
      <path id="Path_76909" data-name="Path 76909" d="M211.527,121.74l-.674,3.525s-4.175,3.531-3.364,5.547,4.873.334,4.873.334" transform="translate(-183.872 -107.805)" fill="none" stroke="#263238" stroke-linecap="round" stroke-linejoin="round" stroke-width="1"/>
      <path id="Path_76910" data-name="Path 76910" d="M210.055,144.12a5.279,5.279,0,0,1-3.519-1.229.758.758,0,0,1,.99-1.139,4.473,4.473,0,0,0,4.283.6.753.753,0,1,1,.429,1.443,7.755,7.755,0,0,1-2.183.328Z" transform="translate(-183.443 -115.821)" fill="#fff" stroke="#263238" stroke-linecap="round" stroke-linejoin="round" stroke-width="1"/>
      <path id="Path_76911" data-name="Path 76911" d="M209.974,305.144a44.828,44.828,0,0,0-4.086-9.311c-1.092-1.724-1.259-1.825-2.386-3.579l-.65-.925-5.7,2.738s1.306,5.243,1.676,6.561a12.865,12.865,0,0,0,2.213,3.579l.1.477.358,2.314a21.6,21.6,0,0,0,0,3.108c.233.722,1.014-.149,1.193-1.068.119-.692.251-2.428.31-3.209l.1.036c.1.662.286,1.9.352,2.32a8.732,8.732,0,0,0,1.044,2.953c.567.805,1.014-.155,1.026-1.044,0-.716-.37-3.382-.525-4.4h.107a25.043,25.043,0,0,1,1.068,2.845c.083.6.37,2.463,1.02,2.809s1.115-.465,1.062-1.789a37.131,37.131,0,0,0-.746-4.289h.3a9.006,9.006,0,0,1,1.038,2.267c.137.871.268,1.742,1.092,1.318S210.272,306.14,209.974,305.144Z" transform="translate(-179.742 -176.238)" fill="#fff" stroke="#263238" stroke-linecap="round" stroke-linejoin="round" stroke-width="1"/>
      <path id="Path_76912" data-name="Path 76912" d="M174.273,175.93s-3.7,1.193-4.706,4.372-2.2,36.981-1.265,39.719,16.94,28.72,16.94,28.72l6.508-3.03-12.926-29.18,2.678-29.019" transform="translate(-167.965 -129.672)" fill="#3183c5" stroke="#263238" stroke-linecap="round" stroke-linejoin="round" stroke-width="1"/>
    </g>
    <g id="freepik--character-1--inject-21" transform="translate(46.491 81.127)">
      <path id="Path_76913" data-name="Path 76913" d="M144.139,121.33s6.746-.054,9.711,3.579-1.139,8.81-1.622,10.617-3.466,10.981-2.911,15.353,1.789,5.255,3.34,5.165,1.1.74.06,2.249-4.283,2.106-5.094,1.235a20.283,20.283,0,0,1-2.78-5.01c-.907-2.135-.9-2.559-.531-9.287s1.64-15.252,1.157-17.518S144.139,121.33,144.139,121.33Z" transform="translate(-100.962 -118.977)" fill="#263238" stroke="#263238" stroke-linecap="round" stroke-linejoin="round" stroke-width="1"/>
      <path id="Path_76914" data-name="Path 76914" d="M169.409,225.387s3.973,15.443,5.446,21.533,4.772,17.435,4.772,17.435,2.529,8.237,2.44,10.9-.889,5.589-1.789,6.561-2.839.889-3.1.316.477-1.67.477-1.67-1.73,1.348-2.261.489.895-1.515.895-1.515-1.527-.6-1.223-1.306,1.706-.644,1.706-.644-1.742-2.446-1.67-4.551a46.137,46.137,0,0,1,.74-5.171c0-.423-5.112-10.85-5.112-10.85s-4.259-15.174-6.335-20.28-1.056-10.289-.048-10.957S169.409,225.387,169.409,225.387Z" transform="translate(-108.672 -160.923)" fill="#fff" stroke="#263238" stroke-linecap="round" stroke-linejoin="round" stroke-width="1"/>
      <path id="Path_76915" data-name="Path 76915" d="M189.1,300.88s-1.354,2.768-.6,4.772,1.193,2.708,1.151,3.269-1.229,3.185-1.259,4.032,1.247.459,1.986-.638,1.569-.65,1.682-4.014a25.051,25.051,0,0,0-1.026-7.056" transform="translate(-118.796 -191.43)" fill="#fff" stroke="#263238" stroke-linecap="round" stroke-linejoin="round" stroke-width="1"/>
      <path id="Path_76916" data-name="Path 76916" d="M169.411,225.373s-4.062-.418-5.064.251-2.028,5.834.048,10.957c1.455,3.579,3.978,12.114,5.368,16.892l2.1-.769L176.1,251.7c-.465-1.736-.895-3.4-1.235-4.772C173.383,240.816,169.411,225.373,169.411,225.373Z" transform="translate(-108.674 -160.909)" fill="#5e5e5e" stroke="#263238" stroke-linecap="round" stroke-linejoin="round" stroke-width="1"/>
      <path id="Path_76917" data-name="Path 76917" d="M145.281,285.969s2.857,3.877-.865,19.684-8.41,25.177-9.74,29.114a95.085,95.085,0,0,1-6.048,14.119c-2.547,4.688-11.846,20.537-12.938,23.263a59.5,59.5,0,0,0-2.016,6.7,32.738,32.738,0,0,0,4.617,4.73c3.477,3.1,7.784,5.04,7.343,6.418s-4.629,1.432-7.808,1.324-6.46-2.982-8.625-3.674-2.786-.1-2.786-.1l-.424.781-4.175-.936a10.361,10.361,0,0,1,.155-4.569c.668-2.165,1.432-2.923,3.06-8.052,1.557-4.921,4.933-27.736,6.675-32.251s4.945-10.975,6.263-14.512,3.7-15.389,2.672-20.2-8.732-18.2-6.466-20.507,17.178-2,18.759-1.754S145.281,285.969,145.281,285.969Z" transform="translate(-83.834 -185.174)" fill="#263238" stroke="#263238" stroke-linecap="round" stroke-linejoin="round" stroke-width="1"/>
      <path id="Path_76918" data-name="Path 76918" d="M118.327,444.153a32.738,32.738,0,0,1-4.617-4.73s.161-.686.429-1.676a18.313,18.313,0,0,1-9.1-2.237c-1.587,4.981-2.344,5.75-2.982,7.891a10.361,10.361,0,0,0-.155,4.569l4.175.936.423-.781s.6-.6,2.786.1,5.446,3.579,8.625,3.674,7.361.054,7.808-1.324S121.8,447.266,118.327,444.153Z" transform="translate(-83.87 -245.757)" fill="#fff" stroke="#263238" stroke-linecap="round" stroke-linejoin="round" stroke-width="1"/>
      <path id="Path_76919" data-name="Path 76919" d="M119.241,448.721l-1.837,2.386a35.264,35.264,0,0,1-10.4-4.128,38.707,38.707,0,0,0-4.056-2.129,20.573,20.573,0,0,0-.925,2.356,10.361,10.361,0,0,0-.155,4.569l4.175.936.423-.781s.6-.6,2.786.1,5.446,3.579,8.625,3.674,7.361.054,7.808-1.324C126.059,453.093,122.5,451.369,119.241,448.721Z" transform="translate(-83.854 -249.526)" fill="#3183c5" stroke="#263238" stroke-linecap="round" stroke-linejoin="round" stroke-width="1"/>
      <path id="Path_76920" data-name="Path 76920" d="M123.817,293.263s2.851,15.616,4.175,23.62,1.39,17.548,2.559,24.157,6.18,35.025,6.352,35.627.775.6,4.533,1.342,11.333.781,12.854,2.231,1.927,1.855-2.744,4.682-15.866,4.432-17.471,4.772a6.049,6.049,0,0,1-3.173-.31s-2.982-12.431-3.686-14.447-8.392-16.6-10.2-21.831-2.607-11.232-3.579-17.829-3.794-11.267-4.342-12.681-10.683-13.48-12.866-19.523-1.754-18.765-1.754-18.765l28.148,3.143" transform="translate(-80.933 -184.744)" fill="#263238" stroke="#263238" stroke-linecap="round" stroke-linejoin="round" stroke-width="1"/>
      <path id="Path_76921" data-name="Path 76921" d="M177.3,442.271c-1.539-1.449-9.1-1.5-12.854-2.231s-4.354-.74-4.533-1.342c0-.054-.06-.28-.131-.668a23.038,23.038,0,0,1-8.315,3.436c1.1,4.3,2.446,9.955,2.446,9.955a6.047,6.047,0,0,0,3.173.31c1.6-.346,12.8-1.956,17.471-4.772S178.848,443.714,177.3,442.271Z" transform="translate(-103.945 -246.774)" fill="#fff" stroke="#263238" stroke-linecap="round" stroke-linejoin="round" stroke-width="1"/>
      <path id="Path_76922" data-name="Path 76922" d="M178.332,443.865c-1.259-1.193-6.514-1.438-10.444-1.885l.6,4.73s-9.019,2.386-14.465,2.505c.531,2.171.919,3.8.919,3.8l.6,1.789a8.58,8.58,0,0,0,1.831,0,21.357,21.357,0,0,0,3.531-1.02l-.221-.895c4-.716,11.333-2.165,14.912-4.318C180.253,445.72,179.877,445.308,178.332,443.865Z" transform="translate(-104.974 -248.368)" fill="#3183c5" stroke="#263238" stroke-linecap="round" stroke-linejoin="round" stroke-width="1"/>
      <path id="Path_76923" data-name="Path 76923" d="M124.463,122.92s3.913,4.772,4.825,6.907.6,3.531,1.384,4.682,3.06.942,3.012,2.35a6.658,6.658,0,0,1-1.223,2.9c-.155.418.823,4.664.889,6.913s-.966,3.758-2.529,4.128-4.247.978-4.247.978-1.121,8.249-.054,9.973,4.408,2.535,4.408,2.535,7.712.406,9.544,5.237.477,14.912.519,17.858-1,4.462,1.145,11.7,6.275,22.123,6.275,22.123l-7.247,2.422S128.99,226.444,121,225.9a195.132,195.132,0,0,1-25.279-4.086c-3.615-.96-3.436-2.225-3.436-2.225s5.511-17.65,6.036-24.8-1.789-17.2-2.523-21.014.483-9.955,2.613-10.737a60.673,60.673,0,0,1,9.329-1.652c.423.012,5.828-6.263,5.07-8.679s-1.33-14.649-.292-20.513S117.8,120.588,124.463,122.92Z" transform="translate(-80.063 -119.404)" fill="#fff" stroke="#263238" stroke-linecap="round" stroke-linejoin="round" stroke-width="1"/>
      <path id="Path_76924" data-name="Path 76924" d="M146.764,171.67l-4.444.769,3.978,1.628Z" transform="translate(-100.253 -139.291)" fill="#263238" stroke="#263238" stroke-linecap="round" stroke-linejoin="round" stroke-width="1"/>
      <path id="Path_76925" data-name="Path 76925" d="M152.251,142.937c.2.948,0,1.789-.441,1.885s-.954-.6-1.151-1.563,0-1.789.447-1.885S152.06,142.007,152.251,142.937Z" transform="translate(-103.587 -127.062)" fill="#263238"/>
      <path id="Path_76926" data-name="Path 76926" d="M148.05,138.228s.5-2.231,2.839-.889" transform="translate(-102.565 -125.264)" fill="none" stroke="#263238" stroke-linecap="round" stroke-linejoin="round" stroke-width="1"/>
      <path id="Path_76927" data-name="Path 76927" d="M155.752,155.815a2.386,2.386,0,0,1-3.072-.525" transform="translate(-104.433 -132.681)" fill="none" stroke="#263238" stroke-linecap="round" stroke-linejoin="round" stroke-width="1"/>
      <path id="Path_76928" data-name="Path 76928" d="M142.094,234.394c-2.141-7.235-1.1-8.75-1.145-11.7,0-1.9.507-6.734.418-11.232-1.282-1.253-2.607-1.861-3.919-1.527-6.8,1.736-26.555.364-26.555.364l-14.614,1.306c.942,4.718,2.446,12.58,2.016,18.491-.525,7.158-6.036,24.8-6.036,24.8s-.185,1.259,3.436,2.225a195.491,195.491,0,0,0,25.279,4.086c7.981.555,20.161-2.267,20.161-2.267l7.247-2.422S144.242,241.612,142.094,234.394Z" transform="translate(-80.051 -154.697)" fill="#fff" stroke="#263238" stroke-linecap="round" stroke-linejoin="round" stroke-width="1"/>
      <line id="Line_181" data-name="Line 181" x1="10.48" y2="5.69" transform="translate(45.241 75.671)" fill="none" stroke="#263238" stroke-linecap="round" stroke-linejoin="round" stroke-width="1"/>
      <line id="Line_182" data-name="Line 182" y1="3.108" x2="6.889" transform="translate(41.018 77.139)" fill="none" stroke="#263238" stroke-linecap="round" stroke-linejoin="round" stroke-width="1"/>
      <path id="Path_76929" data-name="Path 76929" d="M115.877,240.483c1.378-7.539,3.358-24.455,1.151-33.951-1.962-8.446-8.351-16.922-9.758-18.682a60.087,60.087,0,0,0-8.905,1.616c-2.129.769-3.322,6.907-2.613,10.737s3.042,13.868,2.523,21.014-6.036,24.8-6.036,24.8-.185,1.259,3.436,2.225c2.678.71,10.886,2.308,18.2,3.31C114.3,249.144,115.03,245.135,115.877,240.483Z" transform="translate(-80.043 -145.82)" fill="#5e5e5e" stroke="#263238" stroke-linecap="round" stroke-linejoin="round" stroke-width="1"/>
      <path id="Path_76930" data-name="Path 76930" d="M162.571,225.271l5.3,26.167,6.1-2.04s-4.128-14.912-6.275-22.123-1.1-8.75-1.145-11.7,1.282-13.021-.519-17.858-9.544-5.237-9.544-5.237-.316-.078-.787-.233c1.712,3.221,6.788,12.854,8.5,17.208,2.07,5.267,2.869,6.561,1.193,9.872S162.571,225.271,162.571,225.271Z" transform="translate(-105.652 -147.595)" fill="#5e5e5e" stroke="#263238" stroke-linecap="round" stroke-linejoin="round" stroke-width="1"/>
      <path id="Path_76931" data-name="Path 76931" d="M112.72,187.991s6.048,9.967,7.325,13.671,2.684,6.06,2.821,10.277-3.418,17.894-3.418,17.894l2.529.084s3.322-19.409,3.12-21.664-7.569-16.97-8.231-18.258a13.718,13.718,0,0,1-.907-2.135Z" transform="translate(-88.308 -145.824)" fill="#3183c5" stroke="#263238" stroke-linecap="round" stroke-linejoin="round" stroke-width="1"/>
      <path id="Path_76932" data-name="Path 76932" d="M85.331,253.52s19.749,1.509,20.173,1.527,3.621,25.821,4.1,28.088-2.022,5.828-6.418,6.943-17.1-1-22.386-2.446-10.009-2.982-8.828-9.007,5.022-23.7,5.052-24.688S85.331,253.52,85.331,253.52Z" transform="translate(-71.793 -172.254)" fill="#3183c5" stroke="#263238" stroke-linecap="round" stroke-linejoin="round" stroke-width="1"/>
      <path id="Path_76933" data-name="Path 76933" d="M120.266,312.88a7.522,7.522,0,0,1-1.616.376" transform="translate(-90.701 -196.273)" fill="none" stroke="#263238" stroke-linecap="round" stroke-linejoin="round" stroke-width="1"/>
      <path id="Path_76934" data-name="Path 76934" d="M124,258.16s2.231,24.933,1.5,27.873A8.9,8.9,0,0,1,124.1,289.7" transform="translate(-92.86 -174.192)" fill="none" stroke="#263238" stroke-linecap="round" stroke-linejoin="round" stroke-width="1"/>
      <line id="Line_183" data-name="Line 183" x2="1.849" y2="0.185" transform="translate(27.931 90.35)" fill="none" stroke="#263238" stroke-linecap="round" stroke-linejoin="round" stroke-width="1"/>
      <line id="Line_184" data-name="Line 184" x2="18.646" y2="1.867" transform="translate(6.16 88.173)" fill="none" stroke="#263238" stroke-linecap="round" stroke-linejoin="round" stroke-width="1"/>
      <line id="Line_185" data-name="Line 185" x2="7.611" y2="0.883" transform="translate(6.571 89.748)" fill="none" stroke="#263238" stroke-linecap="round" stroke-linejoin="round" stroke-width="1"/>
      <path id="Path_76935" data-name="Path 76935" d="M95.629,190.879a17.719,17.719,0,0,0-9.454,1.229c-4.426,2.1-3.871,10.7-5.124,14.447S75.939,220.7,75.14,223.631s3.191,5.165,6.43,4.992,6.311.215,7.468-4.8,5.595-20.179,5.595-20.179" transform="translate(-73.102 -146.97)" fill="#5e5e5e" stroke="#263238" stroke-linecap="round" stroke-linejoin="round" stroke-width="1"/>
      <path id="Path_76936" data-name="Path 76936" d="M100.723,225.053s2.249-4.14,2.982-5.368,2.428-1.193,3.281-1.432,2.815-.185,2.511.507a3.388,3.388,0,0,1-1.193,1.223s3.078.245,4.062.28.668,1,.925,1.718-.734.954-.9,1.652a21.981,21.981,0,0,1-.96,3.621c-.459.966-3.984,1.551-5.41,2.064s-3.543,1-3.543,1-7.933,4.772-12.765,7.712c-5.446,3.328-10.558,4.981-12.794,4.623s-3.949-3.782-3.114-7.551c.692-3.137,2.636-5.571,11.709-5.78,4.921-.113,10.737-1.193,12.287-1.974a11.094,11.094,0,0,0,2.923-2.3Z" transform="translate(-72.518 -158.037)" fill="#fff" stroke="#263238" stroke-linecap="round" stroke-linejoin="round" stroke-width="1"/>
      <path id="Path_76937" data-name="Path 76937" d="M86.486,243.212a7.605,7.605,0,0,1-.1-6.382h-.811c-9.072.209-11.017,2.642-11.709,5.78-.835,3.77.877,7.193,3.114,7.551,2.076.334,6.651-1.074,11.661-3.955a10.038,10.038,0,0,1-2.153-2.994Z" transform="translate(-72.542 -165.585)" fill="#5e5e5e" stroke="#263238" stroke-linecap="round" stroke-linejoin="round" stroke-width="1"/>
      <path id="Path_76938" data-name="Path 76938" d="M127.276,120.9a47.8,47.8,0,0,1-2.386,16.916c-2.929,8.046-5.577,11.184-4.134,14.315a6.132,6.132,0,0,0,3.806,3.639s.406.6-.6,1.945-4.7,1.945-4.7,1.945a5.846,5.846,0,0,1-.233,2.666c-.465,1.384-3.465,2.827-3.465,2.827a19.258,19.258,0,0,0-.5-1.98,12.525,12.525,0,0,0-1.312-2.714,6.68,6.68,0,0,1-1.616,2.2c-1.014.805-6.072.913-8-.274a8.139,8.139,0,0,1-2.815-3.889s1.945.632,2.386-.758.107-3.227-2.565-7.253-2.923-17.369,1.945-24.229,17.3-8.947,20.244-8.864A3.889,3.889,0,0,1,127.276,120.9Z" transform="translate(-82.877 -117.386)" fill="#263238" stroke="#263238" stroke-linecap="round" stroke-linejoin="round" stroke-width="1"/>
    </g>
  </g>
</svg>
