<svg xmlns="http://www.w3.org/2000/svg" width="278.458" height="277.837" viewBox="0 0 278.458 277.837">
  <g id="hello1" transform="translate(-83.32 -190.215)">
    <g id="freepik--Plant--inject-31" transform="translate(334.626 430.093)">
      <path id="Path_67862" data-name="Path 67862" d="M589.941,412.643a6.939,6.939,0,0,1,3.594,4.077,12.132,12.132,0,0,1,.477,5.521c-.405,3.58-2.437,7.187-4.632,10.061-3.012-2.613-3.711-7.226-3.92-9.578-.327-3.717,1.346-10.636,4.475-10.081" transform="translate(-576.365 -412.612)" fill="#3183c5"/>
      <path id="Path_67863" data-name="Path 67863" d="M596.788,447.83A5.92,5.92,0,0,1,598.7,442.2a7.873,7.873,0,0,1,5.8-1.816,3.338,3.338,0,0,1,2.548,1.143,2.554,2.554,0,0,1,.039,2.568,5.183,5.183,0,0,1-1.9,1.875c-2.614,1.64-5.449,2.744-8.4,1.862" transform="translate(-580.266 -422.226)" fill="#3183c5"/>
      <path id="Path_67864" data-name="Path 67864" d="M590.93,460.72a3.729,3.729,0,0,1,.1-.738c.1-.516.222-1.183.366-1.96a20.9,20.9,0,0,1,2.052-6.357,12.777,12.777,0,0,1,4.573-4.848,8.884,8.884,0,0,1,1.855-.823c.229-.072.412-.1.536-.137a.6.6,0,0,1,.19,0,14.074,14.074,0,0,0-2.49,1.143,13.153,13.153,0,0,0-4.43,4.815,22.589,22.589,0,0,0-2.1,6.266c-.183.836-.333,1.509-.444,1.96a4.1,4.1,0,0,1-.216.679Z" transform="translate(-578.276 -424.133)" fill="#3183c5"/>
      <path id="Path_67865" data-name="Path 67865" d="M591.023,420.89a1.043,1.043,0,0,1,.039.32c0,.242.032.549.052.928.046.8.091,1.96.137,3.4.091,2.868.17,6.841.15,11.218s-.131,8.35-.248,11.225c-.059,1.431-.111,2.613-.163,3.4,0,.372-.046.653-.065.921a1.062,1.062,0,0,1-.039.32,1.738,1.738,0,0,1,0-.327v-.921c0-.836.052-1.96.085-3.4.072-2.875.15-6.834.17-11.218s0-8.343-.072-11.212c0-1.411-.039-2.568-.052-3.4v-.921a1.8,1.8,0,0,1,.007-.327Z" transform="translate(-578.258 -415.481)" fill="#3183c5"/>
      <path id="Path_67866" data-name="Path 67866" d="M582.864,449.484a13.851,13.851,0,0,0-7.566-10.147c-1.006-.483-2.319-.8-3.149-.046s-.653,2.1-.242,3.136a11.826,11.826,0,0,0,10.885,7.35" transform="translate(-571.562 -421.704)" fill="#3183c5"/>
      <path id="Path_67867" data-name="Path 67867" d="M578,444.8a4.013,4.013,0,0,1,.654.281,6.289,6.289,0,0,1,.725.385c.268.17.595.333.921.575s.693.483,1.052.8a14.066,14.066,0,0,1,1.123,1.013,16.078,16.078,0,0,1,2.13,2.738,14.962,14.962,0,0,1,1.4,3.175,13.083,13.083,0,0,1,.359,1.477,11.493,11.493,0,0,1,.177,1.307,9.4,9.4,0,0,1,.052,1.084,6.161,6.161,0,0,1,0,.817,4.442,4.442,0,0,1-.072.693c-.065,0,.039-.993-.137-2.574a11.684,11.684,0,0,0-.209-1.307,12.445,12.445,0,0,0-.372-1.444,15.586,15.586,0,0,0-1.4-3.11,15.88,15.88,0,0,0-2.078-2.7c-.373-.373-.725-.725-1.085-1.019a12.566,12.566,0,0,0-1.026-.81C578.9,445.264,578,444.852,578,444.8Z" transform="translate(-573.794 -423.77)" fill="#3183c5"/>
    </g>
    <g id="freepik--Device--inject-31" transform="translate(159.981 190.215)">
      <path id="Path_67868" data-name="Path 67868" d="M375.114,322.879l-94.233-.046a20.535,20.535,0,0,1-20.522-20.541l.046-236.3A20.541,20.541,0,0,1,280.953,45.46l94.259.052a20.535,20.535,0,0,1,20.522,20.554l-.046,236.31a20.541,20.541,0,0,1-20.574,20.5Z" transform="translate(-260.36 -45.46)" fill="#03263f"/>
      <path id="Path_67869" data-name="Path 67869" d="M379.635,58.259H361.341a4.534,4.534,0,0,0-4.436,4.632V66.21a4.534,4.534,0,0,1-4.436,4.632H316.842a4.573,4.573,0,0,1-4.436-4.639V62.859a4.534,4.534,0,0,0-4.436-4.639H285.56a14.374,14.374,0,0,0-14.374,14.374l-.046,230.632A14.374,14.374,0,0,0,285.514,317.6l94.082.059a14.374,14.374,0,0,0,14.374-14.374l.046-230.632a14.374,14.374,0,0,0-14.38-14.393Z" transform="translate(-264.097 -49.883)" fill="#fff"/>
      <path id="Path_67870" data-name="Path 67870" d="M379.517,58.154h.49a9.387,9.387,0,0,1,1.457.111,13.53,13.53,0,0,1,5.4,1.862,13.84,13.84,0,0,1,3.267,2.659,14.206,14.206,0,0,1,2.751,4.332,14.889,14.889,0,0,1,1.078,5.841v6.775c0,19.163,0,46.884.052,81.133s0,75.044,0,120.334v21.561a15.351,15.351,0,0,1-.555,4.384,14.471,14.471,0,0,1-1.836,4.057,15.536,15.536,0,0,1-2.992,3.319,14.536,14.536,0,0,1-8.3,3.228c-3.019.085-6.011,0-9.042.039h-84.8a15.145,15.145,0,0,1-9.362-2.613,14.693,14.693,0,0,1-5.7-7.873,15.933,15.933,0,0,1-.6-4.861V72.7c0-.581.052-1.163.085-1.744a8.368,8.368,0,0,1,.294-1.712,14.592,14.592,0,0,1,14.753-11.323h21.58a4.574,4.574,0,0,1,2.836.791,4.756,4.756,0,0,1,1.758,2.306,7.837,7.837,0,0,1,.294,2.842v1.4a11.766,11.766,0,0,0,.046,1.372,4.574,4.574,0,0,0,1.1,2.444,4.234,4.234,0,0,0,2.2,1.366,5.03,5.03,0,0,0,1.307.124h35.8a4.2,4.2,0,0,0,1.764-.653,4.573,4.573,0,0,0,2-2.8,7.839,7.839,0,0,0,.111-1.744V63.648a10.161,10.161,0,0,1,.072-1.673,4.977,4.977,0,0,1,.542-1.542,4.574,4.574,0,0,1,2.3-2.032,7.063,7.063,0,0,1,2.855-.3h0a6.991,6.991,0,0,0-2.809.307,4.4,4.4,0,0,0-2.221,1.96,4.737,4.737,0,0,0-.523,1.5,9.22,9.22,0,0,0-.065,1.653v1.725a8.662,8.662,0,0,1-.111,1.777,4.711,4.711,0,0,1-2.084,3.005,4.449,4.449,0,0,1-1.829.653c-.653.059-1.307,0-1.96,0h-33.85a5.032,5.032,0,0,1-1.353-.131,4.476,4.476,0,0,1-2.326-1.437,4.756,4.756,0,0,1-1.13-2.535,11.279,11.279,0,0,1-.052-1.4V63.923a7.462,7.462,0,0,0-.281-2.751,4.456,4.456,0,0,0-1.666-2.189,4.377,4.377,0,0,0-2.711-.738H286.029a14.22,14.22,0,0,0-14.446,11.068c-.144.549-.189,1.117-.287,1.679a10.653,10.653,0,0,0-.079,1.712V302.4a15.52,15.52,0,0,0,.588,4.75,14.3,14.3,0,0,0,5.54,7.651,14.753,14.753,0,0,0,9.147,2.515H371.3c3.018,0,6.05.046,9.016-.039a14.126,14.126,0,0,0,8.082-3.136,15.272,15.272,0,0,0,2.921-3.234,14.249,14.249,0,0,0,1.79-3.92,15.233,15.233,0,0,0,.536-4.279V281.214c0-45.29.052-86.072.072-120.334s.059-61.97.078-81.133V72.972a14.9,14.9,0,0,0-1.032-5.854,14.329,14.329,0,0,0-2.7-4.273,13.724,13.724,0,0,0-3.267-2.653,13.57,13.57,0,0,0-5.358-1.895,12.076,12.076,0,0,0-1.45-.131Z" transform="translate(-263.978 -49.778)" fill="#263238"/>
      <path id="Path_67871" data-name="Path 67871" d="M435.787,98.477c0,.059-2.378.131-5.312.15s-5.305,0-5.305-.065,2.372-.131,5.305-.157S435.787,98.412,435.787,98.477Z" transform="translate(-317.491 -63.81)" fill="#263238"/>
      <path id="Path_67872" data-name="Path 67872" d="M435.817,102.63c0,.065-2.378.137-5.305.157s-5.312,0-5.312-.065,2.378-.131,5.305-.157S435.817,102.572,435.817,102.63Z" transform="translate(-317.502 -65.252)" fill="#263238"/>
      <path id="Path_67873" data-name="Path 67873" d="M435.857,106.792c0,.065-2.378.131-5.312.157s-5.305,0-5.305-.065,2.372-.137,5.305-.157S435.85,106.733,435.857,106.792Z" transform="translate(-317.516 -66.696)" fill="#263238"/>
      <path id="Path_67874" data-name="Path 67874" d="M293.38,103.451h.836l2.267-.059-.059.065c0-.5,0-1.052-.033-1.646v-.941a.862.862,0,0,1,.758-.7h1.085a.876.876,0,0,1,.745.875v2.4l-.1-.1h2.862l-.111.1c0-1.15,0-2.339-.033-3.561v-.908a.915.915,0,0,0-.4-.653l-1.254-1.235-1.2-1.189-.588-.575c-.2-.2-.359-.4-.588-.444a.784.784,0,0,0-.653.124c-.17.15-.359.353-.529.523l-1.026,1.039c-.653.653-1.307,1.307-1.81,1.862a2.039,2.039,0,0,0-.144,1.065v3.672a3.045,3.045,0,0,1,0,.372V102.17c0-.405,0-1.013-.039-1.64V98.943a1.209,1.209,0,0,1,.157-.595c.529-.653,1.163-1.228,1.81-1.914l1.019-1.045c.183-.176.333-.359.555-.542a.961.961,0,0,1,.83-.163,1.522,1.522,0,0,1,.653.49l.588.575,1.15,1.091,1.248,1.228a2.755,2.755,0,0,1,.32.346.863.863,0,0,1,.15.483c0,.3,0,.608,0,.915v3.672h-3.077v-2.5a.686.686,0,0,0-.575-.693h-1.039a.7.7,0,0,0-.614.555v2.626h-2.966Z" transform="translate(-271.799 -62.512)" fill="#263238"/>
      <rect id="Rectangle_18765" data-name="Rectangle 18765" width="40.429" height="36.477" rx="2.55" transform="translate(19.287 104.327)" fill="#e0e0e0"/>
      <path id="Path_67875" data-name="Path 67875" d="M408.77,211.56l.294.608.666.091-.484.47.118.66-.594-.314-.595.314.111-.66-.477-.47.66-.091Z" transform="translate(-311.474 -103.039)" fill="#e0e0e0"/>
      <path id="Path_67876" data-name="Path 67876" d="M412.73,211.56l.294.608.666.091-.483.47.118.66-.595-.314-.595.314.111-.66-.477-.47.66-.091Z" transform="translate(-312.846 -103.039)" fill="#e0e0e0"/>
      <path id="Path_67877" data-name="Path 67877" d="M416.69,211.56l.294.608.666.091-.483.47.118.66-.595-.314-.594.314.111-.66-.477-.47.66-.091Z" transform="translate(-314.219 -103.039)" fill="#e0e0e0"/>
      <path id="Path_67878" data-name="Path 67878" d="M420.65,211.56l.294.608.666.091-.484.47.118.66-.595-.314-.595.314.111-.66-.477-.47.66-.091Z" transform="translate(-315.592 -103.039)" fill="#f5f5f5"/>
      <path id="Path_67879" data-name="Path 67879" d="M424.61,211.56l.294.608.666.091-.483.47.118.66-.595-.314-.595.314.111-.66-.477-.47.666-.091Z" transform="translate(-316.964 -103.039)" fill="#f5f5f5"/>
      <path id="Path_67880" data-name="Path 67880" d="M393.993,221.39c0,.1-6.266.17-13.995.17s-13.988-.072-13.988-.17,6.259-.17,13.988-.17S393.993,221.3,393.993,221.39Z" transform="translate(-296.984 -106.387)" fill="#e0e0e0"/>
      <path id="Path_67881" data-name="Path 67881" d="M415.725,228.66c0,.092-11.329.17-25.3.17s-25.311-.078-25.311-.17,11.329-.17,25.311-.17S415.725,228.568,415.725,228.66Z" transform="translate(-296.672 -108.907)" fill="#263238"/>
      <path id="Path_67882" data-name="Path 67882" d="M390.737,236.1c0,.091-5.566.17-12.414.17s-12.414-.078-12.414-.17,5.566-.17,12.414-.17S390.737,235.976,390.737,236.1Z" transform="translate(-296.949 -111.486)" fill="#263238"/>
      <path id="Path_67883" data-name="Path 67883" d="M385.516,254.71H370.1a3.587,3.587,0,0,1-3.587-3.593h0a3.587,3.587,0,0,1,3.587-3.587h15.419a3.587,3.587,0,0,1,3.587,3.587h0a3.587,3.587,0,0,1-3.587,3.593Z" transform="translate(-297.157 -115.508)" fill="#e0e0e0"/>
      <path id="Path_67884" data-name="Path 67884" d="M321.266,239.866a3.509,3.509,0,0,1,0-.412V238.3c0-1.026,0-2.476-.039-4.3,0-3.685-.046-8.866-.078-14.962l.157.15h-14.04l.17-.17h0v20.888l-.137-.137,10.186.072h3.855a.83.83,0,0,1-.235,0h-3.534l-10.271.072h-.137V219.05h0l.17-.17h14.1v.157c-.033,6.135-.059,11.355-.078,15.066,0,1.8-.033,3.267-.039,4.26v1.124A2.577,2.577,0,0,1,321.266,239.866Z" transform="translate(-276.583 -105.576)" fill="#fff"/>
      <path id="Path_67885" data-name="Path 67885" d="M323.452,214.829a18.724,18.724,0,0,1,.157,2.77v.15H321.59l-.17-.17h0v-2.921h.131a10.122,10.122,0,0,1,1.855.137,13.868,13.868,0,0,1-1.855.137l.137-.137v2.783h0c.157.15-.2-.209-.17-.17h1.855l-.15.157A24.5,24.5,0,0,1,323.452,214.829Z" transform="translate(-281.526 -104.112)" fill="#fff"/>
      <path id="Path_67886" data-name="Path 67886" d="M333.9,239.993a1.7,1.7,0,0,1-.333,0h-5.031v-.131c-.046-4.685-.072-12.27-.072-20.822v-.17h5.58v.17c-.033,5.972-.059,11.218-.078,15.027,0,1.836-.033,3.319-.046,4.377v1.163a2.728,2.728,0,0,1,0,.392,4.017,4.017,0,0,1,0-.431v-1.2c0-1.065-.033-2.561-.052-4.417,0-3.757-.046-8.957-.072-14.883l.163.163h-5.227l.17-.17c0,8.552,0,16.138-.065,20.822l-.1-.1,3.835.137,1.032.052A2.2,2.2,0,0,1,333.9,239.993Z" transform="translate(-283.967 -105.573)" fill="#fff"/>
      <rect id="Rectangle_18766" data-name="Rectangle 18766" width="2.176" height="2.176" transform="translate(32.883 116.094)" fill="#fff"/>
      <rect id="Rectangle_18767" data-name="Rectangle 18767" width="2.176" height="2.176" transform="translate(36.575 116.094)" fill="#fff"/>
      <rect id="Rectangle_18768" data-name="Rectangle 18768" width="2.176" height="2.176" transform="translate(40.266 116.094)" fill="#fff"/>
      <rect id="Rectangle_18769" data-name="Rectangle 18769" width="2.176" height="2.176" transform="translate(32.883 119.837)" fill="#fff"/>
      <rect id="Rectangle_18770" data-name="Rectangle 18770" width="2.176" height="2.176" transform="translate(36.575 119.837)" fill="#fff"/>
      <rect id="Rectangle_18771" data-name="Rectangle 18771" width="2.176" height="2.176" transform="translate(40.266 119.837)" fill="#fff"/>
      <rect id="Rectangle_18772" data-name="Rectangle 18772" width="2.176" height="2.176" transform="translate(32.883 123.581)" fill="#fff"/>
      <rect id="Rectangle_18773" data-name="Rectangle 18773" width="2.176" height="2.176" transform="translate(36.575 123.581)" fill="#fff"/>
      <rect id="Rectangle_18774" data-name="Rectangle 18774" width="2.176" height="2.176" transform="translate(40.266 123.581)" fill="#fff"/>
      <rect id="Rectangle_18775" data-name="Rectangle 18775" width="2.176" height="2.176" transform="translate(32.883 127.325)" fill="#fff"/>
      <rect id="Rectangle_18776" data-name="Rectangle 18776" width="2.176" height="2.176" transform="translate(36.575 127.325)" fill="#fff"/>
      <rect id="Rectangle_18777" data-name="Rectangle 18777" width="2.176" height="2.176" transform="translate(40.266 127.325)" fill="#fff"/>
      <rect id="Rectangle_18778" data-name="Rectangle 18778" width="2.176" height="2.176" transform="translate(46.035 116.094)" fill="#fff"/>
      <rect id="Rectangle_18779" data-name="Rectangle 18779" width="2.176" height="2.176" transform="translate(46.035 119.837)" fill="#fff"/>
      <rect id="Rectangle_18780" data-name="Rectangle 18780" width="2.176" height="2.176" transform="translate(46.035 123.581)" fill="#fff"/>
      <rect id="Rectangle_18781" data-name="Rectangle 18781" width="2.176" height="2.176" transform="translate(46.035 127.325)" fill="#fff"/>
      <rect id="Rectangle_18782" data-name="Rectangle 18782" width="2.13" height="3.371" transform="translate(36.829 130.938)" fill="#fff"/>
      <path id="Path_67887" data-name="Path 67887" d="M327.9,250.91c0,.091-6.756.17-15.086.17s-15.092-.078-15.092-.17,6.756-.17,15.092-.17S327.9,250.838,327.9,250.91Z" transform="translate(-273.311 -116.62)" fill="#fff"/>
      <path id="Path_67888" data-name="Path 67888" d="M388.848,327.119a6.043,6.043,0,0,0,.79-.117,3.267,3.267,0,0,0,2.437-2.94v-7.337c0-7.925,0-19.385-.052-33.543a4.465,4.465,0,0,0-.124-1.307,3.044,3.044,0,0,0-.594-1.143,3.156,3.156,0,0,0-2.293-1.156H283.777a3.11,3.11,0,0,0-2.934,2.071,5.357,5.357,0,0,0-.183,1.927v40.488a3.129,3.129,0,0,0,1.96,2.653,3.334,3.334,0,0,0,.836.209h9.8l49.752.039,33.536.052,9.147.033h0l-9.147.033-33.536.052-49.752.039h-9.833a3.463,3.463,0,0,1-3.084-3.156V282.5a3.324,3.324,0,0,1,.2-1.039,3.463,3.463,0,0,1,3.267-2.293H389.038a3.41,3.41,0,0,1,2.476,1.248,3.468,3.468,0,0,1,.653,1.235,4.6,4.6,0,0,1,.124,1.359c0,14.158-.039,25.618-.052,33.543V323.9a3.346,3.346,0,0,1-.582,1.647,3.267,3.267,0,0,1-1.96,1.307,2.923,2.923,0,0,1-.6.085Z" transform="translate(-267.286 -126.476)" fill="#3183c5"/>
      <rect id="Rectangle_18783" data-name="Rectangle 18783" width="40.429" height="36.477" rx="2.55" transform="translate(18.085 158.254)" fill="#14548c"/>
      <path id="Path_67889" data-name="Path 67889" d="M411.71,293.96l.294.6.667.1-.484.47.111.66-.588-.314-.594.314.111-.66-.477-.47.66-.1Z" transform="translate(-312.493 -131.603)" fill="#fccd14"/>
      <path id="Path_67890" data-name="Path 67890" d="M415.67,293.96l.294.6.666.1-.483.47.111.66-.588-.314-.595.314.111-.66-.477-.47.66-.1Z" transform="translate(-313.865 -131.603)" fill="#fccd14"/>
      <path id="Path_67891" data-name="Path 67891" d="M419.63,293.96l.294.6.666.1-.483.47.118.66-.595-.314-.595.314.111-.66-.477-.47.66-.1Z" transform="translate(-315.238 -131.603)" fill="#fccd14"/>
      <path id="Path_67892" data-name="Path 67892" d="M423.59,293.96l.294.6.666.1-.483.47.111.66-.588-.314-.595.314.111-.66-.477-.47.66-.1Z" transform="translate(-316.611 -131.603)" fill="#fccd14"/>
      <path id="Path_67893" data-name="Path 67893" d="M427.55,293.96l.294.6.666.1-.483.47.111.66-.588-.314-.595.314.111-.66-.477-.47.66-.1Z" transform="translate(-317.984 -131.603)" fill="#fccd14"/>
      <path id="Path_67894" data-name="Path 67894" d="M392.149,303.91c0,.1-6.266.17-13.995.17s-13.995-.072-13.995-.17,6.266-.17,13.995-.17S392.149,303.831,392.149,303.91Z" transform="translate(-296.342 -134.993)" fill="#e0e0e0"/>
      <path id="Path_67895" data-name="Path 67895" d="M413.895,311.189c0,.092-11.335.17-25.3.17s-25.311-.078-25.311-.17,11.329-.189,25.3-.189S413.895,311.091,413.895,311.189Z" transform="translate(-296.037 -137.509)" fill="#263238"/>
      <path id="Path_67896" data-name="Path 67896" d="M388.907,318.64c0,.092-5.566.17-12.414.17s-12.413-.078-12.413-.17,5.56-.17,12.413-.17S388.907,318.542,388.907,318.64Z" transform="translate(-296.315 -140.099)" fill="#263238"/>
      <path id="Path_67897" data-name="Path 67897" d="M319.436,322.37a3.59,3.59,0,0,1,0-.412v-1.15c0-1.026,0-2.476-.039-4.3,0-3.685-.046-8.866-.078-14.968l.157.157h-14.04c-.039.033.32-.32.163-.17h0v20.816l-.137-.137,10.192.072h3.587a1.309,1.309,0,0,1,.268,0,1.536,1.536,0,0,1-.242,0h-.725l-2.8.039-10.277.072h-.131V301.436h0l.176-.176h14.2v.15c-.033,6.141-.059,11.362-.078,15.066,0,1.81-.033,3.267-.046,4.266v1.124a2.555,2.555,0,0,1-.144.5Z" transform="translate(-275.949 -134.133)" fill="#fff"/>
      <path id="Path_67898" data-name="Path 67898" d="M321.6,297.366a18.673,18.673,0,0,1,.157,2.764v.157h-2.012c.033.033-.327-.327-.17-.177h0v-2.92h.137a10.207,10.207,0,0,1,1.855.137,13.836,13.836,0,0,1-1.855.137l.137-.137v2.783h0l-.17-.17h1.855l-.157.15A23.414,23.414,0,0,1,321.6,297.366Z" transform="translate(-280.874 -132.722)" fill="#fff"/>
      <path id="Path_67899" data-name="Path 67899" d="M332.116,322.547a3.018,3.018,0,0,1-.333,0h-5.037v-.1c-.039-4.684-.065-12.276-.065-20.829v-.17h5.58v.163c0,5.978-.052,11.225-.072,15.027,0,1.836-.039,3.319-.052,4.377v1.163a2.838,2.838,0,0,1,0,.392,4.033,4.033,0,0,1,0-.431v-1.2c0-1.065,0-2.561-.046-4.417,0-3.757-.046-8.957-.078-14.89l.17.17h-5.227l.17-.176c0,8.552,0,16.144-.072,20.829l-.1-.1,3.835.137,1.039.046A2.739,2.739,0,0,1,332.116,322.547Z" transform="translate(-283.35 -134.199)" fill="#fff"/>
      <rect id="Rectangle_18784" data-name="Rectangle 18784" width="2.176" height="2.176" transform="translate(31.681 170.021)" fill="#fff"/>
      <rect id="Rectangle_18785" data-name="Rectangle 18785" width="2.176" height="2.176" transform="translate(35.379 170.021)" fill="#fff"/>
      <rect id="Rectangle_18786" data-name="Rectangle 18786" width="2.176" height="2.176" transform="translate(39.07 170.021)" fill="#fff"/>
      <rect id="Rectangle_18787" data-name="Rectangle 18787" width="2.176" height="2.176" transform="translate(31.681 173.765)" fill="#fff"/>
      <rect id="Rectangle_18788" data-name="Rectangle 18788" width="2.176" height="2.176" transform="translate(35.379 173.765)" fill="#fff"/>
      <rect id="Rectangle_18789" data-name="Rectangle 18789" width="2.176" height="2.176" transform="translate(39.07 173.765)" fill="#fff"/>
      <rect id="Rectangle_18790" data-name="Rectangle 18790" width="2.176" height="2.176" transform="translate(31.681 177.509)" fill="#fff"/>
      <rect id="Rectangle_18791" data-name="Rectangle 18791" width="2.176" height="2.176" transform="translate(35.379 177.509)" fill="#fff"/>
      <rect id="Rectangle_18792" data-name="Rectangle 18792" width="2.176" height="2.176" transform="translate(39.07 177.509)" fill="#fff"/>
      <rect id="Rectangle_18793" data-name="Rectangle 18793" width="2.176" height="2.176" transform="translate(31.681 181.252)" fill="#fff"/>
      <rect id="Rectangle_18794" data-name="Rectangle 18794" width="2.176" height="2.176" transform="translate(35.379 181.252)" fill="#fff"/>
      <rect id="Rectangle_18795" data-name="Rectangle 18795" width="2.176" height="2.176" transform="translate(39.07 181.252)" fill="#fff"/>
      <rect id="Rectangle_18796" data-name="Rectangle 18796" width="2.176" height="2.176" transform="translate(44.839 170.021)" fill="#fff"/>
      <rect id="Rectangle_18797" data-name="Rectangle 18797" width="2.176" height="2.176" transform="translate(44.839 173.765)" fill="#fff"/>
      <rect id="Rectangle_18798" data-name="Rectangle 18798" width="2.176" height="2.176" transform="translate(44.839 177.509)" fill="#fff"/>
      <rect id="Rectangle_18799" data-name="Rectangle 18799" width="2.176" height="2.176" transform="translate(44.839 181.252)" fill="#fff"/>
      <rect id="Rectangle_18800" data-name="Rectangle 18800" width="2.13" height="3.371" transform="translate(35.627 184.865)" fill="#fff"/>
      <path id="Path_67900" data-name="Path 67900" d="M326.068,333.48c0,.092-6.756.17-15.092.17s-15.086-.078-15.086-.17,6.749-.17,15.086-.17S326.068,333.382,326.068,333.48Z" transform="translate(-272.676 -145.243)" fill="#fff"/>
      <rect id="Rectangle_18801" data-name="Rectangle 18801" width="40.429" height="36.477" rx="2.55" transform="translate(18.588 211.829)" fill="#e0e0e0"/>
      <path id="Path_67901" data-name="Path 67901" d="M410.81,375.96l.3.6.66.092-.477.47.111.66-.595-.314-.594.314.118-.66-.483-.47.666-.092Z" transform="translate(-312.181 -160.028)" fill="#e0e0e0"/>
      <path id="Path_67902" data-name="Path 67902" d="M414.77,375.96l.3.6.66.092-.477.47.111.66-.595-.314-.595.314.118-.66-.484-.47.667-.092Z" transform="translate(-313.553 -160.028)" fill="#e0e0e0"/>
      <path id="Path_67903" data-name="Path 67903" d="M418.73,375.96l.3.6.66.092-.477.47.111.66-.595-.314-.595.314.118-.66-.483-.47.666-.092Z" transform="translate(-314.926 -160.028)" fill="#ebebeb"/>
      <path id="Path_67904" data-name="Path 67904" d="M422.69,375.96l.3.6.66.092-.477.47.111.66-.595-.314-.588.314.111-.66-.483-.47.666-.092Z" transform="translate(-316.299 -160.028)" fill="#ebebeb"/>
      <path id="Path_67905" data-name="Path 67905" d="M426.65,375.96l.3.6.66.092-.477.47.111.66-.595-.314-.595.314.118-.66-.483-.47.666-.092Z" transform="translate(-317.672 -160.028)" fill="#ebebeb"/>
      <path id="Path_67906" data-name="Path 67906" d="M392.92,385.91c0,.091-6.266.17-13.995.17s-13.995-.078-13.995-.17,6.266-.17,13.995-.17S392.92,385.825,392.92,385.91Z" transform="translate(-296.609 -163.418)" fill="#e0e0e0"/>
      <path id="Path_67907" data-name="Path 67907" d="M414.655,393.19c0,.1-11.329.17-25.3.17s-25.311-.072-25.311-.17,11.329-.17,25.311-.17S414.655,393.1,414.655,393.19Z" transform="translate(-296.301 -165.942)" fill="#263238"/>
      <path id="Path_67908" data-name="Path 67908" d="M389.667,400.63c0,.091-5.567.17-12.414.17s-12.414-.078-12.414-.17,5.566-.17,12.414-.17S389.667,400.538,389.667,400.63Z" transform="translate(-296.578 -168.521)" fill="#263238"/>
      <path id="Path_67909" data-name="Path 67909" d="M320.165,404.426a3.464,3.464,0,0,1,0-.405v-1.156c0-1.026,0-2.476-.039-4.3,0-3.685-.046-8.866-.078-14.962l.157.157h-14.04l.17-.17h0v20.816l-.131-.137,10.186.072,2.836.039h1.019a.88.88,0,0,1-.235,0h-.732l-2.8.033-10.271.072H306V383.61h0l.17-.17h14.2v.157c-.033,6.142-.059,11.355-.078,15.066,0,1.81-.033,3.267-.039,4.26v1.124a2.439,2.439,0,0,1-.085.379Z" transform="translate(-276.181 -162.621)" fill="#fff"/>
      <path id="Path_67910" data-name="Path 67910" d="M322.382,379.359a18.706,18.706,0,0,1,.157,2.77v.15H320.52l-.17-.17h0v-2.92h.131a10.133,10.133,0,0,1,1.856.137,13.853,13.853,0,0,1-1.856.137l.137-.137v2.783h0l-.17-.17H322.3l-.157.157a25.428,25.428,0,0,1,.235-2.737Z" transform="translate(-281.155 -161.147)" fill="#fff"/>
      <path id="Path_67911" data-name="Path 67911" d="M332.829,404.537a1.712,1.712,0,0,1-.333,0h-5.031v-.1c-.039-4.685-.065-12.27-.065-20.822v-.17h5.619v.17c-.033,5.972-.059,11.218-.078,15.027,0,1.836-.039,3.313-.046,4.377v1.163a2.682,2.682,0,0,1,0,.385,4.033,4.033,0,0,1,0-.431v-1.2c0-1.065,0-2.561-.046-4.417,0-3.757-.046-8.957-.072-14.883l.163.163h-5.227l.17-.17c0,8.552,0,16.138-.065,20.822l-.1-.1,3.842.137,1.032.046Z" transform="translate(-283.599 -162.621)" fill="#fff"/>
      <rect id="Rectangle_18802" data-name="Rectangle 18802" width="2.176" height="2.176" transform="translate(32.177 223.596)" fill="#fff"/>
      <rect id="Rectangle_18803" data-name="Rectangle 18803" width="2.176" height="2.176" transform="translate(35.875 223.596)" fill="#fff"/>
      <rect id="Rectangle_18804" data-name="Rectangle 18804" width="2.176" height="2.176" transform="translate(39.567 223.596)" fill="#fff"/>
      <rect id="Rectangle_18805" data-name="Rectangle 18805" width="2.176" height="2.176" transform="translate(32.177 227.333)" fill="#fff"/>
      <rect id="Rectangle_18806" data-name="Rectangle 18806" width="2.176" height="2.176" transform="translate(35.875 227.333)" fill="#fff"/>
      <rect id="Rectangle_18807" data-name="Rectangle 18807" width="2.176" height="2.176" transform="translate(39.567 227.333)" fill="#fff"/>
      <rect id="Rectangle_18808" data-name="Rectangle 18808" width="2.176" height="2.176" transform="translate(32.177 231.077)" fill="#fff"/>
      <rect id="Rectangle_18809" data-name="Rectangle 18809" width="2.176" height="2.176" transform="translate(35.875 231.077)" fill="#fff"/>
      <rect id="Rectangle_18810" data-name="Rectangle 18810" width="2.176" height="2.176" transform="translate(39.567 231.077)" fill="#fff"/>
      <rect id="Rectangle_18811" data-name="Rectangle 18811" width="2.176" height="2.176" transform="translate(32.177 234.82)" fill="#fff"/>
      <rect id="Rectangle_18812" data-name="Rectangle 18812" width="2.176" height="2.176" transform="translate(35.875 234.82)" fill="#fff"/>
      <rect id="Rectangle_18813" data-name="Rectangle 18813" width="2.176" height="2.176" transform="translate(39.567 234.82)" fill="#fff"/>
      <rect id="Rectangle_18814" data-name="Rectangle 18814" width="2.176" height="2.176" transform="translate(45.336 223.596)" fill="#fff"/>
      <rect id="Rectangle_18815" data-name="Rectangle 18815" width="2.176" height="2.176" transform="translate(45.336 227.333)" fill="#fff"/>
      <rect id="Rectangle_18816" data-name="Rectangle 18816" width="2.176" height="2.176" transform="translate(45.336 231.077)" fill="#fff"/>
      <rect id="Rectangle_18817" data-name="Rectangle 18817" width="2.176" height="2.176" transform="translate(45.336 234.82)" fill="#fff"/>
      <rect id="Rectangle_18818" data-name="Rectangle 18818" width="2.13" height="3.371" transform="translate(36.124 238.433)" fill="#fff"/>
      <path id="Path_67912" data-name="Path 67912" d="M326.828,415.47c0,.1-6.756.17-15.086.17s-15.092-.072-15.092-.17,6.756-.17,15.092-.17S326.828,415.378,326.828,415.47Z" transform="translate(-272.94 -173.665)" fill="#fff"/>
      <path id="Path_67913" data-name="Path 67913" d="M298.782,131.17h83.106a4.632,4.632,0,0,1,4.632,4.632v4.652a4.639,4.639,0,0,1-4.639,4.639h-83.1a4.632,4.632,0,0,1-4.632-4.632v-4.652A4.639,4.639,0,0,1,298.782,131.17Z" transform="translate(-272.073 -75.171)" fill="#ebebeb"/>
      <path id="Path_67914" data-name="Path 67914" d="M422.492,139.362a1.58,1.58,0,0,0-.1-.457,1.96,1.96,0,0,0-.706-1.013,1.856,1.856,0,0,0-1.744-.242,1.823,1.823,0,0,0,0,3.424,1.856,1.856,0,0,0,1.745-.242,1.96,1.96,0,0,0,.706-1.013c.078-.287.078-.457.1-.457s0,.039,0,.124a1.758,1.758,0,0,1-.039.359,1.914,1.914,0,0,1-.693,1.111,2.012,2.012,0,1,1,0-3.188,1.914,1.914,0,0,1,.693,1.111,1.769,1.769,0,0,1,.039.359C422.506,139.323,422.5,139.362,422.492,139.362Z" transform="translate(-315.186 -77.314)" fill="#263238"/>
      <path id="Path_67915" data-name="Path 67915" d="M425.315,144.522c-.046.046-.47-.34-.947-.856a3.707,3.707,0,0,1-.777-1.006,3.724,3.724,0,0,1,.921.875A4,4,0,0,1,425.315,144.522Z" transform="translate(-316.944 -79.154)" fill="#263238"/>
      <path id="Path_67916" data-name="Path 67916" d="M307.209,140.587h-.849v-.307h2.051v.307h-.849v2.176h-.353Z" transform="translate(-276.306 -78.329)" fill="#263238"/>
      <path id="Path_67917" data-name="Path 67917" d="M309.46,142.113a.98.98,0,1,1,.98.967.934.934,0,0,1-.98-.967Zm1.607,0a.614.614,0,0,0-.653-.653.653.653,0,1,0,.653.653Z" transform="translate(-277.38 -78.621)" fill="#263238"/>
      <path id="Path_67918" data-name="Path 67918" d="M312.928,141.4a.242.242,0,1,1,.106.242A.242.242,0,0,1,312.928,141.4Zm0,1.431a.242.242,0,1,1,.106.242A.242.242,0,0,1,312.928,142.832Z" transform="translate(-278.582 -78.62)" fill="#263238"/>
      <path id="Path_67919" data-name="Path 67919" d="M371.716,142.67c0,.091-10.584.17-23.645.17s-23.651-.078-23.651-.17,10.584-.17,23.651-.17S371.716,142.572,371.716,142.67Z" transform="translate(-282.566 -79.099)" fill="#263238"/>
      <rect id="Rectangle_18819" data-name="Rectangle 18819" width="92.371" height="13.923" rx="6.961" transform="translate(22.077 74.711)" fill="#ebebeb"/>
      <path id="Path_67920" data-name="Path 67920" d="M422.487,168.995a1.6,1.6,0,0,0-.1-.464,1.959,1.959,0,0,0-.706-1.006,1.829,1.829,0,1,0,0,2.934,1.96,1.96,0,0,0,.706-1.006c.078-.288.078-.464.1-.457s0,.039,0,.124a1.676,1.676,0,0,1-.039.353,1.914,1.914,0,0,1-.693,1.111,1.96,1.96,0,0,1-1.9.314,2.019,2.019,0,0,1,0-3.809,1.96,1.96,0,0,1,1.9.314,1.915,1.915,0,0,1,.693,1.111,1.687,1.687,0,0,1,.039.359A.342.342,0,0,1,422.487,168.995Z" transform="translate(-315.181 -87.581)" fill="#263238"/>
      <path id="Path_67921" data-name="Path 67921" d="M425.315,174.159a3.832,3.832,0,0,1-.947-.862,3.706,3.706,0,0,1-.777-1.006,7.648,7.648,0,0,1,1.725,1.868Z" transform="translate(-316.944 -89.426)" fill="#263238"/>
      <path id="Path_67922" data-name="Path 67922" d="M306.91,167.846h1.045a1.248,1.248,0,1,1,0,2.483H306.91Zm1.026,2.176a.934.934,0,0,0,0-1.869h-.653v1.869Z" transform="translate(-276.497 -87.883)" fill="#263238"/>
      <path id="Path_67923" data-name="Path 67923" d="M312.733,169.5v1.137h-.32v-.248a.712.712,0,0,1-.621.268c-.425,0-.693-.229-.693-.555s.2-.549.751-.549h.542v-.065c0-.287-.17-.457-.5-.457a.947.947,0,0,0-.595.2l-.144-.255a1.254,1.254,0,0,1,.777-.242C312.446,168.74,312.733,168.988,312.733,169.5Zm-.34.562V169.8h-.523c-.34,0-.438.131-.438.288s.157.307.418.307A.549.549,0,0,0,312.394,170.066Z" transform="translate(-277.949 -88.195)" fill="#263238"/>
      <path id="Path_67924" data-name="Path 67924" d="M315.486,170.322a.653.653,0,0,1-.412.131.542.542,0,0,1-.6-.588v-1.032h-.314v-.281h.314v-.412h.346v.412h.542v.281h-.536v1.019a.274.274,0,0,0,.294.314.431.431,0,0,0,.261-.085Z" transform="translate(-279.01 -87.987)" fill="#263238"/>
      <path id="Path_67925" data-name="Path 67925" d="M318.311,169.811H316.8a.653.653,0,0,0,.653.555.705.705,0,0,0,.542-.229l.19.222a.954.954,0,0,1-.745.3.941.941,0,0,1-1.013-.96.928.928,0,0,1,.947-.96.908.908,0,0,1,.928.973A.5.5,0,0,1,318.311,169.811Zm-1.509-.248H318a.6.6,0,1,0-1.2,0Z" transform="translate(-279.796 -88.195)" fill="#263238"/>
      <path id="Path_67926" data-name="Path 67926" d="M319.8,168.982a.242.242,0,0,1,.242-.242.248.248,0,0,1,0,.49.242.242,0,0,1-.242-.248Zm0,1.437a.235.235,0,0,1,.242-.242.229.229,0,0,1,.235.242.235.235,0,0,1-.235.242A.242.242,0,0,1,319.8,170.419Z" transform="translate(-280.965 -88.195)" fill="#263238"/>
      <path id="Path_67927" data-name="Path 67927" d="M335.006,170.3a28.791,28.791,0,0,1-6.246,0A28.791,28.791,0,0,1,335.006,170.3Z" transform="translate(-284.071 -88.677)" fill="#263238"/>
      <path id="Path_67928" data-name="Path 67928" d="M364.168,170.37c0,.1-4.5.17-10.029.17s-10.029-.072-10.029-.17,4.488-.17,10.029-.17S364.168,170.278,364.168,170.37Z" transform="translate(-289.392 -88.701)" fill="#263238"/>
    </g>
    <g id="freepik--character-2--inject-31" transform="translate(239.176 254.638)">
      <path id="Path_67929" data-name="Path 67929" d="M438.722,241.784,412.81,239.21l-4.24,4.73s25.945,8.905,27.336,8.84,5.442-6.037,5.442-6.037Z" transform="translate(-390.932 -177.047)" fill="#ffbe9d"/>
      <path id="Path_67930" data-name="Path 67930" d="M453.3,443.053l.888,11.225s-11.068,4.43-11.107,6.534l21.776-.693L464.2,442.57Z" transform="translate(-402.895 -247.542)" fill="#39b1c5"/>
      <path id="Path_67931" data-name="Path 67931" d="M469.57,458.658a.9.9,0,0,1,.653,1,.856.856,0,0,1-.98.653.941.941,0,0,1-.7-1.058.888.888,0,0,1,1.1-.582" transform="translate(-411.718 -253.11)" fill="#e0e0e0"/>
      <path id="Path_67932" data-name="Path 67932" d="M464.8,468.668l-.052-1.4-21.123,1.13a1.652,1.652,0,0,0-.706,1.117Z" transform="translate(-402.839 -256.104)" fill="#263238"/>
      <path id="Path_67933" data-name="Path 67933" d="M459.779,460.548c0,.111.542.137,1.084.457s.849.764.941.712-.085-.653-.751-1.039S459.747,460.45,459.779,460.548Z" transform="translate(-408.683 -253.733)" fill="#263238"/>
      <path id="Path_67934" data-name="Path 67934" d="M456.31,462.2c0,.1.451.268.836.706s.51.915.614.908.15-.621-.333-1.156S456.31,462.1,456.31,462.2Z" transform="translate(-407.481 -254.329)" fill="#263238"/>
      <path id="Path_67935" data-name="Path 67935" d="M453.992,465.566c.1,0,.222-.523-.078-1.1s-.81-.791-.856-.7.281.392.523.869S453.881,465.559,453.992,465.566Z" transform="translate(-406.352 -254.883)" fill="#263238"/>
      <path id="Path_67936" data-name="Path 67936" d="M459.9,456.4c.052.1.536-.072,1.143-.052s1.091.183,1.143.091-.418-.457-1.137-.471S459.846,456.323,459.9,456.4Z" transform="translate(-408.723 -252.186)" fill="#263238"/>
      <path id="Path_67937" data-name="Path 67937" d="M459.15,452a2.052,2.052,0,0,0,1.1-.052,4.955,4.955,0,0,0,1.137-.4,5.658,5.658,0,0,0,.621-.366,1.307,1.307,0,0,0,.32-.274.471.471,0,0,0,0-.569.6.6,0,0,0-.483-.229,1.448,1.448,0,0,0-.412.072,4.114,4.114,0,0,0-.653.268,3.775,3.775,0,0,0-.987.712c-.49.49-.653.9-.608.921s.281-.314.784-.725a4.261,4.261,0,0,1,.96-.6,4.059,4.059,0,0,1,.621-.216c.235-.072.431-.085.5,0s0,.052,0,.124a1.243,1.243,0,0,1-.235.2,5.728,5.728,0,0,1-1.62.81A7.235,7.235,0,0,0,459.15,452Z" transform="translate(-408.465 -250.155)" fill="#263238"/>
      <path id="Path_67938" data-name="Path 67938" d="M495.385,443.053l.882,11.225s-11.068,4.43-11.107,6.534l21.783-.693-.653-17.549Z" transform="translate(-417.482 -247.542)" fill="#4aa9f2"/>
      <path id="Path_67939" data-name="Path 67939" d="M511.66,458.658a.9.9,0,0,1,.653,1,.856.856,0,0,1-.98.653.948.948,0,0,1-.7-1.059.9.9,0,0,1,1.1-.581" transform="translate(-426.309 -253.111)" fill="#e0e0e0"/>
      <path id="Path_67940" data-name="Path 67940" d="M506.887,468.668l-.052-1.4-21.129,1.13a1.678,1.678,0,0,0-.706,1.117Z" transform="translate(-417.426 -256.104)" fill="#263238"/>
      <path id="Path_67941" data-name="Path 67941" d="M501.86,460.548c0,.111.549.137,1.091.457s.843.764.941.712-.091-.653-.758-1.039S501.833,460.45,501.86,460.548Z" transform="translate(-423.27 -253.733)" fill="#263238"/>
      <path id="Path_67942" data-name="Path 67942" d="M498.39,462.2c0,.1.451.268.836.706s.51.915.621.908.144-.621-.34-1.156S498.39,462.1,498.39,462.2Z" transform="translate(-422.068 -254.329)" fill="#263238"/>
      <path id="Path_67943" data-name="Path 67943" d="M496.072,465.566c.1,0,.222-.523-.078-1.1s-.81-.791-.856-.7.288.392.523.869S495.961,465.559,496.072,465.566Z" transform="translate(-420.939 -254.883)" fill="#263238"/>
      <path id="Path_67944" data-name="Path 67944" d="M502,456.4c.046.1.529-.072,1.143-.052s1.085.183,1.137.091-.418-.457-1.137-.471S501.932,456.323,502,456.4Z" transform="translate(-423.316 -252.186)" fill="#263238"/>
      <path id="Path_67945" data-name="Path 67945" d="M501.23,452a2.052,2.052,0,0,0,1.1-.052,4.765,4.765,0,0,0,1.137-.4,5.134,5.134,0,0,0,.653-.366,1.306,1.306,0,0,0,.32-.274.458.458,0,0,0,0-.568.582.582,0,0,0-.483-.229,1.5,1.5,0,0,0-.412.072,4.117,4.117,0,0,0-.653.268,3.88,3.88,0,0,0-.987.712c-.49.49-.653.9-.607.921s.281-.314.784-.725a4.4,4.4,0,0,1,.96-.6,4.617,4.617,0,0,1,.653-.216c.235-.072.431-.085.5,0s0,.052,0,.124a.936.936,0,0,1-.235.2,5.469,5.469,0,0,1-.568.359,6.372,6.372,0,0,1-1.045.451,7.205,7.205,0,0,0-1.111.327Z" transform="translate(-423.052 -250.155)" fill="#263238"/>
      <path id="Path_67946" data-name="Path 67946" d="M464.56,294.087c-1.026,1.307-21.77,49.655-21.77,54.548s7.755,50.249,7.755,50.249l14.243-.49s1.052-24.409-.229-31.576-2.215-16.778-2.215-16.778l20.4-35.98s2.3-13.831,0-17.928S464.56,294.087,464.56,294.087Z" transform="translate(-402.794 -195.892)" fill="#263238"/>
      <path id="Path_67947" data-name="Path 67947" d="M474.15,337.454c0,.51,7.409,21.227,8.618,27.63s6.651,40.312,6.651,40.312L503.6,404.37s-1.307-35.934-3.58-45.663-4.1-17.928-4.1-23.56,1.751-5.645,1.006-13.72-9.2-10.617-9.2-10.617Z" transform="translate(-413.665 -201.867)" fill="#263238"/>
      <path id="Path_67948" data-name="Path 67948" d="M483.673,347.12a4.166,4.166,0,0,1-.261.915c-.183.588-.483,1.424-.882,2.444a74.525,74.525,0,0,1-8.017,15.112c-.653.9-1.15,1.62-1.529,2.1a4.141,4.141,0,0,1-.614.725,4.934,4.934,0,0,1,.5-.81l1.424-2.163c1.2-1.836,2.77-4.41,4.338-7.357s2.809-5.7,3.659-7.709c.392-.96.725-1.758.993-2.391A5.1,5.1,0,0,1,483.673,347.12Z" transform="translate(-413.048 -214.454)" fill="#455a64"/>
      <path id="Path_67949" data-name="Path 67949" d="M472.635,164.551a5.051,5.051,0,0,1-1.392-5.227.653.653,0,0,0-.313-1,3.764,3.764,0,0,1-1.607-2.463,2.914,2.914,0,0,1,1.039-2.7,2.886,2.886,0,0,1-.98-4.025,3.92,3.92,0,0,1,4.1-1.522,2.221,2.221,0,0,1,.607-2.574,4.378,4.378,0,0,1,2.614-.954c1.267-.1,2.751.2,3.352,1.307a1.96,1.96,0,0,1,1.757-1.307,4.266,4.266,0,0,1,4.613,3.345,3.874,3.874,0,0,1,2.274-.653,1.829,1.829,0,0,1,1.686,1.457,2.326,2.326,0,0,1,2.091-.875,2.822,2.822,0,0,1,1.627.438,1.4,1.4,0,0,1,.588,1.5,2.234,2.234,0,0,1,1.5,4.188,2.855,2.855,0,0,1-.307,4.841.784.784,0,0,1,.385,1.163,1.529,1.529,0,0,1-1.255.588c0,1.666.033,3.326.052,4.985a10.032,10.032,0,0,1-.307,3.188,3.41,3.41,0,0,1-2.052,2.313" transform="translate(-411.863 -144.064)" fill="#263238"/>
      <path id="Path_67950" data-name="Path 67950" d="M474.5,163.928c.17-4.018,4.4-8.121,8.4-7.788l12.975,2.2V160.5l.163,27.9-15.079,6.664.209-10.454s-5.129-.745-6.318-7.416C474.251,173.865,474.3,168.4,474.5,163.928Z" transform="translate(-413.74 -148.244)" fill="#ffbe9d"/>
      <path id="Path_67951" data-name="Path 67951" d="M476.93,174.66a.856.856,0,0,0,.843.849.817.817,0,0,0,.863-.791.85.85,0,0,0-.836-.849.816.816,0,0,0-.869.791Z" transform="translate(-414.629 -154.396)" fill="#263238"/>
      <path id="Path_67952" data-name="Path 67952" d="M476.453,171.9c.1.111.745-.385,1.666-.4s1.6.431,1.7.314-.059-.248-.359-.457a2.339,2.339,0,0,0-1.346-.359,2.247,2.247,0,0,0-1.307.457C476.492,171.652,476.4,171.855,476.453,171.9Z" transform="translate(-414.458 -153.401)" fill="#263238"/>
      <path id="Path_67953" data-name="Path 67953" d="M489.62,175.13a.856.856,0,0,0,.843.849.823.823,0,0,0,.869-.79.856.856,0,0,0-.843-.849.823.823,0,0,0-.869.791Z" transform="translate(-419.028 -154.559)" fill="#263238"/>
      <path id="Path_67954" data-name="Path 67954" d="M490.273,172.16c.1.111.745-.385,1.666-.405s1.6.431,1.7.32-.059-.255-.359-.464a2.338,2.338,0,0,0-1.365-.392,2.293,2.293,0,0,0-1.307.464C490.312,171.906,490.22,172.108,490.273,172.16Z" transform="translate(-419.249 -153.477)" fill="#263238"/>
      <path id="Path_67955" data-name="Path 67955" d="M484.152,178.91a6.248,6.248,0,0,0-1.5-.235c-.235,0-.457-.065-.5-.222a1.254,1.254,0,0,1,.144-.706c.209-.575.431-1.176.653-1.81a31.678,31.678,0,0,0,1.464-4.737,31.707,31.707,0,0,0-1.836,4.573l-.647,1.829a1.372,1.372,0,0,0-.1.928.6.6,0,0,0,.4.34,1.861,1.861,0,0,0,.4.046,5.8,5.8,0,0,0,1.535-.007Z" transform="translate(-416.311 -153.471)" fill="#263238"/>
      <path id="Path_67956" data-name="Path 67956" d="M484.753,198.323a16.91,16.91,0,0,0,8.879-2.613s-2.228,4.763-8.912,4.279Z" transform="translate(-417.329 -161.967)" fill="#eb996e"/>
      <path id="Path_67957" data-name="Path 67957" d="M486.025,186a1.672,1.672,0,0,1,1.477-.653,1.523,1.523,0,0,1,1.052.542.96.96,0,0,1,.1,1.1,1.111,1.111,0,0,1-1.2.327,3.449,3.449,0,0,1-1.189-.653,1.044,1.044,0,0,1-.268-.268.306.306,0,0,1,0-.34" transform="translate(-417.753 -158.373)" fill="#eb996e"/>
      <path id="Path_67958" data-name="Path 67958" d="M488.041,183.84c-.151,0-.131,1-.974,1.731s-1.9.653-1.908.784.242.189.693.189a2.5,2.5,0,0,0,1.594-.595,2.215,2.215,0,0,0,.751-1.45C488.224,184.082,488.113,183.833,488.041,183.84Z" transform="translate(-417.482 -157.853)" fill="#263238"/>
      <path id="Path_67959" data-name="Path 67959" d="M489.747,167.223c.1.255,1.013.111,2.1.222s1.96.385,2.1.157c.059-.111-.091-.346-.451-.581a3.487,3.487,0,0,0-1.568-.51,3.436,3.436,0,0,0-1.627.229C489.911,166.9,489.708,167.105,489.747,167.223Z" transform="translate(-419.07 -151.839)" fill="#263238"/>
      <path id="Path_67960" data-name="Path 67960" d="M476.877,167.752c.17.2.8,0,1.561-.052s1.411.111,1.555-.111c.059-.111-.046-.314-.333-.51a2.228,2.228,0,0,0-2.5.131C476.89,167.432,476.805,167.647,476.877,167.752Z" transform="translate(-414.602 -151.93)" fill="#263238"/>
      <path id="Path_67961" data-name="Path 67961" d="M478.465,154a3.267,3.267,0,0,0,4.573,3.881,1.267,1.267,0,0,0,.072,1.673,2.372,2.372,0,0,0,1.666.653,4.482,4.482,0,0,0,3.456-1.45,3.267,3.267,0,0,0,4.7,2.463,3.123,3.123,0,0,0-.595,3.456,3.071,3.071,0,0,0,3.058,1.686,3.1,3.1,0,0,0,2.613-2.352,3.384,3.384,0,0,0,1.215-5.227,2.025,2.025,0,0,0,1.254-1.581,4.058,4.058,0,0,0-.255-2.078,6.442,6.442,0,0,0-3.267-3.829,4.319,4.319,0,0,0-4.789.777.92.92,0,0,1-.464.34.836.836,0,0,1-.653-.346,6.529,6.529,0,0,0-2.836-2.038,3.162,3.162,0,0,0-3.574,1.705,3.692,3.692,0,0,0-4.051-1.725,2.835,2.835,0,0,0-1.738,3.789" transform="translate(-415.111 -146.088)" fill="#263238"/>
      <path id="Path_67962" data-name="Path 67962" d="M503.45,172.19a14.537,14.537,0,0,0,.856,3.972c.2.542.516,1.143,1.078,1.254a1.228,1.228,0,0,0,1.261-.738,3.265,3.265,0,0,0,.216-1.548,43.068,43.068,0,0,0-.686-5.56" transform="translate(-423.822 -152.906)" fill="#263238"/>
      <path id="Path_67963" data-name="Path 67963" d="M505.71,175.023c.085-.039,3.345-1.248,3.469,2.169s-3.319,2.836-3.326,2.738S505.71,175.023,505.71,175.023Z" transform="translate(-424.605 -154.714)" fill="#ffbe9d"/>
      <path id="Path_67964" data-name="Path 67964" d="M507.439,179.177s.065.039.164.085a.608.608,0,0,0,.444,0,1.49,1.49,0,0,0,.653-1.346,2.057,2.057,0,0,0-.2-.849.7.7,0,0,0-.464-.438.3.3,0,0,0-.346.176c-.039.1,0,.163-.033.17s-.078-.052-.052-.2a.353.353,0,0,1,.124-.222.477.477,0,0,1,.327-.1.823.823,0,0,1,.653.51,1.959,1.959,0,0,1,.242.941,1.548,1.548,0,0,1-.81,1.509.653.653,0,0,1-.549-.072C507.453,179.262,507.433,179.184,507.439,179.177Z" transform="translate(-425.204 -155.294)" fill="#eb996e"/>
      <path id="Path_67965" data-name="Path 67965" d="M487.592,156.236l-.1.033-.314.052a4.641,4.641,0,0,1-1.2,0,3.088,3.088,0,0,1-.843-.2,2.544,2.544,0,0,1-.869-.555,2.45,2.45,0,0,1-.607-1,1.837,1.837,0,0,1,.078-1.307l.111.092a4.475,4.475,0,0,1-2.7.882,4.331,4.331,0,0,1-1.555-.287,2.823,2.823,0,0,1-.725-.4,1.574,1.574,0,0,1-.5-.693,2.22,2.22,0,0,1-.1-.986,6.157,6.157,0,0,1,.176-.941,2.964,2.964,0,0,1,.333-.875,1.078,1.078,0,0,1,.738-.549l.039.157a2.673,2.673,0,0,1-1.751,0,2.869,2.869,0,0,1-1.307-.928,2.4,2.4,0,0,1-.529-1.307,2.857,2.857,0,0,1,.176-1.209,2.778,2.778,0,0,1,1.052-1.352,1.7,1.7,0,0,1,.555-.261,4.569,4.569,0,0,0-.523.307,2.79,2.79,0,0,0-1.137,2.509,2.332,2.332,0,0,0,.51,1.248,2.769,2.769,0,0,0,1.254.869,2.535,2.535,0,0,0,1.647,0l.039.163a.914.914,0,0,0-.621.47,2.952,2.952,0,0,0-.314.83,3.267,3.267,0,0,0-.072,1.829,1.77,1.77,0,0,0,1.13.993,4.225,4.225,0,0,0,1.49.274,4.285,4.285,0,0,0,2.613-.836l.248-.176-.137.274a1.725,1.725,0,0,0-.078,1.2,2.417,2.417,0,0,0,.568.954,2.321,2.321,0,0,0,.817.542,3.193,3.193,0,0,0,.81.216,5.333,5.333,0,0,0,1.2,0Z" transform="translate(-414.289 -144.25)" fill="#fff"/>
      <path id="Path_67966" data-name="Path 67966" d="M475.085,159.281a.654.654,0,0,1-.229.111,1.882,1.882,0,0,1-.686.091,1.763,1.763,0,0,1-.967-.353.862.862,0,0,1-.327-.562.654.654,0,0,1,.294-.653l.072.157h-.059a2.679,2.679,0,0,1-2.248-.327,2.319,2.319,0,0,1-.529-.47.788.788,0,0,1-.137-.216,5.514,5.514,0,0,0,.732.581,2.672,2.672,0,0,0,2.13.268h.052l.83-.235-.738.4a.476.476,0,0,0-.209.47.693.693,0,0,0,.255.451,1.68,1.68,0,0,0,.882.353A3.018,3.018,0,0,0,475.085,159.281Z" transform="translate(-412.32 -148.569)" fill="#fff"/>
      <path id="Path_67967" data-name="Path 67967" d="M480.027,171.567a4.987,4.987,0,0,0-.556-.34,3.266,3.266,0,0,0-1.47-.418,3.324,3.324,0,0,0-1.5.314c-.359.17-.556.327-.575.3a1.445,1.445,0,0,1,.523-.412,2.992,2.992,0,0,1,3.084.111,1.425,1.425,0,0,1,.49.444Z" transform="translate(-414.282 -153.276)" fill="#eb996e"/>
      <path id="Path_67968" data-name="Path 67968" d="M494.238,171.33a4.04,4.04,0,0,1-.451-.268,2.738,2.738,0,0,0-1.189-.327,2.613,2.613,0,0,0-1.2.242c-.294.131-.458.255-.477.229s.124-.17.418-.34a2.411,2.411,0,0,1,2.509.092A1.118,1.118,0,0,1,494.238,171.33Z" transform="translate(-419.478 -153.249)" fill="#eb996e"/>
      <path id="Path_67969" data-name="Path 67969" d="M490.2,184.04l-.15-.137a.988.988,0,0,0-.379-.229c-.346-.091-.654-.091-.654-.15a.98.98,0,0,1,.719,0,.817.817,0,0,1,.425.314C490.222,183.942,490.222,184.033,490.2,184.04Z" transform="translate(-418.82 -157.719)" fill="#eb996e"/>
      <path id="Path_67970" data-name="Path 67970" d="M491.557,184.513c-.046,0-.124-.248-.261-.536s-.281-.516-.248-.549.255.157.405.477S491.6,184.506,491.557,184.513Z" transform="translate(-419.521 -157.709)" fill="#eb996e"/>
      <path id="Path_67971" data-name="Path 67971" d="M387.393,235.653c-.118,0-.483-4.573-.483-4.573s1.666.372,1.96,1.561.523,2.2.523,2.2l4.168,1.228,4.41-1.346-1.855,2.875s-2.385.327-2.568.32S387.393,235.653,387.393,235.653Z" transform="translate(-383.423 -174.228)" fill="#eb996e"/>
      <path id="Path_67972" data-name="Path 67972" d="M399.7,240.642l-9.689-1.026s-7.285-4.521-8.108-5.083a.718.718,0,0,1-.327-.51.915.915,0,0,1,1.241-.941l8.566,3.1a1.881,1.881,0,0,0,1.555-.157l3.639-2.136s-1.47-1.424-2.4-2.522a1.731,1.731,0,0,1-.235-2.091c1.163.17,7.03,4.573,7.03,4.573l2.45,1.921Z" transform="translate(-381.573 -173.604)" fill="#ffbe9d"/>
      <path id="Path_67973" data-name="Path 67973" d="M390.637,234.993l1.339-3.783a1.307,1.307,0,0,1,1.019,1.6c-.137,1.45-.118,2.679-.118,2.679l1.96.81-4.207-1.209" transform="translate(-384.713 -174.273)" fill="#eb996e"/>
      <path id="Path_67974" data-name="Path 67974" d="M508.431,181.9a1.49,1.49,0,0,1,.562.385,3.529,3.529,0,0,1,.986,1.561,3.155,3.155,0,0,1-.425,2.7A3.064,3.064,0,0,1,506.5,187.8a2.8,2.8,0,0,1-1.568-.862,3.679,3.679,0,0,1-.823-1.437,3.189,3.189,0,0,1,.346-2.711,2.842,2.842,0,0,1,1.483-1.1,1.306,1.306,0,0,1,.653-.078,4.582,4.582,0,0,0-.653.2,2.808,2.808,0,0,0-1.307,1.111,2.992,2.992,0,0,0-.248,2.489,2.894,2.894,0,0,0,2.149,2.058,2.77,2.77,0,0,0,2.744-1.1,2.953,2.953,0,0,0,.451-2.457,3.739,3.739,0,0,0-.856-1.535C508.614,182.061,508.418,181.917,508.431,181.9Z" transform="translate(-423.995 -157.073)" fill="#455a64"/>
      <path id="Path_67975" data-name="Path 67975" d="M490.335,202.31c3.325,3.724,5.88,12.041,6.533,16.987.7,5.553.464,6.991.888,11.545.438,4.73.608,36.895-1.183,39.384s-3.208,2.849-3.208,2.849-.235,2.5-.477,7.6-8.2,18.392-8.2,18.392-1.542,2.254-4.743-1.424c-2.346-2.685-6.207-11.76-8.115-16.477a24.011,24.011,0,0,0-3.084-5.436h0a1.653,1.653,0,0,0-2.613,0l-5.076,6.743s-2.7-1.673-2.94-3.456,1.424-6.645,2.966-12.1,3.985-24.174,3.985-24.174-.072-18.692,0-18.947c.653-2.424,4.371-7.187,6.86-11.355a34.075,34.075,0,0,0,3.509-8.213l14.9-1.869Z" transform="translate(-408.1 -164.255)" fill="#14548c"/>
      <g id="Group_43319" data-name="Group 43319" transform="translate(56.774 60.772)" opacity="0.3">
        <path id="Path_67976" data-name="Path 67976" d="M468.47,253.166c5.371.255,15.517-4.534,16.575-5.292,2.816-2.032,6.266-6.573,5.985-10.793a24.056,24.056,0,0,1-10.545,10.506,27.4,27.4,0,0,1-4.332,2.117" transform="translate(-468.47 -237.08)"/>
      </g>
      <path id="Path_67977" data-name="Path 67977" d="M460.885,229.45a61.246,61.246,0,0,0,10.062-11.577c2.221-3.424,6.566-2.385,12.257.817,2.136,1.2,2.5,3.77,2.13,6.534a17.64,17.64,0,0,1-8.768,12.714c-6.847,3.92-17.686,9.4-19.535,10.218a9.664,9.664,0,0,1-7.67-.869l.948-17.079s5.723-1.679,8-.523l.915.581,1.712-.817" transform="translate(-405.072 -168.914)" fill="#3183c5"/>
      <path id="Path_67978" data-name="Path 67978" d="M490.517,214.2a6.181,6.181,0,0,0-.908-.8,6.728,6.728,0,0,0-3-1.176,7.729,7.729,0,0,0-4.665.791,14.214,14.214,0,0,0-4.456,3.842c-.653.823-1.235,1.686-1.816,2.509s-1.189,1.594-1.79,2.3a42.179,42.179,0,0,1-3.417,3.541c-1.026.954-1.895,1.679-2.5,2.169-.3.248-.542.431-.706.555s-.255.183-.268.17a9.664,9.664,0,0,1,.882-.836c.575-.523,1.418-1.307,2.417-2.247a42.358,42.358,0,0,0,3.332-3.574c.588-.706,1.183-1.464,1.751-2.287s1.156-1.692,1.823-2.535a16.282,16.282,0,0,1,2.169-2.267,11.147,11.147,0,0,1,2.43-1.646,7.892,7.892,0,0,1,4.854-.745,6.533,6.533,0,0,1,3.051,1.307,4.448,4.448,0,0,1,.653.653A1.168,1.168,0,0,1,490.517,214.2Z" transform="translate(-411.183 -167.565)" fill="#263238"/>
      <path id="Path_67979" data-name="Path 67979" d="M476.64,245.446a9.047,9.047,0,0,1,1.163-.562c.751-.34,1.842-.83,3.169-1.483s2.888-1.47,4.574-2.476a17.853,17.853,0,0,0,4.763-4.09,28.55,28.55,0,0,0,1.96-2.613,22.709,22.709,0,0,0,1.568-2.613,18.839,18.839,0,0,0,1.659-4.867,12.568,12.568,0,0,0,.209-3.463c-.079-.817-.216-1.254-.177-1.268a.983.983,0,0,1,.111.314,6.9,6.9,0,0,1,.209.941,11.692,11.692,0,0,1-.091,3.522,18.346,18.346,0,0,1-1.614,4.979,23.025,23.025,0,0,1-1.588,2.653,30.215,30.215,0,0,1-1.96,2.666,17.865,17.865,0,0,1-4.874,4.149c-1.692.987-3.267,1.79-4.619,2.417s-2.463,1.078-3.234,1.379c-.385.15-.686.261-.895.333A1.557,1.557,0,0,1,476.64,245.446Z" transform="translate(-414.528 -171.084)" fill="#263238"/>
      <path id="Path_67980" data-name="Path 67980" d="M486.21,307.55a3.743,3.743,0,0,1,.111-.6c.078-.392.242-.96.372-1.712a41.87,41.87,0,0,0,.706-6.383c.118-2.711-.039-5.945-.19-9.545a64.682,64.682,0,0,1,.359-11.714,111.577,111.577,0,0,1,2.47-11.453,72.287,72.287,0,0,0,1.843-9.356,32.074,32.074,0,0,0,.131-6.409c-.039-.758-.163-1.339-.2-1.738a3.5,3.5,0,0,1-.059-.608,3.345,3.345,0,0,1,.131.595c.059.4.209.974.268,1.738a29.945,29.945,0,0,1,0,6.449,67.924,67.924,0,0,1-1.771,9.408c-.836,3.5-1.868,7.324-2.437,11.427a66.542,66.542,0,0,0-.385,11.656c.137,3.587.268,6.841.111,9.565a38.084,38.084,0,0,1-.823,6.4c-.157.745-.34,1.307-.438,1.7A3.342,3.342,0,0,1,486.21,307.55Z" transform="translate(-417.846 -180.104)" fill="#263238"/>
      <path id="Path_67981" data-name="Path 67981" d="M464.447,249.044a7.843,7.843,0,0,1,0-1.627c0-1,.065-2.385.072-3.92s0-2.907-.033-3.92a9.052,9.052,0,0,1,0-1.627,7.016,7.016,0,0,1,.216,1.614c.085,1.006.144,2.4.137,3.92s-.085,2.927-.176,3.92A6.839,6.839,0,0,1,464.447,249.044Z" transform="translate(-410.287 -176.61)" fill="#263238"/>
      <path id="Path_67982" data-name="Path 67982" d="M474.073,249.893a13.565,13.565,0,0,1-2.176-2.1,13.139,13.139,0,0,1-1.927-2.326,13.833,13.833,0,0,1,2.176,2.1A13.234,13.234,0,0,1,474.073,249.893Z" transform="translate(-412.216 -179.217)" fill="#263238"/>
      <path id="Path_67983" data-name="Path 67983" d="M477.656,239.74a6.88,6.88,0,0,1,0-2.143,6.98,6.98,0,0,1,.333-2.117,6.657,6.657,0,0,1,0,2.143A6.985,6.985,0,0,1,477.656,239.74Z" transform="translate(-414.851 -175.754)" fill="#263238"/>
      <path id="Path_67984" data-name="Path 67984" d="M486.15,241.337a7.846,7.846,0,0,1-.653-2.261,8.149,8.149,0,0,1-.327-2.326,8.267,8.267,0,0,1,.653,2.254A8.488,8.488,0,0,1,486.15,241.337Z" transform="translate(-417.485 -176.194)" fill="#263238"/>
      <path id="Path_67985" data-name="Path 67985" d="M488.577,223.43a6.218,6.218,0,0,1-2.045.255,6.081,6.081,0,0,1-2.052-.091A12.677,12.677,0,0,1,488.577,223.43Z" transform="translate(-417.246 -171.543)" fill="#263238"/>
      <path id="Path_67986" data-name="Path 67986" d="M495.27,233.693a29.965,29.965,0,0,1,1.307-6.233,14.8,14.8,0,0,1-.49,3.149,15.1,15.1,0,0,1-.817,3.084Z" transform="translate(-420.986 -172.974)" fill="#263238"/>
      <path id="Path_67987" data-name="Path 67987" d="M499.616,221.473a6.052,6.052,0,0,1-1.875-.745,6.225,6.225,0,0,1-1.731-1.058,6.31,6.31,0,0,1,1.882.751A6.029,6.029,0,0,1,499.616,221.473Z" transform="translate(-421.243 -170.273)" fill="#263238"/>
      <path id="Path_67988" data-name="Path 67988" d="M453.77,244.261a9.794,9.794,0,0,1,1.96-1.66,10,10,0,0,1,2.176-1.392,9.933,9.933,0,0,1-1.96,1.666A10.115,10.115,0,0,1,453.77,244.261Z" transform="translate(-406.6 -177.74)" fill="#263238"/>
      <path id="Path_67989" data-name="Path 67989" d="M458.146,251.133a6.414,6.414,0,0,1-1.96-.653,6.28,6.28,0,0,1-1.816-.98,6.482,6.482,0,0,1,1.96.653A6.363,6.363,0,0,1,458.146,251.133Z" transform="translate(-406.809 -180.614)" fill="#263238"/>
      <path id="Path_67990" data-name="Path 67990" d="M455.836,260.557c.072.052-.216.568-.79.993s-1.143.568-1.176.483.444-.353.973-.751S455.757,260.5,455.836,260.557Z" transform="translate(-406.634 -184.445)" fill="#263238"/>
      <path id="Path_67991" data-name="Path 67991" d="M508.693,213.047a7.938,7.938,0,0,1-1.685-1.6,8.131,8.131,0,0,1-1.437-1.836A15.807,15.807,0,0,1,508.693,213.047Z" transform="translate(-424.557 -166.786)" fill="#263238"/>
      <path id="Path_67992" data-name="Path 67992" d="M511.316,227.937a4.644,4.644,0,0,1-1.019,1.418c-.653.725-1.209,1.261-1.307,1.2a4.891,4.891,0,0,1,1.026-1.418C510.676,228.408,511.244,227.872,511.316,227.937Z" transform="translate(-425.742 -173.137)" fill="#263238"/>
      <path id="Path_67993" data-name="Path 67993" d="M505.007,249.346a14.131,14.131,0,0,1-.941-1.588,13.721,13.721,0,0,1-1.026-1.529,3.268,3.268,0,0,1,1.307,1.352A3.221,3.221,0,0,1,505.007,249.346Z" transform="translate(-423.68 -179.48)" fill="#263238"/>
      <path id="Path_67994" data-name="Path 67994" d="M513.213,242.75a12.1,12.1,0,0,1-1.143,3.92,6.181,6.181,0,0,1,.412-2.012A6.527,6.527,0,0,1,513.213,242.75Z" transform="translate(-426.81 -178.274)" fill="#263238"/>
      <path id="Path_67995" data-name="Path 67995" d="M504.541,265.854a6.742,6.742,0,0,1-1.1-1.784,6.584,6.584,0,0,1-.8-1.96,12.629,12.629,0,0,1,1.9,3.717Z" transform="translate(-423.541 -184.985)" fill="#263238"/>
      <path id="Path_67996" data-name="Path 67996" d="M512.983,263.052a5.987,5.987,0,0,1-1.993-.078,5.879,5.879,0,0,1-1.96-.418,5.941,5.941,0,0,1,1.96.078A5.842,5.842,0,0,1,512.983,263.052Z" transform="translate(-425.756 -185.123)" fill="#263238"/>
      <path id="Path_67997" data-name="Path 67997" d="M498.91,281.014q.86-1.984,1.914-3.874a5.35,5.35,0,0,1-.7,2.065A5.223,5.223,0,0,1,498.91,281.014Z" transform="translate(-422.248 -190.195)" fill="#263238"/>
      <path id="Path_67998" data-name="Path 67998" d="M510.274,282.75a10.706,10.706,0,0,1-1.529-2.208,10.536,10.536,0,0,1-1.235-2.391,10.877,10.877,0,0,1,1.529,2.215A11.114,11.114,0,0,1,510.274,282.75Z" transform="translate(-425.229 -190.545)" fill="#263238"/>
      <path id="Path_67999" data-name="Path 67999" d="M502.321,298.533a15.391,15.391,0,0,1,.072-3.267,15.72,15.72,0,0,1,.418-3.267,16.259,16.259,0,0,1-.078,3.267A16.559,16.559,0,0,1,502.321,298.533Z" transform="translate(-423.412 -195.346)" fill="#263238"/>
      <path id="Path_68000" data-name="Path 68000" d="M493.936,306.92a12.12,12.12,0,0,1-1.2-3.92,6.245,6.245,0,0,1,.758,1.914,6.413,6.413,0,0,1,.438,2.006Z" transform="translate(-420.109 -199.16)" fill="#263238"/>
      <path id="Path_68001" data-name="Path 68001" d="M498.073,323.28a7.842,7.842,0,0,1-1.712,1.509,7.531,7.531,0,0,1-1.921,1.241,7.842,7.842,0,0,1,1.712-1.509A8,8,0,0,1,498.073,323.28Z" transform="translate(-420.699 -206.19)" fill="#263238"/>
      <path id="Path_68002" data-name="Path 68002" d="M506.14,315.39a11.037,11.037,0,0,1-.255-2.7,10.565,10.565,0,0,1,.092-2.711,11.235,11.235,0,0,1,.248,2.7A11.12,11.12,0,0,1,506.14,315.39Z" transform="translate(-424.649 -201.579)" fill="#263238"/>
      <path id="Path_68003" data-name="Path 68003" d="M501.556,334.164c.059.072-.34.49-.889.934s-1.052.738-1.111.653.346-.49.9-.934S501.5,334.092,501.556,334.164Z" transform="translate(-422.47 -209.959)" fill="#263238"/>
      <path id="Path_68004" data-name="Path 68004" d="M513.165,298.943a17.287,17.287,0,0,1,.778-4.763,8.761,8.761,0,0,1-.222,2.411A8.861,8.861,0,0,1,513.165,298.943Z" transform="translate(-427.186 -196.102)" fill="#263238"/>
      <path id="Path_68005" data-name="Path 68005" d="M482.991,271.206a7.18,7.18,0,0,1-1.274-1.725,6.846,6.846,0,0,1-.986-1.9A6.708,6.708,0,0,1,482,269.3,6.841,6.841,0,0,1,482.991,271.206Z" transform="translate(-415.946 -186.881)" fill="#263238"/>
      <path id="Path_68006" data-name="Path 68006" d="M489.777,262.313c.052.078-.418.5-1.052.96s-1.189.751-1.248.653.418-.51,1.052-.96S489.718,262.235,489.777,262.313Z" transform="translate(-418.283 -185.051)" fill="#263238"/>
      <path id="Path_68007" data-name="Path 68007" d="M472.269,267.849a5.6,5.6,0,0,1,.3-1.96,5.812,5.812,0,0,1,.653-1.849,5.586,5.586,0,0,1-.3,1.927,5.785,5.785,0,0,1-.654,1.882Z" transform="translate(-413.013 -185.654)" fill="#263238"/>
      <path id="Path_68008" data-name="Path 68008" d="M476.473,285.773a10.269,10.269,0,0,1-1.457-2.215,10.666,10.666,0,0,1-1.156-2.378,10.067,10.067,0,0,1,1.457,2.215A10.673,10.673,0,0,1,476.473,285.773Z" transform="translate(-413.565 -191.596)" fill="#263238"/>
      <path id="Path_68009" data-name="Path 68009" d="M482.727,294.18c.065.072-.51.653-1.307,1.352a5.226,5.226,0,0,1-1.5,1.1c-.065-.072.51-.653,1.307-1.359A5.231,5.231,0,0,1,482.727,294.18Z" transform="translate(-415.663 -196.102)" fill="#263238"/>
      <path id="Path_68010" data-name="Path 68010" d="M469.838,296.083a23.292,23.292,0,0,1,0-2.457c-.033-1.346-.242-2.437-.15-2.457a5.376,5.376,0,0,1,.49,2.444A5.466,5.466,0,0,1,469.838,296.083Z" transform="translate(-412.11 -195.059)" fill="#263238"/>
      <path id="Path_68011" data-name="Path 68011" d="M464.595,309.73c.059.078-.562.614-1.372,1.2a5.033,5.033,0,0,1-1.575.928c-.059-.072.562-.614,1.372-1.2A5.029,5.029,0,0,1,464.595,309.73Z" transform="translate(-409.33 -201.493)" fill="#263238"/>
      <path id="Path_68012" data-name="Path 68012" d="M478.164,312.423a4.426,4.426,0,0,1,0-1.738,4.574,4.574,0,0,1,.333-1.705,4.572,4.572,0,0,1,0,1.738A4.653,4.653,0,0,1,478.164,312.423Z" transform="translate(-415.027 -201.232)" fill="#263238"/>
      <path id="Path_68013" data-name="Path 68013" d="M483.918,324.92a7.074,7.074,0,0,1-.549-2.679,6.946,6.946,0,0,1,.19-2.731q.143,1.348.15,2.7C483.8,323.7,484.01,324.9,483.918,324.92Z" transform="translate(-416.841 -204.883)" fill="#263238"/>
      <path id="Path_68014" data-name="Path 68014" d="M488.15,257.647a9.661,9.661,0,0,1,0-3.607,9.655,9.655,0,0,1,0,3.607Z" transform="translate(-418.459 -182.188)" fill="#263238"/>
      <path id="Path_68015" data-name="Path 68015" d="M483.637,211.87a6.112,6.112,0,0,1-1.091,1.659,5.879,5.879,0,0,1-1.366,1.457,6.02,6.02,0,0,1,1.1-1.666A5.656,5.656,0,0,1,483.637,211.87Z" transform="translate(-416.102 -167.569)" fill="#263238"/>
      <path id="Path_68016" data-name="Path 68016" d="M495.063,209.327a20.255,20.255,0,0,1-5.083-1.137,9.907,9.907,0,0,1,2.581.405,10.138,10.138,0,0,1,2.5.732Z" transform="translate(-419.153 -166.294)" fill="#263238"/>
      <path id="Path_68017" data-name="Path 68017" d="M505.222,204.829c.039.085-.477.405-1.156.719s-1.268.5-1.307.418.483-.412,1.163-.725S505.183,204.744,505.222,204.829Z" transform="translate(-423.582 -165.121)" fill="#263238"/>
      <g id="Group_43320" data-name="Group 43320" transform="translate(53.871 62.608)" opacity="0.3">
        <path id="Path_68018" data-name="Path 68018" d="M464.526,239.89c-.222,3.992-.268,8.663-.49,12.649a.4.4,0,0,0,.085.34c.137.118.346,0,.483-.091,1.385-1.137,1.745-3.1,1.751-4.894a18.469,18.469,0,0,0-1.829-8" transform="translate(-464.027 -239.89)"/>
      </g>
    </g>
    <g id="freepik--character-1--inject-31" transform="translate(113.083 236.488)">
      <path id="Path_68019" data-name="Path 68019" d="M342.7,203.157a2.437,2.437,0,1,0-3.09,2.254v.653l.653.5-.7.386-.033.849.653.5-.7.386v.732l.405.3-.425.242v.425l.5.575,1.006-.6.189-5.044A2.437,2.437,0,0,0,342.7,203.157Zm-2.365-1.869a.7.7,0,1,1-.725.653.686.686,0,0,1,.725-.653Z" transform="translate(-240.318 -145.522)" fill="#263238"/>
      <path id="Path_68020" data-name="Path 68020" d="M342.7,203.157a2.437,2.437,0,1,0-3.09,2.254v.653l.653.5-.7.386-.033.849.653.5-.7.386v.732l.405.3-.425.242v.425l.5.575,1.006-.6.189-5.044A2.437,2.437,0,0,0,342.7,203.157Zm-2.365-1.869a.7.7,0,1,1-.725.653.686.686,0,0,1,.725-.653Z" transform="translate(-240.318 -145.522)" fill="none"/>
      <path id="Path_68021" data-name="Path 68021" d="M341.27,201.617h-.17a.7.7,0,0,0-.379.242.653.653,0,1,0,.712-.229c-.1,0-.17,0-.163-.039h.17a.719.719,0,0,1,.392.268.721.721,0,0,1-.183,1.019.719.719,0,0,1-.438.124.751.751,0,0,1-.425-.157.725.725,0,0,1-.1-1.026.692.692,0,0,1,.412-.242.469.469,0,0,1,.131,0Z" transform="translate(-241.249 -145.85)" fill="#263238"/>
      <path id="Path_68022" data-name="Path 68022" d="M342.661,203.22v.189a3.008,3.008,0,0,1-.124.549,2.652,2.652,0,0,1-.451.777,2.47,2.47,0,0,1-.987.693h0c-.046,1.307-.111,3.038-.183,5.044h0l-1.006.6h0l-.5-.568h0v-.425h0l.425-.235v.046l-.405-.307h0v-.732h0l.7-.385v.046l-.653-.5h0v-.889h0l.7-.385v.046l-.653-.5h0v-.621a2.45,2.45,0,0,1-1.633-1.483,2.457,2.457,0,1,1,4.632-1.62v.183a.285.285,0,0,0,.033.163c.033.052,0,.189,0,.255h0v-.255l-.039-.163v-.176a2.43,2.43,0,0,0-.47-.849,2.477,2.477,0,0,0-1.065-.719,2.406,2.406,0,0,0-2.77,3.639,2.17,2.17,0,0,0,.359.418,2.423,2.423,0,0,0,.98.549h0v.653h0l.653.5h-.007l-.693.386h0v.875h0l.653.5h-.007l-.693.385h0v.732h0l.405.307h-.039l-.425.242h0v.425h0l.5.575h-.039l1.006-.6h0c.078-2.012.144-3.744.2-5.044h0a2.43,2.43,0,0,0,1.431-1.444,2.61,2.61,0,0,0,.131-.542v-.144A.209.209,0,0,0,342.661,203.22Z" transform="translate(-240.274 -145.585)" fill="#263238"/>
      <path id="Path_68023" data-name="Path 68023" d="M342.315,202.947a2.437,2.437,0,1,0-3.084,2.254h0v.653l.653.5-.693.392v.849l.653.5-.693.392-.033.732.405.3-.425.242v.425l.5.568,1.006-.595.189-5.044A2.437,2.437,0,0,0,342.315,202.947Zm-2.365-1.875a.7.7,0,1,1-.725.653A.7.7,0,0,1,339.95,201.071Z" transform="translate(-240.183 -145.448)" fill="#fccd14"/>
      <path id="Path_68024" data-name="Path 68024" d="M342.315,202.947a2.437,2.437,0,1,0-3.084,2.254h0v.653l.653.5-.693.392v.849l.653.5-.693.392-.033.732.405.3-.425.242v.425l.5.568,1.006-.595.189-5.044A2.437,2.437,0,0,0,342.315,202.947Zm-2.365-1.875a.7.7,0,1,1-.725.653A.7.7,0,0,1,339.95,201.071Z" transform="translate(-240.183 -145.448)" fill="none"/>
      <path id="Path_68025" data-name="Path 68025" d="M340.882,201.378a.632.632,0,0,0-.17.033.635.635,0,1,0,.764.9.686.686,0,0,0-.431-.915c-.1,0-.163,0-.163-.039h.17a.653.653,0,0,1,.392.268.712.712,0,0,1,.085.653.738.738,0,0,1-.268.333.7.7,0,0,1-.431.124.725.725,0,0,1-.529-1.189.653.653,0,0,1,.405-.235.308.308,0,0,1,.131,0Z" transform="translate(-241.116 -145.755)" fill="#263238"/>
      <path id="Path_68026" data-name="Path 68026" d="M342.278,202.975v.189a2.622,2.622,0,0,1-.124.549,2.416,2.416,0,0,1-.451.771,2.5,2.5,0,0,1-.986.7h0c-.046,1.307-.1,3.032-.176,5.044h0l-1.006.6h0l-.51-.568h0v-.425h0l.425-.242v.052l-.4-.307h0v-.725h0l.7-.392v.052l-.653-.5h0v-.9h0l.7-.392v.052l-.653-.5h0v-.653h0a2.522,2.522,0,0,1-1.006-.568,2.067,2.067,0,0,1-.366-.425,2.524,2.524,0,0,1-.261-.49,2.463,2.463,0,0,1,1.509-3.221,2.425,2.425,0,0,1,1.581,0,2.452,2.452,0,0,1,1.072.738,2.354,2.354,0,0,1,.47.856v.189a.284.284,0,0,0,.033.163,2.113,2.113,0,0,1,0,.255v.163a.185.185,0,0,1,0,.052v-.575c0-.1,0-.1-.033-.163v-.183a2.411,2.411,0,0,0-.47-.843,2.386,2.386,0,0,0-1.065-.719,2.417,2.417,0,0,0-3.025,3.162,2.419,2.419,0,0,0,1.6,1.444h0v.653h0l.653.5h0l-.7.392h0v.875h0l.653.5h0l-.7.392h0v.732h0l.405.307h0l-.431.242h0v.425h0l.5.568h-.033l1.006-.6h0c.078-2.006.15-3.737.2-5.037h0a2.417,2.417,0,0,0,.98-.653,2.45,2.45,0,0,0,.581-1.307v-.144a.271.271,0,0,0-.013-.1Z" transform="translate(-240.147 -145.477)" fill="#263238"/>
      <path id="Path_68027" data-name="Path 68027" d="M342.182,203.126a4.838,4.838,0,0,0-.059-.523,2.012,2.012,0,0,0-.222-.575,2.114,2.114,0,0,0-2.509-.993,1.961,1.961,0,0,0-.549.268,1.728,1.728,0,0,0-.248.2,2.5,2.5,0,0,0-.215.235,2.1,2.1,0,0,0-.091,2.5,1.55,1.55,0,0,0,.2.255c.078.078.15.15.229.216a1.96,1.96,0,0,0,.529.307,2.111,2.111,0,0,0,1.1.137,2.176,2.176,0,0,0,.908-.359,2.262,2.262,0,0,0,.568-.581,2.086,2.086,0,0,0,.261-.555,4.4,4.4,0,0,0,.1-.523v.307a2.119,2.119,0,0,1-.052.222,1.963,1.963,0,0,1-.255.568,2.1,2.1,0,0,1-.568.595,2.046,2.046,0,0,1-.928.372,2.169,2.169,0,0,1-1.137-.131,2.017,2.017,0,0,1-.536-.314,2.548,2.548,0,0,1-.242-.222,2.681,2.681,0,0,1-.2-.255,2.177,2.177,0,0,1,.1-2.574,2.552,2.552,0,0,1,.222-.242,2.487,2.487,0,0,1,.255-.2,2.366,2.366,0,0,1,.562-.274,2.208,2.208,0,0,1,1.143-.046,2.136,2.136,0,0,1,.9.444,2.216,2.216,0,0,1,.523.653,2.037,2.037,0,0,1,.209.581,1.729,1.729,0,0,1,.033.229,1.576,1.576,0,0,1,0,.163v.137Z" transform="translate(-240.338 -145.608)" fill="#263238"/>
      <path id="Path_68028" data-name="Path 68028" d="M341.62,202.079v-.2a.83.83,0,0,0-.288-.451.8.8,0,0,0-.327-.157.83.83,0,0,0-.418,0,.765.765,0,0,0-.379.268.8.8,0,0,0-.17.457.784.784,0,0,0,.137.47.8.8,0,0,0,.353.294.85.85,0,0,0,.418.052.791.791,0,0,0,.34-.137.771.771,0,0,0,.314-.425c.039-.124.039-.2.046-.2s0,0,0,.052a.741.741,0,0,1,0,.15.817.817,0,0,1-.314.457.869.869,0,0,1-.8.1.81.81,0,0,1-.385-.314.849.849,0,0,1,.444-1.281.9.9,0,0,1,1.1.653.732.732,0,0,1,0,.15A.739.739,0,0,0,341.62,202.079Z" transform="translate(-241.07 -145.717)" fill="#263238"/>
      <path id="Path_68029" data-name="Path 68029" d="M341.73,212.809s0-1.15.072-2.561.1-2.568.124-2.568,0,1.15-.065,2.568S341.75,212.809,341.73,212.809Z" transform="translate(-241.669 -147.967)" fill="#263238"/>
      <path id="Path_68030" data-name="Path 68030" d="M341.427,200.15a.327.327,0,0,1-.327,0v-3.09h.327Z" transform="translate(-241.451 -144.285)" fill="#e0e0e0"/>
      <path id="Path_68031" data-name="Path 68031" d="M341.26,200.182a.405.405,0,0,1-.17-.039h0V197h.353v3.09h0A.4.4,0,0,1,341.26,200.182Zm-.15-.059a.347.347,0,0,0,.3,0v-3.045h-.3Z" transform="translate(-241.448 -144.264)" fill="#263238"/>
      <path id="Path_68032" data-name="Path 68032" d="M332.646,188.66l5.651,3.123a1.555,1.555,0,0,1-2.228.706c-1.633-.725-4.573-2.515-4.573-2.515l-2.248.908L327.53,188.8Z" transform="translate(-236.747 -141.373)" fill="#896360"/>
      <path id="Path_68033" data-name="Path 68033" d="M314.341,199.854a5.678,5.678,0,0,0,5.279-.5c2.574-1.758,2.764-2.339,3.822-2.659.771-.235,4.364-.725,5.776-1.058a.823.823,0,0,0,.34-1.437,8.8,8.8,0,0,0-2.437-.5,10.23,10.23,0,0,0-2.235.235,5.879,5.879,0,0,1-3.182-.653l.039-.9,3.574-.653a14.318,14.318,0,0,0,3.92,2.208,4.672,4.672,0,0,0,2.346-.307v-.2l-5.057-3.62-4.717-.8-1.45-.242-12.178,7.272,3.162,5.606Z" transform="translate(-230.039 -141.408)" fill="#bd8c83"/>
      <path id="Path_68034" data-name="Path 68034" d="M252.524,433.221l-2.417,12.936s12.335,6.8,12.126,9.232L237,451.606l2.94-20.306Z" transform="translate(-205.365 -225.485)" fill="#4aa9f2"/>
      <path id="Path_68036" data-name="Path 68036" d="M244.895,450.57a1.052,1.052,0,0,0-.9,1.071,1.006,1.006,0,0,0,1.058.888,1.1,1.1,0,0,0,.934-1.137,1.046,1.046,0,0,0-1.2-.8" transform="translate(-207.791 -232.164)" fill="#e0e0e0"/>
      <path id="Path_68037" data-name="Path 68037" d="M237,461.3l.379-2.038,24.043,4.4s1.052.653.81,1.431Z" transform="translate(-205.365 -235.177)" fill="#263238"/>
      <path id="Path_68038" data-name="Path 68038" d="M256.391,453.84c0,.118-.653.085-1.307.392s-1.065.771-1.176.706.189-.751,1-1.1S256.437,453.729,256.391,453.84Z" transform="translate(-211.218 -233.232)" fill="#263238"/>
      <path id="Path_68039" data-name="Path 68039" d="M260.494,456.169c0,.124-.555.255-1.052.712s-.7.993-.823.967-.091-.732.536-1.307S260.508,456.025,260.494,456.169Z" transform="translate(-212.839 -234.072)" fill="#263238"/>
      <path id="Path_68040" data-name="Path 68040" d="M263.05,460.365c-.118,0-.2-.653.222-1.261s1.032-.81,1.072-.7-.379.418-.712.934S263.174,460.371,263.05,460.365Z" transform="translate(-214.363 -234.87)" fill="#263238"/>
      <path id="Path_68041" data-name="Path 68041" d="M256.673,448.984c-.065.1-.608-.15-1.307-.209s-1.307.085-1.307-.033.542-.477,1.365-.4S256.752,448.9,256.673,448.984Z" transform="translate(-211.279 -231.389)" fill="#263238"/>
      <path id="Path_68042" data-name="Path 68042" d="M241.383,439l-.235,13.152s13.3,4.658,13.485,7.1l-25.52.464L228.63,439.2Z" transform="translate(-202.463 -228.154)" fill="#4aa9f2"/>
      <path id="Path_68043" data-name="Path 68043" d="M235.3,457.614a1.046,1.046,0,0,0-.7,1.2,1,1,0,0,0,1.183.705,1.1,1.1,0,0,0,.738-1.307,1.052,1.052,0,0,0-1.307-.594" transform="translate(-204.525 -234.59)" fill="#e0e0e0"/>
      <path id="Path_68044" data-name="Path 68044" d="M229.37,469.581V467.51l24.461.327s1.143.477,1.026,1.307Z" transform="translate(-202.72 -238.037)" fill="#263238"/>
      <path id="Path_68045" data-name="Path 68045" d="M247.2,458.846c0,.124-.653.2-1.228.608s-.928.941-1.039.9.052-.771.8-1.254S247.227,458.735,247.2,458.846Z" transform="translate(-208.104 -234.998)" fill="#263238"/>
      <path id="Path_68046" data-name="Path 68046" d="M251.661,460.495c0,.124-.51.346-.921.882s-.523,1.091-.653,1.091-.222-.706.307-1.365S251.655,460.377,251.661,460.495Z" transform="translate(-209.866 -235.588)" fill="#263238"/>
      <path id="Path_68047" data-name="Path 68047" d="M254.916,464.224c-.111,0-.294-.595,0-1.307s.889-.974.941-.869-.3.477-.542,1.045S255.014,464.2,254.916,464.224Z" transform="translate(-211.52 -236.136)" fill="#263238"/>
      <path id="Path_68048" data-name="Path 68048" d="M246.611,454.074c-.052.111-.653-.052-1.307,0s-1.248.294-1.307.183.457-.555,1.307-.621S246.663,453.969,246.611,454.074Z" transform="translate(-207.789 -233.225)" fill="#263238"/>
      <path id="Path_68049" data-name="Path 68049" d="M233.863,287.74a2.084,2.084,0,0,1-.052.6,8.842,8.842,0,0,1-.425,1.581,10.362,10.362,0,0,1-7.919,6.71,8.487,8.487,0,0,1-1.633.15,1.867,1.867,0,0,1-.595-.046,18.416,18.416,0,0,0,2.189-.314,10.767,10.767,0,0,0,7.762-6.553C233.694,288.563,233.8,287.727,233.863,287.74Z" transform="translate(-200.595 -175.719)" fill="#455a64"/>
      <path id="Path_68050" data-name="Path 68050" d="M220.59,282.63l.34,13.015,3.848,40.41s-1.228,19.685-2.006,30.8c-.653,9.65,1.307,26.376,1.307,26.376l16.242-.425,4.351-56.064,2.7-34.961,5.482-18.294Z" transform="translate(-199.676 -173.948)" fill="#263238"/>
      <path id="Path_68051" data-name="Path 68051" d="M268.91,285.576l1.045,52.817a22.176,22.176,0,0,1-1.307,7.912l-13.956,38.881L254,387.747l-9.761-2.091,4.737-103.066Z" transform="translate(-207.874 -173.934)" fill="#263238"/>
      <path id="Path_68052" data-name="Path 68052" d="M257.567,301.45v3.874c0,2.489-.072,6.083-.189,10.525-.255,8.886-.856,21.149-1.927,34.628s-2.287,25.716-3.188,34.549c-.464,4.4-.836,7.964-1.1,10.454-.131,1.222-.235,2.176-.314,2.842-.033.307-.065.555-.085.738a1.614,1.614,0,0,1-.039.248,1.072,1.072,0,0,1,0-.255c0-.183.033-.425.059-.738.059-.653.144-1.627.255-2.849.242-2.489.581-6.063,1-10.454.849-8.833,2.051-21.044,3.1-34.556s1.7-25.762,2.012-34.628c.15-4.443.255-8.036.287-10.519,0-1.228.052-2.189.065-2.862V301.7A1.267,1.267,0,0,1,257.567,301.45Z" transform="translate(-210.12 -180.472)" fill="#455a64"/>
      <path id="Path_68053" data-name="Path 68053" d="M261.613,290.477a.836.836,0,1,1-.856-.817A.836.836,0,0,1,261.613,290.477Z" transform="translate(-213.317 -176.385)" fill="#455a64"/>
      <path id="Path_68054" data-name="Path 68054" d="M280.272,295.492a5.227,5.227,0,0,1-1.17-1.045,12.731,12.731,0,0,1-2.13-3.143,12.931,12.931,0,0,1-1.117-3.626,5.347,5.347,0,0,1-.078-1.568c.052,0,.1.595.288,1.535a15.113,15.113,0,0,0,3.195,6.664C279.873,295.041,280.3,295.453,280.272,295.492Z" transform="translate(-218.798 -175.154)" fill="#455a64"/>
      <path id="Path_68055" data-name="Path 68055" d="M205.376,297.423c0-.653-3.606-11.107-3.606-11.107l24.657-13.106,12.838,21.273-27.277,14.073Z" transform="translate(-193.152 -170.683)" fill="#f5f5f5"/>
      <path id="Path_68056" data-name="Path 68056" d="M221.613,163.64c.229.758-.477,1.5-1.209,1.81a7.78,7.78,0,0,0-2.182.947c-1.228,1.065-.889,3.319-2.228,4.253a12.285,12.285,0,0,1-2.247.758,3.6,3.6,0,0,0-1.888,3.306,10.538,10.538,0,0,0,.96,3.881,2.306,2.306,0,0,0,.653,1.072,2.339,2.339,0,0,0,1.777.235,86.54,86.54,0,0,0,9.552-1.869,1.477,1.477,0,0,0,.973-.555,1.451,1.451,0,0,0,.111-.784l-.274-6.364a12.547,12.547,0,0,0-.581-3.92,4.247,4.247,0,0,0-2.692-2.711" transform="translate(-196.649 -132.7)" fill="#263238"/>
      <path id="Path_68057" data-name="Path 68057" d="M227.966,160.978c-.555-.51-1.516.2-1.516.947a2.986,2.986,0,0,0,1.1,1.914l1.522,1.555a1.2,1.2,0,0,0,.83.477c.6-.033.764-.862.653-1.45a5.3,5.3,0,0,0-2.653-3.554" transform="translate(-201.708 -131.717)" fill="#455a64"/>
      <path id="Path_68058" data-name="Path 68058" d="M260.732,128.858c-.608-1.379-2.254-2.4-2.365-2.842-.294-1.15.706-2.391.333-3.515a2.883,2.883,0,0,0-3.025-2.293,8.7,8.7,0,0,0-4.462-3.319c-2.339-.608-5.776-1.052-7.84.17s-3.6,2.045-4.273,4.358l14.727,25.9a7.126,7.126,0,0,0,3.358-4.26c.621-1.751.9-3.613,1.594-5.338.516-1.307-.052-3.332,1.1-4.1C261.307,132.661,261.288,130.126,260.732,128.858Z" transform="translate(-206.093 -116.284)" fill="#263238"/>
      <path id="Path_68059" data-name="Path 68059" d="M253.476,133.457a11.362,11.362,0,0,0-11.14-10.637h-.588c-6.344.261-9.663,5.8-9.225,12.126l-.523,20.8,4.652,3.123c3.626,2.718,11.14,4.645,11.14,1.96h0v-5.939s6.109-.843,6.292-6.932C254.135,145.014,253.822,138.945,253.476,133.457Z" transform="translate(-203.632 -118.55)" fill="#bd8c83"/>
      <path id="Path_68060" data-name="Path 68060" d="M261.868,146.393a.875.875,0,0,1-.856.862.83.83,0,0,1-.882-.8.875.875,0,0,1,.849-.869.836.836,0,0,1,.889.8Z" transform="translate(-213.383 -126.442)" fill="#263238"/>
      <path id="Path_68061" data-name="Path 68061" d="M261.1,143.607c-.111.111-.758-.392-1.692-.405s-1.633.444-1.731.327.065-.255.366-.464a2.358,2.358,0,0,1,1.385-.405,2.287,2.287,0,0,1,1.352.464C261.059,143.346,261.144,143.535,261.1,143.607Z" transform="translate(-212.522 -125.427)" fill="#263238"/>
      <path id="Path_68062" data-name="Path 68062" d="M248.178,146.393a.875.875,0,0,1-.856.862.83.83,0,0,1-.882-.8.875.875,0,0,1,.849-.869.843.843,0,0,1,.889.8Z" transform="translate(-208.637 -126.442)" fill="#263238"/>
      <path id="Path_68063" data-name="Path 68063" d="M247.223,143.842c-.1.111-.771-.372-1.705-.359s-1.62.483-1.725.372.059-.255.359-.477a2.326,2.326,0,0,1,1.372-.438,2.3,2.3,0,0,1,1.359.425C247.184,143.58,247.276,143.789,247.223,143.842Z" transform="translate(-207.709 -125.524)" fill="#263238"/>
      <path id="Path_68064" data-name="Path 68064" d="M253.559,150.217a6.336,6.336,0,0,1,1.529-.248c.235,0,.464-.065.51-.229a1.2,1.2,0,0,0-.15-.706l-.653-1.836a31.255,31.255,0,0,1-1.509-4.789,31.13,31.13,0,0,1,1.888,4.658q.346.96.653,1.843a1.411,1.411,0,0,1,.111.941.614.614,0,0,1-.4.34,1.688,1.688,0,0,1-.412.052A6.243,6.243,0,0,1,253.559,150.217Z" transform="translate(-211.006 -125.34)" fill="#263238"/>
      <path id="Path_68065" data-name="Path 68065" d="M246.785,138.776c-.124.242-1.032,0-2.137,0s-2.032.17-2.143-.078c-.052-.118.137-.333.523-.529a3.58,3.58,0,0,1,1.64-.34,3.5,3.5,0,0,1,1.62.412C246.667,138.437,246.844,138.659,246.785,138.776Z" transform="translate(-207.27 -123.752)" fill="#263238"/>
      <path id="Path_68066" data-name="Path 68066" d="M261.136,138.787c-.189.209-.915,0-1.8-.052s-1.62.118-1.79-.111c-.072-.1.052-.32.379-.516a2.776,2.776,0,0,1,1.463-.32,2.7,2.7,0,0,1,1.424.451C261.1,138.467,261.221,138.683,261.136,138.787Z" transform="translate(-212.481 -123.737)" fill="#263238"/>
      <path id="Path_68067" data-name="Path 68067" d="M239.514,122.42a4.619,4.619,0,0,0,5.442,4.573c1.032-.189,2.163-.712,3.051-.163s.98,1.993,1.81,2.711c1.189,1.032,3.077.065,4.573.51,1.163.346,1.895,1.464,2.666,2.4s1.96,1.829,3.1,1.483a13.851,13.851,0,0,0-.457-3.11,4.572,4.572,0,0,0-1.771-2.528c-.477-.32-1.039-.51-1.49-.869-.967-.784-1.189-2.143-1.784-3.267A5.064,5.064,0,0,0,250.8,121.6c-1.307-.131-2.692.268-3.985-.059-.954-.242-1.79-.862-2.757-1.045-1.888-.359-3.639.993-5,2.339" transform="translate(-206.075 -117.725)" fill="#263238"/>
      <path id="Path_68068" data-name="Path 68068" d="M239.7,125.386c-.849-.242-2.574-.791-3.031-1.522a5.148,5.148,0,0,0-4.5-2.613,4.26,4.26,0,0,0-3.835,3.371,6.122,6.122,0,0,0-5.273,3.391,7.108,7.108,0,0,0,.2,6.612,3.489,3.489,0,0,1,.653,1.627,3.882,3.882,0,0,1-.934,1.96,6.37,6.37,0,0,0-.163,5.88c.823,1.842,1.4,2.489,2.581,2.855,2.3.725,2.241,3.92,3.13,4.815l1.483-13.172a1.334,1.334,0,0,0,.359.131c2.267.51,2.561-3.92,2.058-5.181a13.339,13.339,0,0,0,2.274-2.385,9.526,9.526,0,0,0,1.039-4.573C236.593,126.64,240.075,125.49,239.7,125.386Z" transform="translate(-200.228 -118.006)" fill="#263238"/>
      <path id="Path_68069" data-name="Path 68069" d="M232.533,147.886c-.1-.046-4.168-1.307-4.1,2.862s4.234,3.267,4.234,3.123S232.533,147.886,232.533,147.886Z" transform="translate(-202.394 -127.165)" fill="#bd8c83"/>
      <path id="Path_68070" data-name="Path 68070" d="M231.93,152.966a1.336,1.336,0,0,1-.2.111.712.712,0,0,1-.542,0,1.816,1.816,0,0,1-.856-1.6,2.418,2.418,0,0,1,.19-1.039.856.856,0,0,1,.542-.568.379.379,0,0,1,.431.2c.052.111,0,.2.052.2s.085-.072.052-.242a.464.464,0,0,0-.17-.255.516.516,0,0,0-.4-.1,1.013,1.013,0,0,0-.751.653,2.412,2.412,0,0,0-.235,1.163,1.882,1.882,0,0,0,1.085,1.784.8.8,0,0,0,.653-.118C231.924,153.071,231.976,152.973,231.93,152.966Z" transform="translate(-202.954 -127.854)" fill="#896360"/>
      <path id="Path_68071" data-name="Path 68071" d="M251.461,170.142s-5.547-.849-8.781-3.312c0,0,1.705,5.077,8.775,5.227Z" transform="translate(-207.334 -133.806)" fill="#896360"/>
      <path id="Path_68072" data-name="Path 68072" d="M249.909,155.25c.15,0,.137,1.026,1.006,1.771s1.96.653,1.96.8-.248.2-.712.2a2.555,2.555,0,0,1-1.647-.608,2.241,2.241,0,0,1-.777-1.483C249.726,155.5,249.844,155.243,249.909,155.25Z" transform="translate(-209.781 -129.792)" fill="#263238"/>
      <path id="Path_68073" data-name="Path 68073" d="M223.368,173.21s-12.721,6.279-15.38,10c-3.228,4.515,5.71,18.947,6.39,22.527.327,1.718,2.457,14.642,1.457,24.827a174.138,174.138,0,0,0-.764,20.391l41.03-3.3c0-7.187-1.856-12.688-3.084-21.776l-3.084-29.662-4.462-15.243-6.318-2.679Z" transform="translate(-195.065 -136.018)" fill="#39b1c5"/>
      <path id="Path_68074" data-name="Path 68074" d="M188.58,290.487l13.008,23.442,32.426-16.889L221.287,276.1l-21.861,11.878-3.051-1.673Z" transform="translate(-188.58 -171.684)" fill="#455a64"/>
      <path id="Path_68075" data-name="Path 68075" d="M265.77,185.1s4.573,3.554,6.39,7.579,5.331,11.146,5.331,11.146l17.64-10.852,5.135,9.957s-13.191,11.793-14.968,13.283c-2.411,2.025-4.012,3.051-6.488,3.051s-4.338-.346-6.534-3.574l-3.005-5.423Z" transform="translate(-215.338 -140.139)" fill="#3183c5"/>
      <path id="Path_68076" data-name="Path 68076" d="M271.44,200.77a.965.965,0,0,1,.072.314c.039.242.085.542.144.9.118.791.281,1.96.464,3.339.372,2.822.843,6.73,1.307,11.048s.8,8.239,1.026,11.074c.111,1.424.2,2.568.242,3.365,0,.366.033.653.046.915a1.1,1.1,0,0,1,0,.32,2.019,2.019,0,0,1-.059-.314,8.846,8.846,0,0,0-.1-.908c-.085-.843-.2-1.96-.34-3.352-.294-2.875-.686-6.769-1.124-11.068s-.888-8.18-1.2-11.048L271.551,202c-.033-.366-.059-.653-.085-.915A1.7,1.7,0,0,1,271.44,200.77Z" transform="translate(-217.303 -145.571)" fill="#263238"/>
      <path id="Path_68077" data-name="Path 68077" d="M219.468,199.7c-.059,0,0-.849-.287-2.176a10.669,10.669,0,0,0-6.4-7.84c-1.248-.529-2.1-.653-2.084-.712a1.959,1.959,0,0,1,.595.059,9.471,9.471,0,0,1,1.568.438,10.284,10.284,0,0,1,6.527,8.017,9.106,9.106,0,0,1,.118,1.627A1.81,1.81,0,0,1,219.468,199.7Z" transform="translate(-196.248 -141.479)" fill="#263238"/>
      <path id="Path_68078" data-name="Path 68078" d="M257.5,252.352a3.951,3.951,0,0,1-.8-.118,18.636,18.636,0,0,1-2.143-.536,24.951,24.951,0,0,1-3.071-1.156,28.151,28.151,0,0,1-3.515-1.96,27.667,27.667,0,0,1-3.182-2.457,24.863,24.863,0,0,1-2.28-2.352,19.593,19.593,0,0,1-1.346-1.751,3.919,3.919,0,0,1-.425-.693c.052-.033.706.915,1.96,2.293a29.475,29.475,0,0,0,2.306,2.287,31.738,31.738,0,0,0,3.162,2.4,31.028,31.028,0,0,0,3.463,1.96,29.521,29.521,0,0,0,3.012,1.209C256.381,252.071,257.512,252.286,257.5,252.352Z" transform="translate(-206.661 -159.631)" fill="#263238"/>
      <path id="Path_68079" data-name="Path 68079" d="M219.106,296.51l.314,3.58a20.88,20.88,0,0,1,3.737,2.443c.987,1.006,3.868,6.351,3.868,6.351a1.516,1.516,0,0,1-1.96.137,23.815,23.815,0,0,1-2.025-2.842h0a1.542,1.542,0,0,0-1.8,1.856c.372,1.6.8,3.469.8,3.717a19.332,19.332,0,0,0,2.809,2.888,1.026,1.026,0,0,1-.817,1.79.431.431,0,0,1-.242-.124s.137,1.705-2.208.346c0,0-2.078.5-3.1-.653a9.786,9.786,0,0,1-3.469-1.091c-.908-.738-2.947-8.494-2.947-8.494l-1.169-8.278Z" transform="translate(-196.317 -178.759)" fill="#bd8c83"/>
      <path id="Path_68080" data-name="Path 68080" d="M223.12,315.5a4.724,4.724,0,0,0,.033,1.4,7.338,7.338,0,0,0,1.013,3.267,6.535,6.535,0,0,0,2.613,2.117,4.518,4.518,0,0,0,1.307.509,6.294,6.294,0,0,0-1.163-.732,7.375,7.375,0,0,1-2.43-2.1,8.233,8.233,0,0,1-1.058-3.071A6.534,6.534,0,0,0,223.12,315.5Z" transform="translate(-200.54 -185.342)" fill="#896360"/>
      <path id="Path_68081" data-name="Path 68081" d="M220.388,316.94a2.7,2.7,0,0,0-.033,1.307,8.588,8.588,0,0,0,.261,1.372,4.272,4.272,0,0,0,.732,1.575,7.23,7.23,0,0,0,1.307,1.111l1.1.784a4.355,4.355,0,0,0,1.072.653c.033-.046-.32-.366-.915-.862-.3-.248-.653-.542-1.058-.849a8.059,8.059,0,0,1-1.209-1.085,4.345,4.345,0,0,1-.686-1.437c-.15-.484-.255-.934-.333-1.307C220.447,317.423,220.441,316.94,220.388,316.94Z" transform="translate(-199.573 -185.842)" fill="#896360"/>
      <path id="Path_68082" data-name="Path 68082" d="M217.443,318.85a10.011,10.011,0,0,0,.758,3.045,1.383,1.383,0,0,0,.392.582,3.509,3.509,0,0,0,.451.392,5.051,5.051,0,0,0,.836.549c.51.268.869.327.882.281a5.738,5.738,0,0,0-.745-.5,7.829,7.829,0,0,1-.764-.588,5.566,5.566,0,0,1-.405-.385,1.117,1.117,0,0,1-.307-.444c-.261-.83-.536-1.555-.732-2.084A4.094,4.094,0,0,0,217.443,318.85Z" transform="translate(-198.574 -186.504)" fill="#896360"/>
      <path id="Path_68083" data-name="Path 68083" d="M205.147,188.52s-4.946,6.141-4.985,11.159-1.072,37.4-1.072,37.4l6.926,27,11.042-2.8-3.92-28.44.379-24.7Z" transform="translate(-192.223 -141.325)" fill="#3183c5"/>
      <path id="Path_68084" data-name="Path 68084" d="M209.69,273.755a.565.565,0,0,1,.189-.065l.568-.163,2.2-.588,8.056-2.1-.091.137c-.83-5.691-1.96-13.237-3.129-21.5-.281-1.96-.562-3.888-.823-5.73h0c.131-7.755.255-14.583.34-19.489.052-2.424.1-4.377.131-5.749,0-.653.039-1.169.052-1.548v1.548c0,1.372,0,3.326-.033,5.749-.059,4.913-.144,11.76-.235,19.5h0c.261,1.842.542,3.763.823,5.73,1.176,8.265,2.247,15.811,3.058,21.508v.1h-.1L212.6,273.1l-2.208.523-.581.131Z" transform="translate(-195.898 -151)" fill="#263238"/>
      <g id="Group_43322" data-name="Group 43322" transform="translate(39.619 93.701)" opacity="0.3">
        <path id="Path_68085" data-name="Path 68085" d="M249.227,259.7a36.4,36.4,0,0,0,13.57,2.751c-.706,1.065-2.038,1.307-3.313,1.411a10.4,10.4,0,0,1-3.731-.359c-2.339-.719-5.09-1.81-6.534-3.8" transform="translate(-249.22 -259.7)"/>
      </g>
      <g id="Group_43323" data-name="Group 43323" transform="translate(61.701 63.686)" opacity="0.3">
        <path id="Path_68086" data-name="Path 68086" d="M283.47,213.76a19.444,19.444,0,0,0-.17,7.474,1.909,1.909,0,0,0,.372,1.039.653.653,0,0,0,.987.059,1.006,1.006,0,0,0,0-.908c-.934-3.084-1.346-4.449-1.2-7.664" transform="translate(-283.017 -213.76)"/>
      </g>
      <g id="Group_43324" data-name="Group 43324" transform="translate(20.753 66.822)" opacity="0.3">
        <path id="Path_68087" data-name="Path 68087" d="M220.884,218.56c-1.477,15.974.287,31.661,2.764,47.8l.777,5.338C225.274,255.768,223.974,234.214,220.884,218.56Z" transform="translate(-220.344 -218.56)"/>
      </g>
      <path id="Path_68088" data-name="Path 68088" d="M214.239,217.669a2.867,2.867,0,0,1-.464-.529,10.375,10.375,0,0,0-1.307-1.4,3.776,3.776,0,0,0-2.489-1,2.613,2.613,0,0,0-1.477.529c-.464.32-.882.751-1.372,1.156a3.561,3.561,0,0,1-1.673.836,3.424,3.424,0,0,1-1.738-.17,4.2,4.2,0,0,1-2.208-1.862,6.268,6.268,0,0,1-.706-1.816,1.96,1.96,0,0,1-.078-.706,4.257,4.257,0,0,1,.209.653,6.954,6.954,0,0,0,.777,1.718,4.051,4.051,0,0,0,2.1,1.7,3.142,3.142,0,0,0,1.581.137,3.215,3.215,0,0,0,1.516-.777c.47-.385.9-.817,1.4-1.163a2.92,2.92,0,0,1,1.66-.568,3.921,3.921,0,0,1,2.653,1.137,8.225,8.225,0,0,1,1.241,1.5A2.566,2.566,0,0,1,214.239,217.669Z" transform="translate(-192.789 -149.71)" fill="#fff"/>
      <path id="Path_68089" data-name="Path 68089" d="M212.76,254.639a3.284,3.284,0,0,1-.379.425,12.421,12.421,0,0,1-1.17,1.019,17.693,17.693,0,0,1-9.421,3.646,11.925,11.925,0,0,1-1.548.033,1.847,1.847,0,0,1-.562-.059c0-.059.8-.059,2.091-.216a19.952,19.952,0,0,0,9.3-3.6C212.126,255.142,212.721,254.593,212.76,254.639Z" transform="translate(-192.428 -164.244)" fill="#fff"/>
      <path id="Path_68090" data-name="Path 68090" d="M217.6,283.065c0,.059-.738-.052-1.9,0a12.11,12.11,0,0,0-2.019.268,13.5,13.5,0,0,0-2.359.79,13.76,13.76,0,0,0-2.156,1.254,12.865,12.865,0,0,0-1.535,1.339c-.8.843-1.2,1.457-1.254,1.424s.065-.176.242-.457a7.949,7.949,0,0,1,.836-1.13,10.639,10.639,0,0,1,1.529-1.424,11.966,11.966,0,0,1,2.2-1.307,12.26,12.26,0,0,1,2.437-.791,10.5,10.5,0,0,1,2.084-.2,7.5,7.5,0,0,1,1.4.111,1.507,1.507,0,0,1,.5.124Z" transform="translate(-194.744 -174.017)" fill="#fff"/>
      <path id="Path_68091" data-name="Path 68091" d="M254.767,211.57a8.685,8.685,0,0,0-1.052,1.307,25.818,25.818,0,0,0-2.038,4.09,14.751,14.751,0,0,1-1.555,2.8,5.508,5.508,0,0,1-3.012,2.084,7.014,7.014,0,0,1-2,.163,16.015,16.015,0,0,1-2.058-.274,21.06,21.06,0,0,0-4.234-.588,5.484,5.484,0,0,0-2.058.444,5.227,5.227,0,0,0-1.646,1.222,20.716,20.716,0,0,0-2.221,3.267,10.845,10.845,0,0,1-2.28,2.881,6.906,6.906,0,0,1-2.888,1.379,7.187,7.187,0,0,1-4.573-.47,4.828,4.828,0,0,1-1.411-.928,10.073,10.073,0,0,0,1.464.81,7.252,7.252,0,0,0,4.443.353,6.743,6.743,0,0,0,2.764-1.359,10.873,10.873,0,0,0,2.189-2.822,20.3,20.3,0,0,1,2.247-3.371,5.494,5.494,0,0,1,1.744-1.307,5.881,5.881,0,0,1,2.2-.477,21.048,21.048,0,0,1,4.306.6,17,17,0,0,0,2.006.281,6.793,6.793,0,0,0,1.908-.15,5.273,5.273,0,0,0,2.868-1.96,14.323,14.323,0,0,0,1.555-2.718,23.156,23.156,0,0,1,2.156-4.07,5.716,5.716,0,0,1,1.183-1.183Z" transform="translate(-200.075 -149.315)" fill="#fff"/>
      <path id="Path_68092" data-name="Path 68092" d="M252.112,186.59a.982.982,0,0,1,.111.32,2.9,2.9,0,0,1,0,.987,4.325,4.325,0,0,1-2.038,2.888,9.229,9.229,0,0,1-5.227.921c-.993,0-2.032-.1-3.1-.039a7.188,7.188,0,0,0-3.143.81,9.743,9.743,0,0,0-2.45,2.169,21.273,21.273,0,0,1-2.15,2.293,7.637,7.637,0,0,1-4.959,1.784,7.742,7.742,0,0,1-3.482-.81,5.817,5.817,0,0,1-.83-.516c-.176-.131-.268-.2-.261-.216s.392.261,1.15.614a8.03,8.03,0,0,0,3.424.653,7.467,7.467,0,0,0,4.756-1.784,21.5,21.5,0,0,0,2.1-2.267,9.728,9.728,0,0,1,2.535-2.254,7.507,7.507,0,0,1,3.267-.843,30.685,30.685,0,0,1,3.136.065,9.158,9.158,0,0,0,5.07-.823,4.254,4.254,0,0,0,2.032-2.7A3.926,3.926,0,0,0,252.112,186.59Z" transform="translate(-201.059 -140.656)" fill="#fff"/>
      <path id="Path_68093" data-name="Path 68093" d="M259,260.993a3.541,3.541,0,0,0-1.228-.908,4.528,4.528,0,0,0-3.992.444,11.266,11.266,0,0,0-2.221,1.849,31.8,31.8,0,0,1-2.4,2.385,6.345,6.345,0,0,1-3.4,1.614,7.755,7.755,0,0,1-3.92-.869c-1.261-.568-2.424-1.222-3.626-1.659a16.735,16.735,0,0,0-3.574-.869,17.469,17.469,0,0,0-6.213.307,17.1,17.1,0,0,0-3.959,1.45c-.889.451-1.352.764-1.372.732a2.023,2.023,0,0,1,.327-.242,10.384,10.384,0,0,1,.987-.608,15.784,15.784,0,0,1,3.966-1.562,17.2,17.2,0,0,1,6.3-.392,16.99,16.99,0,0,1,3.652.869c1.228.444,2.411,1.1,3.646,1.666a7.421,7.421,0,0,0,3.77.843,5.978,5.978,0,0,0,3.228-1.522c.908-.745,1.646-1.594,2.4-2.339a10.99,10.99,0,0,1,2.3-1.862,4.573,4.573,0,0,1,4.168-.353,2.688,2.688,0,0,1,.934.693,1.306,1.306,0,0,1,.183.242C258.969,260.96,259.008,260.986,259,260.993Z" transform="translate(-200.546 -165.973)" fill="#fff"/>
      <path id="Path_68094" data-name="Path 68094" d="M231.207,172.712s-.83-1.8-.418-2.849.8-1.124.8-1.124l16.536,5.488a2.614,2.614,0,0,1,0,2.881c-.947,1.705-5.567,1.705-5.567,1.705Z" transform="translate(-203.172 -134.468)" fill="#014e84"/>
      <path id="Path_68095" data-name="Path 68095" d="M248.052,178.666a2.469,2.469,0,0,1-.7.268,8.556,8.556,0,0,1-2.032.294,17.876,17.876,0,0,1-6.592-1.307,30.837,30.837,0,0,1-5.978-3.1c-.719-.464-1.307-.856-1.692-1.13a3.162,3.162,0,0,1-.588-.464,3.4,3.4,0,0,1,.653.353l1.751,1.039a36.5,36.5,0,0,0,5.965,2.979,19.176,19.176,0,0,0,6.468,1.418,15.084,15.084,0,0,0,2.744-.353Z" transform="translate(-203.101 -136.024)" fill="#263238"/>
      <path id="Path_68096" data-name="Path 68096" d="M298.784,220.413a8.072,8.072,0,0,0,.131-2.143,4.92,4.92,0,0,0-2.921-3.92,23.788,23.788,0,0,1-2.751-.954,3.332,3.332,0,0,1-1.483-1.914,3.268,3.268,0,0,1-.085-1.627,1.306,1.306,0,0,1,.222-.555,3.2,3.2,0,0,1-.091.582,3.437,3.437,0,0,0,.183,1.529,3.123,3.123,0,0,0,1.4,1.712c.751.425,1.751.5,2.737.915a5.181,5.181,0,0,1,2.254,1.96,4.913,4.913,0,0,1,.764,2.287,4.723,4.723,0,0,1-.144,1.62A1.5,1.5,0,0,1,298.784,220.413Z" transform="translate(-224.296 -148.528)" fill="#fff"/>
      <path id="Path_68097" data-name="Path 68097" d="M273.84,217.447a3.142,3.142,0,0,0,.941-.738,18.252,18.252,0,0,0,1.268-2.666,10.84,10.84,0,0,1,1.731-2.476,3.4,3.4,0,0,1,.948-.817,23.322,23.322,0,0,0-2.378,3.45,11.948,11.948,0,0,1-1.392,2.666A1.728,1.728,0,0,1,273.84,217.447Z" transform="translate(-218.135 -149.031)" fill="#fff"/>
      <g id="Group_43325" data-name="Group 43325" transform="translate(54.731 57.427)" opacity="0.3">
        <path id="Path_68098" data-name="Path 68098" d="M274.127,221.651a54.336,54.336,0,0,0,.516-8.918,18.908,18.908,0,0,0-2.293-8.552q.418,8.7,1.359,17.346" transform="translate(-272.35 -204.18)"/>
      </g>
      <g id="Group_43326" data-name="Group 43326" transform="translate(28.336 37.545)" opacity="0.3">
        <path id="Path_68099" data-name="Path 68099" d="M247.99,179.323c-.052-.32-.653-.137-.98-.118-4.946.268-11.068-2.149-15.06-5.455a21.834,21.834,0,0,0,9.657,7.108,8.415,8.415,0,0,0,3.352.49,3.875,3.875,0,0,0,2.894-1.588A.607.607,0,0,0,247.99,179.323Z" transform="translate(-231.95 -173.75)"/>
      </g>
    </g>
    <g id="freepik--speech-bubble--inject-31" transform="translate(83.32 226.05)">
      <path id="Path_68101" data-name="Path 68101" d="M184.159,138.066l-4.208-7.416a19.894,19.894,0,1,0-4.763,5.292h0Z" transform="translate(-143.06 -100.308)" fill="#fff"/>
      <path id="Path_68102" data-name="Path 68102" d="M184.124,138.085l-9-2.025a.072.072,0,0,1-.052-.091h0l.1.1a19.745,19.745,0,0,1-9.532,4.025,17.7,17.7,0,0,1-3.143.163c-.542,0-1.091-.046-1.646-.091l-1.679-.255a20.025,20.025,0,0,1-12.414-7.971,19.789,19.789,0,0,1-3.365-7.677,20.339,20.339,0,0,1,.235-8.84,19.56,19.56,0,0,1,4.26-8.173,19.927,19.927,0,0,1,7.657-5.469,20.306,20.306,0,0,1,8.912-1.372,19.685,19.685,0,0,1,8.18,2.417,20.182,20.182,0,0,1,9.428,11.61,21.562,21.562,0,0,1,.862,6.468,19.751,19.751,0,0,1-2.973,9.846v-.072l4.149,7.455-4.273-7.383a.072.072,0,0,1,0-.072,19.757,19.757,0,0,0,2.888-9.8,21.458,21.458,0,0,0-.875-6.39,19.947,19.947,0,0,0-9.343-11.44,19.359,19.359,0,0,0-8.062-2.365,20.006,20.006,0,0,0-8.781,1.352,19.66,19.66,0,0,0-7.54,5.39,19.367,19.367,0,0,0-4.2,8.049,19.974,19.974,0,0,0-.235,8.716,19.548,19.548,0,0,0,3.3,7.572,19.849,19.849,0,0,0,12.244,7.892l1.653.261c.549.046,1.1.059,1.633.091a17.4,17.4,0,0,0,3.11-.144,19.771,19.771,0,0,0,9.467-3.92.072.072,0,0,1,.1,0,.078.078,0,0,1,0,.091h0l-.039-.124Z" transform="translate(-143.025 -100.327)" fill="#263238"/>
      <path id="Path_68103" data-name="Path 68103" d="M157.35,127.04l2.855-2.855,5.495,4.887,10.793-10.382,2.653,2.849-13.851,13.034Z" transform="translate(-147.991 -106.68)" fill="#3183c5"/>
    </g>
  </g>
</svg>
