<svg id="Layer_2" data-name="Layer 2" xmlns="http://www.w3.org/2000/svg" width="14.493" height="14.493" viewBox="0 0 14.493 14.493">
  <path id="Path_72685" data-name="Path 72685" d="M8.246,1a7.246,7.246,0,1,0,7.246,7.246A7.246,7.246,0,0,0,8.246,1ZM8.73,11.029v.546a.483.483,0,1,1-.966,0v-.541a1.691,1.691,0,0,1-1.077-.966.487.487,0,0,1,.9-.362.7.7,0,0,0,.657.444.71.71,0,0,0,.715-.71A.725.725,0,0,0,8.246,8.7,1.71,1.71,0,0,1,6.725,6.251a1.58,1.58,0,0,1,1.039-.87V4.826a.483.483,0,0,1,.966,0V5.4a1.681,1.681,0,0,1,.7.406,1.734,1.734,0,0,1,.382.575.485.485,0,0,1-.9.343.826.826,0,0,0-.159-.232A.7.7,0,0,0,7.556,7a.739.739,0,0,0,.686.734,1.763,1.763,0,0,1,1.7,1.449,1.691,1.691,0,0,1-1.208,1.85Z" transform="translate(-1 -1)" fill="#3183c5"/>
</svg>
