<svg xmlns="http://www.w3.org/2000/svg" width="17.438" height="17.824" viewBox="0 0 13.438 13.824">
  <g id="svgexport-7_-_2022-12-19T153518.712" data-name="svgexport-7 - 2022-12-19T153518.712" transform="translate(-6.675)">
    <g id="Group_48555" data-name="Group 48555" transform="translate(6.675 0)">
      <path id="Path_79536" data-name="Path 79536" d="M19.71,9.4a1.717,1.717,0,0,0,.4-1.148,1.763,1.763,0,0,0-.376-.994,1.545,1.545,0,0,0-.367-1.778,3.192,3.192,0,0,0-2.321-.555,9.072,9.072,0,0,0-1.422.182h0c-.145.026-.3.058-.454.093a5.043,5.043,0,0,1,.361-1.68,3.091,3.091,0,0,0-.075-2.8A1.838,1.838,0,0,0,13.983,0a.726.726,0,0,0-.558.254,1.945,1.945,0,0,0-.243,1.379c-.382,1.023-1.451,3.533-2.356,4.229a.309.309,0,0,0-.046.04,3.106,3.106,0,0,0-.567.85,1.193,1.193,0,0,0-.572-.145H7.878a1.2,1.2,0,0,0-1.2,1.2v4.7a1.2,1.2,0,0,0,1.2,1.2H9.641a1.2,1.2,0,0,0,.694-.22l.679.081a29.107,29.107,0,0,0,3.854.211c.344.026.668.04.968.04A6.486,6.486,0,0,0,17.18,13.7a2.514,2.514,0,0,0,1.8-1.116,1.769,1.769,0,0,0,.2-1.107,1.844,1.844,0,0,0,.656-1.5A1.953,1.953,0,0,0,19.71,9.4ZM7.878,12.931a.423.423,0,0,1-.422-.422v-4.7a.423.423,0,0,1,.422-.422H9.641a.423.423,0,0,1,.422.422v4.7a.423.423,0,0,1-.422.422H7.878ZM18.97,9.06a.389.389,0,0,0-.052.471,1.2,1.2,0,0,1,.133.483,1.157,1.157,0,0,1-.543,1,.394.394,0,0,0-.133.445,1.021,1.021,0,0,1-.078.746,1.808,1.808,0,0,1-1.278.734A7.616,7.616,0,0,1,14.911,13h-.04a28.535,28.535,0,0,1-3.758-.205h0l-.292-.035a1.225,1.225,0,0,0,.026-.254v-4.7a1.223,1.223,0,0,0-.055-.358,2.416,2.416,0,0,1,.538-.992c1.3-1.029,2.567-4.5,2.622-4.651a.366.366,0,0,0,.017-.194A1.807,1.807,0,0,1,14,.775a1.037,1.037,0,0,1,.815.39,2.462,2.462,0,0,1-.035,2.1c-.486,1.471-.526,2.246-.142,2.587a.63.63,0,0,0,.63.113c.176-.04.344-.075.5-.1l.038-.009c.888-.194,2.477-.312,3.03.191a.832.832,0,0,1,.1,1.055.387.387,0,0,0,.069.5,1.1,1.1,0,0,1,.321.674A1.074,1.074,0,0,1,18.97,9.06Z" transform="translate(-6.675 0)" fill="#9fa1a1"/>
    </g>
  </g>
</svg>
