<svg xmlns="http://www.w3.org/2000/svg" xmlns:xlink="http://www.w3.org/1999/xlink" width="88.901" height="110.262" viewBox="0 0 88.901 110.262">
  <defs>
    <linearGradient id="linear-gradient" x1="0.499" y1="-0.032" x2="0.504" y2="1.005" gradientUnits="objectBoundingBox">
      <stop offset="0" stop-color="#3183c5"/>
      <stop offset="1" stop-color="#0d5998"/>
    </linearGradient>
    <linearGradient id="linear-gradient-2" x1="0.485" y1="-0.002" x2="0.533" y2="1.896" gradientUnits="objectBoundingBox">
      <stop offset="0" stop-color="#0ba0da"/>
      <stop offset="1" stop-color="#1a43ac"/>
    </linearGradient>
    <linearGradient id="linear-gradient-3" x1="-2.05" y1="0.411" x2="1.162" y2="0.55" gradientUnits="objectBoundingBox">
      <stop offset="0.74" stop-color="#fccd14"/>
      <stop offset="1" stop-color="#f1793f"/>
    </linearGradient>
  </defs>
  <g id="logo_color" transform="translate(-183.692 -157.337)">
    <path id="Path_76363" data-name="Path 76363" d="M506.754,325.492c.555-.522,1.137-.642,1.253-.35s-.212.881-.719,1.355a20.376,20.376,0,0,0-2.734,2.96,35.3,35.3,0,0,0-4.223,7.5c-1.233,2.893-2.249,5.873-3.007,8.092s-1.263,3.695-1.265,3.695.449-1.485,1.1-3.728,1.535-5.25,2.679-8.237a37.333,37.333,0,0,1,4.075-7.959A21.289,21.289,0,0,1,506.754,325.492Z" transform="translate(-267.426 -143.529)" fill="#359668"/>
    <path id="Path_76364" data-name="Path 76364" d="M413.508,293.53s-3.365,3.243-5.508,11.332c0,0,.154.281.422-.4C408.422,304.462,411.978,295.412,413.508,293.53Z" transform="translate(-192.036 -116.598)" fill="#359668"/>
    <path id="Path_76365" data-name="Path 76365" d="M435.793,320.366c.027.176.161.288.281.255a.3.3,0,0,0,.164-.355,6.127,6.127,0,0,1-.1-.947,10.236,10.236,0,0,1,.155-1.991c.247-1.447.693-2.878.683-2.878a24.614,24.614,0,0,0-.9,2.863,10.512,10.512,0,0,0-.314,2.042A5.757,5.757,0,0,0,435.793,320.366Z" transform="translate(-215.791 -134.508)" fill="#c93036"/>
    <path id="Path_76366" data-name="Path 76366" d="M450.52,295.18l.213,5.585s.237.495.447,0Z" transform="translate(-228.438 -118.011)" fill="#359668"/>
    <path id="Path_76367" data-name="Path 76367" d="M455.09,296a19.068,19.068,0,0,1,1.63,4.778s.353.542.517.1A10.909,10.909,0,0,0,455.09,296Z" transform="translate(-232.35 -118.713)" fill="#c93036"/>
    <path id="Path_76368" data-name="Path 76368" d="M467.23,306.61a14.84,14.84,0,0,1,3.246,5.738s.4.719.565.272A11.352,11.352,0,0,0,467.23,306.61Z" transform="translate(-242.744 -127.796)" fill="#359668"/>
    <path id="Path_76369" data-name="Path 76369" d="M456.93,293.53a15.243,15.243,0,0,1,4.423,3.433s.87.469.47-.295A13.285,13.285,0,0,0,456.93,293.53Z" transform="translate(-233.926 -116.598)" fill="#c93036"/>
    <path id="Path_76370" data-name="Path 76370" d="M455.09,288.937s3.7-.361,5.392.79c0,0,.611,0,.165-.422C460.648,289.3,458.681,288.174,455.09,288.937Z" transform="translate(-232.35 -112.44)" fill="#359668"/>
    <path id="Path_76371" data-name="Path 76371" d="M455.09,277.573a1.453,1.453,0,0,1,2.265-.788,6.691,6.691,0,0,1,.918.616s.611.088.576-.446a.851.851,0,0,0-.012-.1c-.118-.64-.883-.984-2.224-.811A2.581,2.581,0,0,0,455.09,277.573Z" transform="translate(-232.35 -101.592)" fill="#c93036"/>
    <path id="Path_76372" data-name="Path 76372" d="M455.09,242.728s2.406-2.634,11.581-5.755c0,0,.941-.788-.636-.567C466.035,236.4,457.654,239.241,455.09,242.728Z" transform="translate(-232.35 -67.66)" fill="#359668"/>
    <path id="Path_76373" data-name="Path 76373" d="M468.16,229.069l4.049-4.667s.3-.842-.371-.432Z" transform="translate(-243.54 -56.95)" fill="#359668"/>
    <path id="Path_76374" data-name="Path 76374" d="M401.2,236.494c-.411-2.109,5.558.7,4.936.476C404.253,236.286,401.475,237.918,401.2,236.494Z" transform="translate(-186.195 -67.092)" fill="#a8d46f" fill-rule="evenodd"/>
    <path id="Path_76375" data-name="Path 76375" d="M442.934,232.991c.846-.24.3,2.878.328,2.549C443.349,234.562,442.363,233.151,442.934,232.991Z" transform="translate(-221.79 -64.758)" fill="#a8d46f" fill-rule="evenodd"/>
    <path id="Path_76376" data-name="Path 76376" d="M452.8,233.364s.23-2.639,3.554-7.83c0,0,.492-1.391-.46-.637C455.893,224.9,454.15,226.637,452.8,233.364Z" transform="translate(-230.39 -57.648)" fill="#c93036" fill-rule="evenodd"/>
    <path id="Path_76377" data-name="Path 76377" d="M452.626,234.711l.757-6.349s-.111-1.131-.61-.26C452.773,228.1,452.511,234.03,452.626,234.711Z" transform="translate(-230.216 -60.301)" fill="#359668" fill-rule="evenodd"/>
    <path id="Path_76378" data-name="Path 76378" d="M439.229,255.1s-.506-4.135-1.514-4.9c0,0-.616-.485-.288.386A21.476,21.476,0,0,1,439.229,255.1Z" transform="translate(-217.146 -79.386)" fill="#c93036" fill-rule="evenodd"/>
    <path id="Path_76379" data-name="Path 76379" d="M424.215,256.023a9.687,9.687,0,0,0-3.008-4.775s-1.151-.432-.98.432C420.227,251.677,423.859,254.573,424.215,256.023Z" transform="translate(-202.488 -80.307)" fill="#359668" fill-rule="evenodd"/>
    <path id="Path_76380" data-name="Path 76380" d="M390.16,256.437a18.35,18.35,0,0,0-7.86-5.18s-2.049-.432-1.468.432C380.832,251.685,387.145,253.746,390.16,256.437Z" transform="translate(-168.688 -80.316)" fill="#c93036" fill-rule="evenodd"/>
    <path id="Path_76381" data-name="Path 76381" d="M365.817,270.847s-1.07-2.1-10.375-2.849c0,0-3.961-.226-2.383.964C353.059,268.962,363.841,268.9,365.817,270.847Z" transform="translate(-144.681 -94.725)" fill="#359668" fill-rule="evenodd"/>
    <path id="Path_76382" data-name="Path 76382" d="M401.361,285.752a6.988,6.988,0,0,0-5.853,1.565s-1.063.112,0-.755A6.35,6.35,0,0,1,401.361,285.752Z" transform="translate(-180.936 -109.63)" fill="#c93036" fill-rule="evenodd"/>
    <path id="Path_76383" data-name="Path 76383" d="M424.319,290.31a5.429,5.429,0,0,0-4.172,2.669s-.122.576.459.232C420.607,293.211,423.162,290.306,424.319,290.31Z" transform="translate(-202.425 -113.841)" fill="#c93036" fill-rule="evenodd"/>
    <path id="Path_76384" data-name="Path 76384" d="M412.974,294.35s-1.468.521-1.163,1.043C411.812,295.393,412.235,295.915,412.974,294.35Z" transform="translate(-195.263 -117.3)" fill="#359668" fill-rule="evenodd"/>
    <path id="Path_76385" data-name="Path 76385" d="M393.6,315.809c-2.05-.144,2.108-5.431,1.737-4.863C394.215,312.672,394.987,315.9,393.6,315.809Z" transform="translate(-179.22 -131.472)" fill="#a8d46f" fill-rule="evenodd"/>
    <path id="Path_76386" data-name="Path 76386" d="M651.22,310.55s4.5,4.338,7.366,15.156c0,0-.2.376-.562-.535C658.024,325.171,653.267,313.061,651.22,310.55Z" transform="translate(-400.262 -131.169)" fill="#a8d46f"/>
    <path id="Path_76387" data-name="Path 76387" d="M655.531,346.485c-.036.236-.214.387-.375.341a.41.41,0,0,1-.219-.475,7.866,7.866,0,0,0,.144-1.266,13.552,13.552,0,0,0-.209-2.663,39.028,39.028,0,0,0-.914-3.841c-.013,0,.727,1.88,1.209,3.83a14.253,14.253,0,0,1,.42,2.734A7.438,7.438,0,0,1,655.531,346.485Z" transform="translate(-402.607 -155.167)" fill="#359668"/>
    <path id="Path_76388" data-name="Path 76388" d="M640.328,312.77l-.281,7.463s-.316.662-.6,0Z" transform="translate(-390.185 -133.07)" fill="#a8d46f"/>
    <path id="Path_76389" data-name="Path 76389" d="M622.362,313.85a25.649,25.649,0,0,0-2.18,6.39s-.472.719-.692.132A14.631,14.631,0,0,1,622.362,313.85Z" transform="translate(-373.097 -133.995)" fill="#359668"/>
    <path id="Path_76390" data-name="Path 76390" d="M592.852,328a19.961,19.961,0,0,0-4.346,7.682s-.535.955-.755.363A15.275,15.275,0,0,1,592.852,328Z" transform="translate(-345.924 -146.109)" fill="#359668"/>
    <path id="Path_76391" data-name="Path 76391" d="M597.226,310.55a20.234,20.234,0,0,0-5.915,4.591s-1.164.629-.629-.394A17.726,17.726,0,0,1,597.226,310.55Z" transform="translate(-348.314 -131.169)" fill="#a8d46f"/>
    <path id="Path_76392" data-name="Path 76392" d="M593.915,304.41s-4.948-.493-7.214,1.055c0,0-.817-.01-.22-.565C586.481,304.9,589.111,303.389,593.915,304.41Z" transform="translate(-344.651 -125.609)" fill="#359668"/>
    <path id="Path_76393" data-name="Path 76393" d="M574.085,289.211s-1.394-2.24-6.618-1.055a26.1,26.1,0,0,0-2.679.824s-1.787.118-1.683-.6a.52.52,0,0,1,.036-.128c.344-.856,2.581-1.316,6.5-1.086C569.642,287.169,573.144,287.729,574.085,289.211Z" transform="translate(-324.82 -111.102)" fill="#a8d46f"/>
    <path id="Path_76394" data-name="Path 76394" d="M566.216,251.618s-2.5-2.892-12.018-6.331c0,0-.977-.863.659-.622C554.857,244.677,563.561,247.791,566.216,251.618Z" transform="translate(-316.951 -74.728)" fill="#359668"/>
    <path id="Path_76395" data-name="Path 76395" d="M589.243,224.343l-5.415-6.244s-.4-1.124.5-.576Z" transform="translate(-342.489 -51.398)" fill="#a8d46f"/>
    <path id="Path_76396" data-name="Path 76396" d="M650.534,229.576c-1.132-.319-.4,3.843-.439,3.411C649.979,231.678,651.3,229.792,650.534,229.576Z" transform="translate(-399.13 -61.83)" fill="#a8d46f" fill-rule="evenodd"/>
    <path id="Path_76397" data-name="Path 76397" d="M613.238,230.082s-.308-3.529-4.748-10.471c0,0-.657-1.862.616-.853C609.1,218.758,611.44,221.084,613.238,230.082Z" transform="translate(-363.535 -52.327)" fill="#359668" fill-rule="evenodd"/>
    <path id="Path_76398" data-name="Path 76398" d="M636.507,231.9l-1.007-8.489s.144-1.514.816-.35C636.312,223.059,636.665,230.989,636.507,231.9Z" transform="translate(-386.804 -55.892)" fill="#a8d46f" fill-rule="evenodd"/>
    <path id="Path_76399" data-name="Path 76399" d="M645.55,259.108s.683-5.531,2.024-6.566c0,0,.823-.647.378.517A29.2,29.2,0,0,0,645.55,259.108Z" transform="translate(-395.408 -81.353)" fill="#359668" fill-rule="evenodd"/>
    <path id="Path_76400" data-name="Path 76400" d="M648.86,260.371a12.949,12.949,0,0,1,4.029-6.387s1.534-.584,1.311.576C654.193,254.559,649.336,258.426,648.86,260.371Z" transform="translate(-398.242 -82.616)" fill="#a8d46f" fill-rule="evenodd"/>
    <path id="Path_76401" data-name="Path 76401" d="M651.22,260.9a24.577,24.577,0,0,1,10.513-6.929s2.741-.583,1.963.576C663.7,254.545,655.251,257.3,651.22,260.9Z" transform="translate(-400.262 -82.602)" fill="#359668" fill-rule="evenodd"/>
    <path id="Path_76402" data-name="Path 76402" d="M654.36,280.2s1.432-2.81,13.875-3.81c0,0,5.3-.3,3.185,1.295C671.421,277.678,657,277.594,654.36,280.2Z" transform="translate(-402.95 -101.901)" fill="#a8d46f" fill-rule="evenodd"/>
    <path id="Path_76403" data-name="Path 76403" d="M661,300.134a9.356,9.356,0,0,1,7.83,2.093s1.422.151,0-1.007A8.512,8.512,0,0,0,661,300.134Z" transform="translate(-408.635 -121.84)" fill="#359668" fill-rule="evenodd"/>
    <path id="Path_76404" data-name="Path 76404" d="M647.31,306.25a10.734,10.734,0,0,1,8.322,5.535s.243,1.2-.918.48C654.714,312.265,649.618,306.24,647.31,306.25Z" transform="translate(-396.915 -127.488)" fill="#359668" fill-rule="evenodd"/>
    <path id="Path_76405" data-name="Path 76405" d="M686.18,311.64s1.964.7,1.557,1.4C687.737,313.037,687.18,313.735,686.18,311.64Z" transform="translate(-430.192 -132.103)" fill="#a8d46f" fill-rule="evenodd"/>
    <path id="Path_76406" data-name="Path 76406" d="M518.7,350.61s-7.164-17.966-13.168-23.44C505.53,327.17,518.115,348.91,518.7,350.61Z" transform="translate(-275.533 -145.398)" fill="#359668"/>
    <path id="Path_76407" data-name="Path 76407" d="M552.129,328.428s1.227-13.9-.819-19.478C551.307,308.957,552.306,327.147,552.129,328.428Z" transform="translate(-314.727 -129.8)" fill="#359668"/>
    <path id="Path_76408" data-name="Path 76408" d="M545.86,254.86s.043.069.112.2a10.489,10.489,0,0,1,1.046,5.6l-1.115-5.732" transform="translate(-310.061 -83.492)" fill="#359668" fill-rule="evenodd"/>
    <path id="Path_76409" data-name="Path 76409" d="M551.29,257.18a9.634,9.634,0,0,1,1.7,2.679s.255.708-.3.106A12.862,12.862,0,0,0,551.29,257.18Z" transform="translate(-314.709 -85.478)" fill="#f9d423" fill-rule="evenodd"/>
    <path id="Path_76410" data-name="Path 76410" d="M514.931,254.94s-2.764,1.109-3.252,1.925c0,0-.576.6.393.247A11.964,11.964,0,0,1,514.931,254.94Z" transform="translate(-280.653 -83.56)" fill="#f9d423" fill-rule="evenodd"/>
    <path id="Path_76411" data-name="Path 76411" d="M551.29,254.751s2.042-.432,5.644,2.9c0,0,1.04.432.587-.357A11.278,11.278,0,0,0,551.29,254.751Z" transform="translate(-314.709 -83.383)" fill="#359668" fill-rule="evenodd"/>
    <path id="Path_76412" data-name="Path 76412" d="M551.29,214.575l2.437-4.447s0-.683-.377-.131C553.35,210,551.314,214.232,551.29,214.575Z" transform="translate(-314.709 -44.899)" fill="#f9d423" fill-rule="evenodd"/>
    <path id="Path_76413" data-name="Path 76413" d="M544.379,221.1l.1-4.254s-.226-.6-.351,0l.249,4.361" transform="translate(-308.58 -50.72)" fill="#359668" fill-rule="evenodd"/>
    <path id="Path_76414" data-name="Path 76414" d="M509.343,206.052a16.38,16.38,0,0,0-4.925-6.867s-1.056-.4-.653.21C503.765,199.395,508.18,203.177,509.343,206.052Z" transform="translate(-273.944 -35.718)" fill="#f9d423" fill-rule="evenodd"/>
    <path id="Path_76415" data-name="Path 76415" d="M519.538,229.159a12.939,12.939,0,0,0-2.814-2.765s-.8-.1-.3.449A12.486,12.486,0,0,1,519.538,229.159Z" transform="translate(-284.718 -59.115)" fill="#359668" fill-rule="evenodd"/>
    <path id="Path_76416" data-name="Path 76416" d="M487.358,234.161s-2.665-2.3-8.243-2.65c0,0-1.512-.132-.128.5C478.987,232.011,484.82,232.661,487.358,234.161Z" transform="translate(-252.31 -63.493)" fill="#f9d423" fill-rule="evenodd"/>
    <path id="Path_76417" data-name="Path 76417" d="M510.067,249.874s-3.926-.7-4.926.076c0,0-.623.473.269.4A19.5,19.5,0,0,1,510.067,249.874Z" transform="translate(-275.019 -78.975)" fill="#359668" fill-rule="evenodd"/>
    <path id="Path_76418" data-name="Path 76418" d="M533.726,256.05a17.636,17.636,0,0,0-1.151,6.086s-.371,1.033-.576.121A15.593,15.593,0,0,1,533.726,256.05Z" transform="translate(-298.195 -84.511)" fill="#f9d423"/>
    <path id="Path_76419" data-name="Path 76419" d="M518.629,251.38s-2.07,1.9-4.029,9.127c0,0-.6.742-.538-.5C514.069,260.01,515.839,253.407,518.629,251.38Z" transform="translate(-282.834 -80.512)" fill="#359668"/>
    <path id="Path_76420" data-name="Path 76420" d="M785.615,318.37c.258,0,.348.423.219.652s-.317.217-.576.21-.348-.424-.219-.652S785.355,318.362,785.615,318.37Z" transform="translate(-514.778 -137.862)" fill="#f9d423"/>
    <path id="Path_76421" data-name="Path 76421" d="M789.295,339.161c.135-.125.432-.043.481.3.023.319-.187.446-.374.414a.446.446,0,0,1-.331-.325A.6.6,0,0,1,789.295,339.161Z" transform="translate(-518.279 -155.616)" fill="#f9d423"/>
    <path id="Path_76422" data-name="Path 76422" d="M790.883,349.5a.888.888,0,0,1,.35.833.709.709,0,0,1-.778.479.673.673,0,0,1-.5-.889C790.1,349.426,790.611,349.255,790.883,349.5Z" transform="translate(-519.008 -164.422)" fill="#f9d423"/>
    <path id="Path_76423" data-name="Path 76423" d="M754.222,303.231a.575.575,0,0,1,.447.656.548.548,0,0,1-.627.468.567.567,0,0,1-.446-.656.547.547,0,0,1,.626-.468Z" transform="translate(-487.901 -124.898)" fill="#f9d423"/>
    <path id="Path_76424" data-name="Path 76424" d="M756.952,319.636c.186-.012.279.358.01.576s-.583-.016-.512-.2.083-.351.124-.375A1.752,1.752,0,0,1,756.952,319.636Z" transform="translate(-490.344 -138.942)" fill="#f9d423"/>
    <path id="Path_76425" data-name="Path 76425" d="M347.894,347.247c-.176.046-.41-.17-.3-.495.118-.3.36-.308.512-.191a.465.465,0,0,1,.155.446A.575.575,0,0,1,347.894,347.247Z" transform="translate(-140.296 -161.94)" fill="#f9d423"/>
    <path id="Path_76426" data-name="Path 76426" d="M348.577,332.786a.9.9,0,0,1,.049-.908.685.685,0,0,1,.9-.059.692.692,0,0,1,.063,1.03A.6.6,0,0,1,348.577,332.786Z" transform="translate(-141.08 -149.257)" fill="#f9d423"/>
    <path id="Path_76427" data-name="Path 76427" d="M359.447,322.609a.351.351,0,0,1-.069-.478.315.315,0,0,1,.456-.072.351.351,0,0,1,.069.478.316.316,0,0,1-.456.072Z" transform="translate(-150.354 -140.965)" fill="#f9d423"/>
    <path id="Path_76428" data-name="Path 76428" d="M453.261,162.563c.032-.268.432-.324.64-.165s.177.35.144.62-.432.322-.64.165S453.229,162.841,453.261,162.563Z" transform="translate(-230.764 -4.257)" fill="#f9d423"/>
    <path id="Path_76429" data-name="Path 76429" d="M473.343,161.963a.331.331,0,0,1,.33-.473.338.338,0,0,1,.358.432.446.446,0,0,1-.341.315A.576.576,0,0,1,473.343,161.963Z" transform="translate(-247.943 -3.554)" fill="#f9d423"/>
    <path id="Path_76430" data-name="Path 76430" d="M483.486,157.66a.791.791,0,0,1,.826-.288.755.755,0,0,1,.381.863.636.636,0,0,1-.892.432A.654.654,0,0,1,483.486,157.66Z" transform="translate(-256.544)" fill="#f9d423"/>
    <path id="Path_76431" data-name="Path 76431" d="M499.93,164.1a.327.327,0,0,1,.4-.242.345.345,0,0,1,.232.419.325.325,0,0,1-.4.242A.345.345,0,0,1,499.93,164.1Z" transform="translate(-270.729 -5.574)" fill="#f9d423"/>
    <path id="Path_76432" data-name="Path 76432" d="M435.886,192.8a.541.541,0,0,1,.666-.4.575.575,0,0,1,.386.7.541.541,0,0,1-.666.4A.576.576,0,0,1,435.886,192.8Z" transform="translate(-215.893 -29.996)" fill="#f9d423"/>
    <path id="Path_76433" data-name="Path 76433" d="M451.582,193.81c.007-.2.367-.258.545.043s-.071.607-.236.515-.325-.119-.345-.164A2.107,2.107,0,0,1,451.582,193.81Z" transform="translate(-229.312 -31.085)" fill="#f9d423"/>
    <path id="Path_76434" data-name="Path 76434" d="M650.175,172.336c.18-.193.534.02.606.275s-.062.391-.243.586-.534-.019-.606-.273S649.994,172.532,650.175,172.336Z" transform="translate(-399.142 -12.777)" fill="#f9d423"/>
    <path id="Path_76435" data-name="Path 76435" d="M667.361,184.638c0-.188.268-.365.537-.167a.351.351,0,0,1,.036.568.42.42,0,0,1-.452.035A.621.621,0,0,1,667.361,184.638Z" transform="translate(-414.078 -23.155)" fill="#f9d423"/>
    <path id="Path_76436" data-name="Path 76436" d="M676.313,188.744a.8.8,0,0,1,.821.3.768.768,0,0,1-.193.924.624.624,0,0,1-.962-.217A.653.653,0,0,1,676.313,188.744Z" transform="translate(-421.368 -26.879)" fill="#f9d423"/>
    <path id="Path_76437" data-name="Path 76437" d="M687.189,203.138a.318.318,0,0,1,.458.06.351.351,0,0,1-.058.479.315.315,0,0,1-.457-.06A.352.352,0,0,1,687.189,203.138Z" transform="translate(-430.948 -39.151)" fill="#f9d423"/>
    <path id="Path_76438" data-name="Path 76438" d="M618.606,185.921a.528.528,0,0,1,.764.1.587.587,0,0,1-.1.8.528.528,0,0,1-.764-.1A.587.587,0,0,1,618.606,185.921Z" transform="translate(-372.16 -24.369)" fill="#f9d423"/>
    <path id="Path_76439" data-name="Path 76439" d="M631.194,195.919c.118-.151.44.027.407.38s-.407.432-.485.26-.19-.3-.18-.35S631.059,196.074,631.194,195.919Z" transform="translate(-382.896 -32.984)" fill="#f9d423"/>
    <path id="Path_76440" data-name="Path 76440" d="M376.275,363.182a.551.551,0,0,1-.8.075.614.614,0,0,1-.072-.839.553.553,0,0,1,.8-.076A.614.614,0,0,1,376.275,363.182Z" transform="translate(-164.013 -175.391)" fill="#359668"/>
    <path id="Path_76441" data-name="Path 76441" d="M361.115,352.91l.378.246.42-.155.052.463.378.246-.314.331.053.465-.443-.05-.315.331-.239-.393-.443-.05.145-.442-.239-.394.42-.155Z" transform="translate(-151.412 -167.435)" fill="#359668"/>
    <path id="Path_76442" data-name="Path 76442" d="M376.45,345.24l.3.191.327-.121.04.36.295.193-.245.259.042.361-.345-.039-.245.258-.187-.306-.345-.039.114-.344-.187-.308.328-.121Z" transform="translate(-164.648 -160.868)" fill="#359668"/>
    <path id="Path_76443" data-name="Path 76443" d="M374.644,232.693a.6.6,0,0,1-.387-.74.567.567,0,0,1,.706-.406.6.6,0,0,1,.387.739.567.567,0,0,1-.706.406Z" transform="translate(-163.127 -63.515)" fill="#359668"/>
    <path id="Path_76444" data-name="Path 76444" d="M374.768,214.344l-.063.462.3.341-.384.235-.065.462-.416-.168-.384.236-.134-.446-.416-.168.249-.387-.132-.445.445-.037.249-.387.3.341Z" transform="translate(-162.251 -48.545)" fill="#359668"/>
    <path id="Path_76445" data-name="Path 76445" d="M389.366,225.686l-.05.36.237.266-.3.183-.05.36-.324-.131-.3.183-.105-.347-.324-.131.194-.3-.1-.348.347-.029.194-.3.237.265Z" transform="translate(-175.041 -58.313)" fill="#359668"/>
    <path id="Path_76446" data-name="Path 76446" d="M485.26,194.306a.345.345,0,0,1,.117.459.312.312,0,0,1-.439.124.345.345,0,0,1-.117-.459.314.314,0,0,1,.439-.124Z" transform="translate(-257.767 -31.612)" fill="#359668"/>
    <path id="Path_76447" data-name="Path 76447" d="M481.149,201.753l.1-.243-.124-.23.24-.075.095-.245.206.151.242-.075.016.262.206.151-.186.177.017.262-.249-.04-.186.177-.124-.23Z" transform="translate(-254.635 -37.347)" fill="#359668"/>
    <path id="Path_76448" data-name="Path 76448" d="M475.7,195.047l.073-.19-.1-.178.187-.059.073-.19.161.118.188-.059.011.2.161.117-.144.138.012.206-.193-.033-.145.138-.1-.178Z" transform="translate(-249.978 -31.756)" fill="#359668"/>
    <path id="Path_76449" data-name="Path 76449" d="M642.77,202.682a.422.422,0,1,1,.432.432.432.432,0,0,1-.432-.432Z" transform="translate(-393.028 -38.469)" fill="#359668"/>
    <path id="Path_76450" data-name="Path 76450" d="M652.495,198.643l-.325.06-.158.3-.246-.229-.325.059.016-.344-.246-.229.268-.2.016-.345.318.094.268-.2.128.318.318.095-.158.3Z" transform="translate(-400.254 -34.479)" fill="#359668"/>
    <path id="Path_76451" data-name="Path 76451" d="M649.751,211.774l-.253.047-.122.236-.193-.178-.253.046.013-.269-.193-.177.209-.157.013-.269.247.073.209-.157.1.247.247.073-.124.236Z" transform="translate(-398.147 -45.917)" fill="#359668"/>
    <path id="Path_76452" data-name="Path 76452" d="M711,339.842a.422.422,0,1,1,.432.432A.432.432,0,0,1,711,339.842Z" transform="translate(-451.441 -155.895)" fill="#359668"/>
    <path id="Path_76453" data-name="Path 76453" d="M720.7,335.813l-.325.06-.157.3-.247-.229-.325.06.017-.345-.247-.227.268-.2.017-.345.316.094.268-.2.13.318.317.094-.158.3Z" transform="translate(-458.65 -151.913)" fill="#359668"/>
    <path id="Path_76454" data-name="Path 76454" d="M717.961,348.936l-.253.046-.122.236-.193-.177-.253.046.013-.269-.193-.177.209-.158.013-.268.247.072.209-.157.1.249.247.072-.122.237Z" transform="translate(-456.544 -163.342)" fill="#359668"/>
    <path id="Path_76455" data-name="Path 76455" d="M453.756,350.028a.432.432,0,0,1,.407-.456.442.442,0,1,1-.407.456Z" transform="translate(-231.207 -164.576)" fill="#359668"/>
    <path id="Path_76456" data-name="Path 76456" d="M463.485,346.273l-.325.059-.157.3-.248-.229-.325.06.017-.345-.247-.229.268-.2.017-.344.317.093.268-.2.128.318.318.094-.158.3Z" transform="translate(-238.437 -160.868)" fill="#359668"/>
    <path id="Path_76457" data-name="Path 76457" d="M460.741,359.4l-.253.046-.122.236-.193-.178-.253.047.013-.269-.193-.178.209-.157.013-.269.247.073.209-.157.1.247.247.073-.122.236Z" transform="translate(-236.331 -172.298)" fill="#359668"/>
    <path id="Path_76458" data-name="Path 76458" d="M338.965,228.568l-.338.584.632.16-.632.163.338.583-.557-.355-.154.663-.154-.663-.557.355.338-.583-.632-.161.632-.161-.338-.584.557.355.154-.663.154.663Z" transform="translate(-131.465 -60.719)" fill="#c93036"/>
    <path id="Path_76459" data-name="Path 76459" d="M421.875,172.278l-.338.583.633.161-.633.163.338.583-.557-.355-.154.663-.154-.663-.557.355.34-.583-.633-.163.633-.161-.34-.583.557.355.154-.663.154.663Z" transform="translate(-202.446 -12.528)" fill="#c93036"/>
    <path id="Path_76460" data-name="Path 76460" d="M554.5,186.508l-.34.583.633.161-.633.161.34.583-.557-.354-.154.662-.155-.662-.555.354.338-.583-.632-.161.632-.161-.338-.583.557.354.154-.662.154.662Z" transform="translate(-315.985 -24.71)" fill="#c93036"/>
    <path id="Path_76461" data-name="Path 76461" d="M580.075,164.487l1.086-.6-.207,1.266.878.9-1.214.184-.542,1.151-.542-1.151-1.213-.184.878-.9-.207-1.266Z" transform="translate(-337.851 -5.61)" fill="#c93036"/>
    <path id="Path_76462" data-name="Path 76462" d="M246.8,323.635a5.5,5.5,0,0,0-2.721-1.659,2.035,2.035,0,0,1,.983,1.85,2.638,2.638,0,0,1-1.193-.668,8.66,8.66,0,0,1,.158,1.512c-1.217-3.157-5.005-1.557-5.005-1.557a3.7,3.7,0,0,1,2.8,3.049,6.8,6.8,0,0,1,.144,1.764,16.338,16.338,0,0,1-.144,1.727,38.881,38.881,0,0,1-1.173,5.364,15.711,15.711,0,0,0-.181-3.636,2.619,2.619,0,0,1-.676,1.515,22.489,22.489,0,0,0-.678-6.223,10.666,10.666,0,0,1-.449,2.821,8.5,8.5,0,0,0-3.383-6.378c-.991,9.627,5.863,24.554,5.863,24.554v10.822h-1.8l-.217-3.7h0l-.017-.306-.315-5.141c-4.42-6.854-4.916-25.637-4.916-25.637-1.937-.095-5.548,6.365-6.43,8-.128.237-.2.373-.2.373-.022-.118-.04-.237-.053-.357-.442-3.846,3.118-8.986,3.118-8.986a15.436,15.436,0,0,0-3.065.967l.9-1.361c-1.465.235-4.2,2.793-4.283,2.878l.9-1.853c-2.574.213-4.876,3.748-4.876,3.748-.495-8.879,10.1-8.528,10.1-8.528-.541-1.081-4.78-.272-4.78-.272l1.352-1.127c-2.158-1.082-5.367.224-5.367.224,3.338-7.981,11.454-.406,11.454-.406.091-12.265,8.2-9.064,8.2-9.064-2.57.719-4.057,4.057-4.057,4.057h1.938c-2.131.755-3.3,3.476-3.335,3.561l1.309-.683c-.834.511-1.131,2.827-1.131,2.827a7.574,7.574,0,0,1,6.495-3.754c4.464.056,4.7,3.749,4.7,3.749-.315-.653-2.525-1.1-2.525-1.1l.452,1.1c-.181-.383-2.886-.383-2.886-.383l.495,1.037c-3.7-.948-4.057.676-4.057.676a17.186,17.186,0,0,1,6.132.568A3.061,3.061,0,0,1,246.8,323.635Z" transform="translate(-30.984 -128.612)" fill="#9bbf0a"/>
    <path id="Path_76463" data-name="Path 76463" d="M398.659,304.86l-9.876,5.726v35.129l-2.8,1.668V325.7l-6.663-4.316v30.6l-6.955,4.194h25.938Z" transform="translate(-161.532 -126.298)" fill="#0d5998"/>
    <path id="Path_76464" data-name="Path 76464" d="M267.918,602.5l-9.327-9.92a75.1,75.1,0,0,0,1.361,9.92Z" transform="translate(-64.122 -372.622)" fill="#0d5998"/>
    <path id="Path_76465" data-name="Path 76465" d="M579.186,354.567V324.534l-7.215-4.6-.36,30.123-9.109-5.5V309.473l-9.922-6.493v51.587Z" transform="translate(-315.814 -124.688)" fill="#3183c5"/>
    <path id="Path_76466" data-name="Path 76466" d="M646.5,420.82l-6.864,3.62v22.574l6.5,3.929Z" transform="translate(-390.348 -225.574)" fill="#0c5799"/>
    <path id="Path_76467" data-name="Path 76467" d="M343.166,667.49H270.108a1.79,1.79,0,0,0-.568.117l-.1.043a.6.6,0,0,0-.073.04.894.894,0,0,0-.109.072.83.83,0,0,0-.1.076,1.65,1.65,0,0,0-.224.187,1.817,1.817,0,0,0-.341.469l-.01.017v.01a1.839,1.839,0,0,0,1.666,2.633h38.012a.941.941,0,0,1,.931.719.909.909,0,0,1-.247.849.9.9,0,0,1-.645.27H281.761a1.686,1.686,0,0,0,0,3.372h15.97a.849.849,0,0,1,.863.773.823.823,0,0,1-.822.876h-5.342a1.821,1.821,0,0,0-1.6,1.62,1.494,1.494,0,0,0-.012.2v.014a1.518,1.518,0,0,0,.012.2,1.851,1.851,0,0,0,.518,1.1,1.791,1.791,0,0,0,1.276.535h10.91a1.056,1.056,0,0,1,.235.025,1.036,1.036,0,0,1,0,2.014,1.059,1.059,0,0,1-.235.024h-3.7a1.647,1.647,0,0,0-1.593,1.216,1.593,1.593,0,0,0-.059.432h0a1.569,1.569,0,0,0,.059.432,1.647,1.647,0,0,0,1.593,1.22h14.518a1.605,1.605,0,0,0,.308-.063,1.056,1.056,0,0,0,.114-.043.591.591,0,0,0,.1-.043,1.639,1.639,0,0,0,.948-1.515h0a1.639,1.639,0,0,0-1.052-1.531h-.013a.859.859,0,0,0-.1-.034h-.027a1.389,1.389,0,0,0-.288-.057,1.36,1.36,0,0,0-.171-.01h-5.579v-.024a1.035,1.035,0,0,1,0-2.014v-.024h12.9a1.809,1.809,0,0,0,1.794-1.608,1.333,1.333,0,0,0,.012-.2v-.01a1.331,1.331,0,0,0-.012-.2,1.8,1.8,0,0,0-1.794-1.609H306.064a.843.843,0,0,1,0-1.686h26.344a1.675,1.675,0,0,0,1.062-.378.316.316,0,0,0,.056-.052,1.66,1.66,0,0,0,.565-1.255,1.686,1.686,0,0,0-.493-1.194.374.374,0,0,0-.072-.063.366.366,0,0,0-.056-.05,1.667,1.667,0,0,0-1.062-.38H317.1a.939.939,0,0,1-.931-.719.918.918,0,0,1,.893-1.118h26.214a1.822,1.822,0,0,0,1.286-.5h.009a1.857,1.857,0,0,0,.542-1.247A1.927,1.927,0,0,0,343.166,667.49Z" transform="translate(-72.52 -436.754)" fill="url(#linear-gradient)"/>
    <path id="Path_76468" data-name="Path 76468" d="M254.285,825.441v10.913h3.394V825.441Zm-4.695-3.761v2.767h12.785V821.68Z" transform="translate(-56.417 -568.76)" fill="#14548c"/>
    <path id="Path_76469" data-name="Path 76469" d="M342.1,830.631h-2.561l-1.089,2.578h4.741Zm.432-8.951h-3.358l-6.539,14.675h3.479l1.065-2.575.235-.575h0l1.089-2.578h0l2.327-5.611,2.326,5.611h-.024l1.089,2.578h0l.213.514.023.056,1.063,2.575h3.571Z" transform="translate(-127.509 -568.76)" fill="#14548c"/>
    <path id="Path_76470" data-name="Path 76470" d="M467.334,831.646a4.776,4.776,0,0,0,3.021-4.633c0-3.292-2.446-5.323-6.372-5.323H457.63v14.675h3.4v-11.91h2.767c2.075,0,3.122.944,3.122,2.558,0,1.593-1.047,2.557-3.122,2.557H461.9v2.7h2.252l2.829,4.088h3.654Z" transform="translate(-234.525 -568.769)" fill="#14548c"/>
    <path id="Path_76471" data-name="Path 76471" d="M564.71,828.284v8.07h3.4v-5.345H574.9v-2.725Zm0-6.6v5.785h3.4v-3.06H575.8V821.68Z" transform="translate(-326.199 -568.76)" fill="#14548c"/>
    <path id="Path_76472" data-name="Path 76472" d="M657.8,821.68v14.675h3.4V821.68Z" transform="translate(-405.895 -568.76)" fill="#14548c"/>
    <path id="Path_76473" data-name="Path 76473" d="M705.59,821.68v14.675h3.4V821.68Zm10.061,0v5.785h-.062v2.877h.062v6.017h3.4V821.684Zm-5.83,5.785v2.877h4.943v-2.877Z" transform="translate(-446.809 -568.76)" fill="#14548c"/>
    <path id="Path_76474" data-name="Path 76474" d="M601.79,352.97l2.057,1.315v2.43l-2.057-1.2Z" transform="translate(-357.944 -167.486)" fill="#fff"/>
    <path id="Path_76475" data-name="Path 76475" d="M583.12,341.25l2.057,1.315v2.429l-2.057-1.2Z" transform="translate(-341.96 -157.452)" fill="#fff"/>
    <path id="Path_76476" data-name="Path 76476" d="M564.84,329.93l2.057,1.315v2.429l-2.057-1.2Z" transform="translate(-326.31 -147.761)" fill="#fff"/>
    <path id="Path_76477" data-name="Path 76477" d="M601.79,384.16l2.057,1.315V387.9l-2.057-1.2Z" transform="translate(-357.944 -194.189)" fill="#fff"/>
    <path id="Path_76478" data-name="Path 76478" d="M583.12,372.44l2.057,1.315v2.429l-2.057-1.2Z" transform="translate(-341.96 -184.155)" fill="#fff"/>
    <path id="Path_76479" data-name="Path 76479" d="M564.84,361.12l2.057,1.314v2.43l-2.057-1.2Z" transform="translate(-326.31 -174.464)" fill="#fff"/>
    <path id="Path_76480" data-name="Path 76480" d="M601.79,414.36l2.057,1.314v2.43l-2.057-1.2Z" transform="translate(-357.944 -220.044)" fill="#fff"/>
    <path id="Path_76481" data-name="Path 76481" d="M583.12,402.63l2.057,1.315v2.43l-2.057-1.2Z" transform="translate(-341.96 -210.001)" fill="#fff"/>
    <path id="Path_76482" data-name="Path 76482" d="M564.84,391.31l2.057,1.315v2.43l-2.057-1.2Z" transform="translate(-326.31 -200.31)" fill="#fff"/>
    <path id="Path_76483" data-name="Path 76483" d="M602.27,440.38l2.145,1.371v2.532l-2.145-1.252Z" transform="translate(-358.355 -242.32)" fill="#fff"/>
    <path id="Path_76484" data-name="Path 76484" d="M583.12,431.04l2.057,1.315v2.43l-2.057-1.2Z" transform="translate(-341.96 -234.324)" fill="#fff"/>
    <path id="Path_76485" data-name="Path 76485" d="M564.84,419.72l2.057,1.315v2.429l-2.057-1.2Z" transform="translate(-326.31 -224.632)" fill="#fff"/>
    <path id="Path_76486" data-name="Path 76486" d="M602.27,471.65l2.145,1.371v2.532L602.27,474.3Z" transform="translate(-358.355 -269.091)" fill="#fff"/>
    <path id="Path_76487" data-name="Path 76487" d="M582.8,459.43l2.145,1.371v2.532l-2.145-1.25Z" transform="translate(-341.686 -258.629)" fill="#fff"/>
    <path id="Path_76488" data-name="Path 76488" d="M563.75,447.63,565.9,449v2.534l-2.145-1.252Z" transform="translate(-325.377 -248.527)" fill="#fff"/>
    <path id="Path_76489" data-name="Path 76489" d="M721.77,456.34l1.423.908v1.681l-1.423-.83Z" transform="translate(-460.662 -255.984)" fill="#fff"/>
    <path id="Path_76490" data-name="Path 76490" d="M708.86,448.23l1.423.909v1.68l-1.423-.83Z" transform="translate(-449.609 -249.04)" fill="#fff"/>
    <path id="Path_76491" data-name="Path 76491" d="M696.22,440.4l1.423.909v1.68l-1.423-.83Z" transform="translate(-438.788 -242.337)" fill="#fff"/>
    <path id="Path_76492" data-name="Path 76492" d="M721.77,477.9l1.423.909v1.681l-1.423-.83Z" transform="translate(-460.662 -274.442)" fill="#fff"/>
    <path id="Path_76493" data-name="Path 76493" d="M708.86,469.8l1.423.909v1.679l-1.423-.83Z" transform="translate(-449.609 -267.507)" fill="#fff"/>
    <path id="Path_76494" data-name="Path 76494" d="M696.22,461.97l1.423.909v1.679l-1.423-.83Z" transform="translate(-438.788 -260.804)" fill="#fff"/>
    <path id="Path_76495" data-name="Path 76495" d="M721.77,498.78l1.423.909v1.68l-1.423-.83Z" transform="translate(-460.662 -292.318)" fill="#fff"/>
    <path id="Path_76496" data-name="Path 76496" d="M708.86,490.68l1.423.909v1.679l-1.423-.83Z" transform="translate(-449.609 -285.383)" fill="#fff"/>
    <path id="Path_76497" data-name="Path 76497" d="M696.22,482.85l1.423.909v1.679l-1.423-.83Z" transform="translate(-438.788 -278.68)" fill="#fff"/>
    <path id="Path_76498" data-name="Path 76498" d="M722.11,516.78l1.483.948v1.751l-1.483-.866Z" transform="translate(-460.953 -307.728)" fill="#fff"/>
    <path id="Path_76499" data-name="Path 76499" d="M708.86,510.32l1.423.909v1.68l-1.423-.83Z" transform="translate(-449.609 -302.197)" fill="#fff"/>
    <path id="Path_76500" data-name="Path 76500" d="M696.22,502.49l1.423.909v1.68l-1.423-.83Z" transform="translate(-438.788 -295.494)" fill="#fff"/>
    <path id="Path_76501" data-name="Path 76501" d="M722.11,538.4l1.483.948V541.1l-1.483-.865Z" transform="translate(-460.953 -326.237)" fill="#fff"/>
    <path id="Path_76502" data-name="Path 76502" d="M708.64,529.96l1.485.947v1.752l-1.485-.866Z" transform="translate(-449.421 -319.012)" fill="#fff"/>
    <path id="Path_76503" data-name="Path 76503" d="M695.47,521.79l1.483.948v1.751l-1.483-.865Z" transform="translate(-438.145 -312.017)" fill="#fff"/>
    <path id="Path_76504" data-name="Path 76504" d="M451.02,452.5l1.183.755v1.4l-1.183-.691Z" transform="translate(-228.866 -252.696)" fill="#fff"/>
    <path id="Path_76505" data-name="Path 76505" d="M440.28,445.76l1.184.755v1.4l-1.184-.691Z" transform="translate(-219.671 -246.926)" fill="#fff"/>
    <path id="Path_76506" data-name="Path 76506" d="M429.77,439.25l1.184.755v1.4l-1.184-.691Z" transform="translate(-210.673 -241.353)" fill="#fff"/>
    <path id="Path_76507" data-name="Path 76507" d="M451.02,470.43l1.183.757v1.4l-1.183-.689Z" transform="translate(-228.866 -268.046)" fill="#fff"/>
    <path id="Path_76508" data-name="Path 76508" d="M440.28,463.69l1.184.757v1.4l-1.184-.689Z" transform="translate(-219.671 -262.276)" fill="#fff"/>
    <path id="Path_76509" data-name="Path 76509" d="M429.77,457.18l1.184.757v1.4l-1.184-.689Z" transform="translate(-210.673 -256.703)" fill="#fff"/>
    <path id="Path_76510" data-name="Path 76510" d="M451.02,487.79l1.183.757v1.4l-1.183-.691Z" transform="translate(-228.866 -282.909)" fill="#fff"/>
    <path id="Path_76511" data-name="Path 76511" d="M440.28,481.05l1.184.757v1.4l-1.184-.691Z" transform="translate(-219.671 -277.138)" fill="#fff"/>
    <path id="Path_76512" data-name="Path 76512" d="M429.77,474.54l1.184.757v1.4L429.77,476Z" transform="translate(-210.673 -271.565)" fill="#fff"/>
    <path id="Path_76513" data-name="Path 76513" d="M451.3,502.76l1.233.788V505l-1.233-.719Z" transform="translate(-229.106 -295.725)" fill="#fff"/>
    <path id="Path_76514" data-name="Path 76514" d="M440.28,497.39l1.184.755v1.4l-1.184-.689Z" transform="translate(-219.671 -291.128)" fill="#fff"/>
    <path id="Path_76515" data-name="Path 76515" d="M429.77,490.88l1.184.755v1.4l-1.184-.691Z" transform="translate(-210.673 -285.554)" fill="#fff"/>
    <path id="Path_76516" data-name="Path 76516" d="M451.3,520.74l1.233.788v1.456l-1.233-.719Z" transform="translate(-229.106 -311.118)" fill="#fff"/>
    <path id="Path_76517" data-name="Path 76517" d="M440.1,513.71l1.234.788v1.457l-1.234-.721Z" transform="translate(-219.517 -305.1)" fill="#fff"/>
    <path id="Path_76518" data-name="Path 76518" d="M429.14,506.93l1.234.787v1.457l-1.234-.721Z" transform="translate(-210.134 -299.295)" fill="#fff"/>
    <path id="Path_76519" data-name="Path 76519" d="M649.417,436.73l-5.546,2.919v2.03l5.546-2.886Z" transform="translate(-393.97 -239.195)" fill="#fff"/>
    <path id="Path_76520" data-name="Path 76520" d="M500.507,325.86l-7.667,4.768v2.739l7.667-4.532Z" transform="translate(-264.669 -144.277)" fill="#fff"/>
    <path id="Path_76521" data-name="Path 76521" d="M500.507,358.07l-7.667,4.768v2.739l7.667-4.532Z" transform="translate(-264.669 -171.852)" fill="#fff"/>
    <path id="Path_76522" data-name="Path 76522" d="M500.507,391.24l-7.667,4.769v2.739l7.667-4.532Z" transform="translate(-264.669 -200.25)" fill="#fff"/>
    <path id="Path_76523" data-name="Path 76523" d="M500.507,423.62l-7.667,4.769v2.739l7.667-4.532Z" transform="translate(-264.669 -227.971)" fill="#fff"/>
    <path id="Path_76524" data-name="Path 76524" d="M500.507,455.77l-7.667,4.77v2.739l7.667-4.532Z" transform="translate(-264.669 -255.496)" fill="#fff"/>
    <path id="Path_76525" data-name="Path 76525" d="M649.417,459.02l-5.546,2.921v2.029l5.546-2.886Z" transform="translate(-393.97 -258.278)" fill="#fff"/>
    <path id="Path_76526" data-name="Path 76526" d="M649.417,482.84l-5.546,2.921v2.029l5.546-2.886Z" transform="translate(-393.97 -278.671)" fill="#fff"/>
    <path id="Path_76527" data-name="Path 76527" d="M649.417,506.58,643.87,509.5v2.029l5.546-2.886Z" transform="translate(-393.97 -298.995)" fill="#fff"/>
    <path id="Path_76528" data-name="Path 76528" d="M649.417,528.91l-5.546,2.921v2.029l5.546-2.886Z" transform="translate(-393.97 -318.113)" fill="#fff"/>
    <path id="Path_76529" data-name="Path 76529" d="M373.279,454.511l6.046-4.194v-30.6l-6.955,4.316v30.474Z" transform="translate(-161.532 -224.632)" fill="#3183c5"/>
    <path id="Path_76530" data-name="Path 76530" d="M386.02,436.84l-4.25,2.643V441l4.25-2.512Z" transform="translate(-169.579 -239.289)" fill="#fff"/>
    <path id="Path_76531" data-name="Path 76531" d="M386.02,454.7l-4.25,2.643v1.518l4.25-2.512Z" transform="translate(-169.579 -254.58)" fill="#fff"/>
    <path id="Path_76532" data-name="Path 76532" d="M386.02,473.08l-4.25,2.644v1.518l4.25-2.512Z" transform="translate(-169.579 -270.315)" fill="#fff"/>
    <path id="Path_76533" data-name="Path 76533" d="M386.02,491.03l-4.25,2.644v1.518l4.25-2.512Z" transform="translate(-169.579 -285.683)" fill="#fff"/>
    <path id="Path_76534" data-name="Path 76534" d="M386.02,508.86l-4.25,2.643v1.518l4.25-2.512Z" transform="translate(-169.579 -300.947)" fill="#fff"/>
    <path id="Path_76535" data-name="Path 76535" d="M186.447,470.584s2.147-2.05,2.862-1.626c0,0-6.247,3.751-2.649,8.689,0,0,.01-2.9,1.409-3.984l.176,1.41s.63-2.565,1.4-3.259l-.01,1.122a10.4,10.4,0,0,1,1.409-1.7s-.144,4.572,1.716,6.543c0,0-.619-6.543.7-7.312,0,0,.317.46.863,1.213.069.095.144.2.222.308,0,0,8.1,12.326,12.064,15.944h2.351l-.807-3.7s-10.163-9.018-12.855-12.585a5.592,5.592,0,0,1-.518-.788,14.246,14.246,0,0,1-.732-1.246,5.827,5.827,0,0,1,4.335,2.419,7.287,7.287,0,0,0-.79-1.8,15.538,15.538,0,0,1,2.714,3.338,1.747,1.747,0,0,0-.165-1.111,11.154,11.154,0,0,1,1.447,2.014c-.069-.249-1.246-4.244-2.623-5.536a2.552,2.552,0,0,0-2.755-.719s1.59-2.332,3.47-.975a5.49,5.49,0,0,0-.652-.806,1.854,1.854,0,0,0,1.88-.773A2.109,2.109,0,0,0,198,464.186a12.134,12.134,0,0,0-3.759,1.945s-.4-1.07,2.092-1.9l-.669-.407s1.562-1.007,1.811-.863l-.673-.466s1.439-.567,1.87-.308c0,0-1.509-2.05-4.111-.419a5.2,5.2,0,0,0-2.348,4.594s-.668-1.4-.419-2.024l-.488.853a4.827,4.827,0,0,1,.6-3.3l-1.118.719s-.386-2.48.827-3.857c0,0-5.882,1.181-1.357,8.3,0,0-7.513-1.345-6.464,4.509,0,0,1.363-1.95,3.021-2.129Z" transform="translate(0 -258.047)" fill="#9bbf0a"/>
    <path id="Path_76536" data-name="Path 76536" d="M261.285,543.589h-.027a5.594,5.594,0,0,1-.518-.789C260.908,543.063,261.094,543.328,261.285,543.589Z" transform="translate(-65.963 -330.004)" fill="url(#linear-gradient-2)"/>
    <path id="Path_76537" data-name="Path 76537" d="M748.253,484.458c.458-1.338,6.143-18.915-6.344-29.758v29.758Z" transform="translate(-477.904 -254.58)" fill="url(#linear-gradient-3)"/>
  </g>
</svg>
