<svg id="logo" xmlns="http://www.w3.org/2000/svg" width="133.881" height="166.062" viewBox="0 0 133.881 166.062">
  <path id="Path_76664" data-name="Path 76664" d="M514.065,469.415l.245-.145c-.522,1.541-.938,2.761-1.2,3.521h0l-.067.2c-.015.043-.03.082-.041.121-.037.1-.072.2-.1.273a.259.259,0,0,1,0,.039q-.03.076-.045.124a.3.3,0,0,0-.017.054.065.065,0,0,0,0,.022c.028-.1.113-.377.24-.8C513.277,472.089,513.625,470.91,514.065,469.415Z" transform="translate(-445.114 -401.57)" fill="#fff"/>
  <path id="Path_76665" data-name="Path 76665" d="M526.6,428.843l.769-.453c-.462,1.211-.886,2.394-1.287,3.526l-.559.347C525.854,431.17,526.209,430.024,526.6,428.843Z" transform="translate(-455.05 -369.548)" fill="#fff"/>
  <path id="Path_76666" data-name="Path 76666" d="M542.579,383.41c-.683,1.272-1.346,2.613-1.965,3.987l-1.194.741c.487-1.285,1.023-2.559,1.586-3.8Z" transform="translate(-465.938 -334.314)" fill="#fff"/>
  <path id="Path_76667" data-name="Path 76667" d="M566.786,333.56v2.262c-.414.433-.867.962-1.361,1.554q-.362.433-.748.94l-.08.106h0q-.1.124-.2.254c-.093.119-.18.241-.271.364-.464.633-.934,1.324-1.4,2.063v-2.284c.327-.514.65-1,.984-1.458.141-.2.28-.392.418-.581l.163-.217c.1-.145.217-.286.316-.433q.325-.435.65-.821C565.835,334.607,566.355,334.019,566.786,333.56Z" transform="translate(-484.197 -295.266)" fill="#fff"/>
  <path id="Path_76668" data-name="Path 76668" d="M585.386,326.771a.433.433,0,0,1-.052.046l-1.424-.91c.366-.371.6-.589.667-.65.841-.789,1.712-.966,1.89-.527S586.146,326.053,585.386,326.771Z" transform="translate(-500.788 -288.165)" fill="#fff"/>
  <path id="Path_76669" data-name="Path 76669" d="M432.9,293s-5.068,4.884-8.295,17.068c0,0,.23.42.635-.6C425.245,309.468,430.6,295.839,432.9,293Z" transform="translate(-376.006 -263.495)" fill="#fff"/>
  <path id="Path_76670" data-name="Path 76670" d="M452.418,322.85c.041.267.243.433.423.384a.457.457,0,0,0,.247-.535,9.074,9.074,0,0,1-.158-1.426,15.433,15.433,0,0,1,.236-3,43.87,43.87,0,0,1,1.029-4.334c.015,0-.819,2.117-1.363,4.314a16.125,16.125,0,0,0-.472,3.073A8.54,8.54,0,0,0,452.418,322.85Z" transform="translate(-397.734 -279.897)" fill="#fff"/>
  <path id="Path_76671" data-name="Path 76671" d="M467.13,294.68l.316,8.4s.355.745.672,0Z" transform="translate(-409.312 -264.811)" fill="#fff"/>
  <path id="Path_76672" data-name="Path 76672" d="M471.69,295.48a28.713,28.713,0,0,1,2.455,7.2s.531.815.78.147A16.493,16.493,0,0,0,471.69,295.48Z" transform="translate(-412.884 -265.437)" fill="#fff"/>
  <path id="Path_76673" data-name="Path 76673" d="M483.84,306.1a22.377,22.377,0,0,1,4.888,8.646s.6,1.083.852.407A17.107,17.107,0,0,0,483.84,306.1Z" transform="translate(-422.401 -273.756)" fill="#fff"/>
  <path id="Path_76674" data-name="Path 76674" d="M473.54,293a22.956,22.956,0,0,1,6.661,5.17s1.311.706.708-.444C480.909,297.73,477.436,294.138,473.54,293Z" transform="translate(-414.333 -263.495)" fill="#fff"/>
  <path id="Path_76675" data-name="Path 76675" d="M471.69,288.56s5.573-.557,8.123,1.185c0,0,.921,0,.249-.635C480.063,289.113,477.1,287.412,471.69,288.56Z" transform="translate(-412.884 -259.705)" fill="#fff"/>
  <path id="Path_76676" data-name="Path 76676" d="M471.69,277.861s.719-2.522,3.413-1.187a10.059,10.059,0,0,1,1.38.927s.923.134.867-.672a1.2,1.2,0,0,0-.017-.143c-.178-.964-1.333-1.482-3.352-1.224A3.892,3.892,0,0,0,471.69,277.861Z" transform="translate(-412.884 -249.784)" fill="#fff"/>
  <path id="Path_76677" data-name="Path 76677" d="M471.69,245.4s3.625-3.97,17.441-8.68c0,0,1.417-1.187-.956-.854C488.175,235.866,475.553,240.148,471.69,245.4Z" transform="translate(-412.884 -218.695)" fill="#fff"/>
  <path id="Path_76678" data-name="Path 76678" d="M484.76,231.2l6.1-7.031s.451-1.268-.559-.65Z" transform="translate(-423.122 -208.935)" fill="#fff"/>
  <path id="Path_76679" data-name="Path 76679" d="M417.81,236.387c-.618-3.174,8.371,1.057,7.437.719C422.41,236.075,418.228,238.532,417.81,236.387Z" transform="translate(-370.655 -218.218)" fill="#fff" fill-rule="evenodd"/>
  <path id="Path_76680" data-name="Path 76680" d="M459.6,232.489c1.274-.36.451,4.334.494,3.84C460.226,234.855,458.739,232.731,459.6,232.489Z" transform="translate(-403.203 -216.08)" fill="#fff" fill-rule="evenodd"/>
  <path id="Path_76681" data-name="Path 76681" d="M469.41,237.253s.347-3.974,5.352-11.792c0,0,.741-2.1-.693-.96C474.069,224.5,471.442,227.12,469.41,237.253Z" transform="translate(-411.098 -209.574)" fill="#fff" fill-rule="evenodd"/>
  <path id="Path_76682" data-name="Path 76682" d="M469.245,237.714l1.14-9.564s-.167-1.7-.919-.392C469.466,227.757,469.067,236.687,469.245,237.714Z" transform="translate(-410.933 -212.001)" fill="#fff" fill-rule="evenodd"/>
  <path id="Path_76683" data-name="Path 76683" d="M456.8,257.11s-.769-6.227-2.279-7.393c0,0-.925-.73-.433.581C454.1,250.3,456.421,254.753,456.8,257.11Z" transform="translate(-398.984 -229.432)" fill="#fff" fill-rule="evenodd"/>
  <path id="Path_76684" data-name="Path 76684" d="M442.852,257.984a14.59,14.59,0,0,0-4.531-7.192s-1.733-.65-1.476.65C436.845,251.44,442.315,255.794,442.852,257.984Z" transform="translate(-385.57 -230.306)" fill="#fff" fill-rule="evenodd"/>
  <path id="Path_76685" data-name="Path 76685" d="M411.542,258.6a27.653,27.653,0,0,0-11.838-7.8s-3.086-.65-2.21.65C397.495,251.448,407,254.549,411.542,258.6Z" transform="translate(-354.644 -230.314)" fill="#fff" fill-rule="evenodd"/>
  <path id="Path_76686" data-name="Path 76686" d="M389.07,271.789s-1.612-3.166-15.627-4.29c0,0-5.963-.338-3.586,1.452C369.857,268.95,386.093,268.857,389.07,271.789Z" transform="translate(-332.678 -243.499)" fill="#fff" fill-rule="evenodd"/>
  <path id="Path_76687" data-name="Path 76687" d="M421.164,285.423a10.539,10.539,0,0,0-8.817,2.358s-1.6.169,0-1.138A9.552,9.552,0,0,1,421.164,285.423Z" transform="translate(-365.843 -257.133)" fill="#fff" fill-rule="evenodd"/>
  <path id="Path_76688" data-name="Path 76688" d="M443.037,289.81a8.174,8.174,0,0,0-6.284,4.017s-.182.867.693.349C437.444,294.185,441.295,289.8,443.037,289.81Z" transform="translate(-385.505 -260.996)" fill="#fff" fill-rule="evenodd"/>
  <path id="Path_76689" data-name="Path 76689" d="M430.188,293.84s-2.21.787-1.753,1.571C428.435,295.411,429.063,296.2,430.188,293.84Z" transform="translate(-378.953 -264.153)" fill="#fff" fill-rule="evenodd"/>
  <path id="Path_76690" data-name="Path 76690" d="M410.541,317.821c-3.088-.217,3.174-8.18,2.615-7.324C411.462,313.1,412.628,317.962,410.541,317.821Z" transform="translate(-364.312 -277.15)" fill="#fff" fill-rule="evenodd"/>
  <path id="Path_76691" data-name="Path 76691" d="M667.83,310s6.78,6.533,11.094,22.826c0,0-.308.566-.847-.806C678.077,332.028,670.911,313.8,667.83,310Z" transform="translate(-566.524 -276.811)" fill="#fff"/>
  <path id="Path_76692" data-name="Path 76692" d="M672.938,349.965c-.054.355-.325.581-.566.511a.617.617,0,0,1-.329-.715,11.88,11.88,0,0,0,.217-1.907,20.591,20.591,0,0,0-.314-4.011,58.563,58.563,0,0,0-1.376-5.783c-.02,0,1.094,2.83,1.82,5.768a21.423,21.423,0,0,1,.633,4.117A11.484,11.484,0,0,1,672.938,349.965Z" transform="translate(-568.669 -298.791)" fill="#fff"/>
  <path id="Path_76693" data-name="Path 76693" d="M657.382,312.26l-.423,11.239s-.477,1-.9,0Z" transform="translate(-557.304 -278.581)" fill="#fff"/>
  <path id="Path_76694" data-name="Path 76694" d="M640.425,313.34a38.636,38.636,0,0,0-3.283,9.623s-.711,1.083-1.042.2C636.1,323.162,636.98,317.307,640.425,313.34Z" transform="translate(-541.669 -279.427)" fill="#fff"/>
  <path id="Path_76695" data-name="Path 76695" d="M613.691,327.58a23.079,23.079,0,0,0-2.384,3,31.487,31.487,0,0,0-1.682,2.748l-.555-.355v1.415a31.358,31.358,0,0,0-1.746,4.262l-.845-.54a24.94,24.94,0,0,1,.966-2.444l.678.4v-1.755a22.63,22.63,0,0,1,2.737-4.015A19.669,19.669,0,0,1,613.691,327.58Z" transform="translate(-518.467 -290.582)" fill="#fff"/>
  <path id="Path_76696" data-name="Path 76696" d="M617.2,310a30.432,30.432,0,0,0-8.908,6.917s-1.753.945-.947-.6C607.344,316.329,611.987,311.517,617.2,310Z" transform="translate(-518.978 -276.811)" fill="#fff"/>
  <path id="Path_76697" data-name="Path 76697" d="M614.4,304.074s-7.454-.743-10.865,1.588c0,0-1.231-.015-.332-.852C603.2,304.813,607.163,302.538,614.4,304.074Z" transform="translate(-515.642 -271.752)" fill="#fff"/>
  <path id="Path_76698" data-name="Path 76698" d="M596.262,289.764s-2.1-3.374-9.968-1.586a39.815,39.815,0,0,0-4.032,1.239s-2.691.178-2.535-.9a.816.816,0,0,1,.054-.193c.516-1.289,3.887-1.983,9.781-1.636C589.568,286.687,594.845,287.532,596.262,289.764Z" transform="translate(-497.506 -258.482)" fill="#fff"/>
  <path id="Path_76699" data-name="Path 76699" d="M589.051,254.648s-3.762-4.355-18.1-9.534c0,0-1.469-1.3.995-.936C571.943,244.186,585.042,248.884,589.051,254.648Z" transform="translate(-490.295 -225.201)" fill="#fff"/>
  <path id="Path_76700" data-name="Path 76700" d="M608.609,227.365l-8.156-9.4s-.6-1.694.748-.867Z" transform="translate(-513.641 -203.86)" fill="#fff"/>
  <path id="Path_76701" data-name="Path 76701" d="M667.467,229.075c-1.705-.481-.6,5.788-.65,5.138C666.641,232.24,668.628,229.4,667.467,229.075Z" transform="translate(-565.489 -213.4)" fill="#fff" fill-rule="evenodd"/>
  <path id="Path_76702" data-name="Path 76702" d="M632.336,235.454s-.464-5.315-7.151-15.77c0,0-.99-2.8.927-1.285C626.107,218.393,629.619,221.9,632.336,235.454Z" transform="translate(-532.919 -204.706)" fill="#fff" fill-rule="evenodd"/>
  <path id="Path_76703" data-name="Path 76703" d="M653.627,236.089,652.11,223.3s.217-2.277,1.227-.527C653.33,222.774,653.865,234.717,653.627,236.089Z" transform="translate(-554.21 -207.97)" fill="#fff" fill-rule="evenodd"/>
  <path id="Path_76704" data-name="Path 76704" d="M662.16,262.012s1.027-8.329,3.049-9.889c0,0,1.237-.975.568.778C665.776,252.9,662.671,258.857,662.16,262.012Z" transform="translate(-562.082 -231.263)" fill="#fff" fill-rule="evenodd"/>
  <path id="Path_76705" data-name="Path 76705" d="M665.47,263.185a19.48,19.48,0,0,1,6.067-9.619s2.308-.867,1.974.867C673.5,254.431,666.187,260.256,665.47,263.185Z" transform="translate(-564.675 -232.436)" fill="#fff" fill-rule="evenodd"/>
  <path id="Path_76706" data-name="Path 76706" d="M667.83,264a36.977,36.977,0,0,1,15.833-10.436s4.128-.867,2.956.867C686.619,254.431,673.9,258.581,667.83,264Z" transform="translate(-566.524 -232.436)" fill="#fff" fill-rule="evenodd"/>
  <path id="Path_76707" data-name="Path 76707" d="M671,281.622s2.147-4.228,20.891-5.744c0,0,7.976-.453,4.8,1.95C696.688,277.827,674.972,277.7,671,281.622Z" transform="translate(-569.007 -250.056)" fill="#fff" fill-rule="evenodd"/>
  <path id="Path_76708" data-name="Path 76708" d="M677.57,299.876a14.091,14.091,0,0,1,11.792,3.153s2.141.227,0-1.517A12.74,12.74,0,0,0,677.57,299.876Z" transform="translate(-574.153 -268.31)" fill="#fff" fill-rule="evenodd"/>
  <path id="Path_76709" data-name="Path 76709" d="M663.92,305.74s7.673.182,12.533,8.336c0,0,.364,1.811-1.383.726C675.071,314.8,667.4,305.725,663.92,305.74Z" transform="translate(-563.461 -273.474)" fill="#fff" fill-rule="evenodd"/>
  <path id="Path_76710" data-name="Path 76710" d="M702.79,311.13s2.958,1.053,2.344,2.1C705.134,313.234,704.3,314.285,702.79,311.13Z" transform="translate(-593.908 -277.696)" fill="#fff" fill-rule="evenodd"/>
  <path id="Path_76711" data-name="Path 76711" d="M523.019,327.557a30.544,30.544,0,0,1,2.108,2.451l-.8.5-1.6-2.774-.6-1.044Q522.566,327.091,523.019,327.557Z" transform="translate(-452.387 -289.885)" fill="#fff"/>
  <path id="Path_76712" data-name="Path 76712" d="M543.185,357.717l-1.235.774q-.583-1.012-1.12-1.95l1.151-.68Q542.581,356.757,543.185,357.717Z" transform="translate(-467.043 -312.734)" fill="#fff"/>
  <path id="Path_76713" data-name="Path 76713" d="M560.6,388.15l-.167-.108v2.384c-.446-.787-.9-1.588-1.359-2.394l-.451-.8c-.156-.271-.31-.544-.464-.815l-.381-.674c-.468-.821-.938-1.64-1.4-2.453v-1.417l-.592.368-1.166-2.035,1.333-.789c.622,1.07,1.235,2.167,1.831,3.268.137.251.271.5.4.752l.308.583h0c.236.444.466.878.7,1.322h0C559.671,386.3,560.146,387.227,560.6,388.15Z" transform="translate(-477.845 -331.189)" fill="#fff"/>
  <path id="Path_76714" data-name="Path 76714" d="M588.56,441.045c.561,1.218,1.083,2.371,1.554,3.428l-.362-.23v.726c-.8-1.439-1.7-3.062-2.672-4.789Z" transform="translate(-503.271 -378.783)" fill="#fff"/>
  <path id="Path_76715" data-name="Path 76715" d="M611.535,485.06c-.1-.217-.232-.492-.405-.83l.084.048C611.362,484.613,611.47,484.874,611.535,485.06Z" transform="translate(-522.11 -413.288)" fill="#fff"/>
  <path id="Path_76716" data-name="Path 76716" d="M613.08,488.17c.03.069.058.13.076.184C613.138,488.306,613.11,488.244,613.08,488.17Z" transform="translate(-523.637 -416.374)" fill="#fff"/>
  <path id="Path_76717" data-name="Path 76717" d="M569.123,337.777s1.851-20.934-1.233-29.337C567.89,308.44,569.4,335.848,569.123,337.777Z" transform="translate(-488.239 -275.589)" fill="#fff"/>
  <path id="Path_76718" data-name="Path 76718" d="M562.47,254.35s.065.106.169.306a15.782,15.782,0,0,1,1.573,8.433l-1.677-8.633Z" transform="translate(-483.994 -233.22)" fill="#fff" fill-rule="evenodd"/>
  <path id="Path_76719" data-name="Path 76719" d="M567.89,256.67s2.338,2.722,2.57,4.037c0,0,.384,1.066-.448.158C570.011,260.858,568.724,257.5,567.89,256.67Z" transform="translate(-488.239 -235.037)" fill="#fff" fill-rule="evenodd"/>
  <path id="Path_76720" data-name="Path 76720" d="M533.271,254.43s-4.163,1.671-4.895,2.9c0,0-.867.9.592.373C528.961,257.7,531.83,254.885,533.271,254.43Z" transform="translate(-457.087 -233.282)" fill="#fff" fill-rule="evenodd"/>
  <path id="Path_76721" data-name="Path 76721" d="M567.89,254.25s3.077-.65,8.5,4.368c0,0,1.567.65.884-.537C577.277,258.075,573.075,254.422,567.89,254.25Z" transform="translate(-488.239 -233.12)" fill="#fff" fill-rule="evenodd"/>
  <path id="Path_76722" data-name="Path 76722" d="M567.89,216.491l3.684-6.7s0-1.029-.568-.2C571,209.6,567.929,215.975,567.89,216.491Z" transform="translate(-488.239 -197.909)" fill="#fff" fill-rule="evenodd"/>
  <path id="Path_76723" data-name="Path 76723" d="M561.107,222.911l.154-6.41s-.34-.9-.531,0l.377,6.568Z" transform="translate(-482.631 -203.259)" fill="#fff" fill-rule="evenodd"/>
  <path id="Path_76724" data-name="Path 76724" d="M528.817,209.085a24.677,24.677,0,0,0-7.419-10.342s-1.588-.594-.984.316C520.414,199.059,527.07,204.755,528.817,209.085Z" transform="translate(-450.943 -189.512)" fill="#fff" fill-rule="evenodd"/>
  <path id="Path_76725" data-name="Path 76725" d="M537.805,230.053s-2.459-3.218-4.238-4.165c0,0-1.211-.156-.455.676A18.841,18.841,0,0,1,537.805,230.053Z" transform="translate(-460.802 -210.916)" fill="#fff" fill-rule="evenodd"/>
  <path id="Path_76726" data-name="Path 76726" d="M508.535,235s-4.011-3.482-12.4-4c0,0-2.275-.2-.191.752C495.93,231.759,504.712,232.738,508.535,235Z" transform="translate(-431.191 -214.921)" fill="#fff" fill-rule="evenodd"/>
  <path id="Path_76727" data-name="Path 76727" d="M529.272,249.516s-5.911-1.057-7.419.113c0,0-.936.713.407.6C522.26,250.224,527.008,249.206,529.272,249.516Z" transform="translate(-451.929 -229.09)" fill="#fff" fill-rule="evenodd"/>
  <path id="Path_76728" data-name="Path 76728" d="M551.238,255.54a26.631,26.631,0,0,0-1.733,9.168s-.557,1.556-.867.182C548.623,264.89,548.913,259.395,551.238,255.54Z" transform="translate(-473.158 -234.152)" fill="#fff"/>
  <path id="Path_76729" data-name="Path 76729" d="M537.552,250.87s-3.12,2.862-6.067,13.747c0,0-.906,1.118-.81-.75C530.685,263.867,533.34,253.932,537.552,250.87Z" transform="translate(-459.082 -230.494)" fill="#fff"/>
  <path id="Path_76730" data-name="Path 76730" d="M802.541,317.865c.388.011.527.637.33.982s-.475.329-.867.316-.527-.639-.329-.982S802.149,317.854,802.541,317.865Z" transform="translate(-671.296 -282.969)" fill="#fff"/>
  <path id="Path_76731" data-name="Path 76731" d="M806.016,338.7c.206-.188.65-.065.726.451.035.481-.282.67-.563.622a.672.672,0,0,1-.5-.49A.914.914,0,0,1,806.016,338.7Z" transform="translate(-674.504 -299.226)" fill="#fff"/>
  <path id="Path_76732" data-name="Path 76732" d="M807.974,349.051a1.337,1.337,0,0,1,.526,1.255,1.07,1.07,0,0,1-1.174.722,1.013,1.013,0,0,1-.754-1.337C806.8,348.938,807.564,348.678,807.974,349.051Z" transform="translate(-675.166 -307.268)" fill="#fff"/>
  <path id="Path_76733" data-name="Path 76733" d="M771.193,302.725a.854.854,0,0,1,.672.988.823.823,0,0,1-.942.7.854.854,0,0,1-.672-.988.824.824,0,0,1,.943-.7Z" transform="translate(-646.74 -271.105)" fill="#fff"/>
  <path id="Path_76734" data-name="Path 76734" d="M773.851,319.13c.279-.017.42.539.015.867s-.877-.024-.771-.295.123-.529.186-.566A2.613,2.613,0,0,1,773.851,319.13Z" transform="translate(-648.968 -283.954)" fill="#fff"/>
  <path id="Path_76735" data-name="Path 76735" d="M364.671,347.119c-.264.072-.618-.256-.453-.745.178-.446.542-.464.771-.288a.713.713,0,0,1,.234.672A.866.866,0,0,1,364.671,347.119Z" transform="translate(-328.667 -304.996)" fill="#fff"/>
  <path id="Path_76736" data-name="Path 76736" d="M365.234,332.726a1.362,1.362,0,0,1,.072-1.367,1.031,1.031,0,1,1,1.452,1.463A.9.9,0,0,1,365.234,332.726Z" transform="translate(-329.384 -293.282)" fill="#fff"/>
  <path id="Path_76737" data-name="Path 76737" d="M376.12,322.414a.533.533,0,0,1-.1-.719.479.479,0,0,1,.689-.108.531.531,0,0,1,.1.719.479.479,0,0,1-.689.108Z" transform="translate(-337.867 -285.808)" fill="#fff"/>
  <path id="Path_76738" data-name="Path 76738" d="M469.872,162.181c.046-.4.65-.488.964-.249s.267.527.217.934-.65.488-.964.249S469.825,162.589,469.872,162.181Z" transform="translate(-411.433 -160.724)" fill="#fff"/>
  <path id="Path_76739" data-name="Path 76739" d="M489.973,161.693a.5.5,0,0,1,.5-.713.507.507,0,0,1,.537.65.667.667,0,0,1-.511.475A.867.867,0,0,1,489.973,161.693Z" transform="translate(-427.159 -160.08)" fill="#fff"/>
  <path id="Path_76740" data-name="Path 76740" d="M500.163,157.318a1.21,1.21,0,0,1,1.242-.433,1.138,1.138,0,0,1,.576,1.3.96.96,0,0,1-1.346.65A.984.984,0,0,1,500.163,157.318Z" transform="translate(-435.026 -156.834)" fill="#fff"/>
  <path id="Path_76741" data-name="Path 76741" d="M516.545,163.715a.49.49,0,0,1,.6-.364.52.52,0,0,1,.349.631.49.49,0,0,1-.6.364A.518.518,0,0,1,516.545,163.715Z" transform="translate(-448.005 -161.926)" fill="#fff"/>
  <path id="Path_76742" data-name="Path 76742" d="M452.544,192.5a.815.815,0,0,1,1-.607.867.867,0,0,1,.581,1.049.817.817,0,0,1-1,.609A.867.867,0,0,1,452.544,192.5Z" transform="translate(-397.864 -184.274)" fill="#fff"/>
  <path id="Path_76743" data-name="Path 76743" d="M468.216,193.387c.011-.293.553-.388.819.065s-.106.914-.353.776-.492-.18-.52-.247A3.389,3.389,0,0,1,468.216,193.387Z" transform="translate(-410.115 -185.273)" fill="#fff"/>
  <path id="Path_76744" data-name="Path 76744" d="M666.921,171.869c.271-.293.8.028.912.412s-.093.589-.368.882-.8-.028-.91-.412S666.648,172.162,666.921,171.869Z" transform="translate(-565.502 -168.522)" fill="#fff"/>
  <path id="Path_76745" data-name="Path 76745" d="M683.979,184.256c0-.284.4-.55.808-.251a.541.541,0,0,1,.054.867.635.635,0,0,1-.682.052A.948.948,0,0,1,683.979,184.256Z" transform="translate(-579.169 -178.015)" fill="#fff"/>
  <path id="Path_76746" data-name="Path 76746" d="M693.145,188.24a1.206,1.206,0,0,1,1.237.446,1.161,1.161,0,0,1-.29,1.393.942.942,0,0,1-1.45-.329A.984.984,0,0,1,693.145,188.24Z" transform="translate(-585.835 -181.422)" fill="#fff"/>
  <path id="Path_76747" data-name="Path 76747" d="M703.861,202.664a.479.479,0,0,1,.689.091.533.533,0,0,1-.087.724.479.479,0,0,1-.691-.093A.533.533,0,0,1,703.861,202.664Z" transform="translate(-594.598 -192.65)" fill="#fff"/>
  <path id="Path_76748" data-name="Path 76748" d="M635.322,185.471a.8.8,0,0,1,1.151.154.884.884,0,0,1-.145,1.2.8.8,0,0,1-1.151-.152A.886.886,0,0,1,635.322,185.471Z" transform="translate(-540.811 -179.125)" fill="#fff"/>
  <path id="Path_76749" data-name="Path 76749" d="M647.932,195.452c.178-.217.665.041.615.572s-.613.65-.732.392-.284-.453-.269-.524S647.731,195.686,647.932,195.452Z" transform="translate(-550.635 -187.024)" fill="#fff"/>
  <path id="Path_76750" data-name="Path 76750" d="M393.39,363.139a.832.832,0,0,1-1.207.113.925.925,0,0,1-.108-1.265.83.83,0,0,1,1.207-.113A.927.927,0,0,1,393.39,363.139Z" transform="translate(-350.363 -317.281)" fill="#fff"/>
  <path id="Path_76751" data-name="Path 76751" d="M378.012,352.4l.57.373.633-.236.078.7.57.371-.472.5.078.7-.667-.076-.472.5-.36-.594-.667-.076.219-.665-.36-.592.633-.236Z" transform="translate(-338.837 -310.024)" fill="#fff"/>
  <path id="Path_76752" data-name="Path 76752" d="M393.283,344.73l.444.288.494-.182.061.544.444.288-.368.39.061.544-.52-.058-.368.388-.28-.462-.52-.058.171-.518-.282-.464.492-.182Z" transform="translate(-350.947 -304.016)" fill="#fff"/>
  <path id="Path_76753" data-name="Path 76753" d="M391.455,232.787a.906.906,0,0,1-.585-1.112.852.852,0,0,1,1.064-.609.906.906,0,0,1,.583,1.114.854.854,0,0,1-1.062.607Z" transform="translate(-349.549 -214.955)" fill="#fff"/>
  <path id="Path_76754" data-name="Path 76754" d="M392.167,213.987l-.1.7.459.513-.579.353-.1.7-.626-.254-.581.355-.2-.672-.626-.254.375-.583-.2-.67.67-.056.377-.583.457.514Z" transform="translate(-348.754 -201.245)" fill="#fff"/>
  <path id="Path_76755" data-name="Path 76755" d="M406.589,225.3l-.076.542.358.4-.451.277-.076.542-.488-.2-.453.277-.156-.522-.488-.2.292-.453-.156-.522.522-.046.292-.453.358.4Z" transform="translate(-360.457 -210.182)" fill="#fff"/>
  <path id="Path_76756" data-name="Path 76756" d="M502.106,193.818a.52.52,0,0,1,.178.693.472.472,0,0,1-.661.184.52.52,0,0,1-.178-.691.472.472,0,0,1,.661-.186Z" transform="translate(-436.141 -185.752)" fill="#fff"/>
  <path id="Path_76757" data-name="Path 76757" d="M497.773,201.654l.141-.368-.184-.345.362-.115.141-.366.312.225.362-.113.026.394.31.228-.279.267.024.4-.373-.063-.28.267-.186-.345Z" transform="translate(-433.282 -191.007)" fill="#fff"/>
  <path id="Path_76758" data-name="Path 76758" d="M492.322,194.852l.111-.288-.143-.269.282-.087.111-.288.243.178.282-.089.02.308.243.178-.219.208.02.308-.29-.05-.219.208-.145-.269Z" transform="translate(-429.02 -185.884)" fill="#fff"/>
  <path id="Path_76759" data-name="Path 76759" d="M659.38,202.38a.635.635,0,1,1,.65.65A.65.65,0,0,1,659.38,202.38Z" transform="translate(-559.904 -192.026)" fill="#fff"/>
  <path id="Path_76760" data-name="Path 76760" d="M669.747,198.658l-.49.089-.238.457-.373-.345-.488.089.024-.518-.373-.345.405-.3.024-.52.479.141.4-.3.193.481.477.141-.236.455Z" transform="translate(-566.508 -188.375)" fill="#fff"/>
  <path id="Path_76761" data-name="Path 76761" d="M666.868,211.673l-.384.069-.184.355-.29-.269-.381.069.02-.4-.288-.269.314-.236.02-.405.371.11.316-.236.149.373.373.11-.186.355Z" transform="translate(-564.589 -198.84)" fill="#fff"/>
  <path id="Path_76762" data-name="Path 76762" d="M727.59,339.54a.635.635,0,1,1,.65.65A.65.65,0,0,1,727.59,339.54Z" transform="translate(-613.334 -299.465)" fill="#fff"/>
  <path id="Path_76763" data-name="Path 76763" d="M737.965,335.826l-.49.091-.236.457-.373-.345-.49.089.026-.52-.373-.342.4-.3.026-.52.477.141.4-.3.193.479.479.143-.238.455Z" transform="translate(-619.946 -295.822)" fill="#fff"/>
  <path id="Path_76764" data-name="Path 76764" d="M735.078,348.841l-.381.072-.186.355-.288-.269-.381.069.019-.405-.29-.267.314-.236.019-.405.373.111.314-.236.15.373.372.11-.184.355Z" transform="translate(-618.019 -306.287)" fill="#fff"/>
  <path id="Path_76765" data-name="Path 76765" d="M470.37,350a.635.635,0,1,1,.65.65A.65.65,0,0,1,470.37,350Z" transform="translate(-411.85 -307.659)" fill="#fff"/>
  <path id="Path_76766" data-name="Path 76766" d="M480.745,346.286l-.49.089-.238.457-.371-.345-.49.091.024-.52-.37-.345.4-.3.026-.518.477.141.4-.3.193.479.479.141-.238.457Z" transform="translate(-418.461 -304.016)" fill="#fff"/>
  <path id="Path_76767" data-name="Path 76767" d="M477.858,359.293l-.381.069-.186.355-.288-.269-.381.071.019-.405-.29-.269.314-.236.02-.4.373.108.314-.236.15.375.373.108-.186.355Z" transform="translate(-416.534 -314.473)" fill="#fff"/>
  <path id="Path_76768" data-name="Path 76768" d="M356.443,228.216l-.511.878.953.243-.953.243.511.878-.839-.533-.232,1-.234-1-.836.535.509-.878-.951-.243.951-.243-.509-.878.839.533.232-1,.232,1Z" transform="translate(-320.586 -212.384)" fill="#fff"/>
  <path id="Path_76769" data-name="Path 76769" d="M439.353,171.924l-.511.88.953.24-.953.245.511.878-.839-.533-.232,1-.232-1-.839.535.509-.878-.951-.243.951-.243-.509-.88.839.535.232-1,.232,1Z" transform="translate(-385.531 -168.291)" fill="#fff"/>
  <path id="Path_76770" data-name="Path 76770" d="M571.965,186.154l-.511.878.953.243-.953.243.509.878-.836-.533-.232,1-.234-1-.836.533.509-.878-.953-.243.953-.243-.511-.878.839.533.234-1,.232,1Z" transform="translate(-489.406 -179.437)" fill="#fff"/>
  <path id="Path_76771" data-name="Path 76771" d="M597.566,164.281l1.634-.9-.312,1.907,1.324,1.35-1.829.277-.817,1.733-.817-1.733-1.829-.277,1.324-1.35-.312-1.907Z" transform="translate(-509.412 -161.962)" fill="#fff"/>
  <path id="Path_76772" data-name="Path 76772" d="M277.083,331.282c-.4-.622-1.456-1.5-4.1-2.5a3.065,3.065,0,0,1,1.48,2.787,3.972,3.972,0,0,1-1.8-1.005,13.041,13.041,0,0,1,.238,2.277c-1.833-4.754-7.538-2.345-7.538-2.345s3.194.433,4.212,4.592a10.24,10.24,0,0,1,.217,2.657,24.6,24.6,0,0,1-.217,2.6,58.567,58.567,0,0,1-1.766,8.078,23.664,23.664,0,0,0-.273-5.476,3.945,3.945,0,0,1-1.018,2.282,33.867,33.867,0,0,0-1.021-9.372,16.062,16.062,0,0,1-.676,4.249,12.8,12.8,0,0,0-5.094-9.606c-1.493,14.5,8.83,36.979,8.83,36.979v16.29h-2.7l-.327-5.58h0l-.026-.462-.472-7.74c-6.657-10.323-7.4-38.611-7.4-38.611-2.917-.143-8.355,9.586-9.684,12.048-.193.358-.3.561-.3.561-.033-.178-.061-.358-.08-.537-.663-5.785,4.7-13.53,4.7-13.53a23.253,23.253,0,0,0-4.615,1.456l1.356-2.05c-2.206.353-6.321,4.206-6.451,4.334l1.356-2.791c-3.87.329-7.335,5.653-7.335,5.653-.745-13.372,15.213-12.843,15.213-12.843-.815-1.627-7.2-.41-7.2-.41l2.037-1.7c-3.25-1.629-8.082.338-8.082.338,5.027-12.019,17.25-.611,17.25-.611.137-18.472,12.351-13.651,12.351-13.651-3.87,1.083-6.111,6.11-6.111,6.11h2.919c-3.209,1.138-4.969,5.235-5.023,5.363l1.972-1.029c-1.257.769-1.7,4.258-1.7,4.258a11.406,11.406,0,0,1,9.781-5.653c6.724.085,7.062,5.653,7.062,5.653-.475-.984-3.8-1.664-3.8-1.664l.68,1.664c-.273-.576-4.347-.576-4.347-.576l.745,1.562c-5.569-1.428-6.111,1.018-6.111,1.018a25.76,25.76,0,0,1,9.235.867C278.3,326.491,277.289,330.6,277.083,331.282Z" transform="translate(-228.698 -274.526)" fill="#fff"/>
  <path id="Path_76773" data-name="Path 76773" d="M424.764,321.366c-.03.05-.056.1-.085.154l.128-.076C424.794,321.418,424.779,321.392,424.764,321.366Zm0,0c-.03.05-.056.1-.085.154l.128-.076C424.794,321.418,424.779,321.392,424.764,321.366Zm0,0c-.03.05-.056.1-.085.154l.128-.076C424.794,321.418,424.779,321.392,424.764,321.366Zm0,0c-.03.05-.056.1-.085.154l.128-.076C424.794,321.418,424.779,321.392,424.764,321.366Zm0,0c-.03.05-.056.1-.085.154l.128-.076C424.794,321.418,424.779,321.392,424.764,321.366Zm0,0c-.03.05-.056.1-.085.154l.128-.076C424.794,321.418,424.779,321.392,424.764,321.366Zm0,0c-.03.05-.056.1-.085.154l.128-.076C424.794,321.418,424.779,321.392,424.764,321.366Zm0,0c-.03.05-.056.1-.085.154l.128-.076C424.794,321.418,424.779,321.392,424.764,321.366Zm0,0c-.03.05-.056.1-.085.154l.128-.076C424.794,321.418,424.779,321.392,424.764,321.366Zm0,0c-.03.05-.056.1-.085.154l.128-.076C424.794,321.418,424.779,321.392,424.764,321.366Zm0,0c-.03.05-.056.1-.085.154l.128-.076C424.794,321.418,424.779,321.392,424.764,321.366Zm0,0c-.03.05-.056.1-.085.154l.128-.076C424.794,321.418,424.779,321.392,424.764,321.366Zm0,0c-.03.05-.056.1-.085.154l.128-.076C424.794,321.418,424.779,321.392,424.764,321.366Zm0,0c-.03.05-.056.1-.085.154l.128-.076C424.794,321.418,424.779,321.392,424.764,321.366Zm0,0c-.03.05-.056.1-.085.154l.128-.076C424.794,321.418,424.779,321.392,424.764,321.366Zm0,0c-.03.05-.056.1-.085.154l.128-.076C424.794,321.418,424.779,321.392,424.764,321.366Zm0,0c-.03.05-.056.1-.085.154l.128-.076C424.794,321.418,424.779,321.392,424.764,321.366Zm0,0c-.03.05-.056.1-.085.154l.128-.076C424.794,321.418,424.779,321.392,424.764,321.366Zm0,0c-.03.05-.056.1-.085.154l.128-.076C424.794,321.418,424.779,321.392,424.764,321.366Zm0,0c-.03.05-.056.1-.085.154l.128-.076C424.794,321.418,424.779,321.392,424.764,321.366Zm0,0c-.03.05-.056.1-.085.154l.128-.076C424.794,321.418,424.779,321.392,424.764,321.366Zm0,0c-.03.05-.056.1-.085.154l.128-.076C424.794,321.418,424.779,321.392,424.764,321.366ZM415.938,343.9h0v0Zm8.826-22.535c-.03.05-.056.1-.085.154l.128-.076C424.794,321.418,424.779,321.392,424.764,321.366Zm3.207-16.663-9.3,5.393-.293.171-3.6,2.087-.65.371-.5.29v52.9l-4.21,2.514V335.778l-10.035-6.5V375.36l-10.466,6.31h39.064l.371-54.024.019-2.964.037-5.38h0l.026-3.7h0l.015-2.293.035-5.086.026-3.822Zm-22.009,31.679,1.783,1.14v2.111l-1.783-1.04Zm0,3.887,1.783,1.138v2.1l-1.783-1.04Zm-2.327-5.348,1.783,1.14v2.1l-1.783-1.04Zm0,3.887,1.783,1.138v2.1l-1.783-1.04Zm0,3.762,1.783,1.138v2.1l-1.783-1.038Zm0,3.538,1.783,1.14v2.1l-1.783-1.04Zm-.555,5.441-1.857-1.083v-2.3l1.857,1.187Zm.061-3.614-1.783-1.04v-2.2l1.783,1.14Zm0-3.541-1.783-1.04V341.15l1.783,1.138Zm0-3.762-1.783-1.04v-2.2l1.783,1.14Zm0-3.887-1.783-1.038v-2.2l1.783,1.14Zm2.314,16.275-1.859-1.083v-2.3l1.859,1.187Zm.507-9,1.783,1.138v2.1l-1.783-1.04Zm1.918,10.52-1.857-1.083v-2.293l1.857,1.185Zm0-3.9-1.857-1.083v-2.3l1.857,1.187ZM426.571,320.4l-.433.253-1.335.789c-.013-.026-.028-.052-.043-.078-.03.05-.056.1-.085.154l-1.573.93-8.082,4.778V323.1l7.918-4.923,1.242-.771,2.384-1.43Zm-6.592-7.367.81-.481,5.79-3.6v4.468l-3.6,2.13-1.159.687-6.793,4.015v-4.117Zm6.592,28.555-11.547,6.823V344.29l.956-.594c-.128.433-.217.7-.24.8v-.022a.326.326,0,0,1,.02-.054l.043-.123.013-.039a.259.259,0,0,1,.03-.082l.02-.058c.013-.041.028-.087.045-.132l.02-.052v-.022a.309.309,0,0,1,.017-.048.41.41,0,0,1,.015-.048c.017-.048.035-.1.052-.152h0l10.542-6.555Zm0-6.969-9.337,5.519-.245.145-1.965,1.161v-4.117l3.484-2.167.557-.347,7.506-4.667Zm0-7.016-6.219,3.684h0l-.767.453-4.561,2.7v-4.117l6.5-4.039h0l1.194-.741,3.25-2.028.6-.371Zm-1.807-6.223c-.03.05-.056.1-.085.154l.128-.076a.542.542,0,0,0-.043-.087Zm0,0c-.03.05-.056.1-.085.154l.128-.076a.542.542,0,0,0-.043-.087Zm0,0c-.03.05-.056.1-.085.154l.128-.076a.542.542,0,0,0-.043-.087Zm0,0c-.03.05-.056.1-.085.154l.128-.076a.542.542,0,0,0-.043-.087Zm0,0c-.03.05-.056.1-.085.154l.128-.076a.542.542,0,0,0-.043-.087Zm0,0c-.03.05-.056.1-.085.154l.128-.076a.542.542,0,0,0-.043-.087Zm0,0c-.03.05-.056.1-.085.154l.128-.076a.542.542,0,0,0-.043-.087Zm0,0c-.03.05-.056.1-.085.154l.128-.076a.542.542,0,0,0-.043-.087Zm0,0c-.03.05-.056.1-.085.154l.128-.076a.542.542,0,0,0-.043-.087Zm0,0c-.03.05-.056.1-.085.154l.128-.076a.542.542,0,0,0-.043-.087Zm0,0c-.03.05-.056.1-.085.154l.128-.076a.542.542,0,0,0-.043-.087Zm0,0c-.03.05-.056.1-.085.154l.128-.076a.542.542,0,0,0-.043-.087Zm0,0c-.03.05-.056.1-.085.154l.128-.076a.542.542,0,0,0-.043-.087Zm0,0c-.03.05-.056.1-.085.154l.128-.076a.542.542,0,0,0-.043-.087Zm0,0c-.03.05-.056.1-.085.154l.128-.076a.542.542,0,0,0-.043-.087Zm0,0c-.03.05-.056.1-.085.154l.128-.076a.542.542,0,0,0-.043-.087Zm0,0c-.03.05-.056.1-.085.154l.128-.076a.542.542,0,0,0-.043-.087Zm0,0c-.03.05-.056.1-.085.154l.128-.076a.542.542,0,0,0-.043-.087Zm0,0c-.03.05-.056.1-.085.154l.128-.076a.542.542,0,0,0-.043-.087Zm0,0c-.03.05-.056.1-.085.154l.128-.076a.542.542,0,0,0-.043-.087Zm0,0c-.03.05-.056.1-.085.154l.128-.076a.542.542,0,0,0-.043-.087Zm0,0c-.03.05-.056.1-.085.154l.128-.076a.542.542,0,0,0-.043-.087Zm0,0c-.03.05-.056.1-.085.154l.128-.076a.542.542,0,0,0-.043-.087Z" transform="translate(-348.049 -272.425)" fill="#fff"/>
  <path id="Path_76774" data-name="Path 76774" d="M289.241,607.006,275.2,592.07s.776,10.314,2.05,14.94Z" transform="translate(-258.971 -497.761)" fill="#fff"/>
  <path id="Path_76775" data-name="Path 76775" d="M598.48,327.975l-.544,45.365-9.8-5.916-3.922-2.368V312.218l-2.043-1.337-.433-.288-1.647-1.083-.836-.548-9.968-6.531v77.7h40.046V334.9Zm-15.45-12.724v3.66l-3.1-1.807v-3.831l.555.355Zm-3.1,4.78,3.1,1.978v3.66l-3.1-1.807Zm-4.045-9.3,3.1,1.978v3.66l-.678-.4-2.42-1.411Zm0,6.756,1.454.93.845.54.8.511v3.668l-3.1-1.809Zm0,6.544,3.1,1.98v3.658l-3.1-1.807Zm0,6.156,3.1,1.981v3.658l-3.1-1.807Zm-2.739,2.089-1.22-.713v-3.831l.167.108,2.93,1.872v3.66l-.4-.232Zm-1.22-13.411v-3.831l3.1,1.98v3.658Zm3.1,4.691v3.66l-3.1-1.807v-3.831Zm-3.1-15.281.533.342,1.424.91,1.14.728v3.66l-3.1-1.809Zm2.992,31.382-3.231-1.883v-4l3.231,2.065Zm4.132,2.559-.6-.349-.085-.048h0l-2.548-1.486v-4l.362.23h0l2.871,1.831Zm.88-15.647,3.1,1.983v3.658l-3.1-1.807Zm3.337,18.295-3.233-1.885v-3.994l3.233,2.063Zm0-6.778-3.233-1.883v-4l3.233,2.065Zm22.663-2.42,2.143,1.369v2.531l-2.143-1.25Zm0,4.674,2.143,1.37v2.529l-2.143-1.25Zm-2.8-6.429,2.143,1.367v2.531l-2.143-1.239Zm0,4.672,2.143,1.369v2.531l-2.143-1.25Zm0,4.524,2.143,1.369v2.531l-2.143-1.25Zm0,4.258,2.143,1.369v2.529l-2.143-1.259Zm-.667,6.55-2.232-1.3v-2.765l2.232,1.426Zm.074-4.349-2.143-1.25v-2.646l2.143,1.369Zm0-4.256-2.143-1.25v-2.65l2.143,1.369Zm0-4.524-2.143-1.25v-2.65l2.143,1.369Zm0-4.674-2.143-1.25v-2.648l2.143,1.367Zm2.782,19.571-2.234-1.3v-2.765l2.234,1.419Zm.611-10.819,2.143,1.369v2.529l-2.143-1.25Zm2.3,12.65-2.234-1.3v-2.765l2.234,1.428Zm0-4.693-2.234-1.3v-2.758l2.234,1.428Z" transform="translate(-489.336 -270.881)" fill="#fff"/>
  <path id="Path_76776" data-name="Path 76776" d="M656.24,425.77v34l9.8,5.916.552-45.365Zm9.266,21.079-8.353,4.347v-3.057l8.353-4.4Zm0-4.839-8.353,4.347V443.3l8.353-4.4Zm0-5.144-8.353,4.345v-3.055l8.353-4.4Zm0-5.161-8.353,4.344v-3.055l8.353-4.4Zm0-4.832-8.353,4.347v-3.055l8.353-4.4Z" transform="translate(-557.445 -363.226)" fill="#fff"/>
  <path id="Path_76777" data-name="Path 76777" d="M397.612,667H287.584a2.762,2.762,0,0,0-.856.175c-.05.022-.1.043-.145.065a1.136,1.136,0,0,0-.113.061,1.516,1.516,0,0,0-.163.108,1.566,1.566,0,0,0-.152.115,2.377,2.377,0,0,0-.338.284,2.676,2.676,0,0,0-.514.7.156.156,0,0,1-.015.026.046.046,0,0,1,0,.017,2.687,2.687,0,0,0-.28,1.207,2.72,2.72,0,0,0,1.127,2.221,2.764,2.764,0,0,0,1.653.54h57.257a1.415,1.415,0,0,1,1.4,1.083,1.385,1.385,0,0,1-1.343,1.686h-39.97a2.54,2.54,0,0,0,0,5.079h24.052a1.278,1.278,0,0,1,1.3,1.164,1.237,1.237,0,0,1-1.237,1.32h-8.054a2.748,2.748,0,0,0-2.429,2.743v.022a2.712,2.712,0,0,0,.015.3,2.817,2.817,0,0,0,.78,1.651,2.7,2.7,0,0,0,1.924.806h16.431a1.541,1.541,0,1,1,0,3.081h-5.565a2.481,2.481,0,0,0-2.4,1.829,2.326,2.326,0,0,0-.091.65h0a2.3,2.3,0,0,0,.091.65,2.481,2.481,0,0,0,2.4,1.838h21.6a2.637,2.637,0,0,0,.264-.013,2.368,2.368,0,0,0,.462-.1,1.515,1.515,0,0,0,.173-.065.9.9,0,0,0,.147-.065,2.466,2.466,0,0,0,1.435-2.245h0a2.466,2.466,0,0,0-1.582-2.308.021.021,0,0,0-.022,0,1.228,1.228,0,0,0-.143-.052l-.041-.011a2.093,2.093,0,0,0-.433-.087,2.033,2.033,0,0,0-.258-.013h-8.414v-.039a1.5,1.5,0,0,1-.743-.416,1.545,1.545,0,0,1,.743-2.6v-.039h19.432a2.726,2.726,0,0,0,2.7-2.42,2.365,2.365,0,0,0,.017-.305v-.015a2.323,2.323,0,0,0-.017-.3,2.717,2.717,0,0,0-2.7-2.422H341.736a1.27,1.27,0,1,1,0-2.54h39.673a2.513,2.513,0,0,0,1.6-.57.49.49,0,0,0,.087-.078,2.5,2.5,0,0,0,.852-1.89,2.539,2.539,0,0,0-.743-1.8.628.628,0,0,0-.108-.093.48.48,0,0,0-.087-.078,2.5,2.5,0,0,0-1.6-.572H358.351a1.413,1.413,0,0,1-1.4-1.083,1.382,1.382,0,0,1,1.346-1.684h39.48a2.747,2.747,0,0,0,1.937-.748h0a2.791,2.791,0,0,0,.819-1.879A2.888,2.888,0,0,0,397.612,667Z" transform="translate(-266.655 -556.455)" fill="#fff"/>
  <path id="Path_76778" data-name="Path 76778" d="M266.19,821.18v4.165h19.257V821.18Zm7.07,5.664v16.434h5.114V826.844Z" transform="translate(-251.913 -677.226)" fill="#fff"/>
  <path id="Path_76779" data-name="Path 76779" d="M364.131,821.18H359.08l-9.85,22.1h5.242l1.6-3.876.353-.867h0l1.642-3.885h0l3.506-8.451,3.5,8.451h-.039l1.642,3.885h0l.321.771.035.087,1.6,3.877h5.372Zm-.65,13.478h-3.851l-1.642,3.885h7.151Z" transform="translate(-316.96 -677.226)" fill="#fff"/>
  <path id="Path_76780" data-name="Path 76780" d="M488.845,836.174a7.184,7.184,0,0,0,4.55-6.977c0-4.955-3.684-8.017-9.6-8.017H474.23v22.1h5.114V825.345h4.171c3.12,0,4.7,1.422,4.7,3.853s-1.58,3.861-4.7,3.861h-2.854v4.071h3.387l4.262,6.156H493.8Z" transform="translate(-414.874 -677.226)" fill="#fff"/>
  <path id="Path_76781" data-name="Path 76781" d="M581.31,821.18v8.713h5.114v-4.609H598.01v-4.1Zm0,9.944v12.154h5.114v-8.052h10.23v-4.1Z" transform="translate(-498.751 -677.226)" fill="#fff"/>
  <path id="Path_76782" data-name="Path 76782" d="M674.41,821.18v22.1h5.112v-22.1Z" transform="translate(-571.678 -677.226)" fill="#fff"/>
  <path id="Path_76783" data-name="Path 76783" d="M728.562,829.893v4.334h7.445v-4.334Zm8.789-8.713v8.713h-.091v4.334h.091v9.062h5.114v-22.1Zm-15.151,0v22.1h5.112v-22.1Z" transform="translate(-609.112 -677.226)" fill="#fff"/>
  <path id="Path_76784" data-name="Path 76784" d="M554.13,382.778l-.13.076c.028-.052.054-.1.085-.154C554.1,382.726,554.117,382.752,554.13,382.778Z" transform="translate(-477.359 -333.758)" fill="#1d1d1b"/>
  <path id="Path_76785" data-name="Path 76785" d="M513.007,485.53c-.163.47-.267.767-.3.852l.247-.821Z" transform="translate(-445.016 -414.306)" fill="#1d1d1b"/>
  <path id="Path_76786" data-name="Path 76786" d="M389.217,425.576l-.217.134V471.6h1.369l9.1-6.316V419.21Zm1.82,1.326,6.4-3.983V425.4l-6.4,3.783Zm0,3.868,6.4-3.981v2.485l-6.4,3.783Zm0,3.985,6.4-3.981v2.485l-6.4,3.783Zm0,3.889,6.4-3.98v2.485l-6.4,3.783Zm0,3.861,6.4-3.981v2.485l-6.4,3.783Z" transform="translate(-348.112 -362.357)" fill="#fff"/>
  <path id="Path_76787" data-name="Path 76787" d="M204.451,476.06s3.233-3.09,4.31-2.451c0,0-9.408,5.649-3.991,13.088,0,0,.017-4.366,2.124-6l.262,2.123s.951-3.864,2.108-4.908l-.017,1.692a15.78,15.78,0,0,1,2.124-2.57s-.217,6.886,2.585,9.855c0,0-.934-9.855,1.053-11.012,0,0,.479.693,1.3,1.827.1.143.217.3.334.464,0,0,12.2,18.563,18.167,24.013h3.543l-1.218-5.58s-15.3-13.582-19.346-18.953a8.534,8.534,0,0,1-.782-1.187,20.592,20.592,0,0,1-1.1-1.877,8.778,8.778,0,0,1,6.527,3.647,11.028,11.028,0,0,0-1.187-2.7,23.473,23.473,0,0,1,4.085,5.027,2.742,2.742,0,0,0-.247-1.684,16.915,16.915,0,0,1,2.18,3.034c-.1-.375-1.876-6.392-3.95-8.338a3.843,3.843,0,0,0-4.15-1.083s2.384-3.51,5.226-1.469a8.149,8.149,0,0,0-.982-1.211,2.8,2.8,0,0,0,2.832-1.17,3.177,3.177,0,0,0-4.381-2.219,18,18,0,0,0-5.658,2.945s-.6-1.612,3.153-2.865l-1.014-.622s2.355-1.517,2.73-1.3l-1.014-.7s2.167-.854,2.817-.464c0,0-2.275-3.088-6.193-.628a7.825,7.825,0,0,0-3.534,6.917s-1.005-2.106-.631-3.047l-.745,1.294s-.55-3.09.9-4.973l-1.684,1.083s-.583-3.733,1.246-5.809c0,0-8.858,1.779-2.043,12.5,0,0-11.315-2.026-9.736,6.791,0,0,2.05-2.936,4.54-3.207Z" transform="translate(-200.302 -392.93)" fill="#fff"/>
  <path id="Path_76788" data-name="Path 76788" d="M278.163,543.477h-.041a8.537,8.537,0,0,1-.782-1.187C277.6,542.687,277.875,543.094,278.163,543.477Z" transform="translate(-260.647 -458.767)" fill="#1d1d1b"/>
  <path id="Path_76789" data-name="Path 76789" d="M768.054,498.987c.689-2.015,9.253-28.488-9.554-44.817v44.817Z" transform="translate(-637.547 -389.742)" fill="#fff"/>
</svg>
