<svg xmlns="http://www.w3.org/2000/svg" width="15.113" height="14.977" viewBox="0 0 15.113 14.977">
  <g id="offer" transform="translate(-328 -129)">
    <path id="Path_79545" data-name="Path 79545" d="M21.527,17.512a.889.889,0,0,1,1.141.164.889.889,0,0,0,.91.267.889.889,0,0,1,1.049.479.889.889,0,0,0,.8.513.889.889,0,0,1,.872.755.889.889,0,0,0,.621.717.889.889,0,0,1,.623.97.889.889,0,0,0,.394.863.889.889,0,0,1,.325,1.106.889.889,0,0,0,.135.939.889.889,0,0,1,0,1.153.889.889,0,0,0-.135.939.889.889,0,0,1-.325,1.106.889.889,0,0,0-.394.863.889.889,0,0,1-.623.97.889.889,0,0,0-.621.717.889.889,0,0,1-.872.755.889.889,0,0,0-.8.513.889.889,0,0,1-1.049.479.889.889,0,0,0-.91.267.889.889,0,0,1-1.141.164.889.889,0,0,0-.949,0,.889.889,0,0,1-1.141-.164.889.889,0,0,0-.91-.267.889.889,0,0,1-1.049-.479.889.889,0,0,0-.8-.513.889.889,0,0,1-.872-.755.889.889,0,0,0-.621-.717.889.889,0,0,1-.623-.97.889.889,0,0,0-.394-.863.889.889,0,0,1-.325-1.106.889.889,0,0,0-.135-.939.889.889,0,0,1,0-1.153.889.889,0,0,0,.135-.939.889.889,0,0,1,.325-1.106.889.889,0,0,0,.394-.863.889.889,0,0,1,.623-.97.889.889,0,0,0,.621-.717.889.889,0,0,1,.872-.755.889.889,0,0,0,.8-.513.889.889,0,0,1,1.049-.479.889.889,0,0,0,.91-.267.889.889,0,0,1,1.141-.164.889.889,0,0,0,.949,0Z" transform="translate(314.504 111.625)" fill="#e91b24"/>
    <g id="Group_48622" data-name="Group 48622" transform="translate(330.749 133.388)">
      <path id="Path_79546" data-name="Path 79546" d="M142.415,153.95v2.35h-.785l-.588-1.935h-.035V156.3h-.477v-2.35h.805l.567,1.935h.035V153.95Z" transform="translate(-139.199 -153.95)" fill="#fff"/>
      <path id="Path_79547" data-name="Path 79547" d="M215.557,154.366v.549h.836v.408h-.836v.563H216.6v.415H215.08v-2.35H216.6v.415h-1.044Z" transform="translate(-211.353 -153.951)" fill="#fff"/>
      <path id="Path_79548" data-name="Path 79548" d="M268.758,153.95h.5l.29,1.942h.052l.422-1.942h.553l.422,1.942h.052l.29-1.942h.5l-.449,2.35h-.722l-.37-1.787-.37,1.787h-.722Z" transform="translate(-263.306 -153.95)" fill="#fff"/>
      <path id="Path_79549" data-name="Path 79549" d="M99.467,269.963a.722.722,0,0,1-.309-.392,2.064,2.064,0,0,1-.1-.686,2.109,2.109,0,0,1,.1-.693.747.747,0,0,1,.309-.4,1.288,1.288,0,0,1,1.141,0,.747.747,0,0,1,.309.4,2.562,2.562,0,0,1,0,1.37.731.731,0,0,1-.306.4,1.086,1.086,0,0,1-.577.133A1.105,1.105,0,0,1,99.467,269.963Zm.862-.365a.425.425,0,0,0,.149-.249,1.98,1.98,0,0,0,.043-.465,1.953,1.953,0,0,0-.045-.468.471.471,0,0,0-.15-.259.534.534,0,0,0-.577,0,.47.47,0,0,0-.15.259,1.95,1.95,0,0,0-.045.468,2.084,2.084,0,0,0,.038.442.461.461,0,0,0,.143.259.453.453,0,0,0,.3.09A.484.484,0,0,0,100.33,269.6Z" transform="translate(-99.063 -264.005)" fill="#fff"/>
      <path id="Path_79550" data-name="Path 79550" d="M172.9,269.365v.691h.836v.415H172.9v.829h-.477v-2.35h1.5v.415Z" transform="translate(-170.07 -265.255)" fill="#fff"/>
      <path id="Path_79551" data-name="Path 79551" d="M230.026,269.365v.691h.836v.415h-.836v.829h-.477v-2.35h1.5v.415Z" transform="translate(-225.357 -265.255)" fill="#fff"/>
      <path id="Path_79552" data-name="Path 79552" d="M287.147,269.364v.549h.836v.408h-.836v.563h1.044v.415H286.67v-2.35h1.521v.415h-1.044Z" transform="translate(-280.643 -265.254)" fill="#fff"/>
      <path id="Path_79553" data-name="Path 79553" d="M346.263,268.95h.912q.829,0,.829.774a.743.743,0,0,1-.346.677l.335.9h-.522l-.273-.788h-.46v.788h-.477v-2.35Zm.919,1.154a.308.308,0,0,0,.249-.1.411.411,0,0,0,.086-.275.388.388,0,0,0-.09-.271.324.324,0,0,0-.252-.1h-.436v.746Z" transform="translate(-338.321 -265.255)" fill="#fff"/>
    </g>
  </g>
</svg>
