<svg xmlns="http://www.w3.org/2000/svg" width="107.698" height="108.023" viewBox="0 0 107.698 108.023">
  <g id="otp" transform="translate(-0.769)">
    <g id="Group_48240" data-name="Group 48240" transform="translate(0.769)">
      <path id="Path_77597" data-name="Path 77597" d="M32.659,316.676A20.68,20.68,0,0,1,44.888,297.8l-.043-1.8H40.676a20.676,20.676,0,1,0,0,41.352H53.335A20.676,20.676,0,0,1,32.659,316.676Z" transform="translate(-15.943 -233.549)" fill="#cee1f2"/>
      <path id="Path_77598" data-name="Path 77598" d="M83.733,325.792H25.5c-32.991-1.256-32.966-48.548,0-49.792H38.167a4.22,4.22,0,0,1,0,8.439H25.5c-21.807.83-21.791,32.091,0,32.913H83.733c21.807-.83,21.791-32.091,0-32.913H69.379a4.22,4.22,0,0,1,0-8.439H83.733C116.724,277.256,116.7,324.548,83.733,325.792Zm-38.61-30.17A5.275,5.275,0,1,0,50.4,300.9,5.275,5.275,0,0,0,45.124,295.621ZM31.41,300.9a5.275,5.275,0,1,1-5.275-5.275A5.275,5.275,0,0,1,31.41,300.9Zm37.977,0a5.275,5.275,0,1,1-5.275-5.275A5.275,5.275,0,0,1,69.386,300.9Zm18.988,0a5.275,5.275,0,1,1-5.275-5.275A5.275,5.275,0,0,1,88.375,300.9Z" transform="translate(-0.769 -217.769)" fill="#3183c5"/>
      <path id="Path_77599" data-name="Path 77599" d="M198.888,53.8a5.275,5.275,0,1,1-5.275-5.275A5.275,5.275,0,0,1,198.888,53.8ZM196.052,0C190,0,183.8,3.143,179.036,8.624a4.22,4.22,0,1,0,6.368,5.538c3.162-3.637,7.043-5.722,10.648-5.722,6.108-.028,9.069,8.244,3.324,11.488a21.174,21.174,0,0,0-9.975,18.05,4.22,4.22,0,1,0,8.439,0,12.7,12.7,0,0,1,5.868-10.808c13.015-7.7,7-27.12-7.657-27.169Z" transform="translate(-140.608)" fill="#fccd14"/>
    </g>
  </g>
</svg>
