<svg id="privacy" xmlns="http://www.w3.org/2000/svg" xmlns:xlink="http://www.w3.org/1999/xlink" width="171.345" height="163.225" viewBox="0 0 171.345 163.225">
  <defs>
    <linearGradient id="linear-gradient" x1="0.507" y1="-0.558" x2="0.577" y2="-11.299" gradientUnits="objectBoundingBox">
      <stop offset="0" stop-color="#14548c"/>
      <stop offset="1" stop-color="#1a0f91"/>
    </linearGradient>
    <linearGradient id="linear-gradient-2" x1="0.234" y1="-0.287" x2="-1.049" y2="2.167" gradientUnits="objectBoundingBox">
      <stop offset="0" stop-color="#f3af0f"/>
      <stop offset="1" stop-color="#7e5a03"/>
    </linearGradient>
    <linearGradient id="linear-gradient-4" x1="2.196" y1="-7.684" x2="3.032" y2="-7.684" gradientUnits="objectBoundingBox">
      <stop offset="0" stop-color="#4f52ff"/>
      <stop offset="1" stop-color="#4042e2"/>
    </linearGradient>
    <linearGradient id="linear-gradient-5" x1="63.18" y1="-74.746" x2="64.661" y2="-74.746" xlink:href="#linear-gradient-4"/>
    <linearGradient id="linear-gradient-6" x1="56.348" y1="-83.089" x2="57.118" y2="-83.089" xlink:href="#linear-gradient-4"/>
    <linearGradient id="linear-gradient-7" x1="2.694" y1="-7.64" x2="3.576" y2="-7.64" xlink:href="#linear-gradient-4"/>
    <linearGradient id="linear-gradient-8" x1="80.2" y1="-59.673" x2="81.71" y2="-59.673" xlink:href="#linear-gradient-4"/>
    <linearGradient id="linear-gradient-9" x1="76.488" y1="-70.544" x2="77.273" y2="-70.544" xlink:href="#linear-gradient-4"/>
    <linearGradient id="linear-gradient-10" x1="3.625" y1="-13.964" x2="4.371" y2="-13.964" xlink:href="#linear-gradient-4"/>
    <linearGradient id="linear-gradient-11" x1="5.215" y1="-9.269" x2="6.3" y2="-9.269" xlink:href="#linear-gradient-4"/>
    <linearGradient id="linear-gradient-12" x1="120.881" y1="-65.485" x2="122.633" y2="-65.485" xlink:href="#linear-gradient-4"/>
    <linearGradient id="linear-gradient-13" x1="1.085" y1="-0.689" x2="0.934" y2="-0.414" gradientUnits="objectBoundingBox">
      <stop offset="0" stop-color="#09005d"/>
      <stop offset="1" stop-color="#1a0f91"/>
    </linearGradient>
    <linearGradient id="linear-gradient-14" x1="-2.98" y1="0.171" x2="-2.849" y2="1.72" gradientUnits="objectBoundingBox">
      <stop offset="0" stop-color="#ff928e"/>
      <stop offset="1" stop-color="#fe7062"/>
    </linearGradient>
    <linearGradient id="linear-gradient-15" x1="0.564" y1="-0.182" x2="0.198" y2="3.174" xlink:href="#linear-gradient-14"/>
    <linearGradient id="linear-gradient-16" x1="-8.671" y1="0.162" x2="-9.706" y2="0.923" gradientUnits="objectBoundingBox">
      <stop offset="0" stop-color="#e1473d"/>
      <stop offset="1" stop-color="#e9605a"/>
    </linearGradient>
    <linearGradient id="linear-gradient-17" x1="4.119" y1="-47.34" x2="3.122" y2="-43.136" gradientUnits="objectBoundingBox">
      <stop offset="0" stop-color="#53d8ff"/>
      <stop offset="1" stop-color="#3840f7"/>
    </linearGradient>
    <linearGradient id="linear-gradient-18" x1="-19.229" y1="0.5" x2="-18.227" y2="0.5" gradientUnits="objectBoundingBox">
      <stop offset="0" stop-color="#a22b25"/>
      <stop offset="1" stop-color="#c0423c"/>
    </linearGradient>
    <linearGradient id="linear-gradient-19" x1="2.675" y1="-48.467" x2="2.039" y2="-44.087" xlink:href="#linear-gradient-17"/>
    <linearGradient id="linear-gradient-20" x1="-19.326" y1="0.5" x2="-18.326" y2="0.5" xlink:href="#linear-gradient-18"/>
    <linearGradient id="linear-gradient-21" x1="1.519" y1="-1.602" x2="1.326" y2="-1.214" xlink:href="#linear-gradient-4"/>
    <linearGradient id="linear-gradient-22" x1="-16.274" y1="1.427" x2="-14.751" y2="1.427" xlink:href="#linear-gradient-18"/>
    <linearGradient id="linear-gradient-23" x1="-0.787" y1="-0.21" x2="-0.931" y2="1.394" xlink:href="#linear-gradient-4"/>
    <linearGradient id="linear-gradient-24" x1="-3.655" y1="-1.615" x2="-5.94" y2="1.548" xlink:href="#linear-gradient-18"/>
    <linearGradient id="linear-gradient-25" x1="-3.29" y1="-2.795" x2="-5.129" y2="5.664" xlink:href="#linear-gradient-18"/>
    <linearGradient id="linear-gradient-26" x1="3.406" y1="-0.816" x2="2.258" y2="-0.279" xlink:href="#linear-gradient-18"/>
    <linearGradient id="linear-gradient-27" x1="-8.626" y1="14.664" x2="-9.844" y2="15.959" xlink:href="#linear-gradient-18"/>
    <linearGradient id="linear-gradient-28" x1="-3.32" y1="-0.45" x2="-3.222" y2="2.181" xlink:href="#linear-gradient-13"/>
    <linearGradient id="linear-gradient-29" x1="-28.311" y1="47.585" x2="-25.609" y2="45.047" xlink:href="#linear-gradient-18"/>
  </defs>
  <g id="Illustration" transform="translate(0 0)">
    <path id="Path_81782" data-name="Path 81782" d="M572.7,1384.051a2.771,2.771,0,0,0,2.764,2.762H724.957a2.771,2.771,0,0,0,2.764-2.762l1.244-85.906a4.816,4.816,0,0,0-5.069-4.261L577.8,1290.1a6.966,6.966,0,0,0-7.148,7.125Z" transform="translate(-562.751 -1244.919)" fill="url(#linear-gradient)"/>
    <path id="Path_81783" data-name="Path 81783" d="M617.269,1432.125a2.623,2.623,0,0,0,2.615,2.615h143.3a2.623,2.623,0,0,0,2.615-2.615l1.174-77.987a6.436,6.436,0,0,0-6.747-6.28L620.211,1344.1a4.9,4.9,0,0,0-5.023,5.01Z" transform="translate(-604.587 -1295.645)" fill="url(#linear-gradient-2)"/>
    <g id="Group_50174" data-name="Group 50174" transform="translate(109.392 52.683)" opacity="0.37">
      <path id="Path_81784" data-name="Path 81784" d="M3069.105,2077.126h0a.206.206,0,0,1-.2-.209l.093-6.325a.212.212,0,0,1,.208-.2.207.207,0,0,1,.145.062.2.2,0,0,1,.058.146l-.093,6.325A.206.206,0,0,1,3069.105,2077.126Z" transform="translate(-3018.83 -2030.554)" fill="#fff"/>
      <path id="Path_81785" data-name="Path 81785" d="M2294.1,1444.836h0a.206.206,0,0,1-.2-.209l.355-24.223a4.721,4.721,0,0,0-1.353-3.538,6.615,6.615,0,0,0-4.365-1.5l-44.742-1.2a.206.206,0,0,1,.005-.412h0l44.729,1.2a7.025,7.025,0,0,1,4.654,1.609,5.121,5.121,0,0,1,1.48,3.837l-.356,24.227A.206.206,0,0,1,2294.1,1444.836Z" transform="translate(-2243.594 -1413.76)" fill="#fff"/>
    </g>
    <path id="Path_81786" data-name="Path 81786" d="M833.851,1518.062c-.151-6.445-.095-63.524.275-68.454s-7.307-5.854-19.094-6.409-111.238-2.751-113.8-2.958c-5.755-.467-7.978,1.957-6.37,26.815.905,14.01,1.15,37.147,1.48,47.777a5.867,5.867,0,0,0,5.852,5.686c23.933.065,115.659.328,121.765.51C830.983,1521.237,833.911,1520.618,833.851,1518.062Z" transform="translate(-678.949 -1385.906)" fill="#fff" opacity="0.37"/>
    <rect id="Rectangle_20521" data-name="Rectangle 20521" width="171.305" height="7.548" rx="3.774" transform="translate(171.345 146.278) rotate(180)" fill="url(#linear-gradient)"/>
    <rect id="Rectangle_20522" data-name="Rectangle 20522" width="116.671" height="9.739" rx="4.869" transform="translate(21.511 61.745)" fill="#fff" opacity="0.37"/>
    <rect id="Rectangle_20523" data-name="Rectangle 20523" width="126.605" height="9.739" rx="4.869" transform="translate(21.511 120.762)" fill="#fff" opacity="0.37"/>
    <rect id="Rectangle_20524" data-name="Rectangle 20524" width="68.367" height="11.881" transform="translate(79.749 106.738)" fill="#fff" opacity="0.37"/>
    <rect id="Rectangle_20525" data-name="Rectangle 20525" width="53.953" height="2.532" transform="translate(21.511 75.574)" fill="#fff"/>
    <rect id="Rectangle_20526" data-name="Rectangle 20526" width="53.953" height="2.532" transform="translate(21.511 79.86)" fill="#fff"/>
    <rect id="Rectangle_20527" data-name="Rectangle 20527" width="53.953" height="2.532" transform="translate(21.511 84.145)" fill="#fff"/>
    <rect id="Rectangle_20528" data-name="Rectangle 20528" width="53.953" height="30.19" transform="translate(21.511 88.43)" fill="#fff" opacity="0.53"/>
    <g id="Group_50175" data-name="Group 50175" transform="translate(126.345 3.707)" opacity="0.3">
      <path id="Path_81789" data-name="Path 81789" d="M2523.2,615.514a.606.606,0,0,1-.008-.814c.455-.515.938-1.019,1.438-1.5a.607.607,0,0,1,.86.019l.008.009a.607.607,0,0,1-.028.849c-.474.453-.934.931-1.366,1.421a.607.607,0,0,1-.859.054A.427.427,0,0,1,2523.2,615.514Zm3.928-3.559c-.016-.018-.031-.036-.045-.056a.607.607,0,0,1,.136-.849c.56-.4,1.142-.789,1.731-1.142a.608.608,0,0,1,.627,1.043c-.56.336-1.113.7-1.645,1.085A.607.607,0,0,1,2527.128,611.955Zm4.615-2.605a.607.607,0,0,1,.21-.971c.634-.269,1.287-.514,1.941-.728a.608.608,0,1,1,.377,1.157c-.622.2-1.242.436-1.845.691A.607.607,0,0,1,2531.742,609.35Zm5.081-1.508a.607.607,0,0,1,.343-1.009c.678-.121,1.37-.213,2.056-.275a.609.609,0,0,1,.11,1.213c-.652.061-1.31.147-1.954.262A.607.607,0,0,1,2536.824,607.842Zm5.291-.337a.607.607,0,0,1,.477-1.019c.687.033,1.382.1,2.066.187a.608.608,0,1,1-.161,1.206c-.65-.087-1.311-.146-1.964-.178A.607.607,0,0,1,2542.114,607.5Zm5.233.841a.607.607,0,0,1,.61-1c.663.182,1.327.4,1.973.639a.609.609,0,0,1-.425,1.141c-.613-.228-1.244-.433-1.875-.607A.607.607,0,0,1,2547.347,608.346Zm16.155,15.431a.606.606,0,0,1-.13-.222c-.2-.621-.437-1.241-.694-1.844a.608.608,0,1,1,1.119-.477c.271.635.517,1.289.731,1.941a.607.607,0,0,1-1.027.6Zm-11.241-13.452a.607.607,0,0,1,.737-.948c.607.328,1.205.685,1.781,1.064a.608.608,0,1,1-.667,1.017c-.546-.359-1.115-.7-1.691-1.01A.609.609,0,0,1,2552.26,610.325Zm9.034,8.634a.6.6,0,0,1-.073-.1c-.338-.56-.7-1.113-1.092-1.643a.608.608,0,0,1,.985-.715c.4.558.789,1.14,1.146,1.729a.607.607,0,1,1-.97.728Zm-4.686-5.608a.607.607,0,1,1,.849-.868c.517.454,1.021.937,1.5,1.434l.009.01a.608.608,0,1,1-.887.832c-.453-.473-.933-.931-1.423-1.363C2556.639,613.383,2556.623,613.368,2556.608,613.352Z" transform="translate(-2523.039 -606.485)" fill="url(#linear-gradient-4)"/>
      <path id="Path_81790" data-name="Path 81790" d="M3201.005,929.479a.607.607,0,0,1-.155-.329c-.042-.311-.092-.625-.147-.937a.608.608,0,0,1,1.2-.213c.061.326.111.658.155.985a.607.607,0,0,1-1.051.494Z" transform="translate(-3159.582 -908.023)" fill="url(#linear-gradient-5)"/>
    </g>
    <g id="Group_50176" data-name="Group 50176" transform="translate(120.536 29.51)" opacity="0.3">
      <path id="Path_81791" data-name="Path 81791" d="M3123.156,1227.382a.607.607,0,0,1-.03-.789c.2-.246.387-.5.573-.756a.608.608,0,1,1,.985.714c-.2.269-.4.537-.6.8a.607.607,0,0,1-.855.1A.537.537,0,0,1,3123.156,1227.382Z" transform="translate(-3080.788 -1213.829)" fill="url(#linear-gradient-6)"/>
      <path id="Path_81792" data-name="Path 81792" d="M2445.241,1111.051q-.284-.309-.56-.63a.609.609,0,0,1,.924-.794c.425.495.867.971,1.323,1.419a.608.608,0,1,1-.854.866C2445.791,1111.635,2445.511,1111.345,2445.241,1111.051Zm-2.482-3.2a.717.717,0,0,1-.061-.082c-.369-.57-.718-1.162-1.036-1.76a.608.608,0,0,1,1.073-.573c.3.568.634,1.13.985,1.672a.607.607,0,0,1-.958.743Zm5.745,6.15a.607.607,0,0,1,.812-.9c.515.385,1.054.752,1.6,1.092a.608.608,0,0,1-.643,1.031c-.576-.359-1.144-.746-1.686-1.153a.635.635,0,0,1-.084-.071Zm-8.079-10.815a.609.609,0,0,1-.121-.2c-.234-.636-.444-1.29-.624-1.942a.608.608,0,1,1,1.173-.323c.171.621.37,1.242.592,1.846a.607.607,0,0,1-1.019.623ZM2453,1116.632a.607.607,0,0,1,.7-.971c.587.261,1.193.5,1.8.714a.608.608,0,0,1-.4,1.149c-.641-.223-1.279-.476-1.9-.752A.607.607,0,0,1,2453,1116.632Zm4.967,1.586a.607.607,0,0,1,.568-1.008c.632.128,1.274.229,1.916.3a.608.608,0,1,1-.141,1.208c-.672-.078-1.351-.186-2.015-.32a.6.6,0,0,1-.327-.182Zm5.194.466a.607.607,0,0,1,.436-1.02c.645-.013,1.3-.053,1.935-.121a.61.61,0,0,1,.126,1.213c-.673.07-1.359.113-2.038.127a.607.607,0,0,1-.46-.2Zm5.171-.679a.607.607,0,0,1,.3-1c.626-.153,1.252-.335,1.862-.541a.608.608,0,0,1,.389,1.153c-.642.217-1.3.408-1.961.57a.606.606,0,0,1-.593-.178Zm4.9-1.8a.607.607,0,0,1,.177-.957c.575-.287,1.146-.6,1.7-.938a.608.608,0,0,1,.633,1.039c-.579.353-1.18.685-1.785.988A.611.611,0,0,1,2473.231,1116.208Zm4.381-2.828-.024-.029a.607.607,0,0,1,.088-.856c.368-.3.732-.613,1.08-.934q.189-.174.374-.351a.609.609,0,1,1,.843.878c-.13.124-.26.247-.393.369-.364.337-.749.667-1.136.982a.607.607,0,0,1-.831-.059Z" transform="translate(-2438.907 -1096.114)" fill="url(#linear-gradient-7)"/>
      <path id="Path_81793" data-name="Path 81793" d="M2427.546,1033.787a.606.606,0,0,1-.155-.332c-.043-.326-.08-.66-.11-.991a.609.609,0,0,1,1.213-.109c.028.315.061.632.1.942a.607.607,0,0,1-1.051.491Z" transform="translate(-2427.279 -1031.799)" fill="url(#linear-gradient-8)"/>
    </g>
    <path id="Path_81794" data-name="Path 81794" d="M2526.426,720.248a.285.285,0,0,0,.152.293l3.077,1.583a15.081,15.081,0,0,0,1.206,4.732l-1.941,2.862a.283.283,0,0,0,.007.33l2.488,3.323a.285.285,0,0,0,.315.1l3.293-1.057a15.073,15.073,0,0,0,4.2,2.492l.651,3.4a.285.285,0,0,0,.239.227l4.109.591a.284.284,0,0,0,.293-.152l1.583-3.078a15.075,15.075,0,0,0,4.732-1.206l2.862,1.941a.283.283,0,0,0,.33-.007l3.324-2.487a.284.284,0,0,0,.1-.314l-1.057-3.294a15.068,15.068,0,0,0,2.492-4.2l3.4-.65a.286.286,0,0,0,.228-.239l.591-4.109a.284.284,0,0,0-.152-.294l-3.078-1.582a15.074,15.074,0,0,0-1.206-4.732l1.941-2.862a.285.285,0,0,0-.008-.33l-2.488-3.323a.285.285,0,0,0-.315-.1l-3.289,1.056a15.081,15.081,0,0,0-4.2-2.487l-.651-3.4a.286.286,0,0,0-.239-.228l-4.109-.591a.284.284,0,0,0-.293.151l-1.583,3.078a15.079,15.079,0,0,0-4.732,1.206l-2.862-1.941a.284.284,0,0,0-.33.008l-3.324,2.487a.285.285,0,0,0-.1.315l1.057,3.293a15.075,15.075,0,0,0-2.49,4.2l-3.4.651a.286.286,0,0,0-.228.239Z" transform="translate(-2399.873 -692.922)" fill="#14548c"/>
    <path id="Path_81795" data-name="Path 81795" d="M2761,942.829a4.174,4.174,0,1,1,.446.419A4.237,4.237,0,0,1,2761,942.829Zm5.434-4.984a3.268,3.268,0,0,0-.346-.325,3.185,3.185,0,1,0,.346.325Z" transform="translate(-2619.183 -912.14)" fill="#91b3fa"/>
    <path id="Path_81796" data-name="Path 81796" d="M2675.3,852.941a10.383,10.383,0,0,1-.673-.811h0q-.1-.133-.2-.271a10.288,10.288,0,0,1-.833-1.417c0-.007-.006-.013-.01-.02l-.027-.061-.052-.112a.244.244,0,1,1,.443-.2,9.775,9.775,0,1,0,3.032-11.893q-.4.3-.764.635a9.747,9.747,0,0,0-2.427,3.482.243.243,0,0,1-.451-.182,10.261,10.261,0,1,1,1.954,10.852Z" transform="translate(-2537.865 -818.11)" fill="#91b3fa"/>
    <g id="Group_50177" data-name="Group 50177" transform="translate(100.552 0)" opacity="0.3">
      <path id="Path_81797" data-name="Path 81797" d="M2097.982,660.289a.375.375,0,0,1-.045-.448c.164-.274.34-.546.52-.809a.375.375,0,1,1,.619.425c-.172.251-.339.51-.5.771a.376.376,0,0,1-.516.128A.353.353,0,0,1,2097.982,660.289Z" transform="translate(-2097.883 -651.984)" fill="url(#linear-gradient-9)"/>
      <path id="Path_81798" data-name="Path 81798" d="M2126.2,551.353a.376.376,0,0,1,0-.5,16.387,16.387,0,0,1,1.158-1.179q.128-.117.259-.233a.389.389,0,0,1,.53.033.376.376,0,0,1-.033.531q-.126.11-.248.222a15.6,15.6,0,0,0-1.1,1.125.377.377,0,0,1-.558,0Zm2.929-2.58a.316.316,0,0,1-.033-.042.375.375,0,0,1,.1-.522,16.33,16.33,0,0,1,1.716-1.027.376.376,0,1,1,.345.667,15.513,15.513,0,0,0-1.638.98A.376.376,0,0,1,2129.128,548.773Zm3.466-1.793a.374.374,0,0,1,.147-.607,16.042,16.042,0,0,1,1.917-.574.376.376,0,0,1,.171.732,15.534,15.534,0,0,0-1.828.546.374.374,0,0,1-.407-.1Zm3.8-.886a.376.376,0,0,1,.237-.628,16.3,16.3,0,0,1,2-.087.376.376,0,0,1-.014.752,15.533,15.533,0,0,0-1.906.083.371.371,0,0,1-.32-.12Zm3.9.069a.376.376,0,0,1,.329-.627,16.421,16.421,0,0,1,1.959.4.377.377,0,1,1-.2.728,15.763,15.763,0,0,0-1.869-.382.375.375,0,0,1-.225-.12Zm3.766,1.014a.376.376,0,0,1,.418-.6,16.052,16.052,0,0,1,1.8.866.376.376,0,0,1-.364.656,15.432,15.432,0,0,0-1.718-.826.371.371,0,0,1-.139-.094Zm3.4,1.9a.376.376,0,0,1,.5-.557,16.237,16.237,0,0,1,1.535,1.283.376.376,0,0,1-.517.546,15.3,15.3,0,0,0-1.464-1.223.36.36,0,0,1-.055-.049Zm3.984,4.263a.417.417,0,0,1-.041-.053,15.59,15.59,0,0,0-.966-1.349c-.052-.065-.1-.13-.157-.193a.376.376,0,0,1,.05-.53.372.372,0,0,1,.53.05c.056.068.111.136.166.205a16.4,16.4,0,0,1,1.012,1.413.376.376,0,0,1-.594.457Z" transform="translate(-2124.389 -545.377)" fill="url(#linear-gradient-10)"/>
    </g>
    <g id="Group_50178" data-name="Group 50178" transform="translate(98.346 17.283)" opacity="0.3">
      <path id="Path_81799" data-name="Path 81799" d="M2073.877,884.2a.376.376,0,1,1,.55-.512,15.586,15.586,0,0,0,1.368,1.284.376.376,0,0,1-.48.578,16.364,16.364,0,0,1-1.434-1.347Zm-1.233-1.475-.026-.031a16.589,16.589,0,0,1-1.073-1.65.376.376,0,0,1,.654-.371,15.778,15.778,0,0,0,1.023,1.577.376.376,0,0,1-.579.478Zm4.186,3.926a.376.376,0,0,1,.479-.571,15.465,15.465,0,0,0,1.638.916.376.376,0,0,1-.327.678,16.253,16.253,0,0,1-1.717-.96.39.39,0,0,1-.075-.062Zm-6.081-7.266a.391.391,0,0,1-.071-.11,16.145,16.145,0,0,1-.642-1.861.376.376,0,1,1,.724-.2,15.53,15.53,0,0,0,.613,1.774.375.375,0,0,1-.624.4Zm9.535,8.931a.376.376,0,0,1,.4-.611,15.444,15.444,0,0,0,1.811.5.376.376,0,0,1-.155.736,16.4,16.4,0,0,1-1.9-.519.378.378,0,0,1-.153-.1Zm3.755.789a.376.376,0,0,1,.309-.629,15.65,15.65,0,0,0,1.876.048.376.376,0,0,1,.027.751,16.378,16.378,0,0,1-1.967-.05.376.376,0,0,1-.243-.122Zm3.836-.135a.367.367,0,0,1-.094-.2.376.376,0,0,1,.313-.43,15.328,15.328,0,0,0,1.833-.4.376.376,0,1,1,.206.722,16.291,16.291,0,0,1-1.922.425.376.376,0,0,1-.334-.12Z" transform="translate(-2069.506 -874.104)" fill="url(#linear-gradient-11)"/>
      <path id="Path_81800" data-name="Path 81800" d="M2061.736,831.812a.373.373,0,0,1-.095-.2c-.048-.318-.086-.639-.115-.954a.376.376,0,0,1,.749-.067c.027.3.061.607.109.91a.376.376,0,0,1-.648.31Z" transform="translate(-2061.525 -830.25)" fill="url(#linear-gradient-12)"/>
    </g>
    <path id="Path_81801" data-name="Path 81801" d="M2127.37,621.258a.19.19,0,0,0,.1.2l2.058,1.059a10.077,10.077,0,0,0,.807,3.167l-1.3,1.915a.189.189,0,0,0,0,.221l1.665,2.224a.19.19,0,0,0,.21.067l2.2-.707a10.075,10.075,0,0,0,2.811,1.667l.436,2.275a.19.19,0,0,0,.159.152l2.75.4a.19.19,0,0,0,.2-.1l1.059-2.063a10.083,10.083,0,0,0,3.167-.807l1.915,1.3a.191.191,0,0,0,.221,0l2.224-1.665a.191.191,0,0,0,.068-.211l-.708-2.2a10.088,10.088,0,0,0,1.667-2.811l2.274-.436a.19.19,0,0,0,.153-.16l.4-2.749a.19.19,0,0,0-.1-.2l-2.06-1.059a10.087,10.087,0,0,0-.805-3.164l1.3-1.915a.189.189,0,0,0-.005-.221l-1.664-2.224a.191.191,0,0,0-.211-.067l-2.2.707a10.074,10.074,0,0,0-2.812-1.667l-.436-2.275a.19.19,0,0,0-.159-.152l-2.75-.4a.19.19,0,0,0-.2.1l-1.059,2.063a10.092,10.092,0,0,0-3.167.807l-1.915-1.3a.19.19,0,0,0-.221,0l-2.223,1.665a.189.189,0,0,0-.067.211l.707,2.2a10.117,10.117,0,0,0-1.667,2.811l-2.274.436a.19.19,0,0,0-.152.16Z" transform="translate(-2025.027 -605.467)" fill="#14548c"/>
    <path id="Path_81802" data-name="Path 81802" d="M2283.452,769.262a2.851,2.851,0,1,1,.307.288A2.851,2.851,0,0,1,2283.452,769.262Zm3.637-3.337a2.18,2.18,0,0,0-.224-.211,2.091,2.091,0,1,0-2.633,3.25h0a2.091,2.091,0,0,0,2.854-3.036Z" transform="translate(-2170.937 -751.189)" fill="#91b3fa"/>
    <path id="Path_81803" data-name="Path 81803" d="M2223.572,706.9a6.982,6.982,0,0,1-.46-.554,7.13,7.13,0,0,1-.74-1.236l-.027-.061a.376.376,0,1,1,.683-.313,6.338,6.338,0,0,0,.689,1.158h0l.045.061a6.263,6.263,0,0,0,2.427,1.924,6.388,6.388,0,0,0,1.638.48h.014l.043.006a6.286,6.286,0,0,0,4.693-1.2,6.451,6.451,0,0,0,.5-.416,6.328,6.328,0,0,0-8.088-9.712,6.169,6.169,0,0,0-.493.412,6.306,6.306,0,0,0-1.57,2.254.363.363,0,0,1-.094.134.376.376,0,0,1-.6-.419,7.063,7.063,0,0,1,1.756-2.522q.264-.243.553-.459a7.079,7.079,0,0,1,9.044,10.869q-.267.243-.56.465A7.089,7.089,0,0,1,2223.572,706.9Z" transform="translate(-2114.108 -685.943)" fill="#91b3fa"/>
    <path id="Path_81804" data-name="Path 81804" d="M888.906,1092.565a10.642,10.642,0,0,1,6.06-8.918l45.156-21.447a10.653,10.653,0,0,1,9.14,0l45.157,21.447a10.64,10.64,0,0,1,6.06,8.918c4.236,65.473-37.745,89.329-51.507,95.355a10.665,10.665,0,0,1-8.56,0C926.651,1181.894,884.67,1158.039,888.906,1092.565Z" transform="translate(-861.419 -1029.879)" fill="url(#linear-gradient-13)"/>
    <path id="Path_81805" data-name="Path 81805" d="M1865.052,1130.586a.508.508,0,0,1-.22-.05l-10.67-5.068a.515.515,0,1,1,.442-.931l10.67,5.068a.515.515,0,0,1-.221.981Z" transform="translate(-1768.12 -1089.355)" fill="#91b3fa"/>
    <path id="Path_81806" data-name="Path 81806" d="M2132.558,1274.635h-.018a.516.516,0,0,1-.5-.532c.142-4.22.067-8.621-.221-13.082a6.444,6.444,0,0,0-3.672-5.4l-30.377-14.427a.515.515,0,1,1,.441-.931l30.377,14.427a7.475,7.475,0,0,1,4.258,6.258c.29,4.494.364,8.93.222,13.183A.515.515,0,0,1,2132.558,1274.635Z" transform="translate(-1996.951 -1198.063)" fill="#91b3fa"/>
    <path id="Path_81807" data-name="Path 81807" d="M1070.912,1271.283a2.661,2.661,0,0,1,1.517-2.267l42.214-20.049a2.656,2.656,0,0,1,2.278,0l42.214,20.049a2.661,2.661,0,0,1,1.514,2.267c1.249,24.424-4.393,44.8-16.779,60.6a74.877,74.877,0,0,1-26.964,21.505,2.66,2.66,0,0,1-2.245,0,74.882,74.882,0,0,1-26.963-21.505C1075.3,1316.084,1069.666,1295.706,1070.912,1271.283Z" transform="translate(-1032.505 -1206.04)" fill="#3183c5"/>
    <path id="Path_81808" data-name="Path 81808" d="M1546.974,1575.676h4.207v-16.763a13.052,13.052,0,0,0-11.466-12.945l-8.6-1.045a13.039,13.039,0,0,0-14.612,12.945V1572.5h4.207v-14.638a8.834,8.834,0,0,1,9.9-8.768l8.6,1.045a8.841,8.841,0,0,1,7.766,8.768Z" transform="translate(-1451.219 -1484.193)" fill="url(#linear-gradient-14)"/>
    <path id="Path_81809" data-name="Path 81809" d="M1494.928,1959.562l-36.881-2.043a2.614,2.614,0,0,0-2.758,2.609v29.217a2.613,2.613,0,0,0,2.613,2.613H1493.9a2.613,2.613,0,0,0,2.609-2.528l.886-27.174A2.614,2.614,0,0,0,1494.928,1959.562Z" transform="translate(-1393.723 -1871.844)" fill="url(#linear-gradient-15)"/>
    <path id="Path_81810" data-name="Path 81810" d="M1701.358,2093.479l2.231-6.417a2.15,2.15,0,0,0-.485-2.216,6.076,6.076,0,1,1,8.151.454,2.166,2.166,0,0,0-.7,2.394l2.012,5.786a2.166,2.166,0,0,1-2.045,2.877H1703.4a2.166,2.166,0,0,1-2.045-2.877Z" transform="translate(-1624.75 -1981.734)" fill="url(#linear-gradient-16)"/>
    <path id="Path_81811" data-name="Path 81811" d="M456.1,3157.931a9.135,9.135,0,0,0-.829,3.968.476.476,0,0,0,.473.5h5.181a.3.3,0,0,0,.291-.4,8.292,8.292,0,0,0-3.27-4.341Z" transform="translate(-454.368 -2999.178)" fill="url(#linear-gradient-17)"/>
    <path id="Path_81812" data-name="Path 81812" d="M465.23,3125.271l.293,2.458a.463.463,0,0,0,.4.406,4.079,4.079,0,0,0,1.092-.01.759.759,0,0,0,.626-.753V3125Z" transform="translate(-463.728 -2968.5)" fill="url(#linear-gradient-18)"/>
    <path id="Path_81813" data-name="Path 81813" d="M665.206,3157.66a7.234,7.234,0,0,0-.971,3.658.916.916,0,0,0,.921.9H673.2a.386.386,0,0,0,.221-.7,35.043,35.043,0,0,0-6.679-3.852Z" transform="translate(-650.659 -2999.178)" fill="url(#linear-gradient-19)"/>
    <path id="Path_81814" data-name="Path 81814" d="M666.58,3095.678l.625,3.033a.626.626,0,0,0,.74.492,2.255,2.255,0,0,0,.707-.3.717.717,0,0,0,.319-.731l-.646-3.677Z" transform="translate(-652.862 -2939.85)" fill="url(#linear-gradient-20)"/>
    <path id="Path_81815" data-name="Path 81815" d="M443.117,2418.46a8.7,8.7,0,0,0-2.583,4.219c-.409,2.305,1.159,39.773,1.159,39.773a6.062,6.062,0,0,0,3.294-.317s1.329-24.316,2.339-29.935c0,0,5.3,25.188,6.764,29.739a6.89,6.89,0,0,0,2.769-.143s-1.387-32.651-3.131-38.457Z" transform="translate(-440.466 -2304.824)" fill="#7d97f4"/>
    <path id="Path_81816" data-name="Path 81816" d="M502.894,2549.246a.287.287,0,0,0,.278-.36l-.923-3.541a.287.287,0,0,0-.121-.17l-1.994-1.279a.288.288,0,1,0-.311.485l1.9,1.219.895,3.432A.287.287,0,0,0,502.894,2549.246Z" transform="translate(-496.097 -2422.607)" fill="#91b3fa"/>
    <path id="Path_81817" data-name="Path 81817" d="M627.8,2028.16c-8.5,3.458-9.78,6.23-9.78,6.23l7.06,4.2s7.937-4.224,11.437-11.564a15.79,15.79,0,0,1-4.042-2.268A12.12,12.12,0,0,1,627.8,2028.16Z" transform="translate(-607.248 -1935.009)" fill="url(#linear-gradient-21)"/>
    <path id="Path_81818" data-name="Path 81818" d="M858.329,1774.369a.281.281,0,0,0-.525.146l.086,2.75a2.592,2.592,0,0,0,.514,1.471l1.02,1.108a2.5,2.5,0,0,1,.446,2.008,17.411,17.411,0,0,1-3.57,7.574,15.724,15.724,0,0,0,4.042,2.268,15.773,15.773,0,0,0,1.45-9.282,1.225,1.225,0,0,0,.22-1.476Z" transform="translate(-831.072 -1699.675)" fill="url(#linear-gradient-22)"/>
    <path id="Path_81819" data-name="Path 81819" d="M495.246,2039.121c-3.221-3.47-9.356-5.035-12.908-5.682a3.258,3.258,0,0,0-3.64,2.066c-1.6,4.3-5.945,15.475-6.788,17.4-.691,1.577-1.413,3.115-1.872,4.077a1.153,1.153,0,0,0,.539,1.54,84.512,84.512,0,0,0,10.545,3.706.748.748,0,0,0,.957-.72,2.334,2.334,0,0,1,.334-1.2l8.256-13.758c5.146,5.706,9.653,6.227,13.115,4.979a26.055,26.055,0,0,1-1.146-5.407C497.522,2045.24,495.246,2039.121,495.246,2039.121Z" transform="translate(-468.137 -1943.111)" fill="url(#linear-gradient-23)"/>
    <path id="Path_81820" data-name="Path 81820" d="M1017.583,2208.391l-.923-1.231c-2.988,2.052-5.486,2.539-7.531,2.188a26.066,26.066,0,0,0,1.146,5.407C1014.836,2213.11,1017.583,2208.391,1017.583,2208.391Z" transform="translate(-974.63 -2106.343)" fill="url(#linear-gradient-24)"/>
    <path id="Path_81821" data-name="Path 81821" d="M1129.848,2186.977l5.2.2,4.787-2.674c-.687-.431-4.573.45-4.573.45s-4.065-.614-5.162-.616c-.913,0-.782,1.312-.712,1.759.014.091.026.146.026.146Z" transform="translate(-1087.545 -2084.908)" fill="url(#linear-gradient-25)"/>
    <path id="Path_81822" data-name="Path 81822" d="M712.6,1929.21l-2.743,6.695s3.155,2.184,5.688,1.974l1.369-6.02Z" transform="translate(-693.516 -1845.256)" fill="url(#linear-gradient-26)"/>
    <path id="Path_81823" data-name="Path 81823" d="M757.122,1847.9c.061.089,1.985,7.032,1.985,7.032l-3.988,1.013-2.8-6.31S756.07,1846.411,757.122,1847.9Z" transform="translate(-733.4 -1768.512)" fill="url(#linear-gradient-27)"/>
    <path id="Path_81824" data-name="Path 81824" d="M722.539,1808.727l1.213,3.438a.516.516,0,0,0,.061.121c.165.233.789,1,1.532.309a4.585,4.585,0,0,1,1.873-1.285.508.508,0,0,1,.579.364,22.016,22.016,0,0,1,.671,3.35.509.509,0,0,1-.413.546,16.463,16.463,0,0,1-3.809.317.511.511,0,0,1-.43-.3c-.38-.83-1.544-3.349-1.977-4-.406-.612-1.4-.594-1.82-.558a.5.5,0,0,1-.375-.121,1.32,1.32,0,0,1-.083-2.117.51.51,0,0,0-.012-.734,1.323,1.323,0,0,1-.169-1.965,1.866,1.866,0,0,1,2.227-.533.508.508,0,0,0,.613-.226.4.4,0,0,1,.416-.194.5.5,0,0,0,.535-.514,1.52,1.52,0,0,1,1.175-1.586c1.742-.542,2.828,1.141,2.936,2.4s-1.815,1.736-2.945,1.652c-.859-.065-1.5.789-1.754,1.2A.5.5,0,0,0,722.539,1808.727Z" transform="translate(-702.118 -1726.643)" fill="url(#linear-gradient-28)"/>
    <path id="Path_81825" data-name="Path 81825" d="M735.1,1930.649s-.281-2.18-1.188-2.287-1.79.636-.888,1.862C734.141,1931.747,735.1,1930.649,735.1,1930.649Z" transform="translate(-714.917 -1844.45)" fill="url(#linear-gradient-29)"/>
  </g>
</svg>
