<svg xmlns="http://www.w3.org/2000/svg" width="26" height="24" viewBox="0 0 26 24">
  <g id="profile" transform="translate(-324 -282)">
    <rect id="Rectangle_20538" data-name="Rectangle 20538" width="26" height="24" rx="8" transform="translate(324 282)" fill="#f893b5"/>
    <g id="svgexport-7_-_2022-12-25T110933.537" data-name="svgexport-7 - 2022-12-25T110933.537" transform="translate(331 288)">
      <path id="Path_82136" data-name="Path 82136" d="M.93,12.158a.531.531,0,0,0,1.063,0,4.747,4.747,0,0,1,2.762-4.32,3.7,3.7,0,0,0,4.046,0,4.848,4.848,0,0,1,1.355.943,4.751,4.751,0,0,1,1.4,3.381.531.531,0,0,0,1.063,0,5.807,5.807,0,0,0-1.712-4.132,5.884,5.884,0,0,0-1.26-.948,3.72,3.72,0,1,0-5.75,0A5.81,5.81,0,0,0,.93,12.158Zm5.844-10.1A2.657,2.657,0,1,1,4.117,4.719,2.66,2.66,0,0,1,6.774,2.063Z" transform="translate(-0.93 -1)" fill="#fff"/>
    </g>
  </g>
</svg>
