<svg id="seal" xmlns="http://www.w3.org/2000/svg" width="15" height="15" viewBox="0 0 15 15">
  <g id="Group_48631" data-name="Group 48631">
    <circle id="Ellipse_7874" data-name="Ellipse 7874" cx="7.5" cy="7.5" r="7.5" fill="#f298c4"/>
    <path id="Path_79554" data-name="Path 79554" d="M65.453,73.173l-.453.44-.607-.59-1.475,1.433.609.592-5.033,4.891,5.469,5.314.2,0A7.272,7.272,0,0,0,71.444,79Z" transform="translate(-57.494 -72.023)" fill="#e570b3"/>
    <g id="Group_48632" data-name="Group 48632" transform="translate(1.309 1.422)">
      <path id="Path_79555" data-name="Path 79555" d="M315.6,151.061a4.069,4.069,0,0,0-.41-.8l-.2.141.056.314a4.044,4.044,0,0,1,.386,1.02l.154.253.259.042A3.987,3.987,0,0,0,315.6,151.061Z" transform="translate(-307.572 -146.552)" fill="#4652ca"/>
      <g id="Group_48629" data-name="Group 48629" transform="translate(1.69 1.578)">
        <path id="Path_79556" data-name="Path 79556" d="M62.605,55.645a.576.576,0,0,0,0,.815l-1.571,1.95-2.542,2.162V59.152h.652V58.5H59.8v-.652h.652l.56-.56a1.822,1.822,0,0,1,2.9-2.133l-.063.443-.428.048A.577.577,0,0,0,62.605,55.645Z" transform="translate(-58.493 -54.621)" fill="#fcc515"/>
        <path id="Path_79557" data-name="Path 79557" d="M63.912,81.061a1.825,1.825,0,0,1-2.133.326L59.262,83.9h-.769l4.112-4.112a.576.576,0,0,0,.815,0,.564.564,0,0,0,.091-.119l.073-.362a.567.567,0,0,0-.164-.334l.491-.492A1.824,1.824,0,0,1,63.912,81.061Z" transform="translate(-58.493 -77.952)" fill="#fa0"/>
      </g>
      <g id="Group_48630" data-name="Group 48630" transform="translate(5.604 5.057)">
        <path id="Path_79558" data-name="Path 79558" d="M235.425,212.093a.419.419,0,0,1,.419-.419l.153-.587-.153-.667-2.068,1.475v.662l.356-.254v2.648h1.712l.277-1.123-.277-1.317A.419.419,0,0,1,235.425,212.093Z" transform="translate(-233.776 -210.42)" fill="#e1e6ef"/>
        <path id="Path_79559" data-name="Path 79559" d="M328.111,212.3l.356.254v-.662L326.4,210.42v1.254a.409.409,0,0,1,.171.037l.24.3a.461.461,0,0,1,.008.078.419.419,0,0,1-.419.419v2.439h1.712Z" transform="translate(-324.331 -210.42)" fill="#cfd7e5"/>
      </g>
      <path id="Path_79560" data-name="Path 79560" d="M240.27,116.225c-.447.843-1.407-.7-1.546-1.17-.294-.7-.481-2.278.412-1.878a.576.576,0,0,0,.073-.362c-1.35-.43-1.191,1.542-.82,2.37.273.771,1.3,2.3,2.121,1.345A.419.419,0,0,0,240.27,116.225Z" transform="translate(-232.429 -109.877)" fill="#4652ca"/>
    </g>
  </g>
</svg>
