<svg xmlns="http://www.w3.org/2000/svg" width="26" height="24" viewBox="0 0 26 24">
  <g id="settings" transform="translate(-325 -418)">
    <g id="setting" transform="translate(1 136)">
      <path id="Path_82139" data-name="Path 82139" d="M8,0H18a8,8,0,0,1,8,8v8a8,8,0,0,1-8,8H8a8,8,0,0,1-8-8V8A8,8,0,0,1,8,0Z" transform="translate(324 282)" fill="#dc91fa"/>
    </g>
    <g id="Layer_2" data-name="Layer 2" transform="translate(333 425)">
      <path id="Path_72819" data-name="Path 72819" d="M11.061,5.383a1.4,1.4,0,0,1-1.1-1.89.656.656,0,0,0-.2-.738,5.261,5.261,0,0,0-1.569-.909.66.66,0,0,0-.745.207,1.394,1.394,0,0,1-2.2,0,.66.66,0,0,0-.745-.207,5.285,5.285,0,0,0-1.462.82.663.663,0,0,0-.207.76A1.391,1.391,0,0,1,1.678,5.337a.66.66,0,0,0-.578.531,5.043,5.043,0,0,0-.1,1,5.107,5.107,0,0,0,.068.838.66.66,0,0,0,.581.553,1.391,1.391,0,0,1,1.134,1.965A.649.649,0,0,0,2.965,11a5.3,5.3,0,0,0,1.555.9.713.713,0,0,0,.225.039.656.656,0,0,0,.535-.278,1.38,1.38,0,0,1,1.141-.6,1.4,1.4,0,0,1,1.12.564.656.656,0,0,0,.77.218,5.35,5.35,0,0,0,1.427-.852.66.66,0,0,0,.193-.753,1.391,1.391,0,0,1,1.116-1.922.66.66,0,0,0,.56-.542,5.171,5.171,0,0,0,.093-.9,5.121,5.121,0,0,0-.089-.953.653.653,0,0,0-.549-.53ZM8.133,6.867A1.783,1.783,0,1,1,6.35,5.084,1.783,1.783,0,0,1,8.133,6.867Z" transform="translate(-1 -1.804)" fill="#fff"/>
    </g>
  </g>
</svg>
