<svg xmlns="http://www.w3.org/2000/svg" width="26" height="24" viewBox="0 0 26 24">
  <g id="Group_50532" data-name="Group 50532" transform="translate(-325 -532)">
    <g id="sigOut" transform="translate(1 250)">
      <rect id="Rectangle_20538" data-name="Rectangle 20538" width="26" height="24" rx="8" transform="translate(324 282)" fill="#3183c5"/>
    </g>
    <g id="Group_46299" data-name="Group 46299" transform="translate(332 538)">
      <path id="Path_72807" data-name="Path 72807" d="M127.363,167.135v1.128a2.255,2.255,0,0,0,2.255,2.255h5.638a2.255,2.255,0,0,0,2.255-2.255V161.5a2.255,2.255,0,0,0-2.255-2.255h-5.638a2.255,2.255,0,0,0-2.255,2.255v1.128a.564.564,0,0,0,1.128,0V161.5a1.128,1.128,0,0,1,1.128-1.128h5.638a1.128,1.128,0,0,1,1.128,1.128v6.766a1.127,1.127,0,0,1-1.128,1.128h-5.638a1.128,1.128,0,0,1-1.128-1.128v-1.128a.564.564,0,0,0-1.128,0Zm4.277-2.819-.729-.728a.564.564,0,0,1,.8-.8l1.691,1.691a.564.564,0,0,1,0,.8l-1.691,1.691a.564.564,0,0,1-.8-.8l.729-.729H126.8a.564.564,0,1,1,0-1.128Z" transform="translate(-126.235 -159.242)" fill="#fff"/>
    </g>
  </g>
</svg>
